<?xml version="1.0" encoding="UTF-8"?>
<svg id="Layer_1" data-name="Layer 1" xmlns="http://www.w3.org/2000/svg" viewBox="0 0 437.54 457.13">
  <defs>
    <style>
      .cls-1 {
        fill: #fff;
      }

      .cls-2 {
        fill: #fafafa;
      }

      .cls-3 {
        fill: #f5f5f5;
      }

      .cls-4 {
        fill: #1c1c1c;
      }

      .cls-5 {
        stroke: #d2d5d4;
      }

      .cls-5, .cls-6 {
        fill: none;
        stroke-miterlimit: 10;
        stroke-width: .25px;
      }

      .cls-7 {
        fill: #e1e1e1;
      }

      .cls-8 {
        opacity: .3;
      }

      .cls-9 {
        fill: #a442d6;
      }

      .cls-10 {
        opacity: .6;
      }

      .cls-11 {
        fill: #e5e5e5;
      }

      .cls-6 {
        stroke: #bcbcbc;
      }

      .cls-12 {
        fill: #191919;
      }

      .cls-13 {
        fill: #ececec;
      }
    </style>
  </defs>
  <path class="cls-7" d="m156.82,107.8c.54-1.3.98-2.63,1.31-4,.36-1.59.48-3.22.35-4.84-.16-2.15-.72-4.24-1.66-6.18-2.47-5.1-7.37-8.61-13-9.3-1.59-.21-3.21-.18-4.79.11-.82.13-1.63.32-2.42.57-.8.28-1.58.61-2.34,1-6.53,3.25-10.18,10.37-9,17.57.24,1.66.75,3.28,1.53,4.77.7,1.46,1.62,2.81,2.72,4,2.04,2.19,4.62,3.79,7.49,4.65,2.49.75,5.13.9,7.69.44,2.13-.37,4.16-1.14,6-2.28,1.39-.85,2.64-1.9,3.71-3.12.89-1.06,1.71-2.19,2.43-3.37-.03.09-.06.17-.11.25l-.38.71c-.2.39-.44.77-.7,1.12-.32.51-.69.98-1.09,1.43-1.06,1.26-2.31,2.35-3.71,3.23-4.16,2.66-9.26,3.39-14,2-2.95-.86-5.61-2.5-7.71-4.74-1.14-1.18-2.09-2.53-2.82-4-.38-.76-.72-1.55-1-2.36-.26-.83-.46-1.68-.6-2.54-1.28-7.45,2.5-14.85,9.28-18.18.78-.38,1.59-.72,2.41-1,.82-.25,1.65-.44,2.5-.58,1.63-.29,3.29-.32,4.93-.1,3.05.39,5.93,1.59,8.36,3.47,3.88,3.02,6.27,7.56,6.57,12.47.1,1.65-.05,3.3-.44,4.9-.13.59-.3,1.16-.52,1.72-.13.42-.3.83-.5,1.22l-.35.73c-.04.08-.09.16-.14.23Z"/>
  <path class="cls-7" d="m146.45,116.36c.14,0,1.82,4.78,3.76,10.77s3.41,10.89,3.27,10.93-1.82-4.78-3.76-10.77-3.41-10.88-3.27-10.93Z"/>
  <path class="cls-13" d="m336.47,33.29v-.38c0-.25-.05-.65-.08-1.12,0-.25,0-.53-.05-.83s-.1-.63-.16-1c-.1-.83-.27-1.64-.5-2.44-.57-2.2-1.48-4.3-2.68-6.23-5.76-9.67-17.59-13.87-28.16-10-1.05.37-2.07.82-3.05,1.34-1,.55-1.96,1.16-2.87,1.84-.93.7-1.82,1.45-2.66,2.26-.81.86-1.57,1.77-2.26,2.73-1.45,1.95-2.58,4.13-3.35,6.44-.77,2.39-1.17,4.88-1.2,7.39.03,2.51.43,4.99,1.2,7.38.76,2.32,1.89,4.5,3.35,6.46.7.95,1.47,1.86,2.29,2.71.83.82,1.72,1.57,2.66,2.26.9.7,1.86,1.33,2.85,1.9.99.51,2.01.96,3.05,1.34,3.94,1.42,8.19,1.77,12.31,1,6.61-1.26,12.37-5.27,15.84-11.04,1.19-1.96,2.08-4.08,2.64-6.3.23-.8.4-1.61.5-2.43.06-.36.12-.69.16-1s0-.58.05-.82c0-.48.06-.85.08-1.13s0-.38,0-.38c.02.13.02.26,0,.39v1.95c0,.3-.09.64-.13,1-.09.83-.25,1.65-.46,2.46-.53,2.24-1.4,4.38-2.58,6.35-3.47,5.88-9.3,9.98-16,11.28-5.34.97-10.84.14-15.65-2.37-1.02-.56-2-1.19-2.93-1.88-.96-.7-1.86-1.46-2.71-2.29-.84-.87-1.63-1.8-2.35-2.77-1.49-2-2.64-4.22-3.42-6.58-.79-2.44-1.2-4.98-1.23-7.54.03-2.56.44-5.1,1.23-7.54.79-2.36,1.94-4.58,3.42-6.58.72-.97,1.5-1.9,2.35-2.76.85-.83,1.76-1.59,2.71-2.3.93-.69,1.91-1.32,2.93-1.88,1.01-.52,2.05-.98,3.12-1.36,4.01-1.45,8.34-1.79,12.53-1,6.71,1.29,12.53,5.4,16,11.28,1.18,1.97,2.05,4.11,2.58,6.35.21.81.37,1.63.46,2.46,0,.36.1.69.13,1s0,.58,0,.83v1.13c.03.14.05.28.04.42Z"/>
  <path class="cls-13" d="m329.52,33.29c-.1-1.36-.31-2.72-.62-4.05-.4-1.55-1.02-3.03-1.86-4.4-4.08-6.78-12.39-9.72-19.82-7-1.49.53-2.89,1.29-4.16,2.24-.66.49-1.28,1.02-1.87,1.59-.58.6-1.12,1.24-1.61,1.91-4.27,5.78-4.27,13.66,0,19.44.49.67,1.03,1.31,1.61,1.91.59.57,1.21,1.1,1.87,1.59,1.26.96,2.66,1.72,4.16,2.24,7.43,2.7,15.74-.23,19.82-7,.84-1.36,1.47-2.85,1.86-4.4.31-1.33.52-2.69.62-4.05.01.09.01.18,0,.27v.8c0,.43-.03.86-.1,1.29-.06.59-.17,1.17-.32,1.74-.37,1.58-.98,3.09-1.81,4.49-1.11,1.86-2.56,3.48-4.29,4.79-2.05,1.6-4.45,2.69-7,3.19-2.97.57-6.04.33-8.88-.7-1.54-.54-2.99-1.31-4.29-2.29-.67-.5-1.32-1.05-1.92-1.63-.6-.63-1.16-1.3-1.67-2-4.4-5.94-4.4-14.06,0-20,.5-.71,1.06-1.38,1.66-2,.6-.59,1.24-1.13,1.92-1.63,1.3-.98,2.75-1.76,4.29-2.29,7.61-2.75,16.11.31,20.21,7.29.83,1.4,1.44,2.91,1.81,4.49.15.57.25,1.15.32,1.74.07.43.1.86.1,1.3v.79c0,.11,0,.23-.03.34Z"/>
  <path class="cls-13" d="m312.58,21.11c-.14,0-.25-4.57-.25-10.19s.11-10.2.25-10.2.24,4.57.24,10.2-.11,10.19-.24,10.19Z"/>
  <path class="cls-13" d="m312.58,63.23c-.14,0-.25-4.56-.25-10.19s.11-10.19.25-10.19.24,4.56.24,10.19-.11,10.19-.24,10.19Z"/>
  <path class="cls-13" d="m304,33.29c0,.14-4.57.25-10.19.25s-10.2-.11-10.2-.25,4.57-.24,10.2-.24,10.19.11,10.19.24Z"/>
  <path class="cls-13" d="m341.52,33.29c0,.14-4.56.25-10.19.25s-10.19-.11-10.19-.25,4.56-.24,10.19-.24,10.19.11,10.19.24Z"/>
  <path class="cls-13" d="m298.86.24c-.5.08-1,.12-1.5.1l-4.09.08c-3.45,0-8.22.07-13.49.07h-.28l.25-.25c0,5.21,0,9.91-.07,13.31,0,1.63-.06,3-.08,4,.01.5-.02.99-.1,1.48-.07-.49-.1-.99-.09-1.48,0-1-.05-2.39-.08-4,0-3.4-.07-8.1-.07-13.31v-.24h.52c5.27,0,10,0,13.49.07l4.09.08c.5,0,1,.02,1.5.09Z"/>
  <path class="cls-13" d="m279.78,43.36c.07.5.11,1,.1,1.5,0,1,0,2.43.07,4.09.05,3.45.08,8.22.08,13.49v.28l-.25-.25c5.21,0,9.91,0,13.31.08l4,.07c.49-.02.98.02,1.47.1-.49.07-.98.1-1.47.09l-4,.08c-3.4,0-8.1.07-13.31.07h-.24v-.52c0-5.27,0-10,.07-13.49,0-1.66.06-3,.08-4.09-.01-.5.02-1,.09-1.5Z"/>
  <path class="cls-13" d="m323.93,62.72c.5-.08,1-.11,1.5-.1l4.09-.07c3.45,0,8.22-.08,13.49-.08h.28l-.25.25c0-5.21,0-9.91.08-13.31,0-1.63.05-3,.07-4-.02-.49.02-.98.1-1.47.07.49.1.98.09,1.47,0,1,.05,2.39.08,4,0,3.4.07,8.1.07,13.31v.28h-.53c-5.27,0-10,0-13.49-.07l-4.09-.08c-.5,0-1-.05-1.49-.13Z"/>
  <path class="cls-13" d="m343,19.6c-.07-.5-.1-1-.09-1.5,0-1.05-.05-2.43-.08-4.09,0-3.45-.07-8.22-.07-13.49V.24l.24.25c-5.21,0-9.91,0-13.31-.07l-4-.08c-.49.02-.98-.02-1.47-.1.49-.07.98-.1,1.47-.09l4-.08c3.41-.07,8.11-.07,13.31-.07h.25v.52c0,5.27,0,10-.08,13.49,0,1.66-.05,3-.07,4.09.02.5-.02,1-.1,1.5Z"/>
  <rect class="cls-7" x="361.3" y="101.44" width="5.71" height="353.79"/>
  <rect class="cls-7" x="421.97" y="101.17" width="5.71" height="353.64"/>
  <rect class="cls-7" x="361.3" y="101.44" width="64.16" height="4.42"/>
  <rect class="cls-7" x="361.3" y="179.33" width="66.38" height="4.42"/>
  <rect class="cls-7" x="361.3" y="354.43" width="65.76" height="4.42"/>
  <rect class="cls-7" x="343.31" y="314.17" width="104.08" height="4.42" transform="translate(-93.26 449.24) rotate(-53.88)"/>
  <rect class="cls-7" x="339.78" y="227.23" width="109.44" height="4.42" transform="translate(-17.76 425.18) rotate(-55.58)"/>
  <rect class="cls-7" x="339.78" y="402.48" width="109.44" height="4.42" transform="translate(-162.33 501.37) rotate(-55.58)"/>
  <rect class="cls-7" x="347.7" y="139.93" width="95.41" height="4.42" transform="translate(32.84 354.5) rotate(-50.13)"/>
  <rect class="cls-7" x="361.3" y="271.39" width="66.38" height="4.42"/>
  <path class="cls-7" d="m389.7,454.87c-.2,0-.36-78.61-.36-175.55s.16-175.56.36-175.56.36,78.59.36,175.56-.16,175.55-.36,175.55Z"/>
  <path class="cls-7" d="m392.25,454.8c-.2,0-.36-78-.36-174.24s.16-174.25.36-174.25.36,78,.36,174.25-.16,174.24-.36,174.24Z"/>
  <path class="cls-7" d="m404.43,455c-.2,0-.36-78.06-.36-174.33s.16-174.34.36-174.34.36,78,.36,174.34-.16,174.33-.36,174.33Z"/>
  <path class="cls-7" d="m413.56,454.8c-.2,0-.36-78-.36-174.24s.16-174.25.36-174.25.36,78,.36,174.25-.16,174.24-.36,174.24Z"/>
  <path class="cls-7" d="m413.56,133.53c0,.2-2,.36-4.55.36s-4.55-.16-4.55-.36,2-.36,4.55-.36,4.55.16,4.55.36Z"/>
  <path class="cls-7" d="m413.56,125.9c0,.2-2,.36-4.55.36s-4.55-.16-4.55-.36,2-.36,4.55-.36,4.55.16,4.55.36Z"/>
  <path class="cls-7" d="m413.56,118.26c0,.2-2,.36-4.55.36s-4.55-.16-4.55-.36,2-.36,4.55-.36,4.55.16,4.55.36Z"/>
  <path class="cls-7" d="m413.56,110.63c0,.2-2,.36-4.55.36s-4.55-.16-4.55-.36,2-.37,4.55-.37,4.55.17,4.55.37Z"/>
  <path class="cls-7" d="m413.56,142.14c0,.2-2,.36-4.55.36s-4.55-.16-4.55-.36,2-.36,4.55-.36,4.55.16,4.55.36Z"/>
  <path class="cls-7" d="m413.56,150.75c0,.2-2,.36-4.55.36s-4.55-.16-4.55-.36,2-.36,4.55-.36,4.55.16,4.55.36Z"/>
  <path class="cls-7" d="m413.56,159.36c0,.2-2,.36-4.55.36s-4.55-.16-4.55-.36,2-.36,4.55-.36,4.55.16,4.55.36Z"/>
  <path class="cls-7" d="m413.56,168c0,.2-2,.36-4.55.36s-4.55-.16-4.55-.36,2-.36,4.55-.36,4.55.13,4.55.36Z"/>
  <path class="cls-7" d="m413.56,176.58c0,.2-2,.36-4.55.36s-4.55-.16-4.55-.36,2-.36,4.55-.36,4.55.16,4.55.36Z"/>
  <path class="cls-7" d="m413.56,185.19c0,.2-2,.36-4.55.36s-4.55-.16-4.55-.36,2-.36,4.55-.36,4.55.17,4.55.36Z"/>
  <path class="cls-7" d="m413.56,193.8c0,.19-2,.36-4.55.36s-4.55-.17-4.55-.36,2-.37,4.55-.37,4.55.17,4.55.37Z"/>
  <path class="cls-7" d="m413.56,202.4c0,.2-2,.36-4.55.36s-4.55-.16-4.55-.36,2-.36,4.55-.36,4.55.16,4.55.36Z"/>
  <path class="cls-7" d="m413.56,211c0,.2-2,.36-4.55.36s-4.55-.16-4.55-.36,2-.36,4.55-.36,4.55.17,4.55.36Z"/>
  <path class="cls-7" d="m413.56,219.62c0,.2-2,.36-4.55.36s-4.55-.16-4.55-.36,2-.36,4.55-.36,4.55.16,4.55.36Z"/>
  <path class="cls-7" d="m413.56,228.23c0,.2-2,.36-4.55.36s-4.55-.16-4.55-.36,2-.36,4.55-.36,4.55.13,4.55.36Z"/>
  <path class="cls-7" d="m413.56,236.84c0,.2-2,.36-4.55.36s-4.55-.16-4.55-.36,2-.36,4.55-.36,4.55.16,4.55.36Z"/>
  <path class="cls-7" d="m413.56,245.45c0,.2-2,.36-4.55.36s-4.55-.16-4.55-.36,2-.36,4.55-.36,4.55.16,4.55.36Z"/>
  <path class="cls-7" d="m413.56,254.06c0,.2-2,.36-4.55.36s-4.55-.16-4.55-.36,2-.36,4.55-.36,4.55.16,4.55.36Z"/>
  <path class="cls-7" d="m413.56,262.67c0,.19-2,.36-4.55.36s-4.55-.17-4.55-.36,2-.37,4.55-.37,4.55.17,4.55.37Z"/>
  <path class="cls-7" d="m413.56,271.27c0,.2-2,.37-4.55.37s-4.55-.17-4.55-.37,2-.36,4.55-.36,4.55.17,4.55.36Z"/>
  <path class="cls-7" d="m413.56,279.88c0,.2-2,.36-4.55.36s-4.55-.16-4.55-.36,2-.36,4.55-.36,4.55.16,4.55.36Z"/>
  <path class="cls-7" d="m413.56,288.49c0,.2-2,.36-4.55.36s-4.55-.16-4.55-.36,2-.36,4.55-.36,4.55.16,4.55.36Z"/>
  <path class="cls-7" d="m413.56,297.1c0,.2-2,.36-4.55.36s-4.55-.16-4.55-.36,2-.36,4.55-.36,4.55.16,4.55.36Z"/>
  <path class="cls-7" d="m413.56,305.71c0,.2-2,.36-4.55.36s-4.55-.16-4.55-.36,2-.36,4.55-.36,4.55.16,4.55.36Z"/>
  <path class="cls-7" d="m413.56,314.32c0,.2-2,.36-4.55.36s-4.55-.16-4.55-.36,2-.36,4.55-.36,4.55.16,4.55.36Z"/>
  <path class="cls-7" d="m413.56,322.93c0,.2-2,.36-4.55.36s-4.55-.16-4.55-.36,2-.36,4.55-.36,4.55.16,4.55.36Z"/>
  <path class="cls-7" d="m413.56,331.54c0,.2-2,.36-4.55.36s-4.55-.16-4.55-.36,2-.36,4.55-.36,4.55.16,4.55.36Z"/>
  <path class="cls-7" d="m413.56,340.14c0,.2-2,.37-4.55.37s-4.55-.17-4.55-.37,2-.36,4.55-.36,4.55.22,4.55.36Z"/>
  <path class="cls-7" d="m413.56,348.75c0,.2-2,.36-4.55.36s-4.55-.16-4.55-.36,2-.36,4.55-.36,4.55.16,4.55.36Z"/>
  <path class="cls-7" d="m413.56,357.36c0,.2-2,.36-4.55.36s-4.55-.16-4.55-.36,2-.36,4.55-.36,4.55.16,4.55.36Z"/>
  <path class="cls-7" d="m413.56,366c0,.2-2,.36-4.55.36s-4.55-.16-4.55-.36,2-.36,4.55-.36,4.55.13,4.55.36Z"/>
  <path class="cls-7" d="m413.56,374.58c0,.2-2,.36-4.55.36s-4.55-.16-4.55-.36,2-.36,4.55-.36,4.55.16,4.55.36Z"/>
  <path class="cls-7" d="m413.56,383.19c0,.2-2,.36-4.55.36s-4.55-.16-4.55-.36,2-.36,4.55-.36,4.55.17,4.55.36Z"/>
  <path class="cls-7" d="m413.56,391.8c0,.2-2,.36-4.55.36s-4.55-.16-4.55-.36,2-.36,4.55-.36,4.55.16,4.55.36Z"/>
  <path class="cls-7" d="m413.56,400.41c0,.2-2,.36-4.55.36s-4.55-.16-4.55-.36,2-.36,4.55-.36,4.55.16,4.55.36Z"/>
  <path class="cls-7" d="m413.56,409c0,.19-2,.36-4.55.36s-4.55-.17-4.55-.36,2-.37,4.55-.37,4.55.19,4.55.37Z"/>
  <path class="cls-7" d="m413.56,417.62c0,.2-2,.37-4.55.37s-4.55-.17-4.55-.37,2-.36,4.55-.36,4.55.16,4.55.36Z"/>
  <path class="cls-7" d="m413.56,426.23c0,.2-2,.36-4.55.36s-4.55-.16-4.55-.36,2-.36,4.55-.36,4.55.13,4.55.36Z"/>
  <path class="cls-7" d="m413.56,434.84c0,.2-2,.36-4.55.36s-4.55-.16-4.55-.36,2-.36,4.55-.36,4.55.16,4.55.36Z"/>
  <path class="cls-7" d="m413.56,443.45c0,.2-2,.36-4.55.36s-4.55-.16-4.55-.36,2-.36,4.55-.36,4.55.16,4.55.36Z"/>
  <path class="cls-7" d="m413.56,452.06c0,.2-2,.36-4.55.36s-4.55-.16-4.55-.36,2-.36,4.55-.36,4.55.16,4.55.36Z"/>
  <path class="cls-7" d="m364.16,280.08c-.14.01-.29.01-.43,0h-1.25l-4.84.06-17.87.11-59.62.12.36-.36v12.4l-.36-.36,59.63.11,17.86.11,4.84.07h1.25c.14-.02.29-.02.43,0-.14.01-.29.01-.43,0h-1.25l-4.84.06-17.86.11-59.63.12h-.36v-12.91h.36l59.62.11,17.87.11,4.84.07h1.25c.15,0,.29.03.43.07Z"/>
  <path class="cls-7" d="m361.43,291.69l-.22-.18-.63-.57-2.38-2.23-8.89-8.48.35-.16c.18,3.46.39,7.4.62,11.75v.65l-.48-.46-12.11-11.71.52-.22c0,3.77-.11,7.72-.17,11.82v.77l-.55-.53-12.21-11.81.6-.25c-.08,3.69-.15,7.59-.23,11.57v.82l-.6-.57-5.77-5.6-6.16-6,.61-.26v12.46l-.6-.56-12.35-11.62.56-.24v13.12l-.53-.53-12.33-12.41.43-.18c0,4.58-.05,8.57-.06,12v.61l-.35-.5-6.19-8.94-1.6-2.36-.4-.62c-.05-.06-.09-.13-.12-.21,0,0,.06.06.16.18l.45.59,1.68,2.3,6.33,8.83-.35.12c0-3.45,0-7.44-.06-12v-.61l.43.43,12.42,12.34-.53.22v-13.15l.56.53c3.93,3.68,8.07,7.56,12.38,11.58l-.6.26v-12.45l.61.59c2,1.96,4.05,3.96,6.16,6l5.77,5.59-.61.25c.08-4,.16-7.87.24-11.56v-.81l.58.56,12.18,11.84-.57.23c.08-4.1.15-8.05.22-11.82v-.71l.51.5,12.08,11.78-.43.2c-.19-4.35-.37-8.29-.52-11.75v-.52l.37.36,8.76,8.62,2.3,2.31.58.61c.08.1.15.18.14.19Z"/>
  <path class="cls-7" d="m365.5,183.75h-1.68l-4.84.07-17.86.11-59.63.11.36-.36v12.4l-.36-.36,59.63.11,17.88.17,4.84.07h1.25c.14-.01.29-.01.43,0-.14.01-.29.01-.43,0h-1.25l-4.84.06-17.86.12-59.63.11h-.36v-12.97h.36l59.63.11,17.86.12,4.84.06h1.25c.14.01.28.03.41.07Z"/>
  <path class="cls-7" d="m362.77,195.36s-.08-.05-.22-.18l-.63-.56-2.38-2.23-8.89-8.49.35-.16c.18,3.46.39,7.4.62,11.75v.65l-.48-.45-12.14-11.69.52-.21c-.05,3.76-.11,7.71-.17,11.82v.76l-.55-.53-12.19-11.84.6-.24c-.07,3.68-.15,7.59-.23,11.56v.83l-.6-.58-5.78-5.57-6.16-6,.61-.26v12.42l-.6-.56-12.35-11.6.56-.24v13.12l-.53-.52-12.33-12.42.43-.18c0,4.58,0,8.58-.06,12v.61l-.35-.5-6.19-8.94-1.6-2.36-.4-.61c-.09-.14-.13-.21-.12-.22.06.06.11.12.16.19l.45.58c.4.56,1,1.32,1.68,2.31l6.33,8.83-.35.11c0-3.44-.02-7.44-.06-12v-.61l.43.43,12.42,12.35-.53.21v-13.14l.56.52,12.38,11.59-.6.25v-12.46l.62.59,6.15,6,5.77,5.59-.61.26c.08-4,.17-7.88.24-11.57v-.81l.58.57,12.18,11.83-.56.23c.07-4.1.14-8.05.21-11.81v-.72l.51.5,12.08,11.79-.43.19c-.19-4.35-.37-8.28-.52-11.75v-.52l.37.36,8.76,8.63,2.3,2.31.59.6c.09.11.16.18.15.19Z"/>
  <path class="cls-13" d="m92.75,112.07c.71-5.15-6.56-9.39-12-9.83-2.6-.21-5.31.19-7.78-.67-5.34-1.86-7.48-8.77-12.7-11-3.9-1.65-8.39-.18-12.17,1.72s-7.52,4.3-11.74,4.57c-3.68.23-7.67-1.13-10.88.67-2.4,1.33-3.65,4.1-5.86,5.72s-5,1.94-7.66,2.08-5.46.17-7.9,1.29-4.49,3.73-3.98,6.38l92.67-.93Z"/>
  <path class="cls-3" d="m204.18,19.46c.57-4.14-5.27-7.54-9.65-7.9-2.09-.16-4.27.16-6.25-.54-4.29-1.49-6-7-10.2-8.81-3.13-1.32-6.74-.14-9.77,1.39-3.03,1.53-6,3.45-9.43,3.67-2.95.18-6.16-.91-8.74.53-1.92,1.08-2.93,3.29-4.71,4.6s-4,1.55-6.15,1.67-4.38.14-6.34,1-3.58,3-3.17,5.09l74.41-.7Z"/>
  <path class="cls-3" d="m153.64,240.85c.53-3.87-4.93-7-9-7.38-1.95-.16-4,.14-5.84-.51-4-1.4-5.63-6.59-9.55-8.24-2.93-1.24-6.3-.14-9.15,1.29s-5.65,3.23-8.82,3.43c-2.76.18-5.76-.84-8.18.51-1.8,1-2.74,3.08-4.4,4.3-1.73,1.07-3.73,1.61-5.76,1.56-2.02-.04-4.03.3-5.93,1-1.84.84-3.35,2.78-3,4.76l69.63-.72Z"/>
  <path class="cls-13" d="m437.5,51.65c.56-4-5.11-7.32-9.36-7.66-2-.16-4.14.15-6.06-.52-4.17-1.45-5.83-6.83-9.9-8.55-3-1.28-6.53-.14-9.48,1.34s-5.86,3.35-9.15,3.56c-2.86.18-6-.88-8.47.52-1.87,1-2.85,3.19-4.57,4.46-1.8,1.11-3.88,1.68-6,1.62-2.09-.05-4.18.28-6.15,1-1.91.87-3.48,2.88-3.08,4.93l72.22-.7Z"/>
  <path class="cls-12" d="m124.53,455.23c-.13-.07,14.86-27.34,33.47-60.89s33.8-60.72,33.92-60.65-14.85,27.33-33.47,60.9-33.79,60.71-33.92,60.64Z"/>
  <path class="cls-12" d="m76.82,455.23l.45-.61,1.36-1.76,5.28-6.81c4.64-5.93,11.38-14.55,19.83-25.38,17-21.63,40.78-52,68.3-87.16l.17-.21.2.19,12.74,11.74.49.45h-22.64l.22-.38c1.92,3.47,4,7.18,6,10.93,1.72,3.12,3.43,6.22,5.14,9.3l.21.39h-27.44l.22-.38,13.93,23.69.22.37h-32.96l.19-.36,18.14,25.91.23.32h-.39l-38.5-.05.13-.23,15,24.14c1.73,2.8,3,4.95,3.95,6.42.44.72.77,1.27,1,1.65s.32.57.32.57l-.36-.55-1-1.63-4-6.37-15.08-24.07-.14-.23h38.77l-.17.31c-5.63-8-11.7-16.65-18.19-25.87l-.25-.37h33l-.21.37-13.94-23.68-.23-.39h27.39l-.23.38-5.14-9.3-6-10.93-.22-.39h22.39l-.17.44-12.74-11.75h.37l-68.45,87-19.96,25.22-5.35,6.75-1.4,1.74c-.3.35-.48.58-.48.58Z"/>
  <path class="cls-12" d="m351,454.73c-.13.07-15.32-27-33.92-60.39s-33.6-60.58-33.48-60.65,15.32,27,33.93,60.39,33.58,60.58,33.47,60.65Z"/>
  <path class="cls-12" d="m398.7,454.73s-.17-.19-.49-.58l-1.39-1.73-5.35-6.72-19.94-25.19-68.45-86.68h.37l-12.74,11.7-.17-.44h22.4l-.21.39-6.08,10.95-5.1,9.2-.23-.39h27.52l-.23.38-13.94,23.59-.22-.37h33l-.25.37c-6.51,9.19-12.57,17.79-18.2,25.79l-.17-.32,38.5.05h.27l-.15.23-15.07,24-4,6.34c-.46.71-.8,1.26-1,1.63l-.37.54.33-.56,1-1.65,3.94-6.38c3.48-5.59,8.54-13.74,15-24.05l.13.23-38.5.05h-.39l.23-.32,18.04-25.79.19.36h-32.98l.22-.37c4.51-7.63,9.15-15.49,13.93-23.6l.22.39h-27.49l.21-.38c1.69-3.05,3.4-6.11,5.11-9.2l6.08-10.95.22.38h-22.62l.48-.45,12.75-11.7.2-.18.17.21,68.3,86.81,19.83,25.27,5.28,6.77,1.36,1.76.45.61Z"/>
  <path class="cls-2" d="m355.49,420c-8.57-9.53-21.3-14.21-34-12.49,1.62-8.76-1.37-17.75-7.91-23.8-6.48-5.87-19.18-8.6-27.55-6.09l.27-50.36c-1.7-.08-35.75,0-49.33,0s-47.63-.07-49.33,0l.27,50.36c-8.37-2.51-21.07.22-27.54,6.09-6.55,6.05-9.53,15.03-7.92,23.8-20.77-3.02-40.05,11.37-43.07,32.13-.76,5.22-.42,10.53.98,15.62h253.27c3.28-12.38.23-25.57-8.14-35.26Z"/>
  <path class="cls-12" d="m355.49,420s.54.62,1.57,1.87c1.46,1.91,2.74,3.95,3.83,6.09,1.75,3.54,2.97,7.31,3.62,11.2.89,5.37.62,10.87-.77,16.13v.08h-.08l-253.23.15h-.2v-.19c-1.4-5.25-1.68-10.74-.82-16.11.88-5.46,2.89-10.68,5.91-15.31,3.1-4.69,7.22-8.61,12.06-11.47,4.89-2.9,10.35-4.72,16-5.34,3.07-.34,6.17-.29,9.23.15l-.3.31c-1.75-9.51,1.88-19.22,9.46-25.23,3.81-2.67,8.16-4.46,12.74-5.25,4.49-.96,9.14-.85,13.59.3l-.33.25c-.08-17.28-.17-34.1-.25-50.37v-.26h99.11v.21c-.11,18.34-.21,35.17-.3,50.36l-.23-.16c2.65-.73,5.4-1.03,8.14-.91,2.62.1,5.22.49,7.76,1.15,4.93,1.29,9.51,3.49,12.78,6.86,5.9,6.09,8.49,14.66,6.95,23l-.13-.14c5.4-.72,10.88-.29,16.1,1.26,6.11,1.8,11.69,5.08,16.22,9.56,1.11,1.18,1.65,1.79,1.65,1.79l-.43-.43-1.26-1.31c-4.56-4.42-10.13-7.66-16.23-9.44-5.19-1.52-10.64-1.93-16-1.2h-.16v-.15c1.5-8.25-1.08-16.72-6.93-22.73-3.22-3.31-7.76-5.48-12.65-6.75-2.52-.65-5.09-1.03-7.69-1.12-2.7-.11-5.4.19-8,.9l-.22.07v-.24c.07-15.19.15-32,.23-50.36l.2.21h-98.64l.24-.24c.09,16.27.18,33.05.28,50.36v.35l-.33-.1c-4.37-1.13-8.95-1.22-13.36-.28-4.54.77-8.86,2.54-12.62,5.2-7.41,5.89-10.97,15.4-9.25,24.71l.06.36-.36-.05c-3.01-.43-6.07-.48-9.09-.15-5.58.62-10.97,2.41-15.8,5.27-4.77,2.82-8.83,6.69-11.89,11.31-2.98,4.57-4.97,9.71-5.83,15.1-.85,5.29-.58,10.71.8,15.89l-.24-.19,253.23.14-.12.09c1.4-5.22,1.68-10.67.83-16-.63-3.89-1.83-7.66-3.56-11.2-1.08-2.15-2.34-4.19-3.77-6.12l-1.14-1.41c-.26-.33-.38-.47-.38-.47Z"/>
  <path class="cls-12" d="m298.12,428.86c0-.1,0-.19,0-.29,0-.21,0-.49-.07-.85-.02-.46-.07-.92-.15-1.38-.07-.63-.19-1.25-.34-1.87-.93-4.01-2.89-7.72-5.68-10.75-1.95-2.12-4.26-3.87-6.84-5.16-3-1.49-6.32-2.23-9.67-2.17-3.76.08-7.45,1.04-10.77,2.81-3.64,1.9-6.7,4.77-8.83,8.28l-.19.31-.22-.28c-4.66-5.65-11.42-9.15-18.72-9.7-3.43-.28-6.88.14-10.13,1.25-3.13,1.09-6.01,2.77-8.51,4.94-4.64,3.96-7.78,9.41-8.89,15.41l-.06.34-.29-.19c-4.86-3.19-10.77-4.34-16.47-3.22-4.39.9-8.39,3.16-11.42,6.46-1.97,2.1-3.52,4.57-4.55,7.26-.27.71-.51,1.44-.71,2.17l-.16.56c-.01.07-.03.13-.06.19.17-1.02.44-2.03.8-3,1.72-4.72,4.98-8.72,9.25-11.35,2.08-1.29,4.37-2.19,6.77-2.68,5.8-1.18,11.84-.03,16.8,3.2l-.35.15c1.11-6.12,4.29-11.67,9-15.72,2.54-2.21,5.47-3.92,8.64-5.05,3.32-1.14,6.84-1.58,10.34-1.28,7.44.56,14.33,4.14,19.07,9.91h-.41c2.17-3.59,5.28-6.51,9-8.45,3.39-1.79,7.16-2.76,11-2.82,3.42-.05,6.79.73,9.85,2.26,2.61,1.33,4.95,3.12,6.91,5.29,2.8,3.08,4.73,6.85,5.6,10.92.14.63.25,1.26.31,1.9.07.46.11.92.11,1.39v.85c.03.12.04.24.04.36Z"/>
  <path class="cls-12" d="m246.62,394.42c-.05,0-.16-.85-.63-2.33-.69-2.11-1.77-4.06-3.19-5.76-2.12-2.56-4.96-4.41-8.16-5.3-3.98-1.09-8.21-.7-11.92,1.1l-.32.16-.06-.35c-.19-1.37-.56-2.72-1.09-4-1.78-4.27-5.21-7.64-9.5-9.36-1.86-.74-3.85-1.1-5.85-1.07-4.32.04-8.47,1.67-11.66,4.58-1.32,1.22-1.89,2.06-1.94,2,.12-.21.26-.41.42-.6.42-.53.88-1.03,1.38-1.49,1.85-1.81,4.09-3.18,6.55-4,1.69-.56,3.46-.87,5.25-.9,2.05-.05,4.09.31,6,1.05,4.44,1.74,7.98,5.21,9.81,9.61.55,1.31.93,2.69,1.13,4.1l-.38-.2c3.83-1.86,8.2-2.24,12.29-1.08,1.75.49,3.39,1.28,4.88,2.32,1.28.9,2.43,1.98,3.42,3.2,1.42,1.75,2.47,3.76,3.1,5.92.17.58.3,1.17.39,1.77.05.21.07.42.08.63Z"/>
  <path class="cls-12" d="m254.12,396c-.14,0-.26-10.76-.26-24s.12-24,.26-24,.26,10.75.26,24-.12,24-.26,24Z"/>
  <path class="cls-12" d="m259.9,373.3c-.14,0-.26-7.87-.26-17.58s.12-17.57.26-17.57.27,7.86.27,17.57-.12,17.58-.27,17.58Z"/>
  <polygon class="cls-3" points="291.96 291.84 291.75 274.48 234.8 274.48 184.77 274.48 184.6 291 170.84 319.91 170.84 337.76 240.82 336.71 304.79 337.74 304.79 319.89 291.96 291.84"/>
  <path class="cls-12" d="m292,291.84s.09.16.24.47.37.79.66,1.39c.58,1.25,1.42,3.07,2.53,5.45l9.53,20.68v18.08h-.18l-59.32-.91-4.29-.07-4.34.06-8.86.14-18.35.28-38.78.59h-.27v-18.23l13.78-28.9v.11c.06-5.64.12-11.15.18-16.52v-.25h.24l107,.14h.11v.11c0,5.63.08,10,.1,12.9v4.46-1.12c0-.74,0-1.86-.07-3.32-.05-2.94-.12-7.28-.21-12.92l.11.11-107,.14.25-.25c-.05,5.38-.11,10.89-.16,16.52v.11c-4.43,9.31-9,19-13.76,28.91v-.11,17.83l-.27-.26,38.79-.58,18.34-.27,8.87-.12,4.34-.06,4.29.08,59.33,1-.17.18v-17.85.16l-9.42-20.76-2.46-5.47-.62-1.4c-.16-.37-.16-.53-.16-.53Z"/>
  <rect class="cls-7" x="171.22" y="320.15" width="132.85" height="16.9"/>
  <path class="cls-9" d="m183.52,189.58l-.35.31c-20.72,18.24-32.75,45.85-32.77,75h0l33.07-6.89.05-68.42Z"/>
  <rect class="cls-3" x="183.33" y="186.32" width="109.59" height="75.95"/>
  <path class="cls-9" d="m238.05,15.38c-8.57,0-24.34,24.32-39,65-1,2.76-1.93,5.27-2.8,7.64v2.56h83.1v-2.28c-.76-2.74-1.55-5.39-2.39-7.88-13.71-40.86-30.34-65-38.9-65"/>
  <path class="cls-12" d="m238.05,15.38h.41c.41.02.82.08,1.21.2,1.51.5,2.91,1.29,4.12,2.31,3.27,2.57,7.23,7.24,11.32,13.66,4.8,7.71,9.01,15.78,12.59,24.13,2.1,4.77,4.16,9.9,6.18,15.33,1,2.71,2,5.51,3,8.37s1.79,5.85,2.72,8.86v2.55h-83.6v-2.85h0c2.17-5.87,4.2-11.56,6.3-16.94s4.22-10.46,6.35-15.2c3.64-8.28,7.83-16.29,12.56-24,4-6.43,7.89-11.16,11.12-13.77,1.2-1.03,2.59-1.83,4.09-2.34.39-.12.79-.18,1.2-.2h.42l-.41.06c-.4.04-.8.12-1.19.24-1.47.54-2.83,1.35-4,2.39-3.17,2.63-7,7.36-11,13.8-4.67,7.7-8.83,15.7-12.44,23.95-2.11,4.74-4.21,9.82-6.3,15.2s-4.11,11.06-6.27,16.94v2.48l-.24-.25h83.1l-.25.25v-2.18c-.92-3-1.76-6-2.7-8.83s-1.94-5.66-2.95-8.37c-2-5.43-4.05-10.55-6.13-15.32-3.55-8.34-7.71-16.4-12.47-24.12-4-6.43-7.94-11.11-11.16-13.7-1.19-1.03-2.57-1.82-4.05-2.35-.38-.12-.78-.2-1.18-.24l-.35-.06Z"/>
  <path class="cls-9" d="m292.92,187.76c.06,0,.18.15.37.31,21.25,18.71,33.58,47,33.61,76.95h0l-33.9-7.1-.08-70.16Z"/>
  <path class="cls-3" d="m183.92,176.09s-.48-28,1.15-40.56,6.4-35,6.4-35h93.79c3.5,13.66,5.62,27.63,6.32,41.71.83,21.66.82,34.18.82,34.18l-108.48-.33Z"/>
  <path class="cls-12" d="m183.92,176.09h30.46l78.07.09-.24.24c-.45-21.14.1-44.67-5.43-68.57-.53-2.45-1.1-4.89-1.72-7.25l.25.19h-93.79l.21-.17c-2.37,11.28-4.39,21.62-5.84,30.81-.37,2.3-.66,4.52-.89,6.68s-.35,4.24-.46,6.24c-.23,4-.33,7.69-.41,11-.15,6.64-.15,11.85-.15,15.39v5.42c0-.12,0-.23,0-.35v-1c0-.93,0-2.28-.06-4,0-3.54-.07-8.75,0-15.39.06-3.33.14-7,.35-11,.11-2,.25-4.1.44-6.26s.51-4.4.87-6.7c1.42-9.21,3.41-19.56,5.76-30.85v-.17h94.16l.05.19c.63,2.39,1.2,4.82,1.73,7.28,2.58,11.65,4.12,23.49,4.63,35.41.42,11.53.73,22.66.77,33.27v.24h-.25l-78.22-.33-22.33-.12h-7.43l-.53-.29Z"/>
  <path class="cls-7" d="m286.41,105.16c-.23.02-.46.02-.69,0h-2l-7.53.07-26.19.17.22-.12c-2.87,5.16-6,10.8-9.28,16.7-.53.94-1,1.88-1.53,2.75l-.08.13h-.15l-37.18-.08-11.16-.08h-3.79c-.09.01-.17.01-.26,0h4.05l11.16-.09,37.16-.08-.23.14c.49-.88,1-1.81,1.53-2.76,3.29-5.88,6.44-11.53,9.31-16.68l.07-.12h.16l26.21.09,7.53.07h2c.22-.05.44-.09.67-.11Z"/>
  <rect class="cls-7" x="196.24" y="138.44" width="14.83" height="8"/>
  <polygon class="cls-13" points="209.35 187.75 220.33 232.43 243.24 232.81 253.3 262.14 244.64 262.27 236.91 234.62 217.12 234.62 209.35 187.75"/>
  <path class="cls-7" d="m209.11,186.32c.03.08.06.16.07.25,0,.19.08.43.14.72.13.68.3,1.62.51,2.8.44,2.47,1,6,1.79,10.29l5.72,34v.21l-.26-.21h19.99v.17l5.49,20,1.52,5.7.39,1.52c.06.17.09.34.1.52-.07-.16-.13-.33-.18-.5-.11-.38-.26-.88-.46-1.5-.39-1.36-.95-3.26-1.65-5.66-1.39-4.91-3.35-11.8-5.66-19.93l.23.17h-20.03v-.44l-5.56-34c-.68-4.33-1.23-7.84-1.63-10.32-.17-1.19-.31-2.13-.41-2.81,0-.3-.07-.54-.1-.73-.02-.08-.02-.17,0-.25Z"/>
  <path class="cls-7" d="m293,224.3c-.22.02-.43.02-.65,0l-1.88.05-6.92.08-23.15.08h-.26v-2.95c0-9.72.06-18.51.08-25,0-3.15.06-5.72.08-7.56,0-.85,0-1.54.05-2.06,0-.24.01-.48.05-.72.03.24.03.48,0,.72,0,.52,0,1.21.05,2.06,0,1.84.05,4.41.09,7.56,0,6.44,0,15.23.07,25v2.69l-.26-.26,23.15.08,6.92.08,1.88.05c.24,0,.47.04.7.1Z"/>
  <path class="cls-7" d="m290,124.6c-.11.02-.21.02-.32,0h-.93l-3.54.06-12.75.09.22-.22v44.13l-.23-.22,14.42.09,4,.06h1.43c-.12.01-.25.01-.37,0h-1.06l-4,.06-14.42.09h-.22v-21.11c0-8.64,0-16.65.05-23.24v-.21h.21l12.75.09,3.54.06h.93l.29.27Z"/>
  <g class="cls-8">
    <path d="m293,262.14c-34.5-9.58-71.23-6.07-108.78,0h108.78Z"/>
  </g>
  <g class="cls-8">
    <path d="m292.4,176.38c-45.24-7.65-71.11-6.36-108.66-.28l108.66.28Z"/>
  </g>
  <g class="cls-8">
    <path d="m279.34,90.55c-39.53-7.65-50.3-6.08-83.1,0h83.1Z"/>
  </g>
  <rect class="cls-9" x="273.91" y="232.86" width="3.47" height="14.97"/>
  <path class="cls-12" d="m171.84,319.14c0-.15,29.77-.21,66.47-.15,36.7.06,66.48.23,66.48.37s-29.76.21-66.48.15-66.47-.23-66.47-.37Z"/>
  <path class="cls-12" d="m292.24,291c0,.14-24,.26-53.67.26s-53.67-.12-53.67-.26,24-.26,53.67-.26,53.67.11,53.67.26Z"/>
  <path class="cls-12" d="m292.24,286.36c0,.14-24,.26-53.67.26s-53.67-.12-53.67-.26,24-.26,53.67-.26,53.67.12,53.67.26Z"/>
  <path class="cls-12" d="m292.24,281.72c0,.14-24,.26-53.67.26s-53.67-.12-53.67-.26,24-.26,53.67-.26,53.67.12,53.67.26Z"/>
  <path class="cls-12" d="m292.24,277.08c0,.14-24,.26-53.67.26s-53.67-.12-53.67-.26,24-.26,53.67-.26,53.67.12,53.67.26Z"/>
  <path class="cls-12" d="m304.79,329.13c0,.14-30,.26-67,.26s-67-.12-67-.26,30-.27,67-.27,67,.14,67,.27Z"/>
  <path class="cls-12" d="m304.79,324.49c0,.14-30,.26-67,.26s-67-.12-67-.26,30-.26,67-.26,67,.11,67,.26Z"/>
  <path class="cls-1" d="m178.61,199.71c-.1.19-.22.36-.36.53l-1.11,1.45c-.49.62-1.08,1.39-1.73,2.3s-1.43,1.93-2.21,3.11c-1.63,2.31-3.41,5.17-5.29,8.4s-3.72,6.91-5.48,10.85-3.16,7.8-4.35,11.34c-.57,1.78-1.11,3.47-1.54,5.08s-.83,3.1-1.17,4.47-.6,2.63-.85,3.72-.43,2-.57,2.83-.26,1.32-.36,1.79c-.03.21-.08.41-.15.61,0-.21,0-.42.05-.63.07-.47.15-1.07.26-1.81s.26-1.74.49-2.84.43-2.37.77-3.75.66-2.9,1.12-4.5.94-3.32,1.5-5.12c1.26-3.88,2.72-7.68,4.37-11.41,1.66-3.71,3.51-7.34,5.53-10.87,1.91-3.23,3.73-6.08,5.41-8.37.8-1.17,1.59-2.18,2.28-3.07s1.29-1.66,1.8-2.26l1.19-1.39c.11-.17.25-.32.4-.46Z"/>
  <path class="cls-1" d="m236.85,21c-.95.26-1.86.64-2.71,1.13-2.24,1.48-4.11,3.45-5.49,5.75-3.59,5.77-8.15,14-12.74,23.37s-8.22,18-10.72,24.38c-1.24,3.18-2.21,5.76-2.88,7.55l-.78,2.05c-.08.25-.18.48-.3.71.04-.25.11-.5.2-.74.18-.53.4-1.22.69-2.09.61-1.81,1.53-4.42,2.73-7.61,2.41-6.39,6-15.12,10.6-24.48,3.88-8,8.18-15.78,12.89-23.32,1.42-2.31,3.36-4.26,5.66-5.7.65-.36,1.33-.63,2.05-.82.26-.08.53-.15.8-.18Z"/>
  <path class="cls-1" d="m186.76,171.7c-.03-.23-.03-.45,0-.68v-2c0-1.7.11-4.16.27-7.2.31-6.08,1-14.48,2.2-23.69s2.78-17.48,4.08-23.43c.65-3,1.21-5.38,1.63-7,.21-.79.37-1.42.5-1.9.05-.22.12-.44.2-.65,0,.23-.04.45-.1.67-.1.49-.23,1.13-.4,1.92-.36,1.66-.87,4.07-1.47,7-1.2,6-2.69,14.23-3.92,23.43s-2,17.57-2.35,23.64c-.21,3-.35,5.49-.44,7.19-.05.8-.09,1.47-.12,2,0,.24-.03.47-.08.7Z"/>
  <path class="cls-1" d="m187.49,250.57c-.15,0-.26-12.85-.26-28.69s.11-28.69.26-28.69.26,12.84.26,28.69-.12,28.69-.26,28.69Z"/>
  <g class="cls-8">
    <path d="m183.47,256.2s1-44.91.05-66.62c-4,10.5-8.38,22.52-9.24,33.85-.8,11.66,2.45,23.23,9.19,32.77Z"/>
  </g>
  <path class="cls-12" d="m183.88,262.27h7.98l22.39-.07,78.67-.09-.24.23v-75.95l.26.26h-.56l-109-.64.21-.21c0,23.26-.06,42.39-.09,55.72v20.79-5.38c0-3.55,0-8.76-.06-15.41,0-13.33-.05-32.46-.09-55.72v-.21h.22l109,.54h.82v76.44h-.24l-78.67-.09-22.39-.07h-7.47c-.25-.03-.5-.07-.74-.14Z"/>
  <path class="cls-12" d="m304.79,333.76c0,.15-30,.26-67,.26s-67-.11-67-.26,30-.26,67-.26,67,.12,67,.26Z"/>
  <path class="cls-12" d="m371.59,304.79c-.26.02-.52.02-.78,0l-2.24.05-8.24.08-27.19.08h-7.22l-.07-.07-15.75-15.84-4.61-4.72-1.22-1.28c-.28-.3-.42-.46-.4-.47.16.12.32.25.46.4l1.29,1.23,4.71,4.6,15.88,15.76-.18-.08h7.11l27.19.07,8.24.09h2.24c.26,0,.52.04.78.1Z"/>
  <circle class="cls-12" cx="304.83" cy="283.28" r="3.67"/>
  <circle class="cls-4" cx="380.86" cy="297.11" r="29.99"/>
  <path class="cls-1" d="m383.32,297.54c2.52-1.13,4.14-3.65,4.13-6.41.22-3.59-2.52-6.67-6.11-6.89-3.59-.22-6.67,2.52-6.89,6.11-.01.24-.02.48,0,.72-.06,2.79,1.57,5.34,4.13,6.47-10,1.5-9.54,12.36-9.54,12.36l23.64.11s.55-11.01-9.36-12.47Z"/>
  <path class="cls-12" d="m86.08,143h3.65l10-.08,33.83-.09h.12l.07.09,4.83,5.54,25.43,29.32,7.66,8.92,2.07,2.44.52.64c.06.07.12.15.17.23,0,0-.08-.06-.21-.19l-.56-.61-2.14-2.38-7.79-8.81c-6.55-7.5-15.57-17.82-25.54-29.21l-4.83-5.55.2.09-33.83-.09-10-.07-2.73-.19h-.7c-.07.01-.15.01-.22,0Z"/>
  <circle class="cls-12" cx="174.47" cy="189.9" r="3.67"/>
  <circle class="cls-4" cx="62.17" cy="138.06" r="29.99"/>
  <path class="cls-1" d="m56.26,128.27c.86-.52,1.79-.93,2.76-1.2l.57-2.74,4.63-.08.67,2.71c.98.24,1.92.62,2.8,1.11l2.31-1.53,3.33,3.21-1.45,2.39c.52.87.93,1.8,1.2,2.77l2.74.57.08,4.63-2.71.66c-.24.98-.62,1.93-1.11,2.81l1.54,2.34-3.22,3.33-2.4-1.45c-.86.52-1.8.93-2.77,1.2l-.57,2.74-4.62.08-.67-2.72c-.97-.24-1.9-.61-2.77-1.1l-2.34,1.53-3.33-3.21,1.45-2.39c-.52-.87-.92-1.8-1.2-2.77l-2.74-.57-.08-4.59,2.72-.66c.24-.98.61-1.93,1.1-2.81l-1.53-2.34,3.21-3.33,2.4,1.45v-.04Zm2.46,6.16c-1.94,1.97-1.92,5.13.05,7.07,1.97,1.94,5.13,1.92,7.07-.05,1.94-1.97,1.92-5.13-.05-7.07-.02-.02-.05-.05-.07-.07-1.98-1.87-5.09-1.82-7,.12h0Z"/>
  <path class="cls-1" d="m58.72,134.43c.26-.32.58-.59.93-.81.96-.62,2.1-.89,3.24-.76.78.08,1.54.35,2.2.78.76.5,1.37,1.19,1.78,2,.22.44.38.91.45,1.39.08.51.08,1.02,0,1.53-.29,2.21-1.99,3.97-4.19,4.34-.51.08-1.02.08-1.53,0-.49-.06-.96-.19-1.41-.4-1.58-.7-2.69-2.17-2.93-3.88-.16-1.13.07-2.28.65-3.26.21-.37.47-.71.78-1,0,0-.3.33-.68,1-.92,1.66-.8,3.7.3,5.25.51.7,1.2,1.25,2,1.6.42.2.87.32,1.33.37.48.08.97.08,1.45,0,1.01-.17,1.94-.66,2.65-1.4.71-.74,1.17-1.68,1.31-2.7.08-.48.08-.97,0-1.45-.07-.46-.21-.91-.42-1.32-.37-.76-.93-1.4-1.63-1.87-1.58-1.05-3.62-1.09-5.25-.12-.75.4-1,.74-1.03.71Z"/>
  <path class="cls-1" d="m56.26,128.27l-.16-.08-.46-.27-1.8-1.06h.06l-3.2,3.35v-.09l1.54,2.33h0v.05c-.49.88-.86,1.81-1.09,2.79v.05h-.06l-2.71.67.07-.1c0,1.46.06,3,.1,4.63l-.09-.11,2.74.56h.07v.07c.28.96.68,1.88,1.2,2.73v.13c-.45.74-.94,1.56-1.45,2.39v-.15l3.34,3.21h-.17l2.34-1.53h.14c.87.51,1.8.9,2.77,1.16h.08v.08l.67,2.72-.14-.11,4.63-.08-.14.11c.18-.87.38-1.8.57-2.74v-.08h.08c.99-.27,1.94-.68,2.81-1.22h0l.07-.05.07.05c.81.48,1.6,1,2.39,1.45h-.17l3.21-3.33v.2c-.52-.78-1-1.56-1.53-2.33v-.15c.49-.87.85-1.8,1.09-2.77v-.08h.08l2.69-.67-.1.14c0-1.58,0-3.12-.08-4.63l.11.13-2.74-.64h-.09v-.08c-.27-.96-.67-1.88-1.18-2.73v-.13c.49-.82,1-1.62,1.45-2.39v.15l-3.27-3.21h.13l-2.34,1.52h-.06c-.87-.49-1.81-.86-2.78-1.1h0v-.03c-.24-1-.46-1.88-.66-2.72l.08.06-4.63.06h.07c-.24,1.09-.43,2-.59,2.74h0c-.73.2-1.44.48-2.12.82l-.5.26-.16.08.15-.1c.11-.07.27-.17.49-.29.61-.36,1.25-.67,1.92-.91h0l.55-2.74h.05l4.63-.11h.07v.07c.21.84.43,1.73.68,2.71l-.07-.07c.99.25,1.94.63,2.83,1.14h-.1l2.36-1.55h.07l.07.06,3.33,3.21.07.06-.05.08c-.47.78-.95,1.57-1.44,2.4v-.13c.52.87.93,1.81,1.22,2.79l-.1-.09,2.74.57h.1v.11c0,1.5.03,3.04.09,4.62v.11h-.1l-2.72.67.1-.11c-.24,1-.62,1.96-1.12,2.85v-.15l1.53,2.34.06.09-.07.09-3.22,3.33-.08.08-.09-.06-2.39-1.45h.14c-.88.53-1.82.94-2.8,1.22l.1-.11c-.19.94-.39,1.87-.57,2.74v.11h-.11l-4.63.08h-.13v-.11c-.23-.93-.46-1.86-.66-2.71l.1.1c-.99-.25-1.94-.63-2.84-1.12h.14l-2.34,1.53-.09.06-.08-.07-3.32-3.22-.08-.07.06-.09,1.45-2.39v.13c-.53-.87-.94-1.82-1.21-2.8l.09.08-2.74-.57h-.09v-.09c0-1.62,0-3.17-.07-4.63v-.08h.08l2.72-.66-.07.07c.24-.99.62-1.93,1.12-2.82v.08l-1.52-2.34v-.05h0l3.23-3.31h0l1.76,1.1.45.29h.17Z"/>
  <path class="cls-12" d="m371.72,116.47c-.26.05-.52.07-.78.06h-2.24l-8.25.08-27.19.07h-7.11l.19-.07-15.88,15.75-4.72,4.64-1.28,1.22c-.15.15-.3.28-.47.4.12-.17.25-.32.4-.47l1.22-1.28,4.61-4.72,15.78-15.86.08-.07h7.21l27.19.08,8.25.08h2.24c.25.02.5.05.75.09Z"/>
  <circle class="cls-12" cx="304.95" cy="137.98" r="3.67"/>
  <circle class="cls-4" cx="389.72" cy="112.99" r="29.99"/>
  <rect class="cls-1" x="376.52" y="100.42" width="7.36" height="23.13"/>
  <rect class="cls-1" x="387.06" y="104.3" width="7.36" height="19.04"/>
  <rect class="cls-1" x="397.6" y="110.21" width="7.36" height="12.96"/>
  <path class="cls-12" d="m105.93,39.79c.08-.02.17-.02.25,0h.75l2.86-.05,10.54-.08,34.77-.08h11l.08.08,18.57,20.07,5.41,5.92,1.43,1.6c.17.18.33.37.48.57-.2-.15-.38-.32-.54-.51l-1.5-1.54-5.52-5.81-18.7-20,.18.08h-10.89l-34.77-.04-10.54-.09h-3.61c-.09-.02-.17-.07-.25-.12Z"/>
  <circle class="cls-12" cx="191.13" cy="67.12" r="3.67"/>
  <circle class="cls-4" cx="88.82" cy="35.86" r="29.99"/>
  <path class="cls-1" d="m100.1,32.61c0-6.4-5.17-11.6-11.57-11.61-6.4,0-11.6,5.17-11.61,11.57,0,4.95,3.13,9.36,7.81,10.97l-.08,3.68,7.92.07v-3.85c4.53-1.69,7.53-6.01,7.53-10.84Z"/>
  <path class="cls-1" d="m92.61,49.41c-1.33.12-2.67.16-4,.12-1.33.04-2.67,0-4-.12,1.33-.12,2.67-.16,4-.12,1.33-.04,2.67,0,4,.12Z"/>
  <path class="cls-1" d="m90,52.46c-.46.16-.95.22-1.43.17-.48.02-.97-.07-1.41-.26.47-.05.95-.05,1.42,0,.48-.02.95.01,1.42.09Z"/>
  <path class="cls-4" d="m86.29,47.23s0-.09,0-.14v-1.89c0-1.32.07-3.2.13-5.51,0-1.17.06-2.44.1-3.81.02-.34-.03-.68-.14-1-.08-.31-.39-.52-.71-.47-.32.11-.56.38-.62.71-.08.34-.04.69.13,1,.37.67,1.04,1.12,1.8,1.2.79.09,1.58-.23,2.09-.84.56-.61.89-1.4.93-2.23.03-.41-.06-.82-.25-1.19-.2-.35-.61-.53-1-.42-.37.19-.56.6-.47,1,.09.41.28.78.56,1.09.49.67,1.16,1.19,1.94,1.5.37.14.77.19,1.17.14.38-.07.74-.23,1.05-.47.3-.22.53-.53.66-.89.11-.33.09-.69-.06-1-.14-.32-.44-.53-.79-.55-.34.03-.65.21-.84.5-.31.62-.48,1.31-.49,2-.15,1.36-.25,2.63-.33,3.8-.16,2.31-.29,4.18-.37,5.5-.05.63-.08,1.13-.11,1.49v.53-2.08c.06-1.3.15-3.18.3-5.51.07-1.16.16-2.43.3-3.8,0-.34.08-.69.14-1,.05-.37.18-.73.38-1.05.22-.34.59-.56,1-.59.43,0,.82.26,1,.65.19.38.22.83.08,1.23-.14.4-.4.75-.75,1-.34.25-.74.42-1.16.49-.43.05-.87,0-1.28-.15-.82-.32-1.54-.87-2.06-1.58-.32-.35-.53-.78-.62-1.25-.2-.53.07-1.11.6-1.31.53-.2,1.11.07,1.31.6.22.41.32.87.28,1.33-.04.9-.39,1.75-1,2.41-.57.67-1.43,1.01-2.3.91-.85-.08-1.6-.58-2-1.33-.19-.36-.24-.78-.14-1.18.08-.41.39-.74.79-.86.21-.04.43,0,.6.13.16.12.28.28.34.47.12.34.17.71.15,1.07,0,1.37-.09,2.65-.13,3.81-.09,2.32-.16,4.2-.21,5.52,0,.63-.05,1.13-.07,1.49v.39c.08.09.08.14.07.14Z"/>
  <path class="cls-12" d="m90.63,47.25v-.55l.06-1.5c0-1.23.14-3.15.29-5.51.07-1,.14-2,.24-3.11-.17-.02-.35-.07-.51-.13-.32-.11-.63-.27-.91-.47-.13.26-.3.49-.49.71-.5.58-1.23.92-2,.94h-.58v2.08c-.08,2.32-.16,4.2-.2,5.52,0,.63-.06,1.13-.07,1.49v.55h0v-2.05l.13-5.51.06-2.2c-.71-.16-1.31-.61-1.65-1.25-.2-.37-.25-.8-.14-1.2.1-.42.41-.75.82-.88.21-.04.43.01.61.14.17.12.29.29.36.49.12.35.16.71.14,1.08,0,.47,0,.93-.05,1.38l.29.06c.79.09,1.57-.23,2.08-.84.18-.21.34-.43.47-.68-.35-.27-.66-.59-.93-.94-.32-.34-.54-.76-.65-1.22-.1-.52.17-1.03.64-1.26.51-.15,1.05.07,1.31.53.22.41.32.88.28,1.34-.01.5-.12,1-.33,1.46.27.19.56.35.87.46l.44.12v-.41c0-.1,0-.19,0-.29,0-.24.06-.5.1-.75.05-.38.18-.74.38-1.06.22-.35.59-.57,1-.61h0c.43.01.82.27,1,.67.19.39.22.83.08,1.24-.14.4-.4.75-.75,1-.3.24-.65.41-1.02.51-.18.02-.36.02-.54,0-.11,1.11-.19,2.16-.26,3.1-.15,2.29-.28,4.15-.37,5.47h0c0,.64-.08,1.14-.1,1.5v.39c-.07.18-.07.19-.1.19Zm.62-10.66c-.1,1.06-.17,2.08-.24,3.1-.15,2.36-.24,4.28-.29,5.51l-.06,1.47c0-.36.06-.85.1-1.46h0c.09-1.32.22-3.18.37-5.48.07-.94.15-2,.26-3.09l-.14-.05Zm-4.73.92l-.06,2.18-.13,5.51v1.46c0-.35,0-.84.07-1.46,0-1.32.12-3.19.2-5.51v-2.09l-.08-.09Zm.19,0l.26.05c.86.09,1.72-.25,2.28-.91.19-.21.36-.44.49-.69l-.15-.12c-.13.25-.29.48-.48.69-.46.54-1.12.85-1.82.87h-.3l-.28-.06v.17Zm-.19,0h.14v-.18h-.14v.18Zm-.73-3.24h-.13c-.39.12-.69.44-.78.84-.1.38-.06.78.12,1.13.3.58.83,1.01,1.45,1.2v-.19c-.56-.18-1.02-.57-1.3-1.09-.15-.31-.2-.66-.13-1,.07-.34.32-.62.65-.73.33-.04.65.17.74.49.11.32.15.66.13,1v1.34h.14v-1.38c.02-.36-.02-.72-.14-1.06-.07-.18-.18-.34-.34-.46-.12-.08-.26-.13-.41-.14v.05Zm0,.21h-.1c-.31.11-.54.37-.61.69-.08.34-.03.69.13,1,.27.5.72.88,1.26,1.06v-1.32c.02-.34-.02-.68-.13-1-.07-.25-.28-.44-.54-.48v.05Zm5.65,2.14c.17.02.35.02.52,0,.42-.06.82-.22,1.16-.48.34-.25.59-.6.73-1,.14-.39.11-.83-.07-1.2-.17-.38-.53-.63-.94-.65h0c-.41.02-.78.24-1,.59-.19.3-.32.64-.38,1,0,.26-.07.51-.1.76,0,.09,0,.19,0,.28v.42h.15v-.42c0-.14,0-.29.06-.43.02-.55.16-1.09.43-1.58.19-.29.5-.48.85-.51h0c.35.03.65.24.79.56.16.32.18.7.06,1.04-.13.36-.36.68-.68.9-.32.23-.68.39-1.07.45-.16.01-.32.01-.48,0-.01.07-.02.15-.02.22v.05Zm-.2,0h.15c0-.06,0-.12,0-.18h-.15v.18Zm-1.44-.6c.28.19.57.35.89.47.16.05.33.09.5.12v-.18c-.15-.03-.3-.07-.45-.12-.31-.12-.61-.27-.88-.46-.02.03-.03.06-.05.09v.08Zm1.66.39c.16.02.31.02.47,0,.36-.06.71-.21,1-.44.3-.22.53-.52.66-.87.11-.33.09-.69-.06-1-.13-.3-.42-.51-.75-.53h0c-.34.02-.64.21-.82.49-.27.47-.41,1.01-.43,1.55,0,.14,0,.29-.06.43s0,.15,0,.29v.08Zm-1.86-.53l.16.11.08-.17-.16-.12s-.05.07-.07.1v.08Zm-.6-3.5c-.1-.02-.2-.02-.3,0-.45.22-.71.71-.61,1.21.09.44.3.86.6,1.2.27.34.57.65.91.92.03-.06.06-.12.08-.18-.31-.26-.59-.55-.84-.86-.28-.32-.47-.7-.56-1.11-.15-.41.06-.88.47-1.03.41-.15.88.06,1.03.47h0c.21.39.28.83.22,1.26-.01.45-.11.9-.29,1.31l.16.12c.2-.45.31-.94.32-1.43.03-.44-.07-.87-.27-1.26-.18-.35-.53-.58-.92-.62Zm0,.24c-.07-.01-.15-.01-.22,0-.34.18-.53.56-.45.94.09.4.28.78.55,1.09.25.31.52.59.82.85.18-.39.28-.82.3-1.25.04-.41-.04-.81-.24-1.17-.16-.27-.44-.45-.76-.46Z"/>
  <path class="cls-1" d="m91.9,50.93c-1.08.13-2.18.17-3.27.13-1.09.04-2.19,0-3.27-.13,1.09-.12,2.18-.16,3.27-.12,1.09-.04,2.18,0,3.27.12Z"/>
  <path class="cls-1" d="m49.1,207.66v30.13c0,5.12,6.14,14.3,14.24,13.94h.66c7-.84,3-9.17,3-14v-4.4s7.67-.71,8.23-8.3c.27-3.67.22-11.27.08-18.15-.18-7.36-5.96-13.36-13.31-13.81h-.73c-7.91-.07-12.36,6.66-12.17,14.59Z"/>
  <path class="cls-11" d="m67,233.39c-3.51-.22-6.88-1.45-9.71-3.53,0,0,2.07,5.7,9.69,5.48l.02-1.95Z"/>
  <path class="cls-12" d="m62.4,210.2c-.14.16-1-.54-2.3-.56s-2.21.62-2.35.45.09-.35.5-.64c.55-.38,1.21-.58,1.88-.56.66.01,1.3.24,1.83.64.39.31.52.6.44.67Z"/>
  <path class="cls-12" d="m62.58,213.74c0,.55-.45,1-1,1s-1-.45-1-1c0-.55.45-1,1-1,.02,0,.04,0,.06,0,.53.03.94.47.94,1Z"/>
  <path class="cls-12" d="m65.69,219c.63-.15,1.27-.23,1.92-.22.3,0,.58-.06.64-.26.05-.3,0-.62-.14-.89-.24-.74-.48-1.52-.74-2.33-.7-1.97-1.24-4-1.62-6.06.86,1.91,1.57,3.89,2.1,5.92.25.81.48,1.59.71,2.33.16.37.19.79.08,1.18-.1.21-.29.36-.52.41-.17.02-.34.02-.51,0-.64.06-1.29.03-1.92-.08Z"/>
  <path class="cls-12" d="m61.81,206.07c-.12.29-1.14.09-2.36.16s-2.21.36-2.36.09.13-.39.54-.65c.54-.31,1.15-.49,1.77-.52.62-.04,1.25.07,1.82.33.43.22.64.46.59.59Z"/>
  <path class="cls-12" d="m73.9,207.12c-.13.23-1.12,0-2.32,0s-2.2.14-2.33-.1.14-.32.55-.5c.56-.23,1.17-.34,1.78-.32.61.01,1.22.16,1.77.42.42.17.65.38.55.5Z"/>
  <path class="cls-1" d="m49.38,213.32c-.13-.06-5.13-1.86-5.28,3.34s5.1,4.28,5.12,4.13.16-7.47.16-7.47Z"/>
  <path class="cls-11" d="m47.68,218.78s-.09.06-.24.12c-.22.09-.46.09-.68,0-.68-.45-1.06-1.24-1-2.05,0-.45.1-.89.29-1.29.11-.32.37-.57.7-.67.22-.06.44.05.53.26.07.15,0,.25.06.26s.11-.08.08-.3c-.03-.13-.1-.25-.2-.33-.14-.11-.32-.17-.5-.15-.45.07-.82.36-1,.78-.23.44-.35.94-.35,1.44-.08.95.41,1.85,1.25,2.29.28.09.59.05.84-.11.21-.13.24-.24.22-.25Z"/>
  <path class="cls-12" d="m42.36,205c1.07-1.85,1.29-4,1.86-6.09s1.69-4.19,3.69-4.93c1.78-.86,3.89-.69,5.51.45.52-2.75,2.6-4.94,5.31-5.6,3.14-.65,6.39-.43,9.41.63,2,.77,3.88,2.36,6.2,4.7.98.99,1.88,2.05,2.69,3.19l2.38,7.06-1.92,3.74c-.12.25-.23.5-.38.76l-1.68,7.85c-.14-2.13-.07-9.56-.21-11.7-3.25-.06-6.33-1.44-8.53-3.82-1.18-1.28-2.12-2.89-3.68-3.64-2-1-4.42-.22-6.53.54l.09-.08c-1.1.53-2.08,1.26-2.91,2.15.53,4.22.14,8.5-1.14,12.55-.19.6-.72,1.86-1.31,2.1-1.16.46-1.49-.73-2.2-1.35-.63-.42-1.38-.6-2.13-.5-.6-1.76-1.1-3.56-1.49-5.38-.7.23-1.45.28-2.18.17.21-.54.43-1.07.65-1.61-.28.21-.59.35-.93.43-.35.07-.7-.08-.89-.38-.16-.41.1-.87.32-1.24Z"/>
  <path class="cls-4" d="m55.86,195.27c-.27.22-.53.45-.76.71-.58.74-.96,1.61-1.1,2.53-.12.64-.18,1.28-.17,1.93,0,.7.07,1.45.13,2.24.08.82.11,1.65.09,2.48-.02.44-.07.88-.16,1.32-.06.46-.24.9-.52,1.28-.27.3-.67.44-1.07.37-.38-.06-.74-.24-1-.53-.41-.56-.67-1.23-.75-1.92h.16c-.22.58-.52,1.12-.9,1.6-.37.45-.89.75-1.47.82-.27.03-.54,0-.78-.12-.23-.11-.42-.3-.54-.52-.12-.2-.18-.44-.17-.67,0-.22.09-.44.24-.6l.08.08c-.45.52-1,.94-1.62,1.24-.16.08-.33.14-.5.2l-.18.05c.05-.03.11-.06.17-.08l.49-.22c.59-.32,1.12-.74,1.55-1.26l.09.07c-.25.33-.25.79,0,1.12.11.2.28.36.48.46.22.1.47.14.71.11.54-.07,1.03-.35,1.37-.78.36-.48.65-1.01.87-1.57l.1-.24.06.26c.07.67.31,1.3.71,1.84.23.25.54.41.87.47.34.06.68-.06.91-.31.26-.35.42-.77.48-1.2.08-.43.13-.86.15-1.29.02-.82,0-1.64-.07-2.46-.06-.79-.12-1.54-.12-2.25,0-.66.06-1.31.2-1.95.17-.94.58-1.83,1.2-2.56.22-.26.48-.48.77-.65Z"/>
  <path class="cls-4" d="m79.41,202.38l-.06.06-.19.14c-.1.08-.21.15-.32.21-.13.07-.27.17-.45.25-1.01.47-2.13.68-3.24.62-1.66-.09-3.26-.66-4.6-1.64-1.63-1.21-2.99-2.74-4-4.49-.56-.91-1-1.85-1.53-2.71-.46-.84-1.04-1.61-1.72-2.29-.61-.61-1.37-1.06-2.2-1.3-.38-.1-.77-.14-1.16-.12-.36.02-.71.09-1.05.21-.59.22-1.12.56-1.57,1-.34.32-.62.7-.84,1.12-.17.37-.3.75-.38,1.15v-.32c.06-.3.15-.59.28-.86.21-.43.49-.82.83-1.16.74-.75,1.74-1.2,2.79-1.25.4-.03.81.01,1.2.12.86.24,1.64.69,2.27,1.32.7.68,1.29,1.47,1.76,2.32.51.87,1,1.81,1.53,2.71,1,1.73,2.34,3.24,3.93,4.45,1.32.97,2.88,1.54,4.51,1.64,1.1.07,2.2-.12,3.21-.56.35-.18.68-.39,1-.62Z"/>
  <path class="cls-12" d="m74,210.55c-.15.15-1-.54-2.3-.56s-2.21.61-2.35.45.09-.35.5-.65c1.12-.78,2.62-.74,3.71.08.38.32.51.61.44.68Z"/>
  <path class="cls-12" d="m72.84,213.74c0,.55-.45,1-1,1s-1-.45-1-1,.45-1,1-1,1,.45,1,1Z"/>
  <path class="cls-12" d="m76.43,196.48c.58.93,1.6,1.5,2.7,1.52.38-.08.76-.19,1.13-.33.37.22.28,1.5,0,1.85-.24.3-.51.57-.8.82,1.25.67,2.38.34,3.71-.14-.27,2.31-1.74,4.29-3.87,5.22-.66.34-1.44.34-2.1,0-.5-.41-.83-.99-.92-1.63-.59-2.29-.9-4.64-.92-7l1.07-.31Z"/>
  <path class="cls-12" d="m65.7,222.26c0,.07-.23.23-.7.3-.63.08-1.26-.04-1.81-.36-.54-.33-.97-.82-1.2-1.41-.16-.44-.14-.74-.07-.75s.44,1.06,1.54,1.71c.71.32,1.47.49,2.24.51Z"/>
  <polygon class="cls-1" points="105.29 296.37 73.04 297.09 72.46 286.33 111.31 289.5 105.29 296.37"/>
  <path class="cls-4" d="m129.7,262.38l.35.8c-2.81,5.36-13,24.8-13,24.8l-12.56,6.09-26.49-1.17v-1.62l11.93-6.14,19.29.48,10.37-20.53c.26-.52.75-.89,1.33-1l8.78-1.71Z"/>
  <path class="cls-12" d="m104.46,294.07c.31-.38.58-.79.8-1.22.46-.77,1.07-1.85,1.73-3s1.24-2.29,1.65-3.09c.25-.42.45-.87.6-1.33-.31.38-.58.79-.8,1.22-.46.77-1.07,1.85-1.73,3.05s-1.24,2.29-1.65,3.09c-.25.4-.45.83-.6,1.28Z"/>
  <polygon class="cls-12" points="101.66 291.42 88.82 291 98.51 285.94 108.88 286.18 101.66 291.42"/>
  <path class="cls-12" d="m78,291.22h1.07l2.93.09c2.47.08,5.88.23,9.65.4s7.19.28,9.66.3h3.72c.09.01.19.01.28,0h-1.07l-2.93-.09c-2.47-.08-5.88-.23-9.65-.4s-7.18-.28-9.66-.3h-3.72c-.09-.02-.19-.02-.28,0Z"/>
  <path class="cls-1" d="m117,283.58c-.36-.42-1.84-1.31-3,2.43,0,0-.54-.54-1.61.83-.97,1.47-1.81,3.02-2.52,4.63l-3,1.45-2.39,1.15s.65,2.4.83,2.3,3.44-.28,3.44-.28l.89-.42s2.19,0,2.31-.59,3.73-3.08,3.73-3.62v-3.46s1.64-4,1.32-4.42Z"/>
  <path class="cls-11" d="m113.71,285.94s.06,0,.16.05c.13.06.2.2.19.34h0c-.13.44-.3,1.11-.48,1.94s-.37,1.81-.68,2.82c-.21.66-.55,1.28-1,1.81l-1.08,1.4c-.35.42-.67.86-.94,1.34.41-.36.79-.76,1.11-1.2l1.13-1.36c.23-.27.44-.55.64-.84.21-.33.37-.69.48-1.06.27-.94.49-1.89.64-2.86.14-.74.26-1.39.37-1.95h0c0-.19-.13-.36-.32-.41-.07-.04-.15-.05-.22-.02Z"/>
  <path class="cls-11" d="m114.24,292.92c.38-.77.67-1.58.86-2.41.3-.8.48-1.64.56-2.49-.38.77-.67,1.57-.86,2.41-.28.8-.47,1.64-.56,2.49Z"/>
  <path class="cls-4" d="m58.61,428.42l-4.45,15.4s14.16,9.69,13.62,12.62l-30.17-7.55,5.94-24.28,15.06,3.81Z"/>
  <path class="cls-7" d="m45.16,440.18c-.63.05-1.12.56-1.16,1.19.01.65.53,1.18,1.18,1.21.68-.04,1.23-.59,1.26-1.27-.07-.69-.69-1.2-1.38-1.13-.02,0-.04,0-.06,0"/>
  <g class="cls-10">
    <path class="cls-1" d="m37.61,448.89l.69-2.42,28.7,8.14s1.2.92.81,1.83l-30.2-7.55Z"/>
  </g>
  <path class="cls-12" d="m54.69,443.79c0,.15-.8,0-1.64.32s-1.38.82-1.51.72.32-.88,1.34-1.22,1.87.05,1.81.18Z"/>
  <path class="cls-12" d="m57.53,445.89c0,.15-.71.24-1.36.74s-1,1.12-1.11,1.08,0-.9.79-1.5,1.71-.46,1.68-.32Z"/>
  <path class="cls-12" d="m58.38,450.13c-.15,0-.17-.79.41-1.5s1.35-.86,1.39-.73-.51.47-1,1.06-.65,1.19-.8,1.17Z"/>
  <path class="cls-12" d="m55.31,440.17c-.09.12-.72-.26-1.56-.41s-1.57-.05-1.61-.2.71-.51,1.7-.32,1.57.83,1.47.93Z"/>
  <path class="cls-4" d="m48,432.05l-.7,16s16,6.09,16.2,9.06l-31.1-.24.07-25,15.53.18Z"/>
  <path class="cls-7" d="m37.72,446.64c-.62.18-1,.8-.89,1.44.16.63.79,1.03,1.43.9.66-.2,1.06-.86.93-1.54-.24-.64-.93-.97-1.58-.76"/>
  <g class="cls-10">
    <path class="cls-1" d="m32.43,456.88l.1-2.52,29.79,1.18s1.38.61,1.21,1.58l-31.1-.24Z"/>
  </g>
  <path class="cls-12" d="m47.83,447.91c0,.15-.76.21-1.51.69s-1.16,1.12-1.3,1.06.1-.94,1-1.5,1.85-.39,1.81-.25Z"/>
  <path class="cls-12" d="m51.09,449.28c0,.15-.63.4-1.15,1s-.68,1.32-.83,1.31-.24-.87.42-1.65,1.55-.8,1.56-.66Z"/>
  <path class="cls-12" d="m52.91,453.2c-.14,0-.34-.73.05-1.56s1.11-1.15,1.17-1-.38.56-.69,1.25-.38,1.3-.53,1.31Z"/>
  <path class="cls-12" d="m47.59,444.24c-.07.14-.76-.08-1.62,0s-1.53.32-1.61.19.57-.67,1.58-.71,1.73.4,1.65.52Z"/>
  <path class="cls-12" d="m48,444.06c.1,1.28.1,2.57,0,3.85l-.12-.19c1.81.69,4.23,1.63,6.8,2.84,2.43,1.08,4.74,2.42,6.89,4,.66.48,1.23,1.07,1.7,1.74.33.5.28.88.23.86-.08-.27-.21-.52-.39-.74-.51-.6-1.11-1.12-1.76-1.56-2.18-1.46-4.49-2.73-6.9-3.79-2.54-1.21-4.93-2.18-6.72-2.94l-.13-.06v-.13c.03-1.3.17-2.6.4-3.88Z"/>
  <path class="cls-12" d="m30.75,324.92v11.5l3.09,44.81s-1.93,21.74-3.11,34c-1,10.65.65,29.21.65,29.21h18l6.43-61.89,4-38.6,6.95-17.57-36.01-1.46Z"/>
  <polygon class="cls-12" points="79.04 326.97 74.65 389.44 56.46 436.25 55.63 439.06 44.89 436.47 52.88 325.7 79.04 326.97"/>
  <path class="cls-4" d="m62,344.42c.01.09.01.17,0,.26v.77c0,.68-.06,1.67-.11,2.93-.08,2.54-.31,6.22-.62,10.77-.66,9.09-1.88,21.63-3.8,35.43s-4,26.27-5.48,35.29c-.78,4.49-1.4,8.14-1.84,10.67-.22,1.25-.39,2.22-.52,2.9-.06.32-.11.57-.14.76l-.06.25c-.01-.09-.01-.17,0-.26,0-.18.06-.43.1-.75.11-.69.25-1.66.44-2.91.41-2.54,1-6.19,1.71-10.69,1.45-9,3.48-21.49,5.37-35.3s3.18-26.33,3.91-35.41c.35-4.54.62-8.22.76-10.76.08-1.26.14-2.24.18-2.93l.06-.76.04-.26Z"/>
  <path class="cls-4" d="m60.88,328.78c0,.51-.41.93-.92.94s-.93-.41-.94-.92c0-.51.41-.93.92-.94,0,0,.01,0,.02,0,.51,0,.91.41.92.92Z"/>
  <path class="cls-9" d="m28,330.92s2.06-15.75,2.29-17.54,3.71-24.62,3.71-24.62l-3.25-43.38c2.47-2.69,15.41-11.06,15.41-11.06l2-5.53,16.18,12.1,2.13,6.61.74-10.85,3.53,3.86.28,6.61,2.25,3.41,2.44,15.13c.34,2.11.53,4.24.59,6.38l.51,19.08,3.78,42.62-12.72,4c-4.59,1.43-9.47,1.64-14.16.62-6.76-1.47-16.12-3.46-17.8-3.6-2.7-.23-5.22,2.79-5.22,2.79-.46-.03-2.92-3.65-2.69-6.63Z"/>
  <path class="cls-12" d="m46.69,233.9c.17.29.37.57.59.82.41.5,1,1.22,1.8,2.08,1.54,1.74,3.8,4,6.25,6.55,1.21,1.27,2.35,2.49,3.33,3.63l.12.14.13-.12c1.65-1.65,2.84-3.23,3.76-4.27l1.07-1.22c.14-.13.26-.28.37-.44,0,0-.17.11-.45.37s-.67.65-1.14,1.16c-1,1-2.2,2.55-3.85,4.16h.25c-1-1.17-2.11-2.4-3.32-3.67-2.46-2.55-4.75-4.79-6.34-6.47-.8-.84-1.43-1.53-1.87-2-.22-.25-.45-.49-.7-.72Z"/>
  <path class="cls-12" d="m72,312.8v-.67c0-.47-.06-1.1-.1-1.91-.11-1.68-.27-4.07-.46-7-.41-5.92-1-14.09-1.72-23.1s-1.43-17.18-2-23.09c-.29-2.95-.56-5.33-.76-7-.11-.8-.2-1.43-.26-1.89,0-.2-.06-.36-.08-.49v-.17.67c0,.46.11,1.1.19,1.9.16,1.68.37,4.06.64,7,.52,5.9,1.19,14.07,1.91,23.09s1.36,17.15,1.82,23.09c.25,2.93.44,5.31.58,7,.07.81.13,1.44.17,1.91,0,.19,0,.36.06.49s-.05.17.01.17Z"/>
  <g class="cls-8">
    <path d="m77.09,295.19c-1.69.85-3.63,1.14-5.29,2-1.16.7-2.24,1.52-3.22,2.45-7.1,6.11-16,10.49-25.37,10.65-3.22.06-6.65-.47-9-2.62-1.42-1.1-2.11-2.9-1.79-4.67.62-2.06,3-3,5-3.62l19.17-6c4.01-1.36,8.11-2.42,12.27-3.18,2.81-.45,5.65-.62,8.49-.51"/>
  </g>
  <path class="cls-12" d="m55.83,321.93c.05.09,4.67-2.41,10.33-5.57s10.21-5.81,10.16-5.89-4.68,2.41-10.32,5.53-10.22,5.85-10.17,5.93Z"/>
  <path class="cls-12" d="m70.48,336.94c.04-.3.04-.61,0-.91,0-.65-.08-1.47-.13-2.45-.09-2.07-.11-4.93-.07-8.1s0-6,0-8.11v-2.46c.02-.3,0-.6-.06-.9-.05.3-.08.6-.08.9,0,.65,0,1.47-.08,2.45-.06,2.08-.12,4.95-.15,8.12s0,6,.17,8.12c.08,1,.17,1.87.25,2.45.02.3.07.6.15.89Z"/>
  <g class="cls-8">
    <path d="m46.72,286.33c-1.61-6.21-1.46-13.33-1.29-19.7-1.14,4.37-2.43,11.06-3.35,15.66l1.81,4.41,2.83-.37Z"/>
  </g>
  <g class="cls-8">
    <path d="m66.51,247.5c-.06-.12.58.57,0,0-.88-1-1.66-2.1-2.32-3.26-1.74,1.6-3.37,3.32-4.87,5.14-2.24-2.33-4.47-4.67-6.49-7.19-1.62-2.02-3.09-4.15-4.41-6.38l10.37,11.07,5.59-6,2.13,6.62Z"/>
  </g>
  <path class="cls-1" d="m70.38,282.56l-.47,8.57s-12.71,5.94-21,8.08-17.89,1-17.89,1l3.28-13.07,36.08-4.58Z"/>
  <path class="cls-1" d="m95,284.32c.07-.72-.29-1.41-.92-1.76-1.11-.68-3.42-2.19-3.42-2.19l-7-.63-13.22,2.82-.47,8.57s6.73.37,8.3.32c1.99-.33,3.94-.81,5.85-1.45,0,0,7.31.92,7.65.52s.82-.87.35-1.16-6.12-1.74-6.12-1.74l3.76-.29s5.51,1.16,5.92,1,.92-.87.58-1.4l-.26-.53c.2-.56-.05-1.19-.58-1.45l-.52-.17.1-.46Z"/>
  <path class="cls-11" d="m85,284.21c.54.2,1.11.3,1.69.28,1.34-.03,2.68.09,4,.35.7.26,1.39.55,2.06.88.57.24,1.16.45,1.75.63.54.2,1.11.31,1.68.34,0-.05-.62-.21-1.6-.56-.5-.18-1.08-.4-1.7-.69-.67-.35-1.37-.66-2.09-.91-.74-.21-1.51-.31-2.28-.3h-1.85c-1.05.05-1.66-.07-1.66-.02Z"/>
  <path class="cls-11" d="m85.57,282.24c.49.17,1,.24,1.52.2,1.2-.12,2.4.04,3.53.46,1.31.54,2.49,1.07,3.36,1.42.46.22.94.39,1.43.51-.41-.3-.86-.54-1.33-.73-.85-.4-2-1-3.34-1.51-.63-.27-1.31-.43-2-.45-.63,0-1.18,0-1.65.06-.94.07-1.51,0-1.52.04Z"/>
  <path class="cls-9" d="m30.78,245.38s-4.41,7.56-5,10.3-1.91,31.64-1.37,32.19c.5.44,1.04.85,1.59,1.23,0,0-3.15.68-2.19,2.33.58.99,1.22,1.95,1.92,2.87,0,0,1.74,7.28,2.33,7.42s13.84.59,13.84.59c1.01-2.37,1.85-4.81,2.5-7.31.74-3,3.19-10.18,3.19-10.18l-4.39-1.82,3-21.85s1.22-11.8-3.55-14.85-10.09-3.99-11.87-.92Z"/>
  <path class="cls-11" d="m69.91,291.13c.26.07.53.1.8.1l2.21.13,3.27.16,1.93.09c.34-.03.67-.09,1-.18l1-.24c1.42-.36,2.76-.72,4-1.05h0c1.81.16,3.35.29,4.44.37l1.27.09c.15.02.31.02.46,0-.14-.05-.3-.08-.45-.09l-1.26-.17c-1.09-.13-2.62-.3-4.43-.49h-.06l-4,1-1,.25c-.33.09-.66.15-1,.17l-1.93-.06-3.27-.09h-2.2c-.26-.02-.52-.02-.78,0Z"/>
  <path class="cls-12" d="m42.58,301.21c.05-.42.14-.83.27-1.23l.9-3.31c.78-2.79,1.89-6.64,3.15-10.87l.3-1,.14.31-4.09-1.89.28-.06c-2.1,2.23-3.9,4.12-5.2,5.45l-1.52,1.53c-.18.19-.37.37-.59.52.13-.23.29-.44.47-.63l1.42-1.63c1.23-1.38,3-3.32,5.06-5.57l.12-.13.16.07,4.11,1.87.2.09-.06.22-.3,1c-1.26,4.24-2.43,8.07-3.3,10.83l-1.1,3.22c-.09.42-.23.83-.42,1.21Z"/>
  <path class="cls-12" d="m43.29,282.56c.02-1.16.13-2.31.33-3.45.27-2.13.68-5.07,1.17-8.31s1-6.16,1.33-8.28c.15-1.15.38-2.29.7-3.4-.02,1.16-.14,2.32-.34,3.46-.27,2.13-.69,5.06-1.18,8.3s-.95,6.17-1.32,8.28c-.18,1.06-.34,1.91-.46,2.5-.03.31-.11.61-.23.9Z"/>
  <path class="cls-12" d="m32.6,244.27c.23-.16.49-.28.77-.34.73-.24,1.48-.38,2.25-.43,5.34-.4,10.08,3.39,10.89,8.68.13.76.16,1.53.09,2.29,0,.28-.05.57-.16.83-.03-1.02-.13-2.04-.29-3.05-.97-5-5.42-8.55-10.51-8.38-1.02.07-2.04.2-3.04.4Z"/>
  <path class="cls-12" d="m70.45,246.83c-.79-2.07-1.42-4.19-1.88-6.36h.5l-.08.36c-.4,1.61-.91,3.19-1.52,4.73-.21.65-.52,1.27-.91,1.84-.15-.06,1-3,1.92-6.7l.09-.35.25-1,.25,1c.62,2.12,1.08,4.29,1.38,6.48Z"/>
  <path class="cls-5" d="m50.32,215.21c-.12,1.07-.19,2.76.34,4.72.18.68.53,1.74,1.53,3.49.9,1.57,2.37,3.77,4.72,6.13"/>
  <path class="cls-6" d="m75.36,217.43c.08,2.66-.23,4.81-.53,6.3-.61,3-1.1,5.41-3.09,7.31-1.53,1.46-3.31,2.01-4.4,2.25"/>
</svg>