<svg width="19" height="12" viewBox="0 0 19 12" fill="none" xmlns="http://www.w3.org/2000/svg">
<path d="M17.8683 3.79157L14.8773 0.266665C14.8055 0.182168 14.72 0.115101 14.6258 0.0693322C14.5317 0.0235637 14.4306 0 14.3286 0C14.2266 0 14.1256 0.0235637 14.0314 0.0693322C13.9372 0.115101 13.8517 0.182168 13.7799 0.266665C13.6359 0.435575 13.5552 0.664064 13.5552 0.90223C13.5552 1.1404 13.6359 1.36889 13.7799 1.5378L16.5312 4.77422H0.772849C0.567877 4.77422 0.371299 4.8692 0.226362 5.03827C0.0814249 5.20733 0 5.43663 0 5.67573C0 5.91483 0.0814249 6.14413 0.226362 6.31319C0.371299 6.48226 0.567877 6.57724 0.772849 6.57724H16.5776L13.7799 9.83169C13.7075 9.9155 13.65 10.0152 13.6107 10.1251C13.5715 10.2349 13.5513 10.3528 13.5513 10.4718C13.5513 10.5908 13.5715 10.7086 13.6107 10.8185C13.65 10.9283 13.7075 11.028 13.7799 11.1118C13.8517 11.1963 13.9372 11.2634 14.0314 11.3092C14.1256 11.3549 14.2266 11.3785 14.3286 11.3785C14.4306 11.3785 14.5317 11.3549 14.6258 11.3092C14.72 11.2634 14.8055 11.1963 14.8773 11.1118L17.8683 7.61398C18.3025 7.10688 18.5463 6.41948 18.5463 5.70278C18.5463 4.98607 18.3025 4.29867 17.8683 3.79157Z" fill="#1F28CF"/>
</svg>
