<svg width="118" height="66" viewBox="0 0 118 66" fill="none" xmlns="http://www.w3.org/2000/svg">
<path d="M1.89074 29.0767C8.12766 42.9797 23.2387 51.3036 38.0494 51.7954C56.4793 52.4091 73.2116 42.5654 86.1368 30.1668C93.4993 23.1042 99.9078 15.1074 105.999 6.92985C107.566 4.82805 111.149 6.87281 109.571 9.00702C98.0691 24.5305 85.2245 39.8923 67.6723 48.682C51.7828 56.6376 32.663 58.7561 16.8168 49.4392C9.24223 44.9874 3.27501 38.0541 0.234672 29.7711C-0.118374 28.8182 1.46808 28.1376 1.89074 29.0767Z" fill="#FFAF00"/>
<path d="M110.356 9.81458C110.068 14.175 109.939 18.5811 110.079 22.9499C110.222 27.3324 110.792 31.7037 110.803 36.0825C110.805 37.7687 108.329 38.083 107.888 36.4554C105.578 27.9079 106.563 18.0892 108.265 9.52391C108.506 8.34312 110.437 8.60284 110.356 9.81458Z" fill="#FFAF00"/>
<path d="M106.481 9.96176C99.2632 11.876 91.3239 12.646 84.0003 10.8267C82.4711 10.4447 83.1461 8.27701 84.6302 8.50881C91.923 9.6479 98.9161 10.307 106.243 9.05679C106.817 8.957 107.069 9.80418 106.481 9.96176Z" fill="#FFAF00"/>
</svg>
