<svg width="58" height="51" viewBox="0 0 58 51" fill="none" xmlns="http://www.w3.org/2000/svg">
<path d="M10.8602 3.9161e-06H46.2644C52.2624 3.9161e-06 57.1247 4.8524 57.1247 10.8381V39.1803C57.1247 45.166 52.2624 50.0184 46.2645 50.0184H10.8602C4.8623 50.0184 0 45.166 0 39.1803V10.8381C0 4.8524 4.8623 0 10.8602 0V3.9161e-06Z" fill="white"/>
<path d="M21.4959 25.4439C21.4959 25.8419 21.539 26.1646 21.6145 26.4012C21.7007 26.6379 21.8085 26.896 21.9594 27.1757C22.0133 27.2617 22.0348 27.3478 22.0348 27.4231C22.0348 27.5306 21.9702 27.6382 21.83 27.7458L21.151 28.1975C21.054 28.2621 20.957 28.2944 20.8708 28.2944C20.763 28.2944 20.6552 28.2406 20.5474 28.1438C20.3965 27.9824 20.2672 27.8103 20.1594 27.6382C20.0516 27.4554 19.9438 27.251 19.8253 27.0036C18.9845 27.9932 17.9283 28.488 16.6564 28.488C15.751 28.488 15.0289 28.2298 14.5007 27.7135C13.9726 27.1972 13.7031 26.5088 13.7031 25.6483C13.7031 24.734 14.0265 23.9918 14.684 23.4324C15.3414 22.8731 16.2145 22.5934 17.3247 22.5934C17.6911 22.5934 18.0684 22.6257 18.4672 22.6795C18.866 22.7333 19.2756 22.8193 19.7067 22.9161V22.1309C19.7067 21.3134 19.5342 20.7433 19.2001 20.4099C18.8552 20.0764 18.2732 19.9151 17.4432 19.9151C17.066 19.9151 16.678 19.9581 16.2792 20.0549C15.8804 20.1517 15.4923 20.27 15.1151 20.4206C14.9426 20.4959 14.8133 20.539 14.7378 20.5605C14.6624 20.582 14.6085 20.5927 14.5654 20.5927C14.4145 20.5927 14.339 20.4852 14.339 20.2593V19.7322C14.339 19.5601 14.3606 19.431 14.4145 19.3557C14.4684 19.2804 14.5654 19.2051 14.7163 19.1298C15.0935 18.9362 15.5462 18.7749 16.0744 18.6458C16.6025 18.506 17.163 18.4414 17.7558 18.4414C19.0384 18.4414 19.9761 18.7319 20.5797 19.3127C21.1725 19.8936 21.4743 20.7756 21.4743 21.9588V25.4439H21.4959H21.4959ZM17.1199 27.0789C17.4756 27.0789 17.842 27.0143 18.2301 26.8853C18.6181 26.7562 18.963 26.5195 19.254 26.1969C19.4265 25.9925 19.5558 25.7666 19.6205 25.5084C19.6851 25.2503 19.7283 24.9383 19.7283 24.5726V24.1209C19.4157 24.0456 19.0815 23.981 18.7366 23.938C18.3917 23.895 18.0576 23.8734 17.7235 23.8734C17.0013 23.8734 16.4732 24.0133 16.1175 24.3037C15.7618 24.5941 15.5893 25.0029 15.5893 25.5407C15.5893 26.0463 15.7187 26.4227 15.9881 26.6809C16.2468 26.9498 16.6241 27.0789 17.1199 27.0789V27.0789ZM25.7749 28.2406C25.5809 28.2406 25.4516 28.2083 25.3654 28.133C25.2791 28.0685 25.2037 27.9179 25.139 27.7135L22.6061 19.3988C22.5414 19.1836 22.5091 19.0438 22.5091 18.9685C22.5091 18.7964 22.5953 18.6996 22.7678 18.6996H23.824C24.0288 18.6996 24.1689 18.7319 24.2444 18.8072C24.3306 18.8717 24.3953 19.0223 24.46 19.2267L26.2707 26.3474L27.9522 19.2267C28.0061 19.0115 28.0707 18.8717 28.157 18.8072C28.2432 18.7426 28.3941 18.6996 28.5881 18.6996H29.4504C29.6552 18.6996 29.7953 18.7319 29.8815 18.8072C29.9677 18.8717 30.0432 19.0223 30.0863 19.2267L31.7893 26.4335L33.6539 19.2267C33.7186 19.0115 33.7941 18.8717 33.8695 18.8072C33.9557 18.7426 34.0959 18.6996 34.2899 18.6996H35.2923C35.4647 18.6996 35.5617 18.7856 35.5617 18.9685C35.5617 19.0223 35.5509 19.0761 35.5402 19.1406C35.5294 19.2051 35.5078 19.2912 35.4647 19.4095L32.8671 27.7243C32.8024 27.9394 32.727 28.0792 32.6408 28.1438C32.5545 28.2083 32.4144 28.2513 32.2312 28.2513H31.3042C31.0995 28.2513 30.9593 28.2191 30.8731 28.1438C30.7869 28.0685 30.7114 27.9286 30.6683 27.7135L28.9977 20.7756L27.3378 27.7027C27.2839 27.9179 27.2192 28.0577 27.133 28.133C27.0468 28.2083 26.8959 28.2406 26.7019 28.2406H25.7749H25.7749ZM39.6252 28.531C39.0647 28.531 38.5042 28.4665 37.9653 28.3374C37.4264 28.2083 37.006 28.0685 36.7258 27.9071C36.5533 27.8103 36.4348 27.7028 36.3917 27.6059C36.3485 27.5091 36.327 27.4016 36.327 27.3048V26.7562C36.327 26.5303 36.4132 26.4227 36.5749 26.4227C36.6396 26.4227 36.7042 26.4335 36.7689 26.455C36.8336 26.4765 36.9306 26.5195 37.0384 26.5626C37.4048 26.7239 37.8036 26.853 38.224 26.939C38.6551 27.0251 39.0755 27.0681 39.5066 27.0681C40.1857 27.0681 40.7138 26.9498 41.0803 26.7132C41.4467 26.4765 41.6407 26.1323 41.6407 25.6913C41.6407 25.3901 41.5437 25.1427 41.3497 24.9383C41.1557 24.734 40.7892 24.5511 40.2611 24.379L38.6982 23.895C37.9114 23.6476 37.3294 23.2818 36.9737 22.7978C36.618 22.3245 36.4348 21.7975 36.4348 21.2381C36.4348 20.7863 36.5318 20.3884 36.7258 20.0441C36.9198 19.6999 37.1785 19.3988 37.5018 19.1621C37.8252 18.9147 38.1917 18.7319 38.6228 18.6028C39.0539 18.4737 39.5066 18.4199 39.9809 18.4199C40.218 18.4199 40.4659 18.4307 40.703 18.463C40.9509 18.4952 41.1773 18.5382 41.4036 18.5813C41.6192 18.6351 41.824 18.6888 42.018 18.7534C42.212 18.8179 42.3629 18.8825 42.4707 18.947C42.6216 19.033 42.7294 19.1191 42.794 19.2159C42.8587 19.302 42.891 19.4203 42.891 19.5709V20.0764C42.891 20.3023 42.8048 20.4206 42.6431 20.4206C42.5569 20.4206 42.4168 20.3776 42.2336 20.2915C41.6192 20.0119 40.9294 19.872 40.1641 19.872C39.5497 19.872 39.0647 19.9689 38.7306 20.1732C38.3964 20.3776 38.224 20.6895 38.224 21.1306C38.224 21.4317 38.3318 21.6899 38.5473 21.8943C38.7629 22.0986 39.1617 22.303 39.733 22.4859L41.2635 22.9699C42.0395 23.2173 42.6 23.5615 42.9342 24.0025C43.2683 24.4435 43.43 24.9491 43.43 25.5084C43.43 25.971 43.333 26.3905 43.1497 26.7562C42.9557 27.1219 42.697 27.4446 42.3629 27.7027C42.0288 27.9717 41.63 28.1653 41.1665 28.3051C40.6815 28.4557 40.1749 28.531 39.6252 28.531V28.531Z" fill="#252F3E"/>
<path fill-rule="evenodd" clip-rule="evenodd" d="M41.666 33.7572C38.1199 36.371 32.9678 37.7586 28.5379 37.7586C22.3295 37.7586 16.7355 35.4675 12.5104 31.6597C12.1763 31.3585 12.4781 30.9498 12.8769 31.1864C17.4469 33.8325 23.084 35.4352 28.9151 35.4352C32.8492 35.4352 37.1714 34.6177 41.1486 32.9397C41.7414 32.6708 42.248 33.3269 41.666 33.7572H41.666Z" fill="#FF9900"/>
<path fill-rule="evenodd" clip-rule="evenodd" d="M43.1451 32.0801C42.6924 31.4993 40.1487 31.8004 38.9954 31.9403C38.6505 31.9833 38.5966 31.6821 38.9092 31.4562C40.9355 30.0364 44.266 30.4451 44.6541 30.9184C45.0421 31.4025 44.5463 34.7262 42.6493 36.3182C42.3583 36.5656 42.078 36.4365 42.2074 36.1138C42.6385 35.0489 43.5978 32.6502 43.1451 32.0801V32.0801Z" fill="#FF9900"/>
</svg>
