<svg width="56" height="49" viewBox="0 0 56 49" fill="none" xmlns="http://www.w3.org/2000/svg">
<path d="M10.4814 0H44.6507C50.4394 0 55.1321 4.68314 55.1321 10.4601V37.8136C55.1321 43.5906 50.4394 48.2737 44.6507 48.2737H10.4814C4.6927 48.2737 0 43.5906 0 37.8136V10.4601C0 4.68314 4.6927 0 10.4814 0V0Z" fill="white"/>
<path d="M23.2629 11.9764H30.9163L22.9714 35.4685C22.8039 35.9635 22.3388 36.2968 21.8153 36.2969H15.8591C15.1862 36.297 14.6407 35.7527 14.6406 35.0812C14.6406 34.949 14.6622 34.8176 14.7045 34.6924L22.1066 12.8047C22.274 12.3095 22.7393 11.9761 23.2629 11.9761V11.9764H23.2629Z" fill="url(#paint0_linear_802_4507)"/>
<path d="M34.3862 27.7334H22.2498C21.9396 27.7331 21.6878 27.9838 21.6875 28.2933C21.6873 28.4491 21.7521 28.5979 21.8662 28.704L29.6648 35.9681C29.8919 36.1795 30.1908 36.297 30.5013 36.2969H37.3735L34.3862 27.7334V27.7334Z" fill="#0078D4"/>
<path d="M23.2695 11.9766C22.7396 11.9745 22.27 12.3167 22.1106 12.8211L14.7202 34.6726C14.4933 35.3039 14.8221 35.9993 15.4547 36.2258C15.5876 36.2733 15.7278 36.2975 15.8689 36.2971H21.9789C22.4422 36.2145 22.8251 35.8895 22.9812 35.4464L24.455 31.1118L29.7193 36.012C29.9399 36.1941 30.2166 36.2948 30.5029 36.2971H37.3494L34.3466 27.7335L25.5931 27.7356L30.9505 11.9766H23.2695H23.2695Z" fill="url(#paint1_linear_802_4507)"/>
<path d="M33.0357 12.8038C32.8686 12.3094 32.404 11.9765 31.8811 11.9766H23.3516C23.8744 11.9766 24.3389 12.3094 24.5061 12.8038L31.9085 34.6923C32.1237 35.3286 31.7813 36.0187 31.1436 36.2335C31.0181 36.2758 30.8864 36.2974 30.7539 36.2974H39.2838C39.9568 36.2972 40.5023 35.7525 40.5021 35.0809C40.502 34.9487 40.4804 34.8175 40.4381 34.6923L33.0357 12.8038V12.8038Z" fill="url(#paint2_linear_802_4507)"/>
<defs>
<linearGradient id="paint0_linear_802_4507" x1="26.0523" y1="13.7786" x2="18.1331" y2="37.2216" gradientUnits="userSpaceOnUse">
<stop stop-color="#114A8B"/>
<stop offset="1" stop-color="#0669BC"/>
</linearGradient>
<linearGradient id="paint1_linear_802_4507" x1="28.5417" y1="24.6989" x2="26.7039" y2="25.3216" gradientUnits="userSpaceOnUse">
<stop stop-opacity="0.3"/>
<stop offset="0.071" stop-opacity="0.2"/>
<stop offset="0.321" stop-opacity="0.1"/>
<stop offset="0.623" stop-opacity="0.05"/>
<stop offset="1" stop-opacity="0"/>
</linearGradient>
<linearGradient id="paint2_linear_802_4507" x1="27.5787" y1="13.0739" x2="36.2723" y2="36.2826" gradientUnits="userSpaceOnUse">
<stop stop-color="#3CCBF4"/>
<stop offset="1" stop-color="#2892DF"/>
</linearGradient>
</defs>
</svg>
