<svg width="1182" height="200" viewBox="0 0 1182 200" fill="none" xmlns="http://www.w3.org/2000/svg">
<mask id="mask0_907_1951" style="mask-type:alpha" maskUnits="userSpaceOnUse" x="0" y="0" width="1182" height="200">
<rect width="1182" height="200" rx="20" fill="#D9D9D9"/>
</mask>
<g mask="url(#mask0_907_1951)">
<path d="M943.804 64.1887L913.849 82.0729L915.268 86.368C915.532 87.1631 915.806 87.9567 916.057 88.7592C916.282 89.4765 915.956 90.1386 915.3 90.3478C914.645 90.557 913.959 90.2372 913.716 89.5229C912.977 87.3529 912.253 85.1784 911.544 82.9995C911.493 82.8145 911.396 82.6443 911.263 82.5033C911.13 82.3623 910.964 82.2547 910.779 82.1895C907.626 80.8684 904.482 79.5234 901.339 78.1828C900.047 77.6314 899.129 76.7526 899.011 75.3209C898.898 73.961 899.639 72.9836 900.711 72.2169C901.731 71.4861 902.934 71.1708 904.126 70.8375C919.167 66.5863 934.209 62.3335 949.25 58.0793C949.792 57.9298 950.279 57.9717 950.673 58.3782C951.066 58.7847 951.068 59.2749 950.872 59.7845C947.347 68.9416 943.825 78.0982 940.307 87.2543C940.039 87.9507 939.743 88.6396 939.408 89.3062C938.432 91.249 936.722 92.1187 934.548 91.642C933.405 91.3909 932.308 90.9381 931.208 90.5271C930.034 90.0878 928.876 89.6066 927.725 89.1119C927.589 89.0345 927.431 89.0048 927.276 89.0276C927.121 89.0505 926.979 89.1245 926.873 89.2374C923.964 91.6779 921.036 94.1094 918.124 96.5513C917.665 96.9324 917.191 97.1357 916.608 96.8981C915.97 96.638 915.737 96.0477 915.956 95.2541C916.65 92.7424 917.346 90.2307 918.044 87.719C918.337 86.6595 918.586 85.5879 918.923 84.5448C919.059 84.1826 919.294 83.8636 919.603 83.6227C924.226 79.9264 928.857 76.2351 933.496 72.5487L943.666 64.4562C943.74 64.3979 943.805 64.3306 943.874 64.2679L943.804 64.1887ZM945.885 65.8236C938.051 72.0585 930.329 78.1993 922.586 84.355C922.649 84.3945 922.713 84.4304 922.78 84.4626C926.503 85.9855 930.221 87.5233 933.958 89.0103C934.503 89.2284 935.148 89.2299 935.751 89.2837C936.332 89.3361 936.733 89.0342 936.976 88.5365C937.342 87.7594 937.742 86.9927 938.048 86.1947C940.118 80.8594 942.177 75.5197 944.223 70.1755C944.762 68.7737 945.294 67.3659 945.885 65.8236ZM940.745 63.1814L940.72 63.0588C940.484 63.1141 940.245 63.1605 940.013 63.2262C928.395 66.5021 916.78 69.7839 905.167 73.0718C904.2 73.34 903.259 73.6901 902.354 74.1179C901.98 74.2972 901.523 74.8113 901.549 75.1386C901.575 75.4659 902.117 75.844 902.516 76.0189C905.579 77.3564 908.661 78.6431 911.73 79.9657C911.894 80.0486 912.079 80.0847 912.264 80.0699C912.449 80.0551 912.625 79.99 912.774 79.8821C920.077 75.5063 927.384 71.1394 934.696 66.7816L940.745 63.1814ZM920.992 86.3845L919.415 92.1128L919.534 92.177L924.682 87.8849L920.992 86.3845Z" fill="#DD9C0E" fill-opacity="0.5"/>
<path d="M740.65 79.996L693.415 108.883L695.653 115.821C696.068 117.105 696.501 118.386 696.897 119.683C697.252 120.841 696.737 121.911 695.704 122.249C694.67 122.587 693.589 122.07 693.205 120.916C692.039 117.411 690.898 113.899 689.781 110.38C689.699 110.081 689.547 109.806 689.337 109.578C689.127 109.35 688.865 109.177 688.574 109.071C683.602 106.937 678.645 104.765 673.688 102.6C671.65 101.709 670.204 100.29 670.018 97.9771C669.839 95.7804 671.008 94.2017 672.698 92.9634C674.306 91.783 676.204 91.2737 678.083 90.7354C701.801 83.8687 725.52 76.9996 749.239 70.1281C750.094 69.8867 750.861 69.9543 751.482 70.6108C752.103 71.2674 752.105 72.0592 751.796 72.8823C746.238 87.673 740.684 102.463 735.136 117.252C734.713 118.377 734.247 119.49 733.718 120.566C732.18 123.704 729.483 125.109 726.055 124.339C724.253 123.934 722.522 123.202 720.788 122.538C718.936 121.829 717.111 121.051 715.295 120.252C715.082 120.127 714.833 120.079 714.588 120.116C714.344 120.153 714.12 120.273 713.953 120.455C709.365 124.397 704.749 128.324 700.156 132.269C699.432 132.884 698.686 133.213 697.766 132.829C696.759 132.409 696.392 131.455 696.737 130.173C697.832 126.117 698.93 122.06 700.031 118.003C700.492 116.291 700.885 114.56 701.417 112.876C701.631 112.29 702.002 111.775 702.489 111.386C709.779 105.416 717.081 99.4536 724.396 93.4993L740.433 80.4281C740.549 80.334 740.653 80.2253 740.761 80.124L740.65 79.996ZM743.932 82.6368C731.579 92.7075 719.402 102.626 707.192 112.569C707.291 112.633 707.393 112.691 707.499 112.743C713.369 115.203 719.231 117.686 725.125 120.088C725.985 120.441 727.001 120.443 727.952 120.53C728.867 120.614 729.5 120.127 729.884 119.323C730.461 118.068 731.091 116.83 731.574 115.54C734.839 106.923 738.085 98.2981 741.312 89.6661C742.162 87.4018 743 85.1279 743.932 82.6368ZM735.826 78.3691L735.788 78.1711C735.416 78.2604 735.039 78.3353 734.672 78.4415C716.352 83.7327 698.036 89.0336 679.724 94.3442C678.2 94.7774 676.716 95.3428 675.289 96.0339C674.7 96.3235 673.978 97.1539 674.019 97.6826C674.06 98.2112 674.915 98.8219 675.545 99.1043C680.374 101.265 685.234 103.343 690.073 105.479C690.333 105.613 690.625 105.672 690.916 105.648C691.207 105.624 691.486 105.519 691.72 105.344C703.236 98.2764 714.759 91.223 726.289 84.1841L735.826 78.3691ZM704.679 115.847L702.192 125.099L702.38 125.203L710.498 118.271L704.679 115.847Z" fill="#DD9C0E" fill-opacity="0.5"/>
<path d="M985.509 97.9871C985.673 97.8327 985.841 97.6817 986.002 97.5256C987.284 96.2336 988.975 95.4199 990.796 95.2189C992.616 95.0178 994.457 95.4415 996.015 96.4198C996.145 96.5022 996.282 96.5742 996.453 96.6719C1000.52 91.5571 1005.83 88.7578 1012.42 88.505C1017.21 88.3229 1021.56 89.7276 1025.46 92.5237C1028.17 94.4593 1030.37 97.0206 1031.87 99.9843C1033.38 102.934 1034.17 106.192 1034.18 109.49C1034.18 112.788 1033.4 116.033 1031.9 118.958C1032.71 119.7 1033.52 120.316 1034.17 121.077C1035.26 122.367 1035.91 123.967 1036.03 125.643C1036.15 127.319 1035.72 128.983 1034.82 130.392C1033.98 131.723 1033.14 133.055 1032.29 134.388C1029.84 138.264 1025.02 139.338 1021.08 136.893C1020.51 136.534 1019.94 136.175 1019.38 135.816C1018.24 135.082 1018.02 134.12 1018.73 132.992C1021.75 128.226 1024.76 123.46 1027.78 118.693C1031.62 112.609 1031.36 105.122 1027.12 99.2588C1020.99 90.7964 1008.39 89.7245 1001.09 97.0842C1000.14 98.0418 999.295 99.0947 998.567 100.226C995.53 104.934 992.558 109.685 989.561 114.418C988.837 115.56 988.13 115.855 986.915 115.252C984.535 114.083 982.539 112.483 981.611 109.873C980.93 108.021 980.972 105.989 981.727 104.18C981.758 104.076 981.78 103.97 981.793 103.862L985.509 97.9871Z" fill="#DD9C0E" fill-opacity="0.5"/>
<path d="M994.907 138.212C994.21 137.771 993.49 137.36 992.814 136.888C992.052 136.336 991.528 135.516 991.351 134.597C991.174 133.678 991.357 132.73 991.863 131.948C992.902 130.346 995.113 129.79 996.767 130.772C998.17 131.606 999.549 132.482 1000.9 133.391C1002.5 134.46 1002.96 136.689 1001.96 138.322C1001.48 139.116 1000.7 139.691 999.795 139.929C998.89 140.166 997.924 140.048 997.097 139.598C996.349 139.17 995.637 138.674 994.907 138.212Z" fill="#DD9C0E" fill-opacity="0.5"/>
<path d="M985.261 116.73C983.618 122.538 985.483 126.946 990.712 130.053C990.507 130.339 990.311 130.591 990.143 130.857C989.974 131.123 989.824 131.418 989.666 131.696C983.889 129.037 980.865 121.79 983.557 115.651L985.261 116.73Z" fill="#DD9C0E" fill-opacity="0.5"/>
<path d="M812.124 65.0023C812.235 64.8969 812.35 64.7939 812.46 64.6874C813.335 63.8059 814.489 63.2506 815.731 63.1135C816.973 62.9763 818.229 63.2653 819.292 63.9329C819.381 63.9891 819.474 64.0382 819.591 64.1049C822.369 60.615 825.992 58.7049 830.485 58.5325C833.751 58.4082 836.721 59.3666 839.382 61.2745C841.231 62.5952 842.733 64.3428 843.756 66.365C844.788 68.3774 845.329 70.6003 845.332 72.8509C845.336 75.1016 844.803 77.3157 843.777 79.3112C844.327 79.8177 844.885 80.2375 845.326 80.7573C846.071 81.6374 846.516 82.7291 846.596 83.8726C846.676 85.0161 846.387 86.1515 845.77 87.1127C845.195 88.0211 844.62 88.9301 844.044 89.8396C842.371 92.4841 839.083 93.2166 836.393 91.5488C836.006 91.3039 835.619 91.0588 835.231 90.8135C834.454 90.313 834.304 89.6562 834.791 88.8871C836.849 85.6351 838.907 82.3829 840.965 79.1303C843.586 74.9791 843.41 69.8709 840.514 65.87C836.336 60.0959 827.737 59.3645 822.752 64.3862C822.106 65.0396 821.53 65.758 821.033 66.5301C818.961 69.7421 816.933 72.9837 814.888 76.2132C814.395 76.9928 813.912 77.1939 813.083 76.7826C811.459 75.9845 810.097 74.893 809.464 73.1125C809 71.8488 809.028 70.4622 809.543 69.2279C809.564 69.1569 809.579 69.0843 809.589 69.0107L812.124 65.0023Z" fill="#DD9C0E" fill-opacity="0.5"/>
<path d="M818.537 92.4488C818.061 92.1477 817.569 91.8675 817.108 91.545C816.588 91.1685 816.231 90.6091 816.11 89.982C815.989 89.355 816.114 88.7081 816.459 88.1746C817.169 87.0815 818.677 86.7019 819.805 87.3719C820.763 87.941 821.704 88.5387 822.629 89.1587C823.72 89.8884 824.03 91.4091 823.351 92.5236C823.019 93.0655 822.49 93.4579 821.872 93.6198C821.254 93.7818 820.595 93.701 820.03 93.3942C819.52 93.1021 819.035 92.7639 818.537 92.4488Z" fill="#DD9C0E" fill-opacity="0.5"/>
<path d="M811.955 77.791C810.834 81.7542 812.107 84.7618 815.674 86.8816C815.534 87.0771 815.401 87.2485 815.286 87.4303C815.171 87.612 815.069 87.8129 814.961 88.0029C811.019 86.1882 808.955 81.244 810.792 77.0552L811.955 77.791Z" fill="#DD9C0E" fill-opacity="0.5"/>
<path d="M633.999 104.451C633.989 104.46 633.974 104.467 633.972 104.477C633.649 105.998 632.41 107.011 630.478 107.002C620.065 106.968 609.652 106.986 599.238 106.985C597.696 106.985 596.533 106.174 596.132 104.81C596.054 104.56 596.012 104.3 596.007 104.038C596 98.3571 595.998 92.6757 596.002 86.994C596.002 86.9443 596.007 86.8926 596.014 86.7852C596.161 86.8622 596.286 86.9251 596.407 86.994C602.36 90.3515 608.311 93.7117 614.259 97.0747C614.781 97.3707 615.226 97.3697 615.747 97.0747C621.706 93.6955 627.669 90.3285 633.636 86.9737C633.753 86.9078 633.879 86.8592 634.002 86.8024L633.999 104.451Z" fill="#DD9C0E" fill-opacity="0.5"/>
<path d="M615.022 82.0025C620.304 82.0025 625.586 82.0025 630.868 82.0025C632.287 82.0025 633.428 82.8135 633.86 84.0909C633.96 84.3767 633.919 84.5247 633.64 84.6809C627.52 88.1195 621.404 91.5662 615.292 95.0211C615.207 95.0791 615.107 95.1101 615.005 95.1101C614.902 95.1101 614.802 95.0791 614.717 95.0211C608.592 91.5601 602.463 88.1056 596.331 84.6575C596.076 84.5136 596.054 84.3808 596.137 84.1253C596.337 83.5007 596.73 82.9575 597.258 82.5757C597.786 82.1939 598.421 81.9937 599.07 82.0046C602.137 81.9985 605.205 81.9985 608.273 82.0046L615.022 82.0025Z" fill="#DD9C0E" fill-opacity="0.5"/>
<path d="M695.423 164.537C699.096 166.254 703.148 167.509 707.405 168.246L707.755 167.184C707.831 166.874 707.997 166.579 708.241 166.319C708.486 166.058 708.804 165.838 709.175 165.672C709.545 165.506 709.96 165.398 710.393 165.355C710.825 165.312 711.265 165.335 711.684 165.423C713.133 165.662 714.57 165.94 716.029 166.148C717.955 166.423 719.155 167.501 718.711 169.14C718.534 169.783 718.147 170.385 717.581 170.897C717.015 171.41 716.288 171.817 715.459 172.086C713.284 172.838 710.861 173.138 708.463 172.951C701.487 172.622 694.885 170.559 689.782 167.116C688.361 166.198 687.217 165.078 686.423 163.828C685.651 162.574 685.343 161.291 686.129 159.979C686.498 159.304 687.161 158.732 688.018 158.351C688.477 158.137 689.012 158.024 689.559 158.023C690.106 158.023 690.641 158.136 691.102 158.349C692.631 159.027 694.141 159.739 695.628 160.481C696.254 160.808 696.684 161.294 696.831 161.841C696.978 162.388 696.831 162.954 696.421 163.426C696.087 163.811 695.756 164.16 695.423 164.537Z" fill="#DD9C0E" fill-opacity="0.5"/>
<path d="M588.987 45.4442C588.926 45.2885 588.871 45.1307 588.807 44.9761C588.26 43.7271 588.324 42.3774 588.991 41.15C589.657 39.9226 590.885 38.8908 592.472 38.2251C592.605 38.1697 592.732 38.1067 592.898 38.0301C590.264 33.7261 590.25 29.4067 593.08 25.1251C595.138 22.0137 598.398 19.7093 602.677 18.1582C605.645 17.0776 608.93 16.5312 612.245 16.5664C615.554 16.5877 618.801 17.1719 621.719 18.2708C624.638 19.3697 627.145 20.952 629.033 22.8877C630.063 22.6223 630.986 22.3063 631.959 22.1495C633.606 21.8843 635.323 22.0031 636.859 22.4885C638.395 22.9739 639.669 23.8005 640.495 24.8473C641.282 25.8292 642.069 26.8117 642.856 27.7949C645.145 30.6533 643.86 34.0831 639.872 35.7786C639.292 36.0202 638.711 36.2619 638.13 36.5037C636.953 36.9845 636 36.8029 635.335 35.9716C632.519 32.4565 629.704 28.941 626.888 25.4253C623.291 20.944 616.553 18.6061 609.401 19.352C599.081 20.4256 592.291 28.0993 595.41 35.2156C595.818 36.1387 596.357 37.0285 597.02 37.8708C599.774 41.3799 602.596 44.8617 605.391 48.3536C606.066 49.1963 605.998 49.7457 604.902 50.3183C602.764 51.4446 600.425 52.1817 597.688 51.9012C595.735 51.7161 593.958 51.0105 592.708 49.9246C592.631 49.8702 592.547 49.8204 592.458 49.7758L588.987 45.4442Z" fill="#DD9C0E"/>
<mask id="mask1_907_1951" style="mask-type:alpha" maskUnits="userSpaceOnUse" x="54" y="-66" width="1055" height="344">
<path d="M939.713 164.005L892.477 192.892L894.716 199.829C895.131 201.113 895.563 202.395 895.959 203.692C896.314 204.85 895.8 205.92 894.766 206.257C893.733 206.595 892.651 206.079 892.267 204.925C891.102 201.42 889.961 197.908 888.843 194.388C888.762 194.089 888.61 193.815 888.4 193.587C888.19 193.359 887.928 193.185 887.636 193.08C882.665 190.946 877.708 188.774 872.751 186.608C870.713 185.718 869.266 184.298 869.081 181.986C868.902 179.789 870.07 178.211 871.761 176.972C873.369 175.792 875.267 175.282 877.145 174.744C900.864 167.877 924.583 161.008 948.301 154.137C949.156 153.895 949.924 153.963 950.544 154.62C951.165 155.276 951.167 156.068 950.858 156.891C945.3 171.682 939.747 186.472 934.198 201.261C933.776 202.386 933.31 203.498 932.781 204.575C931.243 207.713 928.546 209.118 925.117 208.348C923.316 207.942 921.585 207.211 919.851 206.547C917.999 205.837 916.174 205.06 914.358 204.261C914.145 204.136 913.895 204.088 913.651 204.125C913.406 204.162 913.182 204.282 913.015 204.464C908.428 208.406 903.811 212.333 899.219 216.278C898.494 216.893 897.748 217.221 896.828 216.838C895.821 216.418 895.454 215.464 895.8 214.182C896.894 210.125 897.992 206.068 899.093 202.011C899.554 200.3 899.948 198.569 900.479 196.884C900.694 196.299 901.064 195.784 901.551 195.395C908.841 189.425 916.144 183.462 923.458 177.508L939.496 164.437C939.611 164.343 939.715 164.234 939.824 164.133L939.713 164.005ZM942.994 166.646C930.641 176.716 918.465 186.635 906.255 196.578C906.353 196.642 906.456 196.7 906.561 196.752C912.431 199.211 918.294 201.695 924.187 204.097C925.047 204.449 926.064 204.452 927.015 204.539C927.93 204.623 928.563 204.136 928.946 203.332C929.524 202.077 930.154 200.838 930.637 199.549C933.901 190.932 937.147 182.307 940.374 173.675C941.224 171.411 942.062 169.137 942.994 166.646ZM934.889 162.378L934.85 162.18C934.478 162.269 934.102 162.344 933.735 162.45C915.415 167.742 897.099 173.042 878.787 178.353C877.262 178.786 875.778 179.352 874.351 180.043C873.762 180.332 873.04 181.163 873.081 181.691C873.122 182.22 873.977 182.831 874.607 183.113C879.436 185.274 884.297 187.352 889.136 189.488C889.395 189.622 889.687 189.68 889.978 189.657C890.27 189.633 890.548 189.527 890.782 189.353C902.298 182.285 913.821 175.232 925.351 168.193L934.889 162.378ZM903.741 199.856L901.254 209.108L901.443 209.212L909.56 202.279L903.741 199.856Z" fill="#DD9C0E" fill-opacity="0.5"/>
<path d="M517.65 112.569L470.415 141.456L472.653 148.394C473.068 149.678 473.501 150.96 473.897 152.256C474.252 153.415 473.737 154.484 472.704 154.822C471.67 155.16 470.589 154.643 470.205 153.489C469.039 149.984 467.898 146.472 466.781 142.953C466.699 142.654 466.547 142.379 466.337 142.151C466.127 141.924 465.865 141.75 465.574 141.645C460.602 139.511 455.645 137.338 450.688 135.173C448.65 134.282 447.204 132.863 447.018 130.55C446.839 128.354 448.008 126.775 449.698 125.537C451.306 124.356 453.204 123.847 455.083 123.309C478.801 116.442 502.52 109.573 526.239 102.701C527.094 102.46 527.861 102.528 528.482 103.184C529.103 103.841 529.105 104.632 528.796 105.456C523.238 120.246 517.684 135.036 512.136 149.825C511.713 150.95 511.247 152.063 510.718 153.139C509.18 156.277 506.483 157.682 503.055 156.912C501.253 156.507 499.522 155.775 497.788 155.112C495.936 154.402 494.111 153.625 492.295 152.826C492.082 152.701 491.833 152.653 491.588 152.69C491.344 152.726 491.12 152.846 490.953 153.028C486.365 156.97 481.749 160.898 477.156 164.842C476.432 165.458 475.686 165.786 474.766 165.402C473.759 164.982 473.392 164.028 473.737 162.747C474.832 158.69 475.93 154.633 477.031 150.576C477.492 148.864 477.885 147.134 478.417 145.449C478.631 144.864 479.002 144.349 479.489 143.959C486.779 137.989 494.081 132.027 501.396 126.073L517.433 113.001C517.549 112.907 517.653 112.799 517.761 112.697L517.65 112.569ZM520.932 115.21C508.579 125.281 496.402 135.199 484.192 145.142C484.291 145.206 484.393 145.264 484.499 145.316C490.369 147.776 496.231 150.26 502.125 152.661C502.985 153.014 504.001 153.016 504.952 153.103C505.867 153.188 506.5 152.7 506.884 151.896C507.461 150.641 508.091 149.403 508.574 148.114C511.839 139.496 515.085 130.871 518.312 122.239C519.162 119.975 520 117.701 520.932 115.21ZM512.826 110.942L512.788 110.744C512.416 110.834 512.039 110.909 511.672 111.015C493.352 116.306 475.036 121.607 456.724 126.917C455.2 127.351 453.716 127.916 452.289 128.607C451.7 128.897 450.978 129.727 451.019 130.256C451.06 130.784 451.915 131.395 452.545 131.678C457.374 133.838 462.234 135.916 467.073 138.053C467.333 138.187 467.625 138.245 467.916 138.221C468.207 138.197 468.486 138.092 468.72 137.917C480.236 130.85 491.759 123.796 503.289 116.757L512.826 110.942ZM481.679 148.42L479.192 157.673L479.38 157.777L487.498 150.844L481.679 148.42Z" fill="#DD9C0E" fill-opacity="0.5"/>
<path d="M1088.08 123.787C1090.61 127.367 1093.74 130.489 1097.32 133.02L1098.19 131.779C1098.42 131.408 1098.73 131.089 1099.09 130.844C1099.45 130.598 1099.86 130.431 1100.29 130.355C1100.72 130.278 1101.16 130.292 1101.59 130.397C1102.01 130.503 1102.41 130.696 1102.76 130.965C1103.98 131.811 1105.17 132.703 1106.43 133.513C1108.08 134.582 1108.64 136.419 1107.38 138.371C1106.89 139.134 1106.21 139.768 1105.42 140.219C1104.63 140.67 1103.75 140.926 1102.84 140.966C1100.43 141.13 1098.02 140.618 1095.88 139.487C1089.56 136.472 1084.48 131.361 1081.5 125.022C1080.65 123.31 1080.17 121.44 1080.07 119.531C1080 117.626 1080.37 115.857 1081.78 114.455C1082.47 113.72 1083.38 113.229 1084.37 113.054C1084.91 112.949 1085.47 113.001 1085.98 113.203C1086.49 113.406 1086.93 113.75 1087.24 114.196C1088.32 115.639 1089.36 117.118 1090.36 118.628C1090.77 119.282 1090.92 120.069 1090.78 120.829C1090.63 121.589 1090.21 122.266 1089.58 122.723C1089.07 123.097 1088.58 123.424 1088.08 123.787Z" fill="#DD9C0E" fill-opacity="0.5"/>
<path d="M1012.55 -18.0129C1012.72 -18.1673 1012.89 -18.3183 1013.05 -18.4744C1014.33 -19.7664 1016.02 -20.5801 1017.84 -20.7811C1019.66 -20.9822 1021.5 -20.5585 1023.06 -19.5802C1023.19 -19.4978 1023.33 -19.4258 1023.5 -19.3281C1027.57 -24.4429 1032.88 -27.2422 1039.46 -27.495C1044.25 -27.6771 1048.6 -26.2724 1052.5 -23.4763C1055.21 -21.5407 1057.41 -18.9794 1058.91 -16.0157C1060.43 -13.0663 1061.22 -9.80849 1061.22 -6.51002C1061.23 -3.21155 1060.45 0.0333884 1058.94 2.95807C1059.75 3.70032 1060.57 4.31562 1061.21 5.0774C1062.31 6.36728 1062.96 7.9672 1063.08 9.64315C1063.19 11.3191 1062.77 12.9831 1061.87 14.3917C1061.02 15.7231 1060.18 17.0553 1059.34 18.3883C1056.88 22.2639 1052.07 23.3376 1048.12 20.8932C1047.56 20.5343 1046.99 20.175 1046.42 19.8156C1045.28 19.0821 1045.06 18.1195 1045.77 16.9923C1048.79 12.2263 1051.81 7.45982 1054.82 2.69292C1058.66 -3.39099 1058.41 -10.8776 1054.16 -16.7412C1048.04 -25.2036 1035.44 -26.2755 1028.13 -18.9158C1027.18 -17.9582 1026.34 -16.9053 1025.61 -15.7738C1022.57 -11.0663 1019.6 -6.31548 1016.61 -1.58243C1015.88 -0.439811 1015.17 -0.145127 1013.96 -0.747905C1011.58 -1.91749 1009.58 -3.51728 1008.66 -6.12669C1007.98 -7.97873 1008.02 -10.0109 1008.77 -11.8199C1008.8 -11.9239 1008.83 -12.0304 1008.84 -12.1382L1012.55 -18.0129Z" fill="#DD9C0E" fill-opacity="0.5"/>
<path d="M1021.95 22.2125C1021.25 21.7712 1020.53 21.3605 1019.86 20.8879C1019.1 20.3361 1018.57 19.5162 1018.4 18.5972C1018.22 17.6782 1018.4 16.7301 1018.91 15.9483C1019.95 14.3463 1022.16 13.7899 1023.81 14.7718C1025.22 15.6058 1026.59 16.4819 1027.95 17.3905C1029.55 18.4599 1030 20.6887 1029.01 22.3221C1028.52 23.1163 1027.75 23.6913 1026.84 23.9287C1025.93 24.1661 1024.97 24.0477 1024.14 23.598C1023.39 23.17 1022.68 22.6743 1021.95 22.2125Z" fill="#DD9C0E" fill-opacity="0.5"/>
<path d="M1012.31 0.72981C1010.66 6.53811 1012.53 10.946 1017.76 14.0529C1017.55 14.3394 1017.36 14.5906 1017.19 14.8569C1017.02 15.1233 1016.87 15.4177 1016.71 15.6961C1010.93 13.0365 1007.91 5.79043 1010.6 -0.348633L1012.31 0.72981Z" fill="#DD9C0E" fill-opacity="0.5"/>
<path d="M826.061 8.44972C826.051 8.45885 826.036 8.46594 826.034 8.47608C825.712 9.9967 824.472 11.0104 822.54 11.0013C812.128 10.9669 801.714 10.9851 791.3 10.9841C789.758 10.9841 788.595 10.1731 788.194 8.80859C788.116 8.55881 788.074 8.29901 788.069 8.03713C788.063 2.35609 788.061 -3.32528 788.064 -9.00699C788.064 -9.05666 788.069 -9.10836 788.076 -9.21582C788.223 -9.13878 788.349 -9.07592 788.47 -9.00699C794.423 -5.64946 800.373 -2.28923 806.322 1.0737C806.844 1.36972 807.289 1.36871 807.81 1.0737C813.768 -2.30545 819.731 -5.67244 825.698 -9.02726C825.816 -9.09316 825.942 -9.14182 826.064 -9.19859L826.061 8.44972Z" fill="#DD9C0E" fill-opacity="0.5"/>
<path d="M213.65 164.005L166.415 192.892L168.653 199.829C169.068 201.113 169.501 202.395 169.897 203.692C170.252 204.85 169.737 205.92 168.704 206.257C167.67 206.595 166.589 206.079 166.205 204.925C165.039 201.42 163.898 197.908 162.781 194.388C162.699 194.089 162.547 193.815 162.337 193.587C162.127 193.359 161.865 193.185 161.574 193.08C156.602 190.946 151.645 188.774 146.688 186.608C144.65 185.718 143.204 184.298 143.018 181.986C142.839 179.789 144.008 178.211 145.698 176.972C147.306 175.792 149.204 175.282 151.083 174.744C174.801 167.877 198.52 161.008 222.239 154.137C223.094 153.895 223.861 153.963 224.482 154.62C225.103 155.276 225.105 156.068 224.796 156.891C219.238 171.682 213.684 186.472 208.136 201.261C207.713 202.386 207.247 203.498 206.718 204.575C205.18 207.713 202.483 209.118 199.055 208.348C197.253 207.942 195.522 207.211 193.788 206.547C191.936 205.837 190.111 205.06 188.295 204.261C188.082 204.136 187.833 204.088 187.588 204.125C187.344 204.162 187.12 204.282 186.953 204.464C182.365 208.406 177.749 212.333 173.156 216.278C172.432 216.893 171.686 217.221 170.766 216.838C169.759 216.418 169.392 215.464 169.737 214.182C170.832 210.125 171.93 206.068 173.031 202.011C173.492 200.3 173.885 198.569 174.417 196.884C174.631 196.299 175.002 195.784 175.489 195.395C182.779 189.425 190.081 183.462 197.396 177.508L213.433 164.437C213.549 164.343 213.653 164.234 213.761 164.133L213.65 164.005ZM216.932 166.646C204.579 176.716 192.402 186.635 180.192 196.578C180.291 196.642 180.393 196.7 180.499 196.752C186.369 199.211 192.231 201.695 198.125 204.097C198.985 204.449 200.001 204.452 200.952 204.539C201.867 204.623 202.5 204.136 202.884 203.332C203.461 202.077 204.091 200.838 204.574 199.549C207.839 190.932 211.085 182.307 214.312 173.675C215.162 171.411 216 169.137 216.932 166.646ZM208.826 162.378L208.788 162.18C208.416 162.269 208.039 162.344 207.672 162.45C189.352 167.742 171.036 173.042 152.724 178.353C151.2 178.786 149.716 179.352 148.289 180.043C147.7 180.332 146.978 181.163 147.019 181.691C147.06 182.22 147.915 182.831 148.545 183.113C153.374 185.274 158.234 187.352 163.073 189.488C163.333 189.622 163.625 189.68 163.916 189.657C164.207 189.633 164.486 189.527 164.72 189.353C176.236 182.285 187.759 175.232 199.289 168.193L208.826 162.378ZM177.679 199.856L175.192 209.108L175.38 209.212L183.498 202.279L177.679 199.856Z" fill="#DD9C0E" fill-opacity="0.5"/>
<path d="M362.018 123.787C364.552 127.367 367.676 130.489 371.258 133.02L372.13 131.779C372.361 131.408 372.667 131.089 373.028 130.844C373.39 130.598 373.799 130.431 374.23 130.355C374.66 130.278 375.102 130.292 375.526 130.397C375.951 130.503 376.348 130.696 376.693 130.965C377.918 131.811 379.112 132.703 380.363 133.513C382.014 134.582 382.574 136.419 381.318 138.371C380.823 139.134 380.152 139.768 379.362 140.219C378.572 140.67 377.685 140.926 376.776 140.966C374.365 141.13 371.956 140.618 369.82 139.487C363.499 136.472 358.418 131.361 355.441 125.022C354.592 123.31 354.104 121.44 354.009 119.531C353.936 117.626 354.31 115.857 355.716 114.455C356.408 113.72 357.318 113.229 358.312 113.054C358.85 112.949 359.406 113.001 359.915 113.203C360.424 113.406 360.864 113.75 361.182 114.196C362.257 115.639 363.295 117.118 364.297 118.628C364.711 119.282 364.86 120.069 364.716 120.829C364.571 121.589 364.143 122.266 363.518 122.723C363.01 123.097 362.522 123.424 362.018 123.787Z" fill="#DD9C0E" fill-opacity="0.5"/>
<path d="M452.317 -11.1626C456.84 -4.76902 462.419 0.807531 468.814 5.32799L470.372 3.11256C470.783 2.44896 471.329 1.87938 471.975 1.4409C472.621 1.00243 473.352 0.704868 474.121 0.56759C474.889 0.430312 475.678 0.45639 476.436 0.644128C477.193 0.831866 477.903 1.17706 478.519 1.65724C480.706 3.16818 482.838 4.76255 485.071 6.2086C488.019 8.11813 489.02 11.3996 486.777 14.8849C485.892 16.2479 484.694 17.3796 483.284 18.1858C481.873 18.992 480.29 19.4494 478.667 19.5197C474.362 19.8129 470.06 18.8979 466.247 16.8779C454.96 11.494 445.888 2.36458 440.573 -8.95642C439.056 -12.0151 438.186 -15.3536 438.015 -18.7636C437.886 -22.1656 438.553 -25.3265 441.065 -27.8293C442.299 -29.1422 443.924 -30.0202 445.699 -30.332C446.659 -30.5197 447.652 -30.4272 448.561 -30.0656C449.47 -29.7041 450.256 -29.0886 450.824 -28.2927C452.743 -25.7158 454.597 -23.074 456.385 -20.3765C457.124 -19.2084 457.391 -17.8032 457.133 -16.4453C456.875 -15.0875 456.111 -13.8784 454.995 -13.0628C454.087 -12.3954 453.216 -11.8114 452.317 -11.1626Z" fill="#DD9C0E" fill-opacity="0.5"/>
<path d="M286.492 -18.0129C286.655 -18.1673 286.824 -18.3183 286.984 -18.4744C288.267 -19.7664 289.958 -20.5801 291.778 -20.7811C293.599 -20.9822 295.44 -20.5585 296.997 -19.5802C297.127 -19.4978 297.264 -19.4258 297.435 -19.3281C301.507 -24.4429 306.816 -27.2422 313.402 -27.495C318.188 -27.6771 322.541 -26.2724 326.441 -23.4763C329.151 -21.5407 331.352 -18.9794 332.851 -16.0157C334.364 -13.0663 335.156 -9.80849 335.161 -6.51002C335.167 -3.21155 334.386 0.0333884 332.882 2.95807C333.688 3.70032 334.506 4.31562 335.152 5.0774C336.244 6.36728 336.897 7.9672 337.014 9.64315C337.131 11.3191 336.707 12.9831 335.803 14.3917C334.961 15.7231 334.118 17.0553 333.274 18.3883C330.821 22.2639 326.003 23.3376 322.06 20.8932C321.493 20.5343 320.926 20.175 320.358 19.8156C319.218 19.0821 318.999 18.1195 319.712 16.9923C322.728 12.2263 325.745 7.45982 328.761 2.69292C332.602 -3.39099 332.345 -10.8776 328.099 -16.7412C321.977 -25.2036 309.374 -26.2755 302.068 -18.9158C301.122 -17.9582 300.278 -16.9053 299.549 -15.7738C296.512 -11.0663 293.54 -6.31548 290.543 -1.58243C289.82 -0.439811 289.112 -0.145127 287.898 -0.747905C285.517 -1.91749 283.522 -3.51728 282.593 -6.12669C281.913 -7.97873 281.954 -10.0109 282.709 -11.8199C282.74 -11.9239 282.763 -12.0304 282.776 -12.1382L286.492 -18.0129Z" fill="#DD9C0E" fill-opacity="0.5"/>
<path d="M295.89 22.2125C295.192 21.7712 294.472 21.3605 293.797 20.8879C293.034 20.3361 292.51 19.5162 292.333 18.5972C292.156 17.6782 292.34 16.7301 292.845 15.9483C293.885 14.3463 296.095 13.7899 297.749 14.7718C299.153 15.6058 300.531 16.4819 301.887 17.3905C303.486 18.4599 303.941 20.6887 302.946 22.3221C302.459 23.1163 301.683 23.6913 300.778 23.9287C299.872 24.1661 298.906 24.0477 298.079 23.598C297.332 23.17 296.62 22.6743 295.89 22.2125Z" fill="#DD9C0E" fill-opacity="0.5"/>
<path d="M286.243 0.72981C284.601 6.53811 286.466 10.946 291.694 14.0529C291.489 14.3394 291.294 14.5906 291.125 14.8569C290.957 15.1233 290.807 15.4177 290.649 15.6961C284.871 13.0365 281.847 5.79043 284.539 -0.348633L286.243 0.72981Z" fill="#DD9C0E" fill-opacity="0.5"/>
<path d="M99.9987 8.44972C99.9886 8.45885 99.9736 8.46594 99.9716 8.47608C99.649 9.9967 98.4097 11.0104 96.478 11.0013C86.0653 10.9669 75.6515 10.9851 65.2378 10.9841C63.6959 10.9841 62.5327 10.1731 62.1319 8.80859C62.054 8.55881 62.0118 8.29901 62.0067 8.03713C62 2.35609 61.9983 -3.32528 62.0017 -9.00699C62.0017 -9.05666 62.0067 -9.10836 62.0137 -9.21582C62.161 -9.13878 62.2862 -9.07592 62.4074 -9.00699C68.3601 -5.64946 74.3107 -2.28923 80.2593 1.0737C80.7813 1.36972 81.2261 1.36871 81.7471 1.0737C87.7057 -2.30545 93.6687 -5.67244 99.636 -9.02726C99.7532 -9.09316 99.8794 -9.14182 100.002 -9.19859L99.9987 8.44972Z" fill="#DD9C0E" fill-opacity="0.5"/>
<path d="M326.077 115.362L293.307 135.402L294.86 140.215C295.148 141.106 295.448 141.995 295.722 142.895C295.969 143.699 295.612 144.44 294.895 144.675C294.178 144.909 293.427 144.551 293.161 143.75C292.353 141.319 291.561 138.882 290.786 136.441C290.729 136.233 290.624 136.043 290.478 135.885C290.332 135.727 290.15 135.606 289.948 135.533C286.499 134.053 283.06 132.545 279.621 131.043C278.207 130.425 277.204 129.44 277.075 127.836C276.951 126.312 277.762 125.217 278.934 124.358C280.05 123.539 281.367 123.186 282.67 122.812C299.125 118.048 315.58 113.283 332.035 108.516C332.628 108.348 333.161 108.395 333.592 108.851C334.022 109.306 334.024 109.855 333.809 110.426C329.953 120.688 326.1 130.948 322.251 141.208C321.958 141.989 321.635 142.761 321.268 143.508C320.201 145.685 318.33 146.659 315.951 146.125C314.701 145.844 313.5 145.336 312.298 144.876C311.013 144.384 309.746 143.844 308.487 143.29C308.339 143.203 308.166 143.17 307.996 143.196C307.827 143.221 307.671 143.304 307.555 143.431C304.373 146.165 301.17 148.89 297.984 151.626C297.481 152.053 296.964 152.281 296.325 152.015C295.627 151.724 295.372 151.062 295.612 150.173C296.371 147.358 297.133 144.544 297.897 141.729C298.217 140.542 298.49 139.341 298.858 138.172C299.007 137.766 299.264 137.409 299.602 137.139C304.66 132.997 309.726 128.861 314.8 124.73L325.926 115.661C326.007 115.596 326.079 115.521 326.154 115.45L326.077 115.362ZM328.354 117.194C319.784 124.18 311.336 131.062 302.865 137.96C302.934 138.004 303.005 138.044 303.078 138.08C307.15 139.787 311.217 141.51 315.306 143.176C315.902 143.421 316.608 143.422 317.268 143.483C317.902 143.541 318.341 143.203 318.608 142.645C319.008 141.774 319.445 140.915 319.78 140.021C322.045 134.042 324.297 128.059 326.536 122.07C327.126 120.499 327.707 118.922 328.354 117.194ZM322.73 114.233L322.703 114.096C322.445 114.158 322.184 114.209 321.929 114.283C309.22 117.954 296.513 121.632 283.809 125.316C282.751 125.616 281.721 126.009 280.732 126.488C280.323 126.689 279.822 127.265 279.851 127.632C279.879 127.999 280.472 128.422 280.909 128.618C284.26 130.117 287.632 131.559 290.988 133.041C291.169 133.134 291.371 133.174 291.573 133.158C291.775 133.141 291.968 133.068 292.131 132.947C300.12 128.044 308.114 123.15 316.113 118.267L322.73 114.233ZM301.121 140.234L299.396 146.653L299.527 146.725L305.158 141.915L301.121 140.234Z" fill="#DD9C0E" fill-opacity="0.5"/>
<path d="M836.946 127.677C838.703 130.16 840.871 132.326 843.356 134.082L843.961 133.222C844.121 132.964 844.333 132.743 844.584 132.572C844.835 132.402 845.119 132.286 845.418 132.233C845.716 132.18 846.023 132.19 846.317 132.263C846.611 132.336 846.887 132.47 847.126 132.656C847.976 133.243 848.805 133.863 849.672 134.424C850.818 135.166 851.207 136.441 850.335 137.794C849.991 138.324 849.526 138.763 848.978 139.077C848.43 139.39 847.815 139.567 847.184 139.595C845.511 139.709 843.84 139.353 842.358 138.569C837.973 136.477 834.448 132.931 832.383 128.534C831.793 127.346 831.455 126.049 831.389 124.724C831.338 123.403 831.598 122.175 832.574 121.203C833.053 120.693 833.685 120.352 834.374 120.231C834.747 120.158 835.133 120.194 835.486 120.334C835.84 120.475 836.145 120.714 836.366 121.023C837.111 122.024 837.831 123.05 838.527 124.098C838.814 124.551 838.917 125.097 838.817 125.625C838.717 126.152 838.42 126.622 837.986 126.939C837.633 127.198 837.295 127.425 836.946 127.677Z" fill="#DD9C0E" fill-opacity="0.5"/>
<path d="M419.284 100.408C419.277 100.414 419.267 100.419 419.265 100.426C419.041 101.481 418.182 102.184 416.841 102.178C409.617 102.154 402.393 102.166 395.168 102.166C394.098 102.166 393.291 101.603 393.013 100.657C392.959 100.483 392.93 100.303 392.927 100.121C392.922 96.18 392.921 92.2385 392.923 88.2967C392.923 88.2623 392.927 88.2264 392.931 88.1519C393.034 88.2053 393.12 88.2489 393.205 88.2967C397.334 90.6261 401.463 92.9573 405.589 95.2903C405.952 95.4957 406.26 95.495 406.622 95.2903C410.756 92.946 414.892 90.6101 419.032 88.2827C419.114 88.237 419.201 88.2032 419.286 88.1638L419.284 100.408Z" fill="#DD9C0E" fill-opacity="0.5"/>
<path d="M406.116 84.8338C409.78 84.8338 413.445 84.8338 417.109 84.8338C418.094 84.8338 418.885 85.3964 419.185 86.2826C419.254 86.4809 419.226 86.5836 419.033 86.6919C414.787 89.0775 410.544 91.4687 406.304 93.8655C406.245 93.9058 406.175 93.9273 406.104 93.9273C406.033 93.9273 405.964 93.9058 405.905 93.8655C401.655 91.4645 397.403 89.0679 393.149 86.6757C392.972 86.5759 392.957 86.4837 393.014 86.3065C393.153 85.8731 393.426 85.4963 393.792 85.2314C394.158 84.9665 394.599 84.8277 395.049 84.8352C397.177 84.831 399.306 84.831 401.434 84.8352L406.116 84.8338Z" fill="#DD9C0E" fill-opacity="0.5"/>
<path d="M763.173 45.2329C766.846 46.9503 770.898 48.2044 775.155 48.9413L775.505 47.8797C775.581 47.57 775.747 47.2752 775.991 47.0147C776.236 46.7542 776.554 46.5337 776.925 46.3676C777.295 46.2014 777.71 46.0934 778.143 46.0506C778.575 46.0077 779.015 46.0309 779.434 46.1187C780.883 46.3576 782.32 46.636 783.779 46.8437C785.705 47.1183 786.905 48.197 786.461 49.8363C786.284 50.4784 785.897 51.0808 785.331 51.5931C784.765 52.1055 784.038 52.513 783.209 52.7817C781.034 53.5341 778.611 53.8339 776.213 53.6472C769.237 53.3174 762.635 51.2553 757.532 47.8118C756.111 46.8935 754.967 45.7741 754.173 44.5233C753.401 43.2695 753.093 41.9869 753.879 40.6752C754.248 39.9996 754.911 39.4283 755.768 39.0466C756.227 38.8331 756.762 38.7193 757.309 38.719C757.856 38.7186 758.391 38.8317 758.852 39.0446C760.381 39.7226 761.891 40.4346 763.378 41.177C764.004 41.5039 764.434 41.9899 764.581 42.5366C764.728 43.0833 764.581 43.6499 764.171 44.1218C763.837 44.5071 763.506 44.8558 763.173 45.2329Z" fill="#DD9C0E" fill-opacity="0.5"/>
<path d="M54.9871 132.748C54.9263 132.593 54.8709 132.435 54.8074 132.28C54.2597 131.031 54.3243 129.682 54.9906 128.454C55.6568 127.227 56.8849 126.195 58.4719 125.529C58.605 125.474 58.732 125.411 58.8978 125.334C56.2635 121.03 56.2503 116.711 59.0799 112.429C61.1379 109.318 64.3975 107.013 68.6775 105.462C71.6453 104.382 74.9298 103.835 78.2448 103.871C81.5537 103.892 84.8009 104.476 87.7195 105.575C90.638 106.674 93.1446 108.256 95.0332 110.192C96.0628 109.927 96.9862 109.611 97.959 109.454C99.6058 109.188 101.323 109.307 102.859 109.793C104.395 110.278 105.669 111.105 106.495 112.151C107.282 113.133 108.069 114.116 108.856 115.099C111.145 117.957 109.86 121.387 105.872 123.083C105.292 123.324 104.711 123.566 104.13 123.808C102.953 124.289 102 124.107 101.335 123.276C98.5194 119.761 95.704 116.245 92.8884 112.729C89.2906 108.248 82.5525 105.91 75.4007 106.656C65.0812 107.73 58.2909 115.404 61.41 122.52C61.8178 123.443 62.3573 124.333 63.0201 125.175C65.7736 128.684 68.5958 132.166 71.3907 135.658C72.0656 136.501 71.9981 137.05 70.9021 137.622C68.7645 138.749 66.4251 139.486 63.6878 139.205C61.735 139.02 59.9576 138.315 58.7085 137.229C58.6309 137.174 58.5471 137.125 58.458 137.08L54.9871 132.748Z" fill="#DD9C0E"/>
<path d="M94.9038 140.204C94.1905 140.501 93.4935 140.822 92.7625 141.095C91.9211 141.397 90.9534 141.456 90.0589 141.262C89.1644 141.068 88.4112 140.634 87.9546 140.05C87.0201 138.853 87.553 137.258 89.1879 136.532C90.5758 135.916 91.9894 135.33 93.4214 134.77C95.1079 134.108 97.2893 134.563 98.2719 135.744C98.7484 136.319 98.897 137.006 98.6871 137.662C98.4772 138.319 97.9247 138.895 97.1437 139.271C96.4187 139.605 95.6504 139.893 94.9038 140.204Z" fill="#DD9C0E"/>
<path d="M71.4466 139.168C75.8199 142.156 80.5815 142.441 85.752 140.147C85.9103 140.374 86.0417 140.582 86.199 140.778C86.3564 140.975 86.5472 141.169 86.7201 141.363C81.6905 144.156 73.8825 143.661 69.7031 139.894L71.4466 139.168Z" fill="#DD9C0E"/>
<g clip-path="url(#clip0_907_1951)">
<path d="M209.999 60.022C209.989 60.0311 209.974 60.0382 209.972 60.0483C209.649 61.569 208.41 62.5827 206.478 62.5736C196.065 62.5391 185.652 62.5574 175.238 62.5564C173.696 62.5564 172.533 61.7454 172.132 60.3809C172.054 60.1311 172.012 59.8713 172.007 59.6094C172 53.9284 171.998 48.247 172.002 42.5653C172.002 42.5156 172.007 42.4639 172.014 42.3564C172.161 42.4335 172.286 42.4963 172.407 42.5653C178.36 45.9228 184.311 49.283 190.259 52.646C190.781 52.942 191.226 52.941 191.747 52.646C197.706 49.2668 203.669 45.8998 209.636 42.545C209.753 42.4791 209.879 42.4305 210.002 42.3737L209.999 60.022Z" fill="#DD9C0E" fill-opacity="0.5"/>
<path d="M191.022 37.5738C196.304 37.5738 201.586 37.5738 206.868 37.5738C208.287 37.5738 209.428 38.3848 209.86 39.6621C209.96 39.948 209.919 40.096 209.64 40.2521C203.52 43.6908 197.404 47.1375 191.292 50.5924C191.207 50.6504 191.107 50.6814 191.005 50.6814C190.902 50.6814 190.802 50.6504 190.717 50.5924C184.592 47.1314 178.463 43.6769 172.331 40.2288C172.076 40.0849 172.054 39.9521 172.137 39.6966C172.337 39.072 172.73 38.5287 173.258 38.147C173.786 37.7652 174.421 37.565 175.07 37.5759C178.137 37.5698 181.205 37.5698 184.273 37.5759L191.022 37.5738Z" fill="#DD9C0E" fill-opacity="0.5"/>
</g>
</mask>
<g mask="url(#mask1_907_1951)">
<rect width="1182" height="200" rx="20" fill="#DEA426"/>
</g>
</g>
<defs>
<clipPath id="clip0_907_1951">
<rect width="38" height="25" fill="white" transform="translate(172 37.5732)"/>
</clipPath>
</defs>
</svg>
