<svg width="9" height="13" viewBox="0 0 9 13" fill="none" xmlns="http://www.w3.org/2000/svg">
<path d="M6.11184 2.02078H8.04189C8.21946 2.02078 8.36357 1.90762 8.36357 1.76819V0.252598C8.36357 0.113164 8.21946 0 8.04189 0H6.11184C4.1612 0 2.57341 1.24632 2.57341 2.77858V4.54676H0.321676C0.144111 4.54676 0 4.65993 0 4.79936V6.31495C0 6.45438 0.144111 6.56755 0.321676 6.56755H2.57341V11.8721C2.57341 12.0115 2.71752 12.1247 2.89508 12.1247H4.82514C5.0027 12.1247 5.14681 12.0115 5.14681 11.8721V6.56755H7.39854C7.53686 6.56755 7.65974 6.49783 7.70413 6.39477L8.34748 4.87918C8.38029 4.80239 8.36357 4.71752 8.30309 4.65134C8.24197 4.58566 8.14547 4.54676 8.04189 4.54676H5.14681V2.77858C5.14681 2.36078 5.57979 2.02078 6.11184 2.02078Z" fill="white"/>
</svg>
