<svg width="636" height="632" viewBox="0 0 636 632" fill="none" xmlns="http://www.w3.org/2000/svg">
<path d="M270.831 225.012C214.817 231.104 164.7 258.42 124.999 298.117L23.9778 399.127C42.2559 400.895 49.1347 402.271 69.5748 421.333C81.1706 432.142 86.2806 436.269 90.2114 445.701C92.5698 451.4 94.1422 456.51 96.3041 460.637L101.807 455.134L204.597 353.928C204.597 353.928 199.684 340.172 200.273 326.808C201.256 306.371 215.014 278.269 228.771 262.547C241.153 248.594 252.946 237.786 265.917 232.48C273.975 228.746 277.12 224.226 270.831 225.012Z" fill="#42C5F1"/>
<path d="M322.717 632L280.854 609.99L238.991 632L247.049 585.425L213.048 552.41L259.824 545.532L280.854 503.084L301.884 545.532L348.66 552.41L314.659 585.425L322.717 632ZM280.854 603.308L314.855 621.191L308.37 583.264L335.885 556.341L297.756 550.838L280.658 516.251L263.559 550.838L225.43 556.341L252.946 583.264L246.46 621.191L280.854 603.308Z" fill="#42C5F1"/>
<path d="M38.1286 230.318L34.0012 226.192L141.901 118.303C142.884 117.321 143.473 115.945 143.473 114.373C143.473 112.997 142.884 111.622 141.901 110.443L122.64 91.1841C119.692 88.2363 118.71 84.1094 120.085 80.1791C121.461 76.2487 124.802 73.694 128.93 73.1045L235.257 60.3308C238.795 59.9378 242.136 61.1169 244.691 63.4751C247.246 66.0298 248.425 69.3706 247.836 72.9079L235.061 179.224C234.667 183.351 231.916 186.692 227.985 188.067C224.054 189.443 219.927 188.46 216.979 185.512L197.718 166.254C195.556 164.092 192.019 164.092 190.053 166.254L133.646 222.065L129.519 217.938L185.533 161.93C187.695 159.769 190.446 158.59 193.591 158.59C196.539 158.59 199.487 159.769 201.649 161.93L220.91 181.189C222.286 182.565 224.054 182.958 225.823 182.368C227.592 181.779 228.771 180.403 228.968 178.438L241.743 72.1219C241.939 70.5497 241.35 68.7811 240.171 67.602C238.991 66.4229 237.419 65.8333 235.65 66.0298L129.323 78.8035C127.554 79 125.981 80.1791 125.392 81.9477C124.802 83.7164 125.195 85.4851 126.571 86.8607L145.832 106.119C147.994 108.281 149.173 111.032 149.173 114.177C149.173 117.124 147.994 120.072 145.832 122.234L38.1286 230.318Z" fill="#42C5F1"/>
<path d="M135.188 529.032L78.9044 585.31L83.0736 589.479L139.357 533.201L135.188 529.032Z" fill="#121264"/>
<path d="M178.292 541.285L150.081 569.493L154.25 573.662L182.462 545.454L178.292 541.285Z" fill="#121264"/>
<path d="M576.494 115.386L477.406 214.462L481.576 218.631L580.663 119.554L576.494 115.386Z" fill="#42C5F1"/>
<path d="M582.934 149.55H577.038V118.893H546.378V112.998H582.934V149.55Z" fill="#42C5F1"/>
<path d="M597.332 509.593L530.764 576.153L534.933 580.322L601.501 513.761L597.332 509.593Z" fill="#42C5F1"/>
<path d="M603.571 537.868H597.675V513.5H573.304V507.604H603.571V537.868Z" fill="#42C5F1"/>
<path d="M90.9975 461.423C87.0668 451.204 82.1533 438.234 68.7886 425.853C53.4586 411.507 32.4289 403.057 6.28925 400.502L0 399.913L114.189 285.736C154.48 245.45 207.545 219.903 263.952 213.811C313.48 208.505 314.462 210.863 315.445 213.614L309.942 215.776C310.138 216.562 310.728 216.759 310.925 216.955C309.942 216.562 303.456 215.579 264.541 219.706C209.511 225.602 157.624 250.559 118.316 289.863L12.9716 395.393C37.5389 398.734 57.5859 407.38 72.7194 421.53C87.2633 434.893 92.5698 449.042 96.5006 459.458L90.9975 461.423Z" fill="#121264"/>
<path d="M197.129 519.789C190.446 519.789 184.157 517.234 179.244 512.517C174.527 507.801 171.972 501.512 171.972 494.634C171.972 487.953 174.527 481.664 179.244 476.751L245.084 410.918V379.082H250.98V413.473L183.371 480.878C179.833 484.415 177.671 489.328 177.671 494.438C177.671 499.547 179.637 504.46 183.371 507.998C186.909 511.535 191.822 513.697 196.932 513.697C202.042 513.697 206.956 511.731 210.493 507.998L283.606 434.893C283.606 434.893 290.288 429.391 289.305 421.333V420.94V353.338H295.201V420.744C296.381 431.159 288.716 438.234 287.536 439.216L214.621 511.928C210.297 517.037 203.811 519.789 197.129 519.789Z" fill="#121264"/>
<path d="M91.1941 527.846C84.1187 527.846 77.2398 525.291 71.9332 519.985C66.8232 514.876 64.0717 507.998 64.0717 500.726C64.0717 493.259 66.8232 486.381 71.9332 481.468L203.025 350.391L207.152 354.517L76.0606 485.595C72.1298 489.525 69.7713 494.831 69.7713 500.726C69.7713 506.622 71.9332 511.928 76.0606 515.858C84.5117 524.112 98.0729 524.112 106.328 515.858L258.645 363.557L262.773 367.684L110.455 519.985C105.345 525.291 98.2695 527.846 91.1941 527.846Z" fill="#121264"/>
<path d="M464.225 148.371L462.063 142.868C465.208 141.689 469.728 137.562 470.711 135.204C473.855 128.326 471.3 120.465 464.618 117.124C461.473 115.552 457.739 115.356 454.398 116.535C451.057 117.714 448.305 120.072 446.733 123.216L441.426 120.662C443.785 115.945 447.716 112.604 452.629 110.836C457.543 109.264 462.653 109.46 467.37 111.818C476.803 116.535 480.734 127.736 476.214 137.562C474.248 141.689 468.745 146.798 464.225 148.371Z" fill="#121264"/>
<path d="M360.845 261.368L356.718 257.241L461.08 152.891C461.867 152.104 461.67 150.336 461.473 149.157C459.311 141.099 446.733 128.522 438.675 126.361C437.496 125.968 435.923 125.771 435.137 126.754L386.592 175.293L382.465 171.167L431.01 122.627C432.582 121.055 435.334 119.483 440.247 120.858C450.271 123.609 464.421 137.562 467.173 147.781C468.549 152.694 466.977 155.642 465.404 157.214L360.845 261.368Z" fill="#121264"/>
<path d="M367.921 215.58C357.897 215.58 350.429 210.667 348.07 208.898L351.608 204.182C353.967 205.754 362.025 211.06 372.441 209.291C375.586 208.702 378.731 207.523 381.482 205.754C383.447 204.575 384.43 202.413 384.43 200.055C384.43 198.876 384.43 197.893 384.43 196.911C384.234 191.998 384.234 188.067 382.858 181.189C379.713 166.057 374.8 154.266 371.065 147.192L376.372 144.44C381.875 155.052 386.002 167.433 388.557 180.01C390.13 187.281 390.13 191.605 390.326 196.714C390.326 197.697 390.326 198.679 390.326 199.858C390.523 204.182 388.361 208.505 384.627 210.667C381.089 212.828 377.355 214.401 373.424 214.99C371.655 215.383 369.69 215.58 367.921 215.58Z" fill="#121264"/>
<path d="M313.676 217.348L309.942 212.829C311.711 211.453 313.086 209.881 314.266 208.112C318.59 201.824 318.786 195.142 318.393 191.408C311.514 187.281 307.583 180.403 308.959 173.918C309.156 172.935 310.531 167.63 315.248 165.468C319.572 163.306 325.075 164.289 329.792 167.826C329.792 164.092 331.561 158.983 340.405 155.445L340.798 155.249C345.319 153.284 348.857 153.677 351.412 153.48C357.701 153.284 364.58 149.157 371.655 141.493C376.962 135.204 374.603 125.378 372.638 120.662C367.724 123.413 362.418 125.182 357.111 125.968C350.429 126.95 345.712 126.164 341.585 125.378C337.457 124.592 333.723 124.003 328.417 125.182C319.965 127.147 313.676 130.881 309.549 136.58C305.028 142.672 302.67 150.139 302.473 152.105C300.901 165.664 305.028 174.311 306.797 178.045L301.491 180.6C298.346 174.115 295.005 164.878 296.577 151.515C296.97 148.567 299.722 140.117 304.832 133.042C309.942 126.164 317.41 121.644 327.237 119.483C333.92 117.911 338.44 118.893 342.764 119.679C346.695 120.465 350.625 121.055 356.325 120.269C361.828 119.483 367.331 117.321 372.441 113.98C373.817 113.194 375.389 113.391 376.372 114.766C377.748 116.732 385.806 134.025 376.175 145.423C367.921 154.463 359.666 159.179 351.805 159.376C351.412 159.376 350.822 159.376 350.429 159.376C348.267 159.376 346.105 159.376 343.353 160.555C343.157 160.555 342.96 160.751 342.764 160.751C338.047 162.52 335.885 164.878 335.885 167.63L336.082 175.294C336.082 176.669 335.295 177.848 334.116 178.241C332.937 178.634 331.561 178.241 330.775 177.062C326.844 171.167 321.145 169.202 318 170.774C315.642 171.953 314.855 175.097 314.855 175.294C313.873 179.421 317.214 184.53 322.52 187.085C323.503 187.478 324.093 188.46 324.093 189.443V190.426C324.486 194.749 324.486 203.396 318.983 211.453C317.607 213.615 315.838 215.58 313.676 217.348Z" fill="#121264"/>
<path d="M220.91 370.042C217.962 370.042 215.21 369.453 212.459 368.077C207.742 365.719 204.4 361.788 202.632 356.875C201.059 351.963 201.256 346.853 203.614 342.137L208.921 344.691C207.349 347.836 207.152 351.57 208.331 354.91C209.511 358.251 211.869 361.002 215.014 362.574C221.696 365.915 229.754 363.164 232.899 356.482C234.667 353.142 235.65 346.46 234.471 343.119L240.171 341.351C241.939 346.46 240.564 354.714 238.205 359.234C234.864 365.915 227.985 370.042 220.91 370.042Z" fill="#121264"/>
<path d="M222.286 347.639C213.834 347.639 194.967 345.871 194.967 337.224C194.77 323.075 197.129 287.112 224.841 255.669C254.518 222.065 300.312 212.828 315.642 212.239L315.838 218.134C301.294 218.724 257.466 227.567 229.361 259.599C203.025 289.47 200.666 323.861 200.863 337.224C202.042 339.975 219.337 343.709 232.309 340.958C235.847 340.172 239.581 338.599 239.581 336.634C239.384 327.791 240.957 304.995 258.252 285.343C277.71 263.137 304.046 260.386 311.514 259.993L311.711 265.888C304.635 266.281 280.461 268.836 262.576 289.274C246.46 307.353 245.084 328.381 245.281 336.634C245.477 343.512 237.223 347.639 223.072 347.836C222.875 347.639 222.679 347.639 222.286 347.639Z" fill="#121264"/>
<path d="M300.901 362.182L291.271 356.09L294.415 351.177L299.525 354.321C300.311 353.338 301.294 352.159 302.08 351.177C307.19 345.674 320.752 330.739 336.082 308.729C346.302 293.99 351.412 286.523 354.36 278.465C359.47 263.53 355.932 248.202 353.574 237.786C353.377 237 353.18 236.411 353.18 235.821C349.053 236.411 343.747 236.411 336.278 234.249C323.7 230.712 316.035 222.851 312.497 218.331L317.017 214.597C320.162 218.528 327.041 225.406 337.85 228.55C346.105 230.908 351.019 230.319 354.949 229.533L357.897 228.943L358.487 231.891C358.684 233.266 359.077 234.838 359.47 236.607C362.025 247.612 365.759 263.923 360.059 280.431C356.915 289.274 351.608 296.938 340.995 312.266C325.468 334.669 311.711 349.801 306.601 355.5C305.225 357.072 304.046 358.644 302.67 360.217L300.901 362.182Z" fill="#121264"/>
<path d="M291.467 356.286C287.34 354.321 282.82 351.963 278.299 349.211C272.01 345.478 265.917 341.351 260.021 336.634C253.535 331.721 247.639 326.219 242.333 320.323L246.656 316.393C251.766 321.896 257.466 327.202 263.559 332.114C269.258 336.634 274.958 340.565 281.051 344.102C285.571 346.657 289.698 349.015 293.826 350.98L291.467 356.286Z" fill="#121264"/>
<path d="M352.591 233.266C349.053 222.457 354.36 209.88 354.556 209.487L360.059 211.846L357.308 210.666L360.059 211.846C360.059 212.042 355.539 223.047 358.29 231.497L352.591 233.266Z" fill="#121264"/>
<path d="M408.015 406.398C408.015 413.473 410.766 420.154 415.876 425.067C425.9 435.09 443.392 435.09 453.415 425.067C458.329 420.154 461.277 413.473 461.277 406.398C461.277 399.323 458.525 392.642 453.415 387.729C448.502 382.816 441.623 379.868 434.744 379.868C427.669 379.868 420.986 382.619 416.073 387.729C410.766 392.642 408.015 399.323 408.015 406.398Z" fill="#42C5F1"/>
<path d="M376.765 464.174C392.292 479.699 412.732 488.149 434.548 488.149C456.363 488.149 477 479.699 492.33 464.174C524.366 432.338 524.366 380.458 492.33 348.425C476.803 332.9 456.363 324.45 434.548 324.45C412.732 324.45 392.095 332.9 376.765 348.425C344.729 380.458 344.729 432.338 376.765 464.174ZM388.361 406.398C388.361 394.017 393.078 382.619 401.922 373.776C410.57 364.933 422.166 360.216 434.548 360.216C446.93 360.216 458.329 364.933 467.173 373.776C476.017 382.423 480.734 394.017 480.734 406.398C480.734 418.779 476.017 430.373 467.173 439.02C458.525 447.667 446.93 452.58 434.548 452.58C422.166 452.58 410.57 447.863 401.922 439.02C393.274 430.373 388.361 418.779 388.361 406.398Z" fill="#42C5F1"/>
<path d="M434.744 517.234C373.62 517.234 323.7 467.515 323.7 406.201C323.7 344.888 373.424 295.169 434.744 295.169C456.953 295.169 478.376 301.654 496.85 314.035L493.509 318.948C476.214 307.157 455.774 301.064 434.744 301.064C376.765 301.064 329.596 348.229 329.596 406.201C329.596 464.174 376.765 511.338 434.744 511.338C492.723 511.338 539.892 464.174 539.892 406.201C539.892 385.567 533.996 365.719 522.794 348.622L527.707 345.477C539.499 363.557 545.789 384.584 545.789 406.201C545.592 467.318 495.868 517.234 434.744 517.234Z" fill="#42C5F1"/>
<path d="M547.361 290.649L598.068 240.144L593.744 202.216L543.234 252.721L547.361 290.649Z" fill="#42C5F1"/>
<path d="M547.361 290.649L598.068 240.144L636 244.271L585.293 294.972L547.361 290.649Z" fill="#42C5F1"/>
<path d="M595.984 237.963L434.776 399.153L438.945 403.322L600.154 242.131L595.984 237.963Z" fill="#121264"/>
<path d="M315.052 108.281C303.849 96.2935 297.56 80.7687 297.56 64.2612C297.56 28.8881 326.255 0 361.632 0C397.009 0 425.9 28.8881 425.9 64.2612C425.9 79.7861 420.397 94.7214 410.177 106.316L405.656 102.386C414.894 91.7736 419.807 78.2139 419.807 64.2612C420.004 32.0323 393.864 5.89552 361.632 5.89552C329.399 5.89552 303.26 32.0323 303.26 64.2612C303.26 79.1965 308.959 93.3458 319.179 104.351L315.052 108.281Z" fill="#42C5F1"/>
<path d="M358.684 85.092L329.203 55.6144L333.33 51.4875L358.684 76.8383L389.933 45.3955L394.257 49.5224L358.684 85.092Z" fill="#42C5F1"/>
<path fill-rule="evenodd" clip-rule="evenodd" d="M75.7288 117.443L57.8751 128.459L77.2483 139.855L75.7288 117.443ZM75.0391 113.168C76.9611 111.983 79.4548 113.265 79.6075 115.519L81.3673 141.475C81.5304 143.881 78.9317 145.486 76.8531 144.263L54.4165 131.065C52.4686 129.92 52.439 127.113 54.3622 125.927L75.0391 113.168Z" fill="#121264"/>
<path fill-rule="evenodd" clip-rule="evenodd" d="M532 70C538.627 70 544 64.6274 544 58C544 51.3726 538.627 46 532 46C525.373 46 520 51.3726 520 58C520 64.6274 525.373 70 532 70ZM532 75C541.389 75 549 67.3888 549 58C549 48.6112 541.389 41 532 41C522.611 41 515 48.6112 515 58C515 67.3888 522.611 75 532 75Z" fill="#121264"/>
</svg>
