<svg width="57" height="50" viewBox="0 0 57 50" fill="none" xmlns="http://www.w3.org/2000/svg">
<path d="M10.6541 0H45.3862C51.2702 0 56.0402 4.76028 56.0402 10.6324V38.4365C56.0402 44.3086 51.2702 49.0688 45.3862 49.0688H10.6541C4.76999 49.0688 0 44.3086 0 38.4364V10.6324C0 4.76028 4.76999 0 10.6541 0Z" fill="white"/>
<path d="M32.4493 19.4404H33.3064L35.749 17.0027L35.869 15.9678C31.323 11.9635 24.3849 12.3951 20.3725 16.9319C19.2579 18.1921 18.4488 19.6913 18.0078 21.3135C18.2799 21.2022 18.5814 21.1842 18.8649 21.2622L23.7501 20.4582C23.7501 20.4582 23.9987 20.0477 24.1272 20.0733C26.3003 17.6916 29.9574 17.414 32.4664 19.4404H32.4493V19.4404Z" fill="#EA4335"/>
<path d="M39.2268 21.3138C38.6653 19.2504 37.5126 17.3955 35.9099 15.9766L32.4817 19.3978C33.9293 20.5783 34.7539 22.3565 34.7186 24.2218V24.8291C36.4037 24.8291 37.7698 26.1924 37.7698 27.874C37.7698 29.5557 36.4037 30.9189 34.7186 30.9189H28.6163L28.0078 31.5348V35.187L28.6163 35.7943H34.7186C39.1016 35.8283 42.6824 32.31 42.7165 27.9359C42.7372 25.2848 41.4273 22.7991 39.2268 21.3138V21.3138Z" fill="#4285F4"/>
<path d="M22.5097 35.7603H28.612V30.885H22.5097C22.075 30.8849 21.6453 30.7916 21.2498 30.6113L20.3928 30.8765L17.933 33.3141L17.7188 34.1694C19.0981 35.2089 20.7813 35.7678 22.5097 35.7603V35.7603Z" fill="#34A853"/>
<path d="M22.5062 19.9454C18.1231 19.9715 14.5911 23.5386 14.6173 27.9128C14.632 30.3553 15.7751 32.6545 17.7152 34.1436L21.2549 30.6112C19.7192 29.9188 19.0368 28.1151 19.7306 26.5826C20.4244 25.0501 22.2317 24.369 23.7673 25.0614C24.444 25.3665 24.9859 25.9074 25.2916 26.5826L28.8313 23.0502C27.3253 21.0853 24.985 19.9365 22.5062 19.9454V19.9454Z" fill="#FBBC05"/>
</svg>
