<svg width="182" height="182" viewBox="0 0 182 182" fill="none" xmlns="http://www.w3.org/2000/svg">
<g opacity="0.8">
<circle cx="11" cy="11" r="11" fill="#F9F9F9" fill-opacity="0.8"/>
<circle cx="11" cy="43" r="11" fill="#F9F9F9" fill-opacity="0.8"/>
<circle cx="11" cy="75" r="11" fill="#F9F9F9" fill-opacity="0.8"/>
<circle cx="11" cy="107" r="11" fill="#F9F9F9" fill-opacity="0.8"/>
<circle cx="11" cy="139" r="11" fill="#F9F9F9" fill-opacity="0.8"/>
<circle cx="11" cy="171" r="11" fill="#F9F9F9" fill-opacity="0.8"/>
<circle cx="107" cy="11" r="11" fill="#F9F9F9" fill-opacity="0.8"/>
<circle cx="107" cy="43" r="11" fill="#F9F9F9" fill-opacity="0.8"/>
<circle cx="107" cy="75" r="11" fill="#F9F9F9" fill-opacity="0.8"/>
<circle cx="107" cy="107" r="11" fill="#F9F9F9" fill-opacity="0.8"/>
<circle cx="107" cy="139" r="11" fill="#F9F9F9" fill-opacity="0.8"/>
<circle cx="107" cy="171" r="11" fill="#F9F9F9" fill-opacity="0.8"/>
<circle cx="43" cy="11" r="11" fill="#F9F9F9" fill-opacity="0.8"/>
<circle cx="43" cy="43" r="11" fill="#F9F9F9" fill-opacity="0.8"/>
<circle cx="43" cy="75" r="11" fill="#F9F9F9" fill-opacity="0.8"/>
<circle cx="43" cy="107" r="11" fill="#F9F9F9" fill-opacity="0.8"/>
<circle cx="43" cy="139" r="11" fill="#F9F9F9" fill-opacity="0.8"/>
<circle cx="43" cy="171" r="11" fill="#F9F9F9" fill-opacity="0.8"/>
<circle cx="139" cy="11" r="11" fill="#F9F9F9" fill-opacity="0.8"/>
<circle cx="139" cy="43" r="11" fill="#F9F9F9" fill-opacity="0.8"/>
<circle cx="139" cy="75" r="11" fill="#F9F9F9" fill-opacity="0.8"/>
<circle cx="139" cy="107" r="11" fill="#F9F9F9" fill-opacity="0.8"/>
<circle cx="139" cy="139" r="11" fill="#F9F9F9" fill-opacity="0.8"/>
<circle cx="139" cy="171" r="11" fill="#F9F9F9" fill-opacity="0.8"/>
<circle cx="75" cy="11" r="11" fill="#F9F9F9" fill-opacity="0.8"/>
<circle cx="75" cy="43" r="11" fill="#F9F9F9" fill-opacity="0.8"/>
<circle cx="75" cy="75" r="11" fill="#F9F9F9" fill-opacity="0.8"/>
<circle cx="75" cy="107" r="11" fill="#F9F9F9" fill-opacity="0.8"/>
<circle cx="75" cy="139" r="11" fill="#F9F9F9" fill-opacity="0.8"/>
<circle cx="75" cy="171" r="11" fill="#F9F9F9" fill-opacity="0.8"/>
<circle cx="171" cy="11" r="11" fill="#F9F9F9" fill-opacity="0.8"/>
<circle cx="171" cy="43" r="11" fill="#F9F9F9" fill-opacity="0.8"/>
<circle cx="171" cy="75" r="11" fill="#F9F9F9" fill-opacity="0.8"/>
<circle cx="171" cy="107" r="11" fill="#F9F9F9" fill-opacity="0.8"/>
<circle cx="171" cy="139" r="11" fill="#F9F9F9" fill-opacity="0.8"/>
<circle cx="171" cy="171" r="11" fill="#F9F9F9" fill-opacity="0.8"/>
</g>
</svg>
