<svg width="15" height="12" viewBox="0 0 15 12" fill="none" xmlns="http://www.w3.org/2000/svg">
<path d="M1.78026 2.9671C2.76347 2.9671 3.56052 2.30289 3.56052 1.48355C3.56052 0.664208 2.76347 0 1.78026 0C0.797049 0 0 0.664208 0 1.48355C0 2.30289 0.797049 2.9671 1.78026 2.9671Z" fill="white"/>
<path d="M3.26381 3.95801H0.29671C0.132926 3.95801 0 4.06878 0 4.20527V11.623C0 11.7595 0.132926 11.8703 0.29671 11.8703H3.26381C3.42759 11.8703 3.56052 11.7595 3.56052 11.623V4.20527C3.56052 4.06878 3.42759 3.95801 3.26381 3.95801Z" fill="white"/>
<path d="M12.1066 3.5464C10.8385 3.18442 9.25228 3.50239 8.30103 4.07257C8.26839 3.96625 8.15208 3.88712 8.01381 3.88712H5.04671C4.88293 3.88712 4.75 3.9979 4.75 4.13438V11.5521C4.75 11.6886 4.88293 11.7994 5.04671 11.7994H8.01381C8.17759 11.7994 8.31052 11.6886 8.31052 11.5521V6.22124C8.79 5.87706 9.40775 5.76728 9.91335 5.94629C10.4035 6.11888 10.6842 6.5402 10.6842 7.10148V11.5521C10.6842 11.6886 10.8171 11.7994 10.9809 11.7994H13.948C14.1118 11.7994 14.2447 11.6886 14.2447 11.5521V6.6035C14.2109 4.57153 13.0638 3.81937 12.1066 3.5464Z" fill="white"/>
</svg>
