<svg width="132" height="33" viewBox="0 0 132 33" fill="none" xmlns="http://www.w3.org/2000/svg">
<path d="M8.77657 25.4693C6.95425 25.4693 5.38525 25.0569 4.06958 24.232C2.76209 23.3989 1.75695 22.2514 1.05417 20.7895C0.35139 19.3276 0 17.6533 0 15.7667C0 13.8556 0.359562 12.1691 1.07868 10.7072C1.79781 9.23706 2.81112 8.08958 4.11862 7.26469C5.42611 6.43981 6.96651 6.02737 8.7398 6.02737C10.1699 6.02737 11.4447 6.2928 12.5642 6.82367C13.6838 7.34636 14.5868 8.08141 15.2732 9.0288C15.9678 9.97619 16.3805 11.0828 16.5112 12.3488H12.9442C12.7481 11.4667 12.2986 10.7072 11.5959 10.0701C10.9013 9.43307 9.96966 9.11456 8.80109 9.11456C7.77961 9.11456 6.88479 9.38407 6.11663 9.9231C5.35665 10.454 4.76419 11.2135 4.33926 12.2017C3.91432 13.1818 3.70185 14.3415 3.70185 15.681C3.70185 17.053 3.91023 18.2373 4.327 19.2337C4.74376 20.2301 5.33214 21.0019 6.09212 21.5491C6.86027 22.0963 7.76326 22.3699 8.80109 22.3699C9.4957 22.3699 10.1249 22.2433 10.6888 21.9901C11.2608 21.7287 11.7389 21.3571 12.1229 20.8753C12.5152 20.3934 12.789 19.8135 12.9442 19.1357H16.5112C16.3805 20.3526 15.9841 21.4388 15.3222 22.3944C14.6603 23.3499 13.7737 24.1013 12.6623 24.6485C11.5591 25.1957 10.2639 25.4693 8.77657 25.4693Z" fill="white"/>
<path d="M25.9099 25.5061C24.7168 25.5061 23.6381 25.2855 22.6738 24.8445C21.7096 24.3953 20.9455 23.746 20.3816 22.8966C19.8259 22.0473 19.5481 21.0059 19.5481 19.7727C19.5481 18.711 19.7524 17.8371 20.161 17.151C20.5696 16.465 21.1212 15.9219 21.8158 15.5217C22.5104 15.1215 23.2867 14.8193 24.1448 14.6151C25.0028 14.411 25.8772 14.2558 26.7679 14.1496C27.8956 14.0189 28.8109 13.9128 29.5137 13.8311C30.2165 13.7413 30.7272 13.5983 31.0459 13.4023C31.3646 13.2063 31.524 12.8878 31.524 12.4468V12.361C31.524 11.2911 31.2216 10.4621 30.6169 9.8741C30.0203 9.28606 29.1296 8.99205 27.9447 8.99205C26.7107 8.99205 25.7383 9.26565 25.0273 9.81285C24.3245 10.3519 23.8383 10.9522 23.5687 11.6137L20.1242 10.8297C20.5328 9.68626 21.1294 8.76337 21.9139 8.06099C22.7065 7.35045 23.6177 6.83592 24.6473 6.5174C25.677 6.19071 26.7598 6.02737 27.8956 6.02737C28.6475 6.02737 29.4442 6.11721 30.2859 6.29688C31.1358 6.46839 31.9285 6.78691 32.6639 7.25244C33.4076 7.71797 34.0164 8.38359 34.4903 9.24931C34.9643 10.1069 35.2013 11.2217 35.2013 12.5938V25.0895H31.622V22.5169H31.4749C31.2379 22.9906 30.8825 23.4561 30.4085 23.9135C29.9345 24.3708 29.3257 24.7506 28.5821 25.0528C27.8384 25.355 26.9477 25.5061 25.9099 25.5061ZM26.7066 22.5659C27.72 22.5659 28.5862 22.3658 29.3053 21.9656C30.0326 21.5654 30.5842 21.0427 30.9601 20.3975C31.3442 19.7441 31.5362 19.0458 31.5362 18.3026V15.877C31.4055 16.0076 31.1521 16.1301 30.7762 16.2445C30.4085 16.3507 29.9876 16.4446 29.5137 16.5263C29.0397 16.5998 28.578 16.6692 28.1285 16.7345C27.6791 16.7917 27.3032 16.8407 27.0008 16.8815C26.2899 16.9714 25.6402 17.1225 25.0518 17.3348C24.4716 17.5472 24.0058 17.8534 23.6545 18.2536C23.3112 18.6456 23.1396 19.1683 23.1396 19.8217C23.1396 20.7283 23.4747 21.4143 24.1448 21.8798C24.8149 22.3372 25.6688 22.5659 26.7066 22.5659Z" fill="white"/>
<path d="M40.0829 32.146V6.27238H43.6622V9.32282H43.9687C44.1811 8.93079 44.4876 8.47752 44.888 7.96299C45.2884 7.44845 45.8441 6.99926 46.5551 6.6154C47.266 6.22338 48.2058 6.02737 49.3743 6.02737C50.8943 6.02737 52.2508 6.41122 53.4439 7.17894C54.637 7.94665 55.5727 9.0533 56.251 10.4989C56.9374 11.9445 57.2806 13.6841 57.2806 15.7177C57.2806 17.7513 56.9415 19.495 56.2632 20.9488C55.585 22.3944 54.6534 23.5092 53.4684 24.2932C52.2835 25.0691 50.9311 25.4571 49.4111 25.4571C48.2671 25.4571 47.3314 25.2651 46.6041 24.8813C45.885 24.4974 45.3211 24.0482 44.9125 23.5337C44.5039 23.0192 44.1893 22.5618 43.9687 22.1616H43.748V32.146H40.0829ZM43.6745 15.681C43.6745 17.004 43.8665 18.1638 44.2506 19.1602C44.6347 20.1566 45.1904 20.9365 45.9177 21.5001C46.6449 22.0554 47.5357 22.3331 48.5899 22.3331C49.6849 22.3331 50.6001 22.0432 51.3356 21.4633C52.0711 20.8753 52.6267 20.079 53.0027 19.0744C53.3867 18.0699 53.5788 16.9387 53.5788 15.681C53.5788 14.4395 53.3908 13.3247 53.0149 12.3365C52.6472 11.3483 52.0915 10.5683 51.3479 9.99661C50.6124 9.42491 49.6931 9.13906 48.5899 9.13906C47.5275 9.13906 46.6286 9.41266 45.8931 9.95986C45.1658 10.5071 44.6142 11.2707 44.2383 12.2507C43.8624 13.2308 43.6745 14.3742 43.6745 15.681Z" fill="white"/>
<path d="M66.8662 25.5061C65.6731 25.5061 64.5944 25.2855 63.6302 24.8445C62.6659 24.3953 61.9018 23.746 61.3379 22.8966C60.7823 22.0473 60.5044 21.0059 60.5044 19.7727C60.5044 18.711 60.7087 17.8371 61.1173 17.151C61.5259 16.465 62.0775 15.9219 62.7721 15.5217C63.4667 15.1215 64.243 14.8193 65.1011 14.6151C65.9591 14.411 66.8335 14.2558 67.7243 14.1496C68.852 14.0189 69.7672 13.9128 70.47 13.8311C71.1728 13.7413 71.6835 13.5983 72.0022 13.4023C72.3209 13.2063 72.4803 12.8878 72.4803 12.4468V12.361C72.4803 11.2911 72.1779 10.4621 71.5732 9.8741C70.9766 9.28606 70.0859 8.99205 68.901 8.99205C67.667 8.99205 66.6946 9.26565 65.9836 9.81285C65.2809 10.3519 64.7946 10.9522 64.525 11.6137L61.0805 10.8297C61.4891 9.68626 62.0857 8.76337 62.8702 8.06099C63.6628 7.35045 64.574 6.83592 65.6036 6.5174C66.6333 6.19071 67.7161 6.02737 68.852 6.02737C69.6038 6.02737 70.4005 6.11721 71.2422 6.29688C72.0921 6.46839 72.8848 6.78691 73.6202 7.25244C74.3639 7.71797 74.9727 8.38359 75.4467 9.24931C75.9206 10.1069 76.1576 11.2217 76.1576 12.5938V25.0895H72.5783V22.5169H72.4312C72.1943 22.9906 71.8388 23.4561 71.3648 23.9135C70.8908 24.3708 70.282 24.7506 69.5384 25.0528C68.7948 25.355 67.904 25.5061 66.8662 25.5061ZM67.663 22.5659C68.6763 22.5659 69.5425 22.3658 70.2616 21.9656C70.9889 21.5654 71.5405 21.0427 71.9164 20.3975C72.3005 19.7441 72.4925 19.0458 72.4925 18.3026V15.877C72.3618 16.0076 72.1084 16.1301 71.7325 16.2445C71.3648 16.3507 70.944 16.4446 70.47 16.5263C69.996 16.5998 69.5343 16.6692 69.0849 16.7345C68.6354 16.7917 68.2595 16.8407 67.9572 16.8815C67.2462 16.9714 66.5965 17.1225 66.0082 17.3348C65.428 17.5472 64.9622 17.8534 64.6108 18.2536C64.2676 18.6456 64.0959 19.1683 64.0959 19.8217C64.0959 20.7283 64.431 21.4143 65.1011 21.8798C65.7712 22.3372 66.6251 22.5659 67.663 22.5659Z" fill="white"/>
<path d="M81.3335 25.0895V0H84.9985V9.32282H85.2192C85.4316 8.93079 85.7381 8.47752 86.1385 7.96299C86.5389 7.44845 87.0946 6.99926 87.8056 6.6154C88.5165 6.22338 89.4563 6.02737 90.6248 6.02737C92.1448 6.02737 93.5013 6.41122 94.6944 7.17894C95.8875 7.94665 96.8232 9.0533 97.5015 10.4989C98.1879 11.9445 98.5311 13.6841 98.5311 15.7177C98.5311 17.7513 98.192 19.495 97.5137 20.9488C96.8355 22.3944 95.9039 23.5092 94.719 24.2932C93.534 25.0691 92.1816 25.4571 90.6616 25.4571C89.5176 25.4571 88.5819 25.2651 87.8546 24.8813C87.1355 24.4974 86.5716 24.0482 86.163 23.5337C85.7544 23.0192 85.4398 22.5618 85.2192 22.1616H84.9127V25.0895H81.3335ZM84.925 15.681C84.925 17.004 85.117 18.1638 85.5011 19.1602C85.8852 20.1566 86.4409 20.9365 87.1682 21.5001C87.8955 22.0554 88.7862 22.3331 89.8404 22.3331C90.9354 22.3331 91.8506 22.0432 92.5861 21.4633C93.3216 20.8753 93.8772 20.079 94.2532 19.0744C94.6372 18.0699 94.8293 16.9387 94.8293 15.681C94.8293 14.4395 94.6413 13.3247 94.2654 12.3365C93.8977 11.3483 93.342 10.5683 92.5984 9.99661C91.8629 9.42491 90.9436 9.13906 89.8404 9.13906C88.778 9.13906 87.8791 9.41266 87.1436 9.95986C86.4163 10.5071 85.8647 11.2707 85.4888 12.2507C85.1129 13.2308 84.925 14.3742 84.925 15.681Z" fill="white"/>
<path d="M106.312 0V25.0895H102.647V0H106.312Z" fill="white"/>
<path d="M124.269 19.2648C124.269 22.4817 121.66 25.0895 118.441 25.0895C115.222 25.0895 112.613 22.4817 112.613 19.2648C112.613 16.0478 115.222 13.44 118.441 13.44C121.66 13.44 124.269 16.0478 124.269 19.2648Z" fill="#FFBE31"/>
<path d="M131.263 19.2648C131.263 22.4817 128.653 25.0895 125.435 25.0895C122.216 25.0895 119.606 22.4817 119.606 19.2648C119.606 16.0478 122.216 13.44 125.435 13.44C128.653 13.44 131.263 16.0478 131.263 19.2648Z" fill="#FF696D"/>
</svg>
