<svg width="159" height="39" viewBox="0 0 159 39" fill="none" xmlns="http://www.w3.org/2000/svg">
<path d="M10.625 30.8335C8.41891 30.8335 6.51946 30.3342 4.92669 29.3356C3.34382 28.3271 2.12699 26.9379 1.27619 25.1681C0.425397 23.3982 0 21.3714 0 19.0874C0 16.7738 0.43529 14.732 1.30587 12.9622C2.17645 11.1825 3.40318 9.79335 4.98605 8.79473C6.56892 7.79612 8.43375 7.29681 10.5805 7.29681C12.3118 7.29681 13.8551 7.61815 15.2104 8.26082C16.5658 8.89361 17.6589 9.78346 18.4899 10.9304C19.3308 12.0773 19.8304 13.417 19.9887 14.9496H15.6704C15.433 13.8817 14.8889 12.9622 14.0381 12.191C13.1972 11.4198 12.0694 11.0342 10.6547 11.0342C9.4181 11.0342 8.33482 11.3605 7.40488 12.013C6.48483 12.6557 5.76759 13.5752 5.25316 14.7716C4.73873 15.9581 4.48151 17.3621 4.48151 18.9836C4.48151 20.6446 4.73378 22.0783 5.23832 23.2845C5.74286 24.4908 6.45515 25.4251 7.3752 26.0876C8.30514 26.75 9.39831 27.0813 10.6547 27.0813C11.4956 27.0813 12.2574 26.928 12.94 26.6215C13.6325 26.3051 14.2112 25.8552 14.6762 25.2719C15.1511 24.6885 15.4825 23.9865 15.6704 23.1659H19.9887C19.8304 24.6391 19.3506 25.9541 18.5493 27.1109C17.748 28.2677 16.6746 29.1774 15.3291 29.8398C13.9936 30.5023 12.4256 30.8335 10.625 30.8335Z" fill="black"/>
<path d="M31.3669 30.878C29.9225 30.878 28.6166 30.611 27.4492 30.0771C26.2819 29.5333 25.3569 28.7473 24.6743 27.719C24.0015 26.6907 23.6652 25.4301 23.6652 23.9371C23.6652 22.6518 23.9125 21.5938 24.4072 20.7633C24.9018 19.9328 25.5696 19.2752 26.4105 18.7908C27.2514 18.3063 28.1912 17.9405 29.23 17.6933C30.2687 17.4461 31.3273 17.2582 32.4056 17.1297C33.7708 16.9715 34.8789 16.843 35.7297 16.7441C36.5804 16.6353 37.1988 16.4623 37.5846 16.225C37.9704 15.9877 38.1633 15.6021 38.1633 15.0682V14.9644C38.1633 13.6692 37.7973 12.6656 37.0652 11.9537C36.343 11.2418 35.2647 10.8859 33.8302 10.8859C32.3364 10.8859 31.1591 11.2171 30.2984 11.8796C29.4476 12.5321 28.859 13.2588 28.5325 14.0597L24.3626 13.1105C24.8573 11.7263 25.5795 10.609 26.5292 9.75874C27.4888 8.89855 28.5919 8.27565 29.8384 7.89005C31.0849 7.49456 32.3957 7.29681 33.7708 7.29681C34.681 7.29681 35.6456 7.40557 36.6645 7.62309C37.6934 7.83072 38.653 8.21633 39.5434 8.7799C40.4436 9.34348 41.1807 10.1493 41.7545 11.1973C42.3283 12.2355 42.6152 13.5851 42.6152 15.2462V30.3737H38.282V27.2592H38.104C37.8171 27.8327 37.3867 28.3963 36.8129 28.95C36.2391 29.5036 35.5021 29.9634 34.6019 30.3292C33.7016 30.6951 32.6233 30.878 31.3669 30.878ZM32.3314 27.3185C33.5581 27.3185 34.6068 27.0763 35.4774 26.5918C36.3579 26.1074 37.0256 25.4746 37.4807 24.6935C37.9457 23.9025 38.1782 23.0571 38.1782 22.1574V19.2209C38.0199 19.3791 37.7132 19.5274 37.2581 19.6658C36.8129 19.7943 36.3034 19.908 35.7297 20.0069C35.1559 20.0959 34.5969 20.1799 34.0528 20.259C33.5087 20.3282 33.0536 20.3876 32.6876 20.437C31.8269 20.5458 31.0404 20.7287 30.3281 20.9857C29.6257 21.2428 29.0618 21.6136 28.6364 22.0981C28.2209 22.5727 28.0131 23.2054 28.0131 23.9964C28.0131 25.0939 28.4188 25.9244 29.23 26.488C30.0412 27.0417 31.075 27.3185 32.3314 27.3185Z" fill="black"/>
<path d="M48.525 38.9163V7.59343H52.8581V11.2863H53.229C53.4863 10.8117 53.8573 10.263 54.342 9.6401C54.8268 9.0172 55.4995 8.4734 56.3602 8.00869C57.2209 7.53411 58.3586 7.29681 59.7732 7.29681C61.6133 7.29681 63.2556 7.76151 64.6999 8.69092C66.1443 9.62032 67.2771 10.96 68.0982 12.7101C68.9292 14.4601 69.3447 16.5661 69.3447 19.0281C69.3447 21.49 68.9341 23.6009 68.113 25.3609C67.2919 27.1109 66.1641 28.4605 64.7296 29.4097C63.2951 30.349 61.6579 30.8186 59.8178 30.8186C58.4327 30.8186 57.3 30.5863 56.4195 30.1216C55.549 29.6569 54.8663 29.1131 54.3717 28.4902C53.877 27.8673 53.4962 27.3136 53.229 26.8291H52.9619V38.9163H48.525ZM52.8729 18.9836C52.8729 20.5853 53.1054 21.9893 53.5704 23.1956C54.0353 24.4018 54.7081 25.346 55.5885 26.0283C56.469 26.7006 57.5473 27.0368 58.8235 27.0368C60.1492 27.0368 61.2572 26.6858 62.1476 25.9838C63.0379 25.2719 63.7106 24.3079 64.1657 23.0917C64.6307 21.8756 64.8632 20.5062 64.8632 18.9836C64.8632 17.4807 64.6356 16.1311 64.1806 14.9347C63.7354 13.7384 63.0627 12.7941 62.1624 12.102C61.272 11.4099 60.1591 11.0639 58.8235 11.0639C57.5374 11.0639 56.4492 11.3951 55.5588 12.0575C54.6784 12.72 54.0106 13.6444 53.5555 14.8309C53.1004 16.0174 52.8729 17.4016 52.8729 18.9836Z" fill="black"/>
<path d="M80.9491 30.878C79.5048 30.878 78.1989 30.611 77.0315 30.0771C75.8641 29.5333 74.9392 28.7473 74.2565 27.719C73.5838 26.6907 73.2475 25.4301 73.2475 23.9371C73.2475 22.6518 73.4948 21.5938 73.9894 20.7633C74.4841 19.9328 75.1518 19.2752 75.9927 18.7908C76.8336 18.3063 77.7735 17.9405 78.8122 17.6933C79.851 17.4461 80.9095 17.2582 81.9879 17.1297C83.3531 16.9715 84.4611 16.843 85.3119 16.7441C86.1627 16.6353 86.781 16.4623 87.1668 16.225C87.5527 15.9877 87.7456 15.6021 87.7456 15.0682V14.9644C87.7456 13.6692 87.3795 12.6656 86.6475 11.9537C85.9253 11.2418 84.8469 10.8859 83.4125 10.8859C81.9186 10.8859 80.7414 11.2171 79.8807 11.8796C79.0299 12.5321 78.4413 13.2588 78.1148 14.0597L73.9449 13.1105C74.4396 11.7263 75.1617 10.609 76.1115 9.75874C77.0711 8.89855 78.1741 8.27565 79.4207 7.89005C80.6672 7.49456 81.978 7.29681 83.3531 7.29681C84.2633 7.29681 85.2278 7.40557 86.2468 7.62309C87.2757 7.83072 88.2353 8.21633 89.1256 8.7799C90.0259 9.34348 90.7629 10.1493 91.3367 11.1973C91.9105 12.2355 92.1974 13.5851 92.1974 15.2462V30.3737H87.8643V27.2592H87.6862C87.3993 27.8327 86.969 28.3963 86.3952 28.95C85.8214 29.5036 85.0844 29.9634 84.1841 30.3292C83.2839 30.6951 82.2055 30.878 80.9491 30.878ZM81.9137 27.3185C83.1404 27.3185 84.1891 27.0763 85.0596 26.5918C85.9401 26.1074 86.6079 25.4746 87.063 24.6935C87.5279 23.9025 87.7604 23.0571 87.7604 22.1574V19.2209C87.6021 19.3791 87.2955 19.5274 86.8404 19.6658C86.3952 19.7943 85.8857 19.908 85.3119 20.0069C84.7381 20.0959 84.1792 20.1799 83.6351 20.259C83.0909 20.3282 82.6359 20.3876 82.2698 20.437C81.4091 20.5458 80.6227 20.7287 79.9104 20.9857C79.208 21.2428 78.6441 21.6136 78.2187 22.0981C77.8032 22.5727 77.5954 23.2054 77.5954 23.9964C77.5954 25.0939 78.001 25.9244 78.8122 26.488C79.6235 27.0417 80.6573 27.3185 81.9137 27.3185Z" fill="black"/>
<path d="M98.4634 30.3737V0H102.9V11.2863H103.167C103.425 10.8117 103.796 10.263 104.28 9.6401C104.765 9.0172 105.438 8.4734 106.299 8.00869C107.159 7.53411 108.297 7.29681 109.712 7.29681C111.552 7.29681 113.194 7.76151 114.638 8.69092C116.083 9.62032 117.215 10.96 118.037 12.7101C118.868 14.4601 119.283 16.5661 119.283 19.0281C119.283 21.49 118.873 23.6009 118.051 25.3609C117.23 27.1109 116.103 28.4605 114.668 29.4097C113.234 30.349 111.596 30.8186 109.756 30.8186C108.371 30.8186 107.238 30.5863 106.358 30.1216C105.487 29.6569 104.805 29.1131 104.31 28.4902C103.815 27.8673 103.435 27.3136 103.167 26.8291H102.796V30.3737H98.4634ZM102.811 18.9836C102.811 20.5853 103.044 21.9893 103.509 23.1956C103.974 24.4018 104.646 25.346 105.527 26.0283C106.407 26.7006 107.486 27.0368 108.762 27.0368C110.088 27.0368 111.196 26.6858 112.086 25.9838C112.976 25.2719 113.649 24.3079 114.104 23.0917C114.569 21.8756 114.802 20.5062 114.802 18.9836C114.802 17.4807 114.574 16.1311 114.119 14.9347C113.674 13.7384 113.001 12.7941 112.101 12.102C111.21 11.4099 110.097 11.0639 108.762 11.0639C107.476 11.0639 106.388 11.3951 105.497 12.0575C104.617 12.72 103.949 13.6444 103.494 14.8309C103.039 16.0174 102.811 17.4016 102.811 18.9836Z" fill="black"/>
<path d="M128.702 0V30.3737H124.265V0H128.702Z" fill="black"/>
<path d="M150.442 23.3222C150.442 27.2166 147.283 30.3737 143.386 30.3737C139.489 30.3737 136.33 27.2166 136.33 23.3222C136.33 19.4277 139.489 16.2707 143.386 16.2707C147.283 16.2707 150.442 19.4277 150.442 23.3222Z" fill="#FFBE31"/>
<path d="M158.908 23.3222C158.908 27.2166 155.749 30.3737 151.853 30.3737C147.956 30.3737 144.797 27.2166 144.797 23.3222C144.797 19.4277 147.956 16.2707 151.853 16.2707C155.749 16.2707 158.908 19.4277 158.908 23.3222Z" fill="#FF696D"/>
</svg>
