<svg width="21" height="21" viewBox="0 0 21 21" fill="none" xmlns="http://www.w3.org/2000/svg">
<path fill-rule="evenodd" clip-rule="evenodd" d="M0 10.1167C0 7.4336 1.06587 4.86037 2.96312 2.96312C4.86037 1.06587 7.4336 0 10.1167 0C12.7998 0 15.3731 1.06587 17.2703 2.96312C19.1676 4.86037 20.2334 7.4336 20.2334 10.1167C20.2334 12.7998 19.1676 15.3731 17.2703 17.2703C15.3731 19.1676 12.7998 20.2334 10.1167 20.2334C7.4336 20.2334 4.86037 19.1676 2.96312 17.2703C1.06587 15.3731 0 12.7998 0 10.1167H0ZM9.53939 14.4467L15.3639 7.16534L14.3118 6.32363L9.34515 12.5299L5.82723 9.59875L4.96394 10.6347L9.53939 14.448V14.4467Z" fill="#00A66C"/>
</svg>
