<svg width="15" height="11" viewBox="0 0 15 11" fill="none" xmlns="http://www.w3.org/2000/svg">
<path d="M14.6642 1.26468C14.5668 1.17289 14.4097 1.14981 14.2808 1.20642C14.2007 1.2416 14.05 1.28776 13.8711 1.33338C14.0968 1.07616 14.2782 0.788169 14.3584 0.529303C14.393 0.417733 14.3424 0.300117 14.2321 0.233614C14.1218 0.167661 13.9749 0.167661 13.8647 0.233614C13.6909 0.33749 12.8522 0.649668 12.3219 0.750796C11.1235 -0.148913 9.72886 -0.242346 8.27908 0.483136C7.10054 1.07287 6.84406 2.27211 6.89407 3.00309C4.19651 2.7805 2.51974 1.55927 1.57588 0.54854C1.50984 0.47764 1.4034 0.440267 1.30337 0.445763C1.19821 0.452358 1.10331 0.502373 1.04945 0.579867C0.603169 1.22566 0.479416 1.9396 0.692938 2.64474C0.809638 3.02947 1.01354 3.36858 1.25015 3.64338C1.13666 3.59557 1.02701 3.53566 0.923774 3.46421C0.828875 3.39716 0.696144 3.38452 0.583933 3.42904C0.472362 3.47465 0.401188 3.57138 0.401188 3.67746C0.401188 4.88825 1.28477 5.69617 2.11001 6.11827C1.97664 6.10453 1.8375 6.07925 1.69707 6.04242C1.57652 6.01109 1.44572 6.04242 1.36236 6.12376C1.279 6.20456 1.25913 6.31997 1.31106 6.41835C1.77466 7.29718 2.65311 7.90175 3.73996 8.12104C2.79097 8.59865 1.52074 8.83278 0.357586 8.71791C0.206902 8.69978 0.0632709 8.78167 0.0158214 8.90588C-0.0316281 9.03009 0.0305692 9.16639 0.163299 9.23015C1.92791 10.0793 3.52324 10.3827 4.90184 10.3827C6.90818 10.3827 8.4567 9.74073 9.39928 9.20377C11.9404 7.7583 13.5242 5.16305 13.3036 2.84096C13.7108 2.58319 14.3199 2.10723 14.6976 1.59554C14.7758 1.49222 14.7617 1.35591 14.6642 1.26468Z" fill="white"/>
</svg>
