<svg width="35" height="51" viewBox="0 0 35 51" fill="none" xmlns="http://www.w3.org/2000/svg">
<path d="M17.8503 0C9.05758 0.0339491 1.88295 5.88756 0.329123 14.102C-0.638081 19.223 0.539101 23.8871 3.694 28.0498C4.06539 28.5408 4.49059 28.6387 4.86199 28.3436C5.23338 28.0485 5.21895 27.6255 4.84362 27.1397C2.51288 24.1222 1.38425 20.7077 1.49056 16.908C1.70972 9.07356 7.70848 2.50701 15.4907 1.59039C19.7769 1.08637 23.6654 2.13357 27.126 4.71632C27.1579 4.74066 27.1892 4.76564 27.2206 4.79064C27.2785 4.83674 27.3364 4.88291 27.3977 4.92524C27.8006 5.20466 28.2324 5.1681 28.4896 4.83514C28.7468 4.50218 28.7179 4.0517 28.2901 3.77619C28.0462 3.61924 27.8034 3.46028 27.5607 3.30136C26.6283 2.69087 25.6968 2.08091 24.7034 1.58778C22.5688 0.550727 20.2259 0.00790414 17.8503 0Z" fill="url(#paint0_linear_1073_3088)"/>
<path fill-rule="evenodd" clip-rule="evenodd" d="M11.0964 21.3502C10.2444 20.0961 9.78492 18.6189 9.7761 17.1051C9.77005 16.097 9.96411 15.0977 10.3471 14.1644C10.7302 13.231 11.2946 12.3822 12.0082 11.6664C12.7217 10.9507 13.5702 10.3821 14.5051 9.99343C15.44 9.60472 16.4428 9.40348 17.456 9.40127C18.9774 9.39768 20.4658 9.84273 21.7332 10.6802C23.0006 11.5177 23.9902 12.7101 24.5769 14.1067C25.1637 15.5034 25.3214 17.0417 25.03 18.5275C24.7386 20.0133 24.0113 21.3798 22.9399 22.4546C21.8685 23.5293 20.501 24.2641 19.0101 24.5661C17.5193 24.8682 15.9719 24.7239 14.5634 24.1515C13.1549 23.5791 11.9485 22.6043 11.0964 21.3502ZM19.4928 13.6932C20.8064 14.713 21.0676 16.1154 20.3392 18.0113L22.8983 20.0326C23.981 18.5271 24.3275 15.0159 21.7828 12.6121C20.6718 11.5422 19.1991 10.9239 17.6536 10.8782C16.1082 10.8326 14.6013 11.3629 13.4284 12.3653C10.6764 14.7391 10.8798 18.3155 12.0845 20.1018C12.2092 19.9847 12.3318 19.8638 12.4545 19.743C12.7243 19.4772 12.9943 19.2112 13.2866 18.9841C13.5796 18.7564 13.8925 18.5611 14.2065 18.365C14.3482 18.2765 14.4901 18.1879 14.6305 18.0962C13.9034 15.9195 14.1751 14.5942 15.5557 13.6175C16.1329 13.2072 16.8276 12.9929 17.5368 13.0065C18.2461 13.0202 18.932 13.261 19.4928 13.6932ZM13.0662 21.3553C14.9651 23.6756 19.3563 24.1052 21.9022 21.3853C21.3017 20.453 20.4106 19.7421 19.3655 19.3614C19.1566 19.2929 18.9312 19.2929 18.7224 19.3614C17.9171 19.6532 17.0342 19.6532 16.2289 19.3614C16.0046 19.2897 15.7629 19.292 15.54 19.368C14.5224 19.7491 13.655 20.4459 13.0662 21.3553ZM16.4705 17.8196C16.7734 18.0181 17.1287 18.123 17.4914 18.121V18.1197C17.7338 18.1183 17.9735 18.0692 18.1968 17.9753C18.42 17.8813 18.6224 17.7444 18.7922 17.5723C18.962 17.4002 19.0959 17.1963 19.1862 16.9725C19.2765 16.7487 19.3213 16.5093 19.3182 16.2681C19.3133 15.9072 19.2011 15.5559 18.9958 15.2583C18.7904 14.9608 18.5012 14.7303 18.1645 14.5961C17.8277 14.4618 17.4586 14.4298 17.1036 14.5039C16.7486 14.5781 16.4235 14.7552 16.1695 15.0128C15.9155 15.2705 15.7438 15.5972 15.6761 15.9518C15.6084 16.3064 15.6477 16.673 15.7891 17.0054C15.9304 17.3378 16.1675 17.6211 16.4705 17.8196Z" fill="url(#paint1_linear_1073_3088)"/>
<path fill-rule="evenodd" clip-rule="evenodd" d="M4.6772 17.595C4.67896 17.4701 4.68071 17.3451 4.68071 17.2202L4.67546 17.2188V16.4863C4.6807 15.1897 5.20696 14.6048 6.50356 14.388C6.60417 14.3586 6.69748 14.3085 6.77749 14.241C6.85749 14.1736 6.92243 14.0902 6.96813 13.9963C7.25648 13.3779 7.51144 12.7445 7.73193 12.0991C7.7609 11.9922 7.76723 11.8804 7.75051 11.771C7.73379 11.6615 7.69439 11.5567 7.63481 11.4632C6.96026 10.5766 6.98913 9.66255 7.76605 8.86866C8.20043 8.43124 8.63876 7.99252 9.08627 7.56293C9.85137 6.8291 10.7766 6.77296 11.6047 7.42583C11.8527 7.62299 12.043 7.61646 12.312 7.49242C12.9183 7.20516 13.5365 6.94662 14.1611 6.70898C14.4499 6.5993 14.6034 6.46872 14.6415 6.13054C14.753 5.13165 15.4892 4.5049 16.5089 4.49184C17.1459 4.484 17.7841 4.484 18.4237 4.49184C19.4434 4.50359 20.1822 5.13034 20.2964 6.12531C20.3344 6.45958 20.4775 6.60191 20.7701 6.71159C21.3804 6.93748 21.988 7.18035 22.5759 7.45978C22.8765 7.60471 23.0838 7.61777 23.3634 7.39318C24.1376 6.77557 25.0838 6.83563 25.8083 7.52376C26.2794 7.97293 26.744 8.43516 27.198 8.90392C27.9487 9.67692 27.9907 10.6118 27.2925 11.4462C27.2016 11.5369 27.1435 11.6552 27.1276 11.7824C27.1117 11.9096 27.1388 12.0385 27.2046 12.1487C27.4613 12.6924 27.6874 13.2499 27.8818 13.8187C28.0091 14.2091 28.1849 14.3932 28.6219 14.4337C29.622 14.5356 30.2361 15.2302 30.2598 16.233C30.2716 16.8676 30.2676 17.5022 30.2598 18.1381C30.2414 19.3015 29.6036 19.9818 28.4225 20.051C28.0878 20.0706 27.9382 20.209 27.8253 20.5093C27.6159 21.0727 27.3763 21.6245 27.1075 22.1624C26.9434 22.494 26.9828 22.7108 27.2387 22.9798C27.9855 23.7645 27.9631 24.7712 27.2072 25.5547C26.7807 25.9999 26.3385 26.4347 25.8949 26.8682C25.0353 27.7078 24.0431 27.7274 23.1599 26.893C22.8975 26.6502 22.6783 26.6384 22.3725 26.7808C21.8584 27.0303 21.3294 27.2483 20.7885 27.4336C20.4342 27.5498 20.3029 27.7287 20.3029 28.0982C20.2911 29.2434 19.5365 29.972 18.3777 29.9903C17.9877 29.9955 17.5947 29.9937 17.2015 29.992C17.0048 29.9911 16.8078 29.9903 16.6113 29.9903C15.3869 29.9811 14.6467 29.2734 14.6257 28.0604C14.6205 27.6987 14.4814 27.5472 14.1506 27.4375C13.6222 27.268 13.1072 27.0593 12.6099 26.8134C12.2425 26.628 12.0049 26.6698 11.707 26.957C10.9314 27.7065 9.89468 27.6895 9.11514 26.9479C8.6532 26.5092 8.20437 26.0574 7.75948 25.603C6.95764 24.783 6.92745 23.7854 7.71486 22.9549C7.9629 22.6938 7.97077 22.4757 7.81854 22.1715C7.56262 21.6814 7.34075 21.1745 7.15449 20.6542C7.02325 20.2455 6.83165 20.0523 6.36708 20.0405C5.42087 20.0157 4.72795 19.291 4.68071 18.3431C4.67021 18.0942 4.67371 17.8447 4.6772 17.595ZM22.4463 25.225C22.5707 25.185 22.7047 25.142 22.8528 25.0924C22.9604 25.1478 23.0745 25.2008 23.1911 25.2548C23.4728 25.3855 23.7685 25.5226 24.0182 25.7166L24.0696 25.7552C24.5402 26.11 24.5618 26.1263 25.0182 25.6735C25.138 25.5548 25.2568 25.4354 25.3757 25.316C25.6136 25.0769 25.852 24.8374 26.097 24.6041C26.3503 24.3625 26.3398 24.1588 26.1049 23.8977C25.3804 23.0868 25.3279 22.4679 25.8148 21.4899C26.0645 20.9962 26.2836 20.4877 26.471 19.9674C26.7702 19.1161 27.3477 18.6382 28.2466 18.6095C28.6876 18.5951 28.8136 18.4097 28.7991 18.0088C28.7821 17.4709 28.786 16.9329 28.7991 16.3962C28.807 16.0528 28.6692 15.8805 28.3188 15.8648C27.3516 15.823 26.8201 15.2694 26.5261 14.3945C26.3315 13.8258 26.1063 13.2679 25.8516 12.7232C25.5012 11.9502 25.5327 11.2347 26.114 10.5909C26.3713 10.3076 26.3345 10.0934 26.072 9.84536C25.6665 9.46539 25.2754 9.07105 24.8909 8.67019C24.656 8.42472 24.4474 8.39729 24.1744 8.62449C23.5116 9.17421 22.7977 9.20032 22.0248 8.82166C21.4371 8.53783 20.8343 8.28632 20.219 8.06825C19.4145 7.78099 18.9342 7.25608 18.8528 6.40213C18.8252 6.10703 18.6927 5.95687 18.3882 5.95687H16.5719C16.2727 5.95426 16.1205 6.08745 16.0955 6.38777C16.0234 7.29525 15.4892 7.80971 14.652 8.09959C14.0664 8.30322 13.494 8.54262 12.938 8.81643C12.1703 9.19379 11.4551 9.17421 10.7884 8.6271C10.5207 8.40774 10.3094 8.40774 10.0692 8.65714C9.67289 9.06844 9.26475 9.47453 8.85398 9.86625C8.62957 10.0817 8.56921 10.2854 8.80018 10.5374C9.44848 11.2438 9.44979 12.0063 9.03771 12.8381C8.78117 13.3826 8.5581 13.942 8.36973 14.5134C8.08888 15.319 7.55869 15.8008 6.68992 15.8504C6.30146 15.8726 6.13348 16.0345 6.1466 16.4263C6.15623 16.8068 6.15302 17.1873 6.14981 17.5674C6.14821 17.7573 6.1466 17.9471 6.1466 18.1368C6.14529 18.4345 6.27259 18.5912 6.58624 18.5912C7.62956 18.6082 8.22799 19.1683 8.53771 20.1319C8.7105 20.6231 8.91929 21.101 9.16239 21.5617C9.59809 22.4431 9.53772 23.1417 8.87367 23.8455C8.57577 24.1601 8.60201 24.3834 8.90123 24.6615C9.17157 24.9149 9.43142 25.1786 9.69126 25.4424C9.82109 25.5742 9.9512 25.7062 10.0823 25.8367C10.3107 26.0678 10.5312 26.0783 10.7582 25.8445C11.5194 25.0611 12.3632 25.0245 13.3042 25.5142C13.7595 25.7346 14.2296 25.9235 14.711 26.0796C15.631 26.4047 16.0811 26.9662 16.089 27.9259C16.0916 28.3751 16.2675 28.5422 16.7045 28.5252C17.2294 28.5082 17.7544 28.5148 18.2793 28.5252C18.6625 28.5331 18.8423 28.3946 18.8541 27.9859C18.883 26.9179 19.2977 26.4086 20.3174 26.0495C20.6124 25.9453 20.9008 25.8226 21.1893 25.6997C21.396 25.6117 21.6028 25.5236 21.8122 25.4424C22.0089 25.3654 22.2103 25.3008 22.4463 25.225Z" fill="url(#paint2_linear_1073_3088)"/>
<path fill-rule="evenodd" clip-rule="evenodd" d="M22.98 49.93C22.8798 49.9671 22.7796 50.0042 22.6809 50.0438H12.2674L12.2327 50.0301L12.181 50.0094C12.1065 49.9794 12.0321 49.9495 11.9563 49.925C10.6527 49.4985 9.88238 48.6145 9.64528 47.2731C9.61928 47.1299 9.6084 46.9834 9.59774 46.8402C9.59334 46.781 9.58898 46.7223 9.5836 46.6646C7.1715 46.3512 6.41952 44.5349 7.73187 42.2734C7.2883 41.7694 6.95364 41.1792 7.05601 40.5054C7.12226 40.063 7.26758 39.6349 7.42254 39.1784C7.49166 38.9748 7.56272 38.7655 7.62951 38.5468C6.63081 37.2502 6.7896 36.015 8.25025 34.6949C8.21731 34.5908 8.17606 34.4895 8.12689 34.392C7.48821 33.2952 6.84735 32.1996 6.20429 31.1054C6.18186 31.0673 6.15504 31.0311 6.12823 30.9949C6.10642 30.9655 6.0846 30.9361 6.06518 30.9057C5.79221 30.48 5.84077 30.0817 6.19642 29.8271C6.27902 29.765 6.37425 29.7216 6.47546 29.6999C6.57667 29.6782 6.68142 29.6787 6.7824 29.7015C6.88338 29.7242 6.97814 29.7687 7.06008 29.8316C7.14202 29.8946 7.20916 29.9746 7.2568 30.0661C8.0534 31.3705 8.82112 32.6932 9.57572 34.0224C9.70958 34.2601 9.81195 34.3907 10.1138 34.3907C15.0045 34.3854 19.8996 34.3854 24.799 34.3907C25.0484 34.3907 25.2177 34.3515 25.3345 34.0903C26.3765 31.7257 27.904 29.6952 29.5852 27.7366C32.6744 24.1446 33.912 19.9597 33.3083 15.259C32.9356 12.3485 31.786 9.75795 29.9566 7.45855C29.5537 6.95323 29.5405 6.5145 29.9251 6.2181C30.3096 5.9217 30.6967 6.03791 31.1206 6.5602C33.592 9.63073 34.9394 13.4468 34.941 17.3805C34.9427 21.3143 33.5986 25.1315 31.1298 28.2041C30.8663 28.5296 30.5991 28.8509 30.3324 29.1718C29.6693 29.9695 29.0089 30.7639 28.4145 31.6094C27.9428 32.2751 27.5447 32.9927 27.1505 33.7033C26.9756 34.0186 26.8014 34.3327 26.6219 34.6401C28.1639 35.9863 28.2991 37.0518 27.2137 38.7414C27.6608 39.2214 27.9125 39.8497 27.9198 40.5041C27.925 41.2066 27.6403 41.7942 27.1927 42.3165C27.9277 43.16 28.135 44.0858 27.7059 45.1029C27.2767 46.1201 26.4329 46.5797 25.3725 46.662C25.1652 48.2928 24.6704 49.1324 23.5798 49.6821C23.3873 49.7792 23.1835 49.8547 22.98 49.93ZM14.7096 45.1682H17.4656C20.0518 45.17 22.638 45.1695 25.2242 45.1669C25.8541 45.1656 26.2741 44.8875 26.4053 44.4083C26.4518 44.2553 26.4624 44.0937 26.4363 43.9359C26.4101 43.7782 26.3479 43.6286 26.2545 43.4985C26.161 43.3685 26.0389 43.2615 25.8973 43.1858C25.7558 43.1101 25.5987 43.0678 25.4381 43.0621C25.2001 43.0398 24.9598 43.0419 24.7194 43.044C24.5502 43.0454 24.381 43.0469 24.2124 43.0399C23.7124 43.0203 23.4027 42.7278 23.4105 42.3034C23.4184 41.9026 23.7216 41.6101 24.1888 41.5853C24.3923 41.5746 24.5966 41.5763 24.801 41.578C24.9735 41.5794 25.1463 41.5808 25.3187 41.5748C26.0011 41.5474 26.4355 41.1413 26.4355 40.5302C26.4421 39.8943 26.0064 39.4648 25.2964 39.4648H9.97206C9.77576 39.4582 9.57925 39.466 9.38412 39.4883C9.13781 39.5254 8.91279 39.6485 8.74929 39.8355C8.58579 40.0225 8.49446 40.2613 8.49162 40.5091C8.48878 40.757 8.57461 40.9978 8.73379 41.1885C8.89296 41.3792 9.1151 41.5073 9.3605 41.55C9.57151 41.577 9.78436 41.5871 9.99699 41.58H20.3121C20.5076 41.5718 20.7033 41.588 20.8948 41.6284C21.0518 41.6721 21.1892 41.7678 21.2843 41.8996C21.3794 42.0314 21.4265 42.1915 21.418 42.3536C21.4094 42.5156 21.3457 42.6699 21.2372 42.7911C21.1287 42.9123 20.9821 42.9931 20.8213 43.0203C20.6424 43.0421 20.462 43.0495 20.2819 43.0425H10.0114C9.84775 43.0375 9.68392 43.041 9.52061 43.0529C8.88805 43.1195 8.49041 43.5622 8.50878 44.1537C8.52716 44.7452 8.9563 45.1682 9.60197 45.1682C10.7363 45.1726 11.8695 45.1711 13.0043 45.1697C13.5722 45.1689 14.1406 45.1682 14.7096 45.1682ZM24.1953 35.8531H17.4748C14.8903 35.8496 12.3067 35.8505 9.72402 35.8557C8.98779 35.857 8.54159 36.2344 8.51403 36.852C8.491 37.1061 8.56527 37.3594 8.72199 37.5614C8.8787 37.7633 9.10629 37.8989 9.35919 37.941C9.58468 37.9778 9.81319 37.9931 10.0416 37.9867H24.9053C25.1337 37.9931 25.3622 37.9778 25.5877 37.941C25.8429 37.8986 26.0734 37.764 26.235 37.5629C26.3965 37.3618 26.4778 37.1085 26.4631 36.8515C26.4485 36.5945 26.339 36.3519 26.1556 36.1703C25.9723 35.9887 25.728 35.8809 25.4696 35.8675C25.1501 35.8467 24.8284 35.8491 24.5066 35.8515C24.4028 35.8523 24.299 35.8531 24.1953 35.8531ZM23.8279 46.6633H11.1164C11.0508 47.7418 11.7674 48.5644 12.7962 48.5697C15.9188 48.5862 19.0413 48.5862 22.1638 48.5697C23.1901 48.5631 23.9053 47.7209 23.8279 46.6633Z" fill="url(#paint3_linear_1073_3088)"/>
<defs>
<linearGradient id="paint0_linear_1073_3088" x1="17.4741" y1="9.40124" x2="17.4741" y2="24.7201" gradientUnits="userSpaceOnUse">
<stop stop-color="#FD6C00"/>
<stop offset="1" stop-color="#FC9B00"/>
</linearGradient>
<linearGradient id="paint1_linear_1073_3088" x1="17.4741" y1="9.40124" x2="17.4741" y2="24.7201" gradientUnits="userSpaceOnUse">
<stop stop-color="#FD6C00"/>
<stop offset="1" stop-color="#FC9B00"/>
</linearGradient>
<linearGradient id="paint2_linear_1073_3088" x1="17.4741" y1="9.40124" x2="17.4741" y2="24.7201" gradientUnits="userSpaceOnUse">
<stop stop-color="#FD6C00"/>
<stop offset="1" stop-color="#FC9B00"/>
</linearGradient>
<linearGradient id="paint3_linear_1073_3088" x1="17.4741" y1="9.40124" x2="17.4741" y2="24.7201" gradientUnits="userSpaceOnUse">
<stop stop-color="#FD6C00"/>
<stop offset="1" stop-color="#FC9B00"/>
</linearGradient>
</defs>
</svg>
