<svg width="43" height="43" viewBox="0 0 43 43" fill="none" xmlns="http://www.w3.org/2000/svg">
<path fill-rule="evenodd" clip-rule="evenodd" d="M39.8825 32.1733C40.4606 30.3457 40.587 28.3975 40.2409 26.4979C39.8108 24.1375 38.6716 21.9642 36.9751 20.2677C35.2786 18.5712 33.1054 17.432 30.745 17.0019C28.3846 16.5719 25.9492 16.8714 23.7634 17.8605C23.4053 18.0225 22.9843 17.9458 22.7064 17.6679L8.02618 2.98766C7.35808 2.31956 6.45194 1.94423 5.50711 1.94423C4.56227 1.94423 3.65613 2.31956 2.98803 2.98766C2.31993 3.65576 1.94459 4.5619 1.94459 5.50674C1.94459 6.45158 2.31993 7.35771 2.98803 8.02582L17.6683 22.7061C17.9462 22.984 18.0229 23.405 17.8609 23.763C16.8717 25.9489 16.5722 28.3842 17.0023 30.7446C17.4324 33.105 18.5716 35.2783 20.2681 36.9748C21.9646 38.6713 24.1378 39.8105 26.4982 40.2405C28.3978 40.5867 30.346 40.4602 32.1737 39.8821L25.1854 32.8939C24.6231 32.3202 24.3082 31.549 24.3082 30.7457C24.3082 29.9425 24.6232 29.1713 25.1854 28.5976L25.1921 28.5909L28.598 25.1851C29.1716 24.6228 29.9428 24.3079 30.7461 24.3079C31.5493 24.3079 32.3206 24.6228 32.8942 25.1851L32.9009 25.1917L39.8825 32.1733ZM42.0988 26.1593C42.5976 28.8974 42.2502 31.7224 41.1028 34.258C40.975 34.5404 40.7168 34.7421 40.4118 34.7977C40.1069 34.8532 39.7941 34.7556 39.5749 34.5364L31.5694 26.5309C31.3491 26.3164 31.0537 26.1963 30.7461 26.1963C30.4385 26.1963 30.1431 26.3164 29.9228 26.5309L26.5313 29.9224C26.3168 30.1427 26.1967 30.4381 26.1967 30.7457C26.1967 31.0533 26.3168 31.3487 26.5313 31.5691L26.5341 31.5719L34.5368 39.5746C34.7559 39.7937 34.8536 40.1065 34.798 40.4115C34.7425 40.7164 34.5408 40.9747 34.2584 41.1025C31.7228 42.2499 28.8977 42.5973 26.1597 42.0984C23.4217 41.5995 20.9007 40.2781 18.9327 38.3101C16.9648 36.3421 15.6433 33.8212 15.1444 31.0831C14.685 28.5617 14.9433 25.9665 15.8831 23.5915L1.6527 9.36114C0.630451 8.33889 0.0561523 6.95242 0.0561523 5.50674C0.0561524 4.06106 0.630451 2.67458 1.6527 1.65233C2.67495 0.630081 4.06142 0.0557861 5.50711 0.0557861C6.95279 0.0557862 8.33926 0.630081 9.36151 1.65233L23.5919 15.8827C25.9669 14.9429 28.5621 14.6847 31.0835 15.1441C33.8215 15.643 36.3425 16.9644 38.3105 18.9324C40.2784 20.9003 41.5999 23.4213 42.0988 26.1593Z" fill="url(#paint0_linear_1073_3090)"/>
<defs>
<linearGradient id="paint0_linear_1073_3090" x1="75.5915" y1="22.4686" x2="-98.1698" y2="54.6714" gradientUnits="userSpaceOnUse">
<stop stop-color="#FF0000"/>
<stop offset="0.333333" stop-color="#FC9900"/>
<stop offset="1" stop-color="#FCA600"/>
</linearGradient>
</defs>
</svg>
