<svg width="900" height="650" viewBox="0 0 900 650" fill="none" xmlns="http://www.w3.org/2000/svg">
<path d="M640.168 358.81L625.637 369.882C603.003 361.163 604.456 359.199 582.803 356.068C571.588 354.451 548.36 355.126 528.836 356.068C511.195 356.968 496.562 358.114 496.562 358.114C496.562 358.114 539.724 315.137 551.594 308.854C563.464 302.571 615.589 280.203 617.226 279.466C617.226 279.466 656.54 323.323 640.168 358.81Z" fill="#FFCC00"/>
<path opacity="0.2" d="M640.167 358.811L625.637 369.883C603.002 361.165 604.455 359.2 582.803 356.069C571.588 354.452 548.36 355.127 528.836 356.069C553.128 339.267 618.883 353.04 618.883 353.04C618.883 353.04 608.651 340.085 607.914 313.828C607.136 288.554 616.571 280.122 617.287 279.508C617.287 279.508 656.54 323.324 640.167 358.811Z" fill="black"/>
<path d="M496.562 358.257C496.562 358.257 539.724 315.279 551.594 308.997C563.464 302.714 617.267 279.567 617.267 279.567C617.267 279.567 656.54 323.322 640.168 358.809L625.637 369.881" stroke="#263238" stroke-linecap="round" stroke-linejoin="round"/>
<path d="M703.998 291.376L638.12 351.237C607.177 324.898 617.143 285.236 617.143 285.236L640.842 268.598L669.494 248.501C679.039 253.032 687.871 258.934 695.71 266.019C703.077 273.305 708.194 282.187 703.998 291.376Z" fill="white"/>
<mask id="mask0_1511_8400" style="mask-type:luminance" maskUnits="userSpaceOnUse" x="615" y="248" width="91" height="104">
<path d="M704 291.377L638.122 351.238C607.179 324.899 617.145 285.237 617.145 285.237L640.844 268.599L669.495 248.502C679.041 253.033 687.873 258.935 695.712 266.02C703.079 273.306 708.195 282.188 704 291.377Z" fill="white"/>
</mask>
<g mask="url(#mask0_1511_8400)">
<path opacity="0.2" d="M695.608 266.02C694.283 269.678 691.913 272.866 688.793 275.189C667.468 292.85 650.032 279.487 640.781 268.599L669.433 248.502C678.964 253.037 687.782 258.938 695.608 266.02Z" fill="#92E3A9"/>
</g>
<path d="M703.998 291.376L638.12 351.237C607.177 324.898 617.143 285.236 617.143 285.236L640.842 268.598L669.494 248.501C679.039 253.032 687.871 258.934 695.71 266.019C703.077 273.305 708.194 282.187 703.998 291.376Z" stroke="#263238" stroke-linecap="round" stroke-linejoin="round"/>
<path d="M677.395 284.705C677.395 284.705 666.549 282.25 658.608 266.901C650.667 251.552 651.588 179.268 653.369 164.942C655.149 150.616 682.593 142.737 683.883 157.145C684.087 159.335 684.926 163.632 686.175 169.424C687.812 176.853 690.104 186.738 692.56 197.666C700.746 234.279 710.979 282.761 704 291.377" fill="white"/>
<mask id="mask1_1511_8400" style="mask-type:luminance" maskUnits="userSpaceOnUse" x="652" y="149" width="55" height="143">
<path d="M677.395 284.703C677.395 284.703 666.549 282.248 658.608 266.899C650.667 251.55 651.588 179.266 653.369 164.94C655.149 150.614 682.593 142.735 683.883 157.143C684.087 159.333 684.926 163.63 686.175 169.422C687.812 176.851 690.104 186.736 692.56 197.664C700.746 234.277 710.979 282.759 704 291.375" fill="white"/>
</mask>
<g mask="url(#mask1_1511_8400)">
<path opacity="0.2" d="M692.56 197.666C680.424 188.682 671.828 171.777 671.828 171.777L686.154 169.424C687.812 176.853 690.104 186.738 692.56 197.666Z" fill="#92E3A9"/>
</g>
<path d="M677.395 284.705C677.395 284.705 666.549 282.25 658.608 266.901C650.667 251.552 651.588 179.268 653.369 164.942C655.149 150.616 682.593 142.737 683.883 157.145C684.087 159.335 684.926 163.632 686.175 169.424C687.812 176.853 690.104 186.738 692.56 197.666C700.746 234.279 710.979 282.761 704 291.377" stroke="#263238" stroke-linecap="round" stroke-linejoin="round"/>
<path d="M712.472 142.839C711.736 151.925 687.484 185.038 671.828 177.855Z" fill="white"/>
<path d="M712.472 142.839C711.736 151.925 687.484 185.038 671.828 177.855" stroke="#263238" stroke-linecap="round" stroke-linejoin="round"/>
<path d="M711.959 145.662C714.005 138.499 708.889 140.444 709.728 133.71C710.567 126.977 706.229 126.998 704.857 120.04C703.486 113.081 699.209 113.777 696.671 108.047C694.133 102.317 687.933 104.609 681.875 107.412C675.817 110.216 667.672 123.498 667.672 123.498C666.485 132.073 673.648 130.293 673.648 130.293C668.879 139.093 676.799 141.017 676.799 141.017C676.39 150.472 682.1 149.203 682.1 149.203C682.011 150.399 682.37 151.585 683.108 152.531C683.846 153.477 684.909 154.114 686.091 154.319C688.894 154.974 709.749 152.907 711.959 145.662Z" fill="white" stroke="#263238" stroke-linecap="round" stroke-linejoin="round"/>
<path d="M673.691 130.376C673.691 130.376 685.254 118.097 688.795 116.767" stroke="#263238" stroke-linecap="round" stroke-linejoin="round"/>
<path d="M676.842 141.1C682.03 135.767 688.393 131.723 695.424 129.291" stroke="#263238" stroke-linecap="round" stroke-linejoin="round"/>
<path d="M682.143 149.388C682.143 149.388 697.492 141.816 699.743 141.202" stroke="#263238" stroke-linecap="round" stroke-linejoin="round"/>
<path d="M661.842 176.238C661.842 176.238 650.586 165.821 648.54 161.4C646.493 156.98 642.564 137.927 645.368 132.749C648.171 127.571 656.46 119.119 657.647 115.026C658.834 110.933 666.079 119.917 657.913 136.269C657.913 136.269 667.695 148.118 666.099 161.073" fill="white"/>
<path d="M661.842 176.238C661.842 176.238 650.586 165.821 648.54 161.4C646.493 156.98 642.564 137.927 645.368 132.749C648.171 127.571 656.46 119.119 657.647 115.026C658.834 110.933 666.079 119.917 657.913 136.269C657.913 136.269 667.695 148.118 666.099 161.073" stroke="#263238" stroke-linecap="round" stroke-linejoin="round"/>
<path d="M655.147 479.249C655.147 479.249 650.645 481.07 644.158 472.966C631.878 457.535 613.459 420.472 601.18 402.708C595.982 395.095 581.615 387.605 566.082 381.322C549.498 374.793 532.552 369.224 515.328 364.643C515.328 364.643 580.694 360.55 597.292 365.604C611.618 369.902 662.535 399.004 677.107 407.374L680.995 409.625C680.995 409.625 683.144 440.487 655.147 479.249Z" fill="#FFCC00"/>
<path opacity="0.2" d="M655.149 479.249C655.149 479.249 650.647 481.07 644.159 472.966C631.88 457.535 613.461 420.473 601.182 402.709C595.984 395.095 581.617 387.605 566.084 381.322C625.434 394.87 646.39 454.384 646.39 454.384C646.39 454.384 649.583 420.513 677.006 407.416L680.895 409.667C680.895 409.667 683.146 440.488 655.149 479.249Z" fill="black"/>
<path d="M515.328 364.643C515.328 364.643 580.694 360.55 597.292 365.604C613.889 370.659 680.893 409.666 680.893 409.666C680.893 409.666 683.062 440.487 655.147 479.249" stroke="#263238" stroke-linecap="round" stroke-linejoin="round"/>
<path d="M764.169 505.731C760.792 508.023 754.325 508.003 746.118 506.488C737.324 504.688 728.672 502.253 720.23 499.202C697.351 490.845 674.93 481.281 653.062 470.551C653.062 470.551 653.165 428.556 677.846 412.286C677.846 412.286 709.854 434.205 730.462 439.628C747.735 444.273 764.169 505.731 764.169 505.731Z" fill="white"/>
<mask id="mask2_1511_8400" style="mask-type:luminance" maskUnits="userSpaceOnUse" x="653" y="412" width="112" height="96">
<path d="M764.167 505.731C760.79 508.023 754.323 508.003 746.117 506.488C737.322 504.688 728.67 502.253 720.228 499.202C697.349 490.845 674.928 481.281 653.061 470.551C653.061 470.551 653.163 428.556 677.844 412.286C677.844 412.286 709.852 434.205 730.461 439.628C747.733 444.273 764.167 505.731 764.167 505.731Z" fill="white"/>
</mask>
<g mask="url(#mask2_1511_8400)">
<path opacity="0.2" d="M746.12 506.489C737.326 504.689 728.674 502.254 720.232 499.204C715.627 477.94 729.011 454.303 729.011 454.303C729.597 472.978 735.536 491.092 746.12 506.489Z" fill="#92E3A9"/>
</g>
<path d="M764.169 505.731C760.792 508.023 754.325 508.003 746.118 506.488C737.324 504.688 728.672 502.253 720.23 499.202C697.351 490.845 674.93 481.281 653.062 470.551C653.062 470.551 653.165 428.556 677.846 412.286C677.846 412.286 709.854 434.205 730.462 439.628C747.735 444.273 764.169 505.731 764.169 505.731Z" stroke="#263238" stroke-linecap="round" stroke-linejoin="round"/>
<path d="M734.699 493.574C732.604 488.253 731.18 482.691 730.463 477.018Z" fill="white"/>
<path d="M734.699 493.574C732.604 488.253 731.18 482.691 730.463 477.018" stroke="#263238" stroke-linecap="round" stroke-linejoin="round"/>
<path d="M734.721 422.683C743.787 424.115 752.157 443.68 757.785 450.659C757.785 450.659 773.81 458.129 776.531 465.169C779.253 472.209 790.202 500.43 768.529 506.243C756.066 509.579 746.754 508.985 740.287 502.395" fill="white"/>
<path d="M734.721 422.683C743.787 424.115 752.157 443.68 757.785 450.659C757.785 450.659 773.81 458.129 776.531 465.169C779.253 472.209 790.202 500.43 768.529 506.243C756.066 509.579 746.754 508.985 740.287 502.395" stroke="#263238" stroke-linecap="round" stroke-linejoin="round"/>
<path d="M730.441 477.059C730.441 477.059 715.624 482.36 716.626 473.314C715.647 472.6 714.835 471.681 714.248 470.62C713.661 469.56 713.313 468.384 713.229 467.174C713.43 464.409 714.248 461.723 715.624 459.316C715.624 459.316 709.975 469.037 705.207 463.409C703.958 461.935 709.034 451.375 709.034 451.375C708.441 451.766 707.766 452.013 707.061 452.098C706.357 452.184 705.642 452.104 704.973 451.866C704.305 451.628 703.701 451.238 703.208 450.726C702.716 450.215 702.349 449.596 702.137 448.919C701.462 447.302 709.279 432.772 710.978 431.687C716.729 428.086 731.648 420.391 736.764 423.317C741.881 426.244 743.579 435.453 746.649 438.85C749.719 442.248 748.02 453.872 746.649 462.058" fill="white"/>
<path d="M730.441 477.059C730.441 477.059 715.624 482.36 716.626 473.314C715.647 472.6 714.835 471.681 714.248 470.62C713.661 469.56 713.313 468.384 713.229 467.174C713.43 464.409 714.248 461.723 715.624 459.316C715.624 459.316 709.975 469.037 705.207 463.409C703.958 461.935 709.034 451.375 709.034 451.375C708.441 451.766 707.766 452.013 707.061 452.098C706.357 452.184 705.642 452.104 704.973 451.866C704.305 451.628 703.701 451.238 703.208 450.726C702.716 450.215 702.349 449.596 702.137 448.919C701.462 447.302 709.279 432.772 710.978 431.687C716.729 428.086 731.648 420.391 736.764 423.317C741.881 426.244 743.579 435.453 746.649 438.85C749.719 442.248 748.02 453.872 746.649 462.058" stroke="#263238" stroke-linecap="round" stroke-linejoin="round"/>
<path d="M709.033 451.395C709.033 451.395 714.416 442.103 715.951 440.916C717.485 439.729 730.44 435.964 730.44 435.964" fill="white"/>
<path d="M709.033 451.395C709.033 451.395 714.416 442.103 715.951 440.916C717.485 439.729 730.44 435.964 730.44 435.964" stroke="#263238" stroke-linecap="round" stroke-linejoin="round"/>
<path d="M715.625 459.335C718.859 455.753 720.721 451.619 722.092 451.394C723.463 451.169 733.86 449.614 734.719 449.348" fill="white"/>
<path d="M715.625 459.335C718.859 455.753 720.721 451.619 722.092 451.394C723.463 451.169 733.86 449.614 734.719 449.348" stroke="#263238" stroke-linecap="round" stroke-linejoin="round"/>
<path d="M716.092 472.885C719.694 468.792 725.342 464.453 726.529 464.453C727.716 464.453 734.367 463.593 734.715 463.43" fill="white"/>
<path d="M716.092 472.885C719.694 468.792 725.342 464.453 726.529 464.453C727.716 464.453 734.367 463.593 734.715 463.43" stroke="#263238" stroke-linecap="round" stroke-linejoin="round"/>
<path d="M732.853 475.033C731.777 475.873 730.534 476.474 729.207 476.795C727.88 477.116 726.499 477.15 725.158 476.896" fill="white"/>
<path d="M732.853 475.033C731.777 475.873 730.534 476.474 729.207 476.795C727.88 477.116 726.499 477.15 725.158 476.896" stroke="#263238" stroke-linecap="round" stroke-linejoin="round"/>
<path d="M730.439 477.058C730.439 477.058 743.967 488.335 750.107 475.012Z" fill="white"/>
<path d="M730.439 477.058C730.439 477.058 743.967 488.335 750.107 475.012" stroke="#263238" stroke-linecap="round" stroke-linejoin="round"/>
<path d="M397.593 357.295L382.96 356.906C363.027 356.415 328.829 355.678 320.725 356.189C310.508 357.172 300.523 359.834 291.173 364.069L258.162 319.045C263.197 256.646 302.981 249.811 302.981 249.811C302.981 249.811 331.142 281.88 341.374 290.618C351.607 299.357 397.593 357.295 397.593 357.295Z" fill="#FFCC00"/>
<path opacity="0.2" d="M382.96 356.906C363.027 356.415 328.829 355.678 320.725 356.189C310.508 357.172 300.523 359.834 291.173 364.069L258.162 319.045C263.197 256.646 302.981 249.811 302.981 249.811C302.981 249.811 305.314 287.917 274.882 314.051C274.882 314.051 284.296 340.493 304.844 345.732C325.391 350.971 365.503 346.673 382.96 356.906Z" fill="black"/>
<path d="M397.591 357.295C397.591 357.295 351.605 299.357 341.372 290.618C331.14 281.88 303.041 249.811 303.041 249.811C303.041 249.811 263.256 256.646 258.201 319.045L291.232 364.069" stroke="#263238" stroke-linecap="round" stroke-linejoin="round"/>
<path d="M300.443 257.321C300.443 257.321 299.727 290.802 263.278 308.811L200.163 219.521C195.722 195.372 244.163 186.367 244.163 186.367L266.962 215.244L300.443 257.321Z" fill="white"/>
<mask id="mask3_1511_8400" style="mask-type:luminance" maskUnits="userSpaceOnUse" x="199" y="186" width="102" height="123">
<path d="M300.445 257.322C300.445 257.322 299.729 290.803 263.28 308.812L200.165 219.522C195.724 195.373 244.165 186.368 244.165 186.368L266.964 215.245L300.445 257.322Z" fill="white"/>
</mask>
<g mask="url(#mask3_1511_8400)">
<path opacity="0.2" d="M266.965 215.244C245.661 232.087 221.941 213.914 221.941 213.914L244.044 186.449L266.965 215.244Z" fill="#92E3A9"/>
</g>
<path d="M300.443 257.321C300.443 257.321 299.727 290.802 263.278 308.811L200.163 219.521C195.722 195.372 244.163 186.367 244.163 186.367L266.962 215.244L300.443 257.321Z" stroke="#263238" stroke-linecap="round" stroke-linejoin="round"/>
<path d="M200.162 219.521C197.583 213.996 200.162 200.591 204.746 185.058C210.005 167.232 217.885 146.562 223.676 131.848C226.869 123.662 229.427 117.256 230.512 114.125C235.301 100.474 259.982 114.8 258.222 129.126C256.462 143.452 261.599 193.94 250.158 206.894C238.718 219.849 227.647 219.583 227.647 219.583" fill="white"/>
<mask id="mask4_1511_8400" style="mask-type:luminance" maskUnits="userSpaceOnUse" x="199" y="108" width="60" height="112">
<path d="M200.162 219.523C197.583 213.998 200.162 200.593 204.746 185.06C210.005 167.234 217.885 146.564 223.676 131.85C226.869 123.664 229.427 117.258 230.512 114.127C235.301 100.476 259.982 114.802 258.222 129.128C256.462 143.453 261.599 193.942 250.158 206.896C238.718 219.851 227.647 219.585 227.647 219.585" fill="white"/>
</mask>
<g mask="url(#mask4_1511_8400)">
<path opacity="0.2" d="M240.148 123.561C240.148 123.561 230.898 178.817 222.016 182.03C216.354 183.618 210.547 184.633 204.682 185.059C209.941 167.234 217.82 146.564 223.612 131.849L240.148 123.561Z" fill="#92E3A9"/>
</g>
<path d="M200.162 219.521C197.583 213.996 200.162 200.591 204.746 185.058C210.005 167.232 217.885 146.562 223.676 131.848C226.869 123.662 229.427 117.256 230.512 114.125C235.301 100.474 259.982 114.8 258.222 129.126C256.462 143.452 261.599 193.94 250.158 206.894C238.718 219.849 227.647 219.583 227.647 219.583" stroke="#263238" stroke-linecap="round" stroke-linejoin="round"/>
<path d="M250.243 136.8C250.243 136.8 263.259 128.614 266.104 124.746C268.949 120.878 276.337 102.828 274.597 97.2817C272.857 91.7356 266.268 81.7894 265.776 77.5326C265.285 73.2758 256.567 80.7252 261.561 98.3459C261.561 98.3459 249.732 108.128 248.852 121.165" fill="white"/>
<path d="M250.243 136.8C250.243 136.8 263.259 128.614 266.104 124.746C268.949 120.878 276.337 102.828 274.597 97.2817C272.857 91.7356 266.268 81.7894 265.776 77.5326C265.285 73.2758 256.567 80.7252 261.561 98.3459C261.561 98.3459 249.732 108.128 248.852 121.165" stroke="#263238" stroke-linecap="round" stroke-linejoin="round"/>
<path d="M389.715 366.688C389.715 366.688 349.542 373.093 319.314 389.445C313.321 392.635 307.683 396.449 302.492 400.824C288.432 412.878 276.153 437.846 265.654 457.636C256.629 474.499 249.855 481.294 249.855 481.294C221.94 442.614 224.11 411.712 224.11 411.712L224.376 411.568C228.919 408.908 291.584 372.541 307.751 367.691C324.349 362.697 389.715 366.688 389.715 366.688Z" fill="#FFCC00"/>
<path opacity="0.2" d="M319.314 389.486C313.323 392.663 307.685 396.463 302.492 400.824C288.432 412.878 276.153 437.846 265.654 457.636C256.629 474.499 249.855 481.294 249.855 481.294C221.94 442.614 224.11 411.712 224.11 411.712L224.376 411.568C226.524 410.607 240.993 405.797 260.21 442.676C260.21 442.676 273.492 399.31 319.314 389.486Z" fill="black"/>
<path d="M184.365 322.504C184.365 322.504 166.806 317.94 172.086 334.394C177.366 350.848 196.071 350.316 196.071 350.316" fill="white"/>
<path d="M184.365 322.504C184.365 322.504 166.806 317.94 172.086 334.394C177.366 350.848 196.071 350.316 196.071 350.316" stroke="#263238" stroke-linecap="round" stroke-linejoin="round"/>
<path d="M389.715 366.688C389.715 366.688 324.349 362.595 307.751 367.65C291.154 372.705 224.11 411.712 224.11 411.712C224.11 411.712 221.94 442.533 249.855 481.294" stroke="#263238" stroke-linecap="round" stroke-linejoin="round"/>
<path d="M251.959 472.68C251.959 472.68 154.729 507.901 138.766 488.766C143.292 476.36 148.979 464.41 155.752 453.074C161.011 444.765 167.049 437.827 173.106 436.231C182.068 433.644 190.864 430.514 199.445 426.858C214.18 420.718 227.094 414.415 227.094 414.415C251.837 430.685 251.959 472.68 251.959 472.68Z" fill="white"/>
<mask id="mask5_1511_8400" style="mask-type:luminance" maskUnits="userSpaceOnUse" x="138" y="414" width="114" height="81">
<path d="M251.959 472.679C251.959 472.679 154.729 507.9 138.766 488.765C143.292 476.359 148.979 464.409 155.752 453.073C161.011 444.764 167.049 437.826 173.106 436.23C182.068 433.643 190.864 430.513 199.445 426.857C214.18 420.717 227.094 414.414 227.094 414.414C251.837 430.684 251.959 472.679 251.959 472.679Z" fill="white"/>
</mask>
<g mask="url(#mask5_1511_8400)">
<path opacity="0.2" d="M199.528 426.857C196.744 440.017 188.926 464.555 169.3 462.958C161.687 462.344 157.676 458.415 155.834 453.074C161.094 444.765 167.131 437.827 173.189 436.231C182.15 433.643 190.946 430.513 199.528 426.857Z" fill="#92E3A9"/>
</g>
<path d="M251.959 472.68C251.959 472.68 154.729 507.901 138.766 488.766C143.292 476.36 148.979 464.41 155.752 453.074C161.011 444.765 167.049 437.827 173.106 436.231C182.068 433.644 190.864 430.514 199.445 426.858C214.18 420.718 227.094 414.415 227.094 414.415C251.837 430.685 251.959 472.68 251.959 472.68Z" stroke="#263238" stroke-linecap="round" stroke-linejoin="round"/>
<path d="M146.319 492.981C123.438 494.005 121.985 440.14 133.487 360.141C133.487 360.141 151.128 325.125 159.273 324.654C161.463 324.531 164.492 324.47 167.725 324.47C176.505 324.47 186.901 324.654 186.901 324.654C186.901 324.654 191.609 344.935 191.649 351.832C191.649 362.065 187.168 363.333 187.168 363.333C187.413 373.075 179.534 374.057 171.082 372.727C170.934 373.159 170.734 373.571 170.488 373.955C169.363 375.838 166.395 379.337 158.946 380.279C158.823 411.488 189.132 458.784 173.087 469.017" fill="white"/>
<mask id="mask6_1511_8400" style="mask-type:luminance" maskUnits="userSpaceOnUse" x="126" y="324" width="66" height="169">
<path d="M146.317 492.98C123.436 494.004 121.983 440.139 133.485 360.14C133.485 360.14 151.126 325.124 159.271 324.653C161.461 324.53 164.49 324.469 167.724 324.469C176.503 324.469 186.9 324.653 186.9 324.653C186.9 324.653 191.607 344.934 191.648 351.831C191.648 362.064 187.166 363.332 187.166 363.332C187.411 373.074 179.532 374.056 171.08 372.726C170.932 373.158 170.733 373.57 170.486 373.954C169.361 375.837 166.393 379.336 158.944 380.278C158.821 411.487 189.13 458.783 173.085 469.016" fill="white"/>
</mask>
<g mask="url(#mask6_1511_8400)">
<path opacity="0.2" d="M191.651 351.831C191.651 362.064 187.169 363.332 187.169 363.332C187.415 373.074 179.536 374.056 171.084 372.726C170.936 373.158 170.736 373.57 170.49 373.954L173.089 366.116C174.46 366.725 175.998 366.847 177.448 366.464C182.565 363.946 179.884 355.126 179.884 355.126C180.885 354.741 181.761 354.089 182.417 353.241C183.074 352.393 183.486 351.382 183.609 350.317C184.407 346.223 175.422 343.563 175.422 343.563C178.226 338.876 171.984 334.394 171.984 334.394C174.215 331.038 171.309 327.354 167.666 324.469C176.446 324.469 186.842 324.653 186.842 324.653C186.842 324.653 191.61 344.934 191.651 351.831Z" fill="#92E3A9"/>
</g>
<path d="M146.319 492.981C123.438 494.005 121.985 440.14 133.487 360.141C133.487 360.141 151.128 325.125 159.273 324.654C161.463 324.531 164.492 324.47 167.725 324.47C176.505 324.47 186.901 324.654 186.901 324.654C186.901 324.654 191.609 344.935 191.649 351.832C191.649 362.065 187.168 363.333 187.168 363.333C187.413 373.075 179.534 374.057 171.082 372.727C170.934 373.159 170.734 373.571 170.488 373.955C169.363 375.838 166.395 379.337 158.946 380.279C158.823 411.488 189.132 458.784 173.087 469.017" stroke="#263238" stroke-linecap="round" stroke-linejoin="round"/>
<path d="M187.004 348.844C184.18 343.645 181.458 346.654 167.869 343.359C173.042 343.839 178.257 343.591 183.361 342.622" stroke="#263238" stroke-linecap="round" stroke-linejoin="round"/>
<path d="M166.295 333.269C168.137 334.087 176.139 333.494 179.884 333.269" stroke="#263238" stroke-linecap="round" stroke-linejoin="round"/>
<path d="M171.059 355.227C171.059 354.838 182.499 355.78 184.382 357.151C186.264 358.522 187.41 363.556 187.41 363.556" stroke="#263238" stroke-linecap="round" stroke-linejoin="round"/>
<path d="M179.88 366.115C179.021 366.893 173.086 366.115 173.086 366.115C172.83 368.435 172.135 370.685 171.039 372.746" stroke="#263238" stroke-linecap="round" stroke-linejoin="round"/>
<path d="M602.859 417.198C588.309 392.394 528.12 370.782 461.26 368.081H460.728C458.545 367.999 456.355 367.937 454.158 367.896H447.487C445.29 367.896 443.1 367.958 440.917 368.081H440.344C373.504 370.741 313.336 392.353 298.785 417.198C283.252 443.7 260.229 486.35 260.229 486.35C273.142 507.225 322.668 510.028 322.668 510.028L325.288 566.185H576.336L578.976 509.947C578.976 509.947 628.503 507.143 641.396 486.268C641.396 486.35 618.393 443.7 602.859 417.198Z" fill="#FFCC00" stroke="#263238" stroke-linecap="round" stroke-linejoin="round"/>
<path d="M377.002 545.945C377.002 545.945 261.27 565.366 252.941 549.506C252.056 547.735 251.488 545.824 251.263 543.857C248.541 524.722 265.138 486.984 265.138 486.984C278.011 485.756 291.518 489.031 302.324 493.124C309.874 495.777 317.108 499.257 323.894 503.5L323.035 505.382L322.748 505.976L349.783 506.835L373.973 507.613H374.525L377.002 545.945Z" fill="white"/>
<mask id="mask7_1511_8400" style="mask-type:luminance" maskUnits="userSpaceOnUse" x="250" y="486" width="127" height="70">
<path d="M377 545.946C377 545.946 261.268 565.367 252.939 549.507C252.054 547.736 251.486 545.825 251.261 543.858C248.539 524.723 265.136 486.985 265.136 486.985C278.009 485.757 291.516 489.032 302.322 493.125C309.872 495.778 317.106 499.258 323.892 503.501L323.033 505.383L322.746 505.977L349.781 506.836L373.971 507.614H374.523L377 545.946Z" fill="white"/>
</mask>
<g mask="url(#mask7_1511_8400)">
<path opacity="0.2" d="M323.054 505.302C296.572 505.813 286.523 509.395 286.523 509.395C290.73 503.006 296.088 497.454 302.323 493.022C309.873 495.676 317.107 499.156 323.893 503.398L323.054 505.302Z" fill="#92E3A9"/>
<path opacity="0.2" d="M376.999 545.945C376.999 545.945 261.267 565.367 252.938 549.506C252.053 547.736 251.485 545.824 251.26 543.858C254.11 545.022 257.13 545.714 260.203 545.904C275.347 546.436 351.724 537.002 351.724 537.002L349.8 506.836V505.854C357.127 506.222 365.19 506.774 374.052 507.614H374.604L376.999 545.945Z" fill="#92E3A9"/>
</g>
<path d="M377.002 545.945C377.002 545.945 261.27 565.366 252.941 549.506C252.056 547.735 251.488 545.824 251.263 543.857C248.541 524.722 265.138 486.984 265.138 486.984C278.011 485.756 291.518 489.031 302.324 493.124C309.874 495.777 317.108 499.257 323.894 503.5L323.035 505.382L322.748 505.976L349.783 506.835L373.973 507.613H374.525L377.002 545.945Z" stroke="#263238" stroke-linecap="round" stroke-linejoin="round"/>
<path d="M322.771 505.854C322.771 505.854 295.429 505.137 283.887 510.458" stroke="#263238" stroke-linecap="round" stroke-linejoin="round"/>
<path d="M568.783 498.138C568.783 498.138 558.059 448.551 578.77 424.586" stroke="#263238" stroke-linecap="round" stroke-linejoin="round"/>
<path d="M586.96 449.266C586.96 449.266 572.9 459.498 570.342 476.055" stroke="#263238" stroke-linecap="round" stroke-linejoin="round"/>
<path d="M322.77 418.813C334.367 444.543 337.179 473.373 330.771 500.859" stroke="#263238" stroke-linecap="round" stroke-linejoin="round"/>
<path d="M308.996 435.964C308.996 435.964 323.997 445.112 330.771 459.335" stroke="#263238" stroke-linecap="round" stroke-linejoin="round"/>
<path d="M496.563 373.974C496.563 373.974 474.379 430.601 408.357 399.903" stroke="#263238" stroke-linecap="round" stroke-linejoin="round"/>
<path d="M599.421 412.368C589.799 418.787 582.545 428.183 578.771 439.116" stroke="#263238" stroke-linecap="round" stroke-linejoin="round"/>
<path d="M302.182 412.368C310.03 417.145 316.212 424.227 319.884 432.649" stroke="#263238" stroke-linecap="round" stroke-linejoin="round"/>
<path d="M399.641 372.133C399.641 372.133 406.988 402.299 449.187 402.974" stroke="#263238" stroke-linecap="round" stroke-linejoin="round"/>
<path d="M537.107 402.975C537.107 402.975 458.642 479.597 403.059 482.38" stroke="#263238" stroke-linecap="round" stroke-linejoin="round"/>
<path d="M359.057 415.928C359.057 415.928 369.903 440.322 389.755 449.266" stroke="#263238" stroke-linecap="round" stroke-linejoin="round"/>
<path d="M525.195 545.945C525.195 545.945 640.927 565.366 649.256 549.506C650.141 547.735 650.709 545.824 650.934 543.857C653.656 524.722 637.059 486.984 637.059 486.984C624.186 485.756 610.679 489.031 599.873 493.124C592.323 495.777 585.089 499.257 578.303 503.5L579.162 505.382L579.449 505.976L552.414 506.835L528.224 507.613H527.61L525.195 545.945Z" fill="white"/>
<mask id="mask8_1511_8400" style="mask-type:luminance" maskUnits="userSpaceOnUse" x="525" y="486" width="127" height="70">
<path d="M525.193 545.945C525.193 545.945 640.925 565.366 649.254 549.506C650.139 547.735 650.707 545.824 650.932 543.857C653.654 524.722 637.057 486.984 637.057 486.984C624.184 485.756 610.677 489.031 599.871 493.124C592.321 495.777 585.087 499.257 578.301 503.5L579.16 505.382L579.447 505.976L552.412 506.835L528.222 507.613H527.608L525.193 545.945Z" fill="white"/>
</mask>
<g mask="url(#mask8_1511_8400)">
<path opacity="0.2" d="M579.14 505.301C605.622 505.812 615.671 509.394 615.671 509.394C611.464 503.005 606.106 497.453 599.871 493.021C592.321 495.675 585.087 499.155 578.301 503.397L579.14 505.301Z" fill="#92E3A9"/>
<path opacity="0.2" d="M525.193 545.944C525.193 545.944 640.925 565.366 649.254 549.505C650.139 547.735 650.707 545.823 650.932 543.857C648.083 545.021 645.062 545.713 641.989 545.903C626.845 546.435 550.468 537.001 550.468 537.001L552.392 506.835V505.853C545.065 506.221 537.002 506.773 528.14 507.613H527.588L525.193 545.944Z" fill="#92E3A9"/>
</g>
<path d="M525.195 545.945C525.195 545.945 640.927 565.366 649.256 549.506C650.141 547.735 650.709 545.824 650.934 543.857C653.656 524.722 637.059 486.984 637.059 486.984C624.186 485.756 610.679 489.031 599.873 493.124C592.323 495.777 585.089 499.257 578.303 503.5L579.162 505.382L579.449 505.976L552.414 506.835L528.224 507.613H527.61L525.195 545.945Z" stroke="#263238" stroke-linecap="round" stroke-linejoin="round"/>
<path d="M579.428 505.854C579.428 505.854 606.769 505.137 618.414 510.458" stroke="#263238" stroke-linecap="round" stroke-linejoin="round"/>
<path d="M490.014 374.097C485.638 381.055 479.464 386.701 472.144 390.441C464.824 394.18 456.631 395.873 448.429 395.34C424.607 394.133 408.357 376.083 408.357 376.083C416.912 369.145 418.181 352.363 417.587 341.291C417.587 341.046 417.587 340.8 417.587 340.555C417.587 339.838 417.485 339.122 417.424 338.508C417.06 333.807 416.335 329.141 415.254 324.551L486.494 328.112C483.884 335.019 482.304 342.274 481.808 349.641C481.643 352.859 481.835 356.085 482.381 359.26C482.381 359.383 482.381 359.485 482.381 359.567C484.366 370.066 490.014 374.097 490.014 374.097Z" fill="white" stroke="#263238" stroke-miterlimit="10"/>
<path d="M330.773 536.325V543.938C330.773 545.089 331.231 546.193 332.044 547.006C332.858 547.82 333.961 548.277 335.112 548.277H564.447C565.597 548.277 566.701 547.82 567.515 547.006C568.328 546.193 568.785 545.089 568.785 543.938V536.325H330.773Z" fill="#757575" stroke="#263238" stroke-linecap="round" stroke-linejoin="round"/>
<path d="M596.944 424.319L567.392 534.668C567.044 535.798 566.448 536.836 565.648 537.707C564.848 538.578 563.864 539.259 562.767 539.702C562.013 540.008 561.207 540.167 560.393 540.173H339.163C338.349 540.169 337.543 540.01 336.789 539.702C335.692 539.259 334.708 538.578 333.908 537.707C333.108 536.836 332.512 535.798 332.164 534.668L302.612 424.319C302.375 423.68 302.302 422.992 302.399 422.317C302.496 421.643 302.759 421.003 303.166 420.457C303.572 419.91 304.109 419.473 304.727 419.186C305.345 418.899 306.025 418.771 306.705 418.814H592.913C593.588 418.782 594.26 418.918 594.87 419.209C595.479 419.501 596.007 419.939 596.406 420.484C596.806 421.029 597.064 421.664 597.158 422.334C597.252 423.003 597.178 423.685 596.944 424.319Z" fill="#BFBFBF" stroke="#263238" stroke-miterlimit="10"/>
<path d="M592.114 430.132L562.766 539.724C562.012 540.029 561.206 540.189 560.392 540.194H339.162C338.348 540.191 337.542 540.031 336.788 539.724L307.42 430.132C307.179 429.492 307.103 428.801 307.198 428.124C307.292 427.447 307.555 426.804 307.962 426.254C308.369 425.705 308.908 425.266 309.528 424.978C310.148 424.69 310.831 424.562 311.513 424.606H588.103C588.778 424.577 589.451 424.715 590.06 425.009C590.669 425.303 591.196 425.743 591.593 426.291C591.991 426.838 592.246 427.475 592.337 428.146C592.428 428.816 592.351 429.498 592.114 430.132Z" fill="#999999" stroke="#263238" stroke-linecap="round" stroke-linejoin="round"/>
<path d="M464.759 491.773C458.21 491.773 452.909 487.864 452.909 483.014C452.916 481.915 453.19 480.833 453.707 479.863C452.411 479.625 451.096 479.502 449.778 479.494C440.589 479.494 433.16 484.999 433.16 491.773C433.16 498.547 440.589 504.053 449.778 504.053C458.967 504.053 466.396 498.568 466.396 491.773C465.843 491.732 465.311 491.773 464.759 491.773Z" fill="#BFBFBF" stroke="#263238" stroke-miterlimit="10"/>
<path d="M486.452 328.01C483.841 334.918 482.262 342.172 481.765 349.54C474.05 357.276 464.574 363.047 454.116 361.41C438.992 359.015 426.406 347.841 417.279 338.407C416.915 333.705 416.19 329.039 415.109 324.449L486.452 328.01Z" fill="#263238"/>
<path d="M501.002 276.15C501.002 276.15 506.753 270.011 509.577 272.057C511.482 273.62 512.92 275.675 513.736 277.999C514.551 280.324 514.713 282.827 514.203 285.237C512.647 290.538 506.016 299.767 505.464 305.17C504.911 310.573 501.494 316.651 497.708 313.09C493.921 309.529 501.002 276.15 501.002 276.15Z" fill="white" stroke="#263238" stroke-miterlimit="10"/>
<path d="M398.676 276.15C398.676 276.15 392.946 270.011 390.122 272.057C388.218 273.62 386.779 275.675 385.964 277.999C385.148 280.324 384.986 282.827 385.497 285.237C387.032 290.538 393.683 299.767 394.215 305.17C394.747 310.573 398.185 316.651 401.992 313.09C405.798 309.529 398.676 276.15 398.676 276.15Z" fill="white" stroke="#263238" stroke-miterlimit="10"/>
<path d="M448.573 203.989C520.816 203.989 503.645 300.176 490.343 331.12C485.677 341.967 461.487 356.211 449.781 356.211C438.893 356.211 414.007 339.183 409.587 328.992C396.141 297.946 379.707 203.989 448.573 203.989Z" fill="white" stroke="#263238" stroke-miterlimit="10"/>
<path d="M460.809 280.733C460.809 280.733 479.227 277.336 485.367 284.622" stroke="#263238" stroke-linecap="round" stroke-linejoin="round"/>
<path d="M474.748 294.651C474.748 296.861 473.623 298.744 472.231 298.744C470.839 298.744 469.693 296.943 469.693 294.651C469.693 292.359 470.839 290.558 472.231 290.558C473.623 290.558 474.748 292.42 474.748 294.651Z" fill="#263238"/>
<path d="M438.748 280.735C438.748 280.735 421.762 279.241 414.189 284.624" stroke="#263238" stroke-linecap="round" stroke-linejoin="round"/>
<path d="M424.809 294.651C424.809 296.861 425.934 298.744 427.326 298.744C428.717 298.744 429.843 296.943 429.843 294.651C429.843 292.359 428.717 290.558 427.326 290.558C425.934 290.558 424.809 292.42 424.809 294.651Z" fill="#263238"/>
<path d="M478.493 228.609C460.381 234.391 440.918 234.391 422.807 228.609C422.807 228.609 413.065 228.036 409.218 232.927C405.37 237.818 409.218 252.983 410.241 259.122C411.264 265.262 401.768 269.56 403.058 285.134L399.394 290.496C399.394 290.496 389.162 265.446 391.761 243.896C394.36 222.346 407.928 213.976 407.928 213.976C407.928 213.976 414.068 195.373 450.496 195.557C489.667 195.721 493.637 216.923 493.637 216.923C493.637 216.923 520.242 234.646 500.534 292.379L496.277 285.195C497.295 277.539 495.538 269.771 491.325 263.297C487.887 258.304 493.371 243.282 492.082 235.587C490.793 227.892 478.493 228.609 478.493 228.609Z" fill="#263238"/>
<path d="M454.075 290.619C454.075 290.619 455.16 306.991 458.352 313.315C461.545 319.639 450.391 320.601 445.623 316.897" stroke="#263238" stroke-linecap="round" stroke-linejoin="round"/>
<path d="M435.883 330.077C435.883 332.594 444.069 335.726 452.255 335.726C460.441 335.726 466.479 332.328 465.271 331.08" stroke="#263238" stroke-linecap="round" stroke-linejoin="round"/>
<path d="M500.101 239.127C500.101 239.127 489.5 253.555 465.433 263.501V256.625C465.433 256.625 443.658 269.191 424.073 267.267L428.493 258.344C428.493 258.344 411.978 275.863 398 275.167C384.022 274.471 379.949 195.495 450.473 195.495C507.755 195.495 500.101 239.127 500.101 239.127Z" fill="#263238"/>
<path d="M488.234 243.897C488.234 243.897 484.468 264.771 504.156 280.079C504.156 280.079 515.841 267.534 511.339 243.897C506.837 220.259 496.563 219.502 496.563 219.502L488.234 243.897Z" fill="#263238"/>
<path opacity="0.2" d="M479.454 211.274C479.454 211.274 472.107 242.484 445.072 258.345" stroke="white" stroke-miterlimit="10"/>
<path opacity="0.2" d="M462.264 211.274C462.264 211.274 450.291 241.972 405.779 247.089" stroke="white" stroke-miterlimit="10"/>
<path opacity="0.2" d="M490.015 222.756C490.015 222.756 490.199 238.903 479.455 247.089" stroke="white" stroke-miterlimit="10"/>
<path d="M136.721 580.001H105V552.802C105 551.603 105.477 550.452 106.325 549.604C107.173 548.756 108.323 548.279 109.523 548.279H790.037C791.236 548.279 792.387 548.756 793.235 549.604C794.083 550.452 794.56 551.603 794.56 552.802V580.001" fill="white"/>
<path d="M136.721 580.001H105V552.802C105 551.603 105.477 550.452 106.325 549.604C107.173 548.756 108.323 548.279 109.523 548.279H790.037C791.236 548.279 792.387 548.756 793.235 549.604C794.083 550.452 794.56 551.603 794.56 552.802V580.001" stroke="#263238" stroke-miterlimit="10"/>
<path d="M757.782 580H474.746" stroke="#263238" stroke-miterlimit="10"/>
<path d="M454.468 580H434.125" stroke="#263238" stroke-miterlimit="10"/>
<path d="M302.41 580H153.033" stroke="#263238" stroke-miterlimit="10"/>
</svg>
