<?xml version="1.0" encoding="utf-8"?>
<!-- Generator: Adobe Illustrator 19.2.1, SVG Export Plug-In . SVG Version: 6.00 Build 0)  -->
<svg version="1.1" id="layer" xmlns="http://www.w3.org/2000/svg" xmlns:xlink="http://www.w3.org/1999/xlink" x="0px" y="0px"
	 viewBox="0 0 652 652" style="enable-background:new 0 0 652 652;" xml:space="preserve">
<style type="text/css">
	.st0{fill:#0077CA;}
	.st1{fill:#FF6A39;}
	.st2{fill:#003C71;}
</style>
<g id="ontarioTechLayer2">
	<g id="ontarioTechGroup_1_">
		<g id="ontarioTech_shield_1_">
			<path id="bubble_1_" class="st0" d="M88.1,362.7c0,2.7-0.2,5.4-0.6,8c6.3-2.6,11.7-6.9,15.8-12.3c-2.3-37-32.1-66.3-69.1-67.9
				V306C64.4,307.7,88,332.5,88.1,362.7"/>
			<polygon id="OntarioTechShieldArrow2" class="st1" points="111.1,255.7 96.9,255.7 96.9,269.9 111.1,269.9 111.1,284 125.2,284 
				125.2,269.9 125.2,255.7 			"/>
			<path id="outline_1_" class="st2" d="M111.1,298.2v37.1c-1.5,21.2-19.9,37.2-41.1,35.7c-19.1-1.4-34.3-16.6-35.7-35.7v-65.4h48.5
				v-14.2H20.1v79.7c0.7,29,24.7,52,53.7,51.3c28.1-0.6,50.7-23.3,51.3-51.3v-37.2H111.1z"/>
		</g>
		<g id="text_1_">
			<g id="university_1_">
				<path id="univeristy_u_1_" class="st2" d="M171.9,387.8c-1.7,0-3.3-0.2-4.9-0.8c-1.3-0.5-2.4-1.3-3.4-2.3c-0.9-1-1.6-2.2-2-3.5
					c-0.4-1.4-0.6-2.9-0.6-4.4v-17.3h5.1v16.9c0,1.1,0.1,2.2,0.4,3.2c0.2,0.8,0.6,1.5,1.2,2.2c0.5,0.6,1.1,1,1.8,1.2
					c0.8,0.3,1.6,0.4,2.4,0.4c0.8,0,1.6-0.2,2.4-0.5c0.7-0.2,1.3-0.7,1.8-1.2c0.6-0.6,1-1.4,1.2-2.2c0.3-1,0.4-2.1,0.4-3.2v-16.8
					h5.1v17.3c0,1.5-0.2,3-0.7,4.4c-0.4,1.3-1.1,2.5-2,3.5c-0.9,1-2.1,1.8-3.4,2.3C175.2,387.6,173.6,387.8,171.9,387.8"/>
				<path id="univeristy_n_1_" class="st2" d="M214.6,387.2c-0.9-1.5-1.9-3.2-3-4.9c-1.1-1.8-2.3-3.5-3.5-5.3
					c-1.2-1.8-2.4-3.5-3.7-5.1c-1.2-1.6-2.4-3.2-3.5-4.5v19.8h-4.8v-27.8h4.1c1.1,1.1,2.2,2.4,3.5,4c1.2,1.5,2.4,3.1,3.7,4.8
					c1.2,1.6,2.4,3.3,3.6,5c1.2,1.7,2.2,3.2,3.1,4.6v-18.4h5v27.7H214.6z"/>
				<rect id="univeristy_i1_1_" x="232.1" y="359.5" class="st2" width="5" height="27.7"/>
				<path id="univeristy_v_1_" class="st2" d="M258.4,387.2c-2-4.3-3.9-8.9-5.8-13.6c-1.9-4.7-3.6-9.4-5.2-14.2h5.5
					c0.7,1.9,1.3,3.8,2,5.7c0.7,2,1.3,3.9,2,5.7c0.7,1.9,1.3,3.7,2,5.5c0.7,1.8,1.3,3.4,2,4.8c0.6-1.5,1.3-3.1,1.9-4.8
					s1.3-3.5,2-5.5c0.7-2,1.3-3.8,2-5.8c0.7-2,1.3-3.8,1.9-5.7h5.5c-1.6,4.7-3.4,9.5-5.2,14.2c-1.8,4.7-3.8,9.2-5.8,13.6
					L258.4,387.2z"/>
				<polygon id="univeristy_e_1_" class="st2" points="284.4,387.2 284.4,359.5 302.1,359.5 302.1,363.8 289.4,363.8 289.4,370.6 
					300.7,370.6 300.7,374.8 289.4,374.8 289.4,382.9 303.1,382.9 303.1,387.2 				"/>
				<path id="univeristy_r_1_" class="st2" d="M322,359.2c3.2-0.2,6.4,0.6,9.2,2.2c3.6,2.8,4.3,7.9,1.5,11.6c-1,1.3-2.3,2.3-3.9,2.8
					c0.5,0.6,1.1,1.4,1.7,2.3c0.6,0.9,1.3,1.8,2,2.7s1.3,2.1,1.9,3.2c0.6,1,1.2,2.1,1.6,3.2h-5.6c-0.5-1-1-2-1.6-2.9
					c-0.6-1-1.2-1.9-1.8-2.7c-0.6-0.8-1.2-1.8-1.8-2.6c-0.6-0.8-1.1-1.5-1.6-2.2h-4.2v10.5h-5.2v-27.3c1.3-0.3,2.6-0.5,3.9-0.5
					c1.4,0,2.7,0,3.7,0 M322.5,363.7c-1,0-2,0-2.9,0v9h2.2c1.1,0,2.2-0.1,3.2-0.2c0.8-0.1,1.6-0.4,2.3-0.7c0.6-0.3,1.1-0.8,1.4-1.4
					c0.4-0.7,0.5-1.5,0.5-2.3c0-0.8-0.1-1.5-0.5-2.2c-0.3-0.6-0.8-1.1-1.4-1.4c-0.7-0.4-1.4-0.6-2.1-0.7c-0.9-0.2-1.8-0.2-2.7-0.2"
					/>
				<path id="univeristy_s_1_" class="st2" d="M353.3,383.5c1.4,0.1,2.8-0.2,4-0.9c0.8-0.6,1.3-1.6,1.3-2.6c0-0.6-0.1-1.2-0.4-1.7
					c-0.3-0.5-0.7-0.9-1.2-1.3c-0.6-0.4-1.2-0.8-1.9-1.1c-0.8-0.4-1.7-0.7-2.6-1c-1-0.4-1.9-0.7-2.7-1.1c-0.9-0.4-1.7-0.9-2.4-1.6
					c-0.7-0.6-1.2-1.4-1.6-2.2c-0.4-1-0.7-2-0.6-3.1c-0.1-2.3,1-4.5,2.7-5.9c2-1.5,4.5-2.3,7.1-2.1c1.6,0,3.1,0.2,4.6,0.6
					c1.1,0.3,2.2,0.7,3.2,1.3l-1.7,4.1c-1-0.5-2-0.9-3-1.1c-1.1-0.3-2.2-0.4-3.4-0.4c-1.1-0.1-2.2,0.2-3.2,0.9
					c-0.8,0.5-1.2,1.4-1.2,2.4c0,0.5,0.1,1.1,0.4,1.6c0.3,0.5,0.6,0.9,1.1,1.2c0.5,0.4,1.1,0.7,1.6,1c0.6,0.3,1.3,0.6,2.1,0.9
					c1.2,0.4,2.4,0.9,3.5,1.5c1,0.4,1.8,1,2.6,1.8c0.7,0.7,1.3,1.5,1.6,2.4c0.4,1.1,0.6,2.2,0.5,3.4c0.1,2.2-1,4.3-2.7,5.7
					c-2.3,1.5-5,2.3-7.8,2.1c-1,0-2.1-0.1-3.1-0.2c-0.8-0.1-1.7-0.3-2.5-0.5c-0.7-0.2-1.4-0.4-1.9-0.7c-0.4-0.2-0.8-0.4-1.2-0.7
					l1.5-4.1c0.9,0.5,1.9,0.9,2.9,1.2c1.4,0.4,2.9,0.6,4.4,0.6"/>
				<rect id="univeristy_i2_1_" x="374.8" y="359.5" class="st2" width="5" height="27.7"/>
				<polygon id="univeristy_t_1_" class="st2" points="412.4,359.5 412.4,363.9 403.9,363.9 403.9,387.2 398.8,387.2 398.8,363.9 
					390.3,363.9 390.3,359.5 				"/>
				<path id="univeristy_y_1_" class="st2" d="M433.2,371.9c1.2-2,2.4-4,3.5-6.1c1.2-2,2.2-4.1,3.1-6.2h5.5
					c-1.5,2.7-3.1,5.6-4.7,8.4c-1.6,2.8-3.3,5.5-5.2,8.4v11h-4.9v-11.1c-1.8-2.9-3.6-5.7-5.2-8.5c-1.6-2.7-3.2-5.5-4.7-8.4h5.9
					c0.9,2.1,2,4.2,3.1,6.2c1.1,2.1,2.3,4.1,3.5,6.1"/>
			</g>
			<g id="tech_1_">
				<polygon id="tech_t_1_" class="st1" points="494.8,276 446.2,276 446.2,287.3 463.9,287.3 463.9,334.7 477.1,334.7 477.1,287.3 
					494.8,287.3 				"/>
				<path id="tech_e_1_" class="st1" d="M511.8,289c-2.7,0-5.4,0.5-7.9,1.5c-2.6,1-4.9,2.5-6.8,4.5c-2.1,2.1-3.7,4.7-4.8,7.4
					c-1.3,3.3-1.9,6.8-1.8,10.4c0,3.1,0.4,6.2,1.4,9.1c0.9,2.7,2.3,5.2,4.3,7.3c2.1,2.1,4.6,3.8,7.4,4.9c3.3,1.3,6.9,1.9,10.4,1.8
					c1.6,0,3.2-0.1,4.8-0.3c1.6-0.2,3.1-0.4,4.4-0.6c1.3-0.2,2.5-0.5,3.8-0.9c0.9-0.3,1.9-0.6,2.7-1l-1.7-10.3
					c-1.8,0.7-3.6,1.3-5.5,1.6c-2.2,0.4-4.5,0.6-6.8,0.6c-3,0.2-6.1-0.6-8.6-2.3c-2.1-1.4-3.4-3.7-3.7-6.2H532c0-0.7,0-1.5,0.2-2.3
					c0.2-0.9,0-1.7,0-2.4c0-7.5-1.8-13.2-5.5-17.1c-3.9-4-9.4-6.1-15-5.8 M503.3,307.9c0.2-1.1,0.4-2.1,0.8-3.2
					c0.4-1,0.9-1.9,1.6-2.7c0.7-0.8,1.6-1.5,2.6-1.9c1.1-0.5,2.4-0.7,3.6-0.7c1.3,0,2.5,0.2,3.7,0.8c1,0.5,1.8,1.1,2.5,2
					c0.7,0.8,1.1,1.7,1.4,2.7c0.3,1,0.5,2.1,0.5,3.1L503.3,307.9z"/>
				<path id="tech_c_1_" class="st1" d="M568,324.6c-1.6,0.3-3.3,0.4-4.9,0.4c-3.4,0.4-6.7-0.9-9-3.3c-1.9-2.7-2.8-6-2.6-9.3
					c-0.2-3.3,0.8-6.5,2.7-9.2c2.1-2.4,5.1-3.7,8.2-3.5c1.6,0,3.2,0.1,4.7,0.5c1.3,0.3,2.6,0.7,3.9,1.2l2.7-10.1
					c-1.8-0.8-3.8-1.4-5.7-1.8c-2.1-0.5-4.3-0.7-6.5-0.7c-3.3-0.1-6.6,0.6-9.6,1.9c-5.5,2.3-9.8,6.9-11.7,12.5
					c-1.1,2.9-1.6,6-1.6,9.1c0,3.1,0.4,6.3,1.3,9.3c0.8,2.7,2.2,5.3,4.2,7.4c2,2.2,4.5,3.9,7.2,4.9c3.3,1.3,6.9,1.9,10.5,1.8
					c2.4,0,4.9-0.2,7.3-0.7c1.9-0.3,3.7-0.9,5.5-1.6l-1.8-10.3C571.3,323.9,569.7,324.4,568,324.6"/>
				<path id="tech_h_1_" class="st1" d="M619.4,301.3c-0.6-2.3-1.6-4.4-3.1-6.3c-1.5-1.9-3.5-3.3-5.8-4.2c-2.9-1.1-5.9-1.6-9-1.5
					c-1.3,0-2.6,0.1-3.8,0.4c-1.1,0.2-2.2,0.5-3.2,0.8v-19.8h-12.6v64h12.6v-33.9c0.9-0.3,1.8-0.5,2.7-0.6c1-0.2,2-0.3,3-0.3
					c2.2-0.3,4.5,0.7,5.8,2.5c1.3,2.7,1.8,5.7,1.6,8.6v23.6h12.6v-25.2c0-2.8-0.3-5.5-0.9-8.2"/>
			</g>
			<g id="ontario-2_1_">
				<path id="ontario_n-2_1_" class="st2" d="M256.5,295c-1.6-1.9-3.7-3.4-6-4.2c-3-1.1-6.2-1.5-9.4-1.5c-3.6,0-7.1,0.2-10.7,0.8
					c-2.8,0.4-5.5,1-8.2,1.7v42.9h12.6v-34.3c0.8,0,1.7-0.2,2.7-0.3c1-0.1,2,0,2.7,0c2.3-0.3,4.6,0.7,6,2.5c1.3,2.7,1.8,5.7,1.6,8.6
					V335h12.6v-25.4c0-2.8-0.3-5.5-0.9-8.2C259.1,299,258,296.8,256.5,295"/>
				<path id="ontario_t-2_1_" class="st2" d="M292.9,324.7c-1.4,0.2-2.8,0.4-4.2,0.4c-2.1,0.3-4.2-0.6-5.5-2.4c-1-2-1.5-4.1-1.4-6.3
					v-15.6h15.1v-10.5h-15.3v-12.9H269v39.2c0,2.7,0.2,5.3,0.8,7.9c0.4,2.2,1.4,4.3,2.7,6c1.5,1.8,3.4,3.1,5.5,3.9
					c2.7,1,5.6,1.5,8.5,1.4c2.3,0,4.6-0.2,6.8-0.7c1.7-0.4,3.4-0.9,5.1-1.6l-1.8-9.8C295.5,324.1,294.2,324.5,292.9,324.7"/>
				<path id="ontario_a-2_1_" class="st2" d="M337.4,293.9c-1.7-1.7-3.7-2.9-6-3.6c-3-0.9-6.2-1.4-9.3-1.3c-1.5,0-2.9,0-4.4,0.2
					s-2.7,0.3-4.1,0.5c-1.3,0.2-2.5,0.4-3.6,0.7c-1.1,0.2-2,0.5-2.7,0.7l1.6,10.1c1.8-0.6,3.6-1.1,5.5-1.3c2.1-0.3,4.2-0.5,6.3-0.5
					c2.4-0.2,4.8,0.5,6.8,2c1.3,1.4,2,3.3,2,5.2v1.2c-1-0.3-2.1-0.5-3.1-0.5c-1.4-0.2-2.9-0.2-4.3-0.2c-2.4,0-4.7,0.2-7,0.7
					c-2.1,0.4-4.2,1.2-6,2.3c-1.7,1.1-3.2,2.6-4.2,4.3c-1.1,2-1.6,4.3-1.6,6.6c-0.1,2.4,0.4,4.7,1.3,6.8c0.9,1.8,2.2,3.4,3.9,4.5
					c1.8,1.2,3.9,2.1,6,2.5c2.6,0.5,5.2,0.8,7.8,0.7c3.9,0.1,7.8-0.2,11.7-0.8c3.2-0.5,5.7-1,7.5-1.4v-26.2c0-2.5-0.3-5.1-0.9-7.5
					C340,297.5,338.9,295.5,337.4,293.9 M329.4,325.6c-0.9,0.1-1.8,0.2-2.7,0.2c-1.1,0-2.3,0-3.5,0c-1.9,0.1-3.8-0.3-5.5-1.1
					c-1.4-0.9-2.1-2.5-2-4.1c0-0.9,0.2-1.8,0.7-2.5c0.5-0.7,1.1-1.2,1.9-1.6c0.9-0.4,1.8-0.7,2.7-0.8c1.1-0.1,2.2-0.2,3.4-0.2
					c0.9,0,1.8,0.1,2.7,0.2c1,0,1.8,0.2,2.3,0.3L329.4,325.6z"/>
				<path id="ontario_r-2_1_" class="st2" d="M373.3,289.7c-1-0.1-1.9-0.3-2.9-0.4c-1-0.1-1.8,0-2.4,0c-3.5,0-6.9,0.3-10.3,1
					c-2.7,0.6-5.4,1.4-8,2.3v42.1h12.6v-34.1c0.8-0.2,1.7-0.4,2.5-0.4c0.9-0.1,1.8-0.2,2.7-0.2c1.6,0,3.3,0.2,4.9,0.5
					c0.9,0.2,1.6,0.3,2.4,0.5v-11L373.3,289.7"/>
				<rect id="ontario_i_stem_1_" x="383.4" y="290.2" class="st2" width="12.6" height="44.5"/>
				<path id="ontario_i_dot_1_" class="st2" d="M389.7,269.9c-2,0-3.8,0.7-5.3,2c-1.5,1.4-2.4,3.4-2.3,5.5c-0.1,2.1,0.7,4.1,2.3,5.5
					c3,2.7,7.6,2.7,10.6,0c1.5-1.4,2.4-3.4,2.3-5.5c0.1-2.1-0.7-4.1-2.3-5.5C393.5,270.5,391.6,269.8,389.7,269.9"/>
				<path id="ontario_o1-2_1_" class="st2" d="M184.2,335.9c-16.9,0-30.7-13.7-30.7-30.7c0-16.9,13.7-30.7,30.7-30.7
					s30.7,13.7,30.7,30.7l0,0C214.9,322.2,201.1,335.9,184.2,335.9 M182.9,286.7c-10.2,0-17.3,8.2-17.3,18.6
					c0.4,10.3,9,18.2,19.3,17.9c9.7-0.4,17.5-8.2,17.9-17.9C202.8,295,193.1,286.7,182.9,286.7z"/>
				<path id="onatrio_o2_1_" class="st2" d="M427,335.9c-12.9,0-23.4-10.5-23.4-23.4S414,289,427,289s23.4,10.5,23.4,23.4l0,0
					C450.4,325.4,439.9,335.9,427,335.9 M427,300.2c-6.8,0-12.2,5.5-12.2,12.2c0,6.8,5.5,12.2,12.2,12.2c6.8,0,12.2-5.5,12.2-12.2
					l0,0C439.2,305.6,433.7,300.2,427,300.2L427,300.2z"/>
			</g>
		</g>
	</g>
</g>
</svg>
