<svg width="1244" height="162" viewBox="0 0 1244 162" fill="none" xmlns="http://www.w3.org/2000/svg">
<mask id="mask0_1068_3074" style="mask-type:alpha" maskUnits="userSpaceOnUse" x="0" y="0" width="1244" height="162">
<rect width="1244" height="162" fill="#D9D9D9"/>
</mask>
<g mask="url(#mask0_1068_3074)">
<path d="M-133.333 -50.1871C-132.318 -50.1914 -131.332 -50.5098 -130.526 -51.0938C-129.72 -51.6778 -129.137 -52.4953 -128.867 -53.4219L-41.7892 -53.4219L55.9685 24.4693L181.945 24.4693L256.461 -34.8533L358.684 -34.8533L430.966 22.7118L431.316 22.9665L600.495 22.9665L640.847 -9.22916L792.299 -9.22915L860.546 45.1011L860.896 45.3813L1245.58 45.3813C1245.85 46.3121 1246.44 47.1327 1247.25 47.7171C1248.06 48.3016 1249.05 48.6174 1250.07 48.6162C1251.3 48.6162 1252.49 48.1519 1253.36 47.3255C1254.23 46.4992 1254.72 45.3783 1254.72 44.2096C1254.73 43.6288 1254.61 43.0531 1254.38 42.5155C1254.15 41.9779 1253.8 41.4892 1253.37 41.0773C1252.94 40.6654 1252.42 40.3385 1251.86 40.1155C1251.29 39.8924 1250.68 39.7776 1250.07 39.7777C1249.05 39.7764 1248.06 40.0922 1247.25 40.6767C1246.44 41.2611 1245.85 42.0817 1245.58 43.0125L861.81 43.0125L793.213 -11.5725L640.067 -11.5725L599.715 20.6232L432.392 20.6232L359.948 -36.942L359.598 -37.1966L255.573 -37.1967L181.03 22.1259L56.9907 22.1259L-40.8746 -55.7908L-128.867 -55.7908C-129.103 -56.5804 -129.566 -57.2921 -130.206 -57.8458C-130.845 -58.3994 -131.635 -58.773 -132.487 -58.9244C-133.339 -59.0758 -134.218 -58.9991 -135.026 -58.7029C-135.834 -58.4066 -136.539 -57.9027 -137.061 -57.2477C-137.583 -56.5927 -137.901 -55.8128 -137.981 -54.9957C-138.06 -54.1787 -137.896 -53.3569 -137.509 -52.623C-137.121 -51.8891 -136.525 -51.2723 -135.787 -50.8419C-135.049 -50.4115 -134.199 -50.1847 -133.333 -50.1871Z" fill="url(#paint0_linear_1068_3074)"/>
<path d="M-53.4369 -36.6618L44.4284 41.2294L193.567 41.2294L268.109 -18.0932L347.063 -18.0931L419.695 39.7521L612.144 39.7521L652.495 7.53098L780.678 7.531L849.275 62.1414L979.905 62.1415C980.205 63.1763 980.891 64.0731 981.836 64.6654C982.781 65.2577 983.921 65.5053 985.044 65.3622C986.167 65.2191 987.197 64.695 987.943 63.8872C988.689 63.0794 989.1 62.0428 989.1 60.9698C989.1 59.8967 988.689 58.8601 987.943 58.0523C987.197 57.2445 986.167 56.7205 985.044 56.5773C983.921 56.4342 982.781 56.6818 981.836 57.2741C980.891 57.8664 980.205 58.7632 979.905 59.7981L850.189 59.798L781.592 5.18764L651.688 5.18763L611.337 37.3833L420.717 37.3833L348.085 -20.4365L267.383 -20.4365L192.867 38.8861L45.2085 38.8861L-52.6568 -39.0051L-89.8068 -39.0051C-90.1063 -40.033 -90.7892 -40.9232 -91.7289 -41.5107C-92.6687 -42.0983 -93.8016 -42.3432 -94.9175 -42.2002C-96.0334 -42.0571 -97.0568 -41.5358 -97.7977 -40.7328C-98.5387 -39.9298 -98.947 -38.8997 -98.947 -37.8334C-98.947 -36.7671 -98.5387 -35.7371 -97.7977 -34.9341C-97.0568 -34.1311 -96.0334 -33.6098 -94.9175 -33.4667C-93.8016 -33.3237 -92.6687 -33.5686 -91.7289 -34.1562C-90.7892 -34.7437 -90.1063 -35.6339 -89.8068 -36.6618L-53.4369 -36.6618Z" fill="url(#paint1_linear_1068_3074)"/>
<path d="M1247.16 74.2579C1247.97 73.6685 1248.97 73.349 1249.99 73.3488C1251.22 73.3487 1252.4 73.8095 1253.27 74.6304C1254.14 75.4513 1254.64 76.5656 1254.65 77.7298C1254.65 78.3106 1254.53 78.8864 1254.3 79.424C1254.07 79.9615 1253.72 80.4503 1253.29 80.8622C1252.86 81.2741 1252.34 81.6009 1251.78 81.824C1251.21 82.047 1250.6 82.1618 1249.99 82.1618C1248.97 82.1616 1247.97 81.8421 1247.16 81.2527C1246.35 80.6633 1245.76 79.837 1245.5 78.9015L1073.6 78.9015L1053.24 95.1267L825.334 95.1267L774.761 54.933H765.722C765.491 55.7316 765.028 56.4529 764.386 57.0151C763.744 57.5773 762.948 57.9579 762.089 58.1138C761.23 58.2697 760.342 58.1947 759.526 57.8972C758.71 57.5996 757.998 57.0916 757.472 56.4305C756.945 55.7695 756.624 54.982 756.546 54.1572C756.468 53.3325 756.635 52.5035 757.029 51.7642C757.423 51.0249 758.028 50.405 758.775 49.9746C759.523 49.5443 760.382 49.3207 761.257 49.3293C762.276 49.3309 763.267 49.6513 764.075 50.2409C764.882 50.8305 765.461 51.6562 765.722 52.5896H775.675L826.168 92.7833L1052.32 92.7834L1069.76 78.9015L843.385 78.9014L774.788 24.291H755.769L680.446 84.3268H563.159L549.17 95.4833C549.601 96.3589 549.716 97.3443 549.497 98.2877C549.278 99.2312 548.738 100.08 547.96 100.705C547.008 101.454 545.782 101.818 544.548 101.718C543.315 101.618 542.173 101.062 541.369 100.17C540.661 99.3484 540.288 98.3136 540.317 97.2536C540.346 96.1936 540.775 95.1785 541.527 94.3926C542.279 93.6068 543.303 93.1022 544.414 92.9704C545.526 92.8387 546.65 93.0886 547.583 93.6748L562.271 81.9835H679.532L752.003 24.291L658.307 24.291L617.956 56.5122L487.648 56.5122L461.5 77.3222H353.494L319.41 50.2462C318.461 50.8571 317.311 51.1209 316.172 50.9887C315.033 50.8566 313.984 50.3373 313.219 49.5275C312.454 48.7178 312.026 47.6726 312.014 46.5863C312.002 45.5 312.407 44.4465 313.153 43.6216C313.9 42.7968 314.937 42.2568 316.073 42.1019C317.209 41.9471 318.365 42.188 319.327 42.7798C320.289 43.3716 320.992 44.2741 321.304 45.3195C321.616 46.3649 321.517 47.482 321.024 48.4632L354.327 74.9789H460.505L483.694 56.5122L413.751 56.5122L341.119 -1.30764L304.184 -1.30764L190.474 89.1918L108.239 89.1918C107.978 90.1252 107.398 90.9509 106.591 91.5405C105.783 92.1301 104.793 92.4506 103.773 92.4521C102.532 92.4521 101.341 91.9852 100.463 91.154C99.5854 90.3229 99.0922 89.1956 99.0922 88.0201C99.0922 86.8447 99.5854 85.7174 100.463 84.8862C101.341 84.0551 102.532 83.5881 103.773 83.5881C104.793 83.5897 105.783 83.9101 106.591 84.4997C107.398 85.0893 107.978 85.915 108.239 86.8484L189.479 86.8485L300.23 -1.30764L273.867 -1.30765L199.406 58.0659L38.6191 58.0659L-52.5209 -14.7311C-53.4539 -14.1211 -54.5891 -13.8526 -55.7155 -13.9753C-56.8419 -14.098 -57.8829 -14.6037 -58.6452 -15.3984C-59.4076 -16.1931 -59.8393 -17.2228 -59.8603 -18.2962C-59.8812 -19.3696 -59.4901 -20.4137 -58.7594 -21.2346C-58.0286 -22.0554 -57.0081 -22.5972 -55.8873 -22.7594C-54.7665 -22.9215 -53.6216 -22.693 -52.6654 -22.1162C-51.7091 -21.5393 -51.0065 -20.6535 -50.688 -19.6231C-50.3696 -18.5928 -50.4568 -17.488 -50.9337 -16.514L39.5876 55.5188L198.545 55.5188L273.006 -3.62555L342.141 -3.62554L342.491 -3.34535L414.801 54.2198L617.041 54.2198L657.392 21.9986L775.756 21.9986L844.353 76.6091L1245.5 76.6091C1245.76 75.6736 1246.35 74.8473 1247.16 74.2579Z" fill="url(#paint2_linear_1068_3074)"/>
<path d="M1249.99 169.936C1248.97 169.935 1247.98 170.251 1247.17 170.835C1246.36 171.42 1245.77 172.24 1245.5 173.171L1146.1 173.171L1111.53 145.662L750.254 145.662L739.198 136.849C739.555 136.102 739.685 135.275 739.573 134.462C739.461 133.649 739.112 132.881 738.564 132.246C738.017 131.61 737.293 131.132 736.474 130.865C735.655 130.598 734.774 130.552 733.929 130.734C733.085 130.915 732.31 131.316 731.693 131.892C731.076 132.467 730.641 133.194 730.436 133.991C730.232 134.788 730.266 135.623 730.536 136.402C730.805 137.182 731.299 137.874 731.962 138.403C732.737 139.028 733.709 139.393 734.727 139.439C735.744 139.485 736.749 139.21 737.584 138.657L749.34 148.005L1110.48 148.005L1142.23 173.171L797.492 173.171L771.748 193.675H665.543L635.737 169.936L510.11 169.936L468.764 202.845H448.723L380.26 148.362L262.892 148.362C262.631 147.428 262.052 146.603 261.244 146.013C260.436 145.424 259.446 145.103 258.426 145.101C257.552 145.093 256.692 145.316 255.945 145.747C255.198 146.177 254.593 146.797 254.199 147.536C253.805 148.276 253.637 149.105 253.715 149.929C253.794 150.754 254.114 151.542 254.641 152.203C255.168 152.864 255.88 153.372 256.696 153.669C257.512 153.967 258.4 154.042 259.259 153.886C260.118 153.73 260.913 153.349 261.555 152.787C262.197 152.225 262.66 151.504 262.892 150.705L379.372 150.705L444.876 202.845H348.436L307.332 170.14L76.3073 170.14L36.3596 201.928C35.4305 201.338 34.3071 201.086 33.1973 201.22C32.0876 201.354 31.0666 201.864 30.3235 202.656C29.5803 203.448 29.1653 204.468 29.1553 205.527C29.1453 206.586 29.541 207.613 30.269 208.417C30.9971 209.222 32.0083 209.749 33.1153 209.902C34.2224 210.054 35.3504 209.822 36.2904 209.248C37.2305 208.673 37.9191 207.796 38.2285 206.778C38.538 205.76 38.4474 204.67 37.9736 203.711L77.222 172.559L278.36 172.56L246.401 198.031H143.371L77.491 250.323H11.7453L3.83644 256.615C2.90236 255.996 1.76286 255.719 0.629486 255.836C-0.503891 255.952 -1.55418 256.454 -2.32626 257.248C-3.09833 258.042 -3.53973 259.075 -3.5686 260.154C-3.59746 261.233 -3.21176 262.286 -2.48314 263.116C-1.75452 263.946 -0.732483 264.498 0.393219 264.668C1.51892 264.839 2.6718 264.617 3.63777 264.044C4.60374 263.471 5.31712 262.585 5.64557 261.551C5.974 260.517 5.89514 259.406 5.42358 258.423L12.6599 252.692H78.5401L144.286 200.349L247.316 200.349L282.287 172.56H306.498L329.525 190.873L298.912 215.249L201.88 215.249C201.578 214.216 200.89 213.322 199.945 212.733C199 212.143 197.86 211.898 196.739 212.042C195.617 212.187 194.589 212.711 193.844 213.519C193.1 214.326 192.689 215.362 192.689 216.434C192.689 217.506 193.1 218.541 193.844 219.349C194.589 220.156 195.617 220.681 196.739 220.825C197.86 220.97 199 220.725 199.945 220.135C200.89 219.545 201.578 218.651 201.88 217.618L299.8 217.618L331.462 192.427L347.602 205.163L469.651 205.163L511.025 172.228H580.967L511.402 227.628L398.203 227.628L371.302 249.024C370.368 248.405 369.228 248.129 368.095 248.245C366.962 248.362 365.911 248.864 365.139 249.658C364.367 250.452 363.926 251.485 363.897 252.564C363.868 253.643 364.254 254.695 364.982 255.525C365.711 256.356 366.733 256.907 367.859 257.078C368.984 257.249 370.137 257.027 371.103 256.453C372.069 255.88 372.783 254.994 373.111 253.961C373.44 252.927 373.361 251.816 372.889 250.833L399.091 229.972L512.343 229.972L584.975 172.228H634.823L664.656 195.968L772.636 195.968L798.407 175.591L1082.59 175.591L1052.32 199.687L899.931 199.686C899.635 198.654 898.954 197.758 898.012 197.166C897.071 196.574 895.934 196.327 894.814 196.47C893.694 196.613 892.668 197.138 891.926 197.945C891.185 198.753 890.779 199.788 890.784 200.858C890.784 202.034 891.277 203.161 892.155 203.992C893.033 204.823 894.224 205.29 895.465 205.29C896.485 205.289 897.475 204.968 898.283 204.379C899.09 203.789 899.67 202.963 899.931 202.03L1053.27 202.03L1086.43 175.514L1245.5 175.514C1245.76 176.45 1246.35 177.276 1247.16 177.865C1247.97 178.455 1248.97 178.774 1249.99 178.775C1250.6 178.775 1251.21 178.66 1251.78 178.437C1252.34 178.214 1252.86 177.887 1253.29 177.475C1253.72 177.063 1254.07 176.574 1254.3 176.037C1254.53 175.499 1254.65 174.923 1254.65 174.343C1254.65 173.763 1254.53 173.188 1254.3 172.652C1254.07 172.116 1253.72 171.629 1253.29 171.219C1252.86 170.809 1252.34 170.485 1251.78 170.265C1251.21 170.044 1250.6 169.933 1249.99 169.936Z" fill="url(#paint3_linear_1068_3074)"/>
<path d="M1247.17 122.949C1247.98 122.365 1248.97 122.049 1249.99 122.05C1250.62 122.046 1251.23 122.162 1251.81 122.39C1252.38 122.618 1252.9 122.954 1253.34 123.378C1253.77 123.801 1254.11 124.304 1254.34 124.855C1254.56 125.406 1254.67 125.994 1254.65 126.584C1254.65 127.165 1254.53 127.741 1254.3 128.278C1254.07 128.816 1253.72 129.305 1253.29 129.716C1252.86 130.128 1252.34 130.455 1251.78 130.678C1251.21 130.901 1250.6 131.016 1249.99 131.016C1248.97 131.016 1247.97 130.696 1247.16 130.107C1246.35 129.518 1245.77 128.691 1245.5 127.756L797.492 127.756L771.748 107.251H665.544L635.737 131.016L510.111 131.016L468.764 98.0816L389.971 98.0816L457.546 151.902L569.723 152.055C570.025 151.022 570.713 150.128 571.658 149.539C572.604 148.949 573.743 148.704 574.864 148.848C575.986 148.993 577.015 149.517 577.759 150.325C578.504 151.132 578.914 152.168 578.914 153.24C578.914 154.312 578.504 155.347 577.759 156.155C577.015 156.962 575.986 157.487 574.864 157.631C573.743 157.776 572.604 157.531 571.658 156.941C570.713 156.351 570.025 155.457 569.723 154.424L456.739 154.246L456.416 153.966L386.205 98.0816H348.329L307.332 130.736L76.3074 130.736L75.9577 130.456L29.7152 93.6496H-1.46292C-1.76546 94.6825 -2.45308 95.5766 -3.39847 96.1663C-4.34384 96.756 -5.48286 97.0013 -6.6046 96.8567C-7.72633 96.7122 -8.7547 96.1875 -9.49927 95.3801C-10.2438 94.5727 -10.6542 93.5371 -10.6542 92.4652C-10.6542 91.3933 -10.2438 90.3577 -9.49927 89.5502C-8.7547 88.7428 -7.72633 88.2182 -6.6046 88.0737C-5.48286 87.9291 -4.34384 88.1744 -3.39847 88.764C-2.45308 89.3537 -1.76546 90.2478 -1.46292 91.2807H30.6836L31.0334 91.5609L77.3028 128.392L306.498 128.392L347.522 95.7383H469.732L511.106 128.647H634.85L664.683 104.908H772.663L798.434 125.285L1245.5 125.285C1245.77 124.354 1246.36 123.534 1247.17 122.949Z" fill="url(#paint4_linear_1068_3074)"/>
</g>
<defs>
<linearGradient id="paint0_linear_1068_3074" x1="624.089" y1="272.331" x2="619.989" y2="-81.4455" gradientUnits="userSpaceOnUse">
<stop offset="0.308343" stop-color="#003368"/>
<stop offset="0.78171" stop-color="#00263C"/>
</linearGradient>
<linearGradient id="paint1_linear_1068_3074" x1="624.089" y1="272.331" x2="619.989" y2="-81.4455" gradientUnits="userSpaceOnUse">
<stop offset="0.308343" stop-color="#003368"/>
<stop offset="0.78171" stop-color="#00263C"/>
</linearGradient>
<linearGradient id="paint2_linear_1068_3074" x1="624.089" y1="272.331" x2="619.989" y2="-81.4455" gradientUnits="userSpaceOnUse">
<stop offset="0.308343" stop-color="#003368"/>
<stop offset="0.78171" stop-color="#00263C"/>
</linearGradient>
<linearGradient id="paint3_linear_1068_3074" x1="624.089" y1="272.331" x2="619.989" y2="-81.4455" gradientUnits="userSpaceOnUse">
<stop offset="0.308343" stop-color="#003368"/>
<stop offset="0.78171" stop-color="#00263C"/>
</linearGradient>
<linearGradient id="paint4_linear_1068_3074" x1="624.089" y1="272.331" x2="619.989" y2="-81.4455" gradientUnits="userSpaceOnUse">
<stop offset="0.308343" stop-color="#003368"/>
<stop offset="0.78171" stop-color="#00263C"/>
</linearGradient>
</defs>
</svg>
