<svg width="1244" height="242" viewBox="0 0 1244 242" fill="none" xmlns="http://www.w3.org/2000/svg">
<mask id="mask0_1068_3030" style="mask-type:alpha" maskUnits="userSpaceOnUse" x="0" y="0" width="1244" height="242">
<rect width="1244" height="242" fill="#D9D9D9"/>
</mask>
<g mask="url(#mask0_1068_3030)">
<path d="M-16.444 -61.3083C-17.2556 -60.7239 -18.2475 -60.408 -19.2672 -60.4093C-20.4806 -60.4023 -21.6483 -60.8469 -22.5188 -61.6473C-23.3892 -62.4477 -23.8928 -63.5399 -23.921 -64.6885C-23.9427 -65.2799 -23.8384 -65.8693 -23.6142 -66.4217C-23.39 -66.9741 -23.0507 -67.4781 -22.6164 -67.9036C-22.182 -68.3291 -21.6616 -68.6674 -21.0862 -68.8984C-20.5108 -69.1293 -19.8922 -69.2482 -19.2672 -69.2478C-18.2475 -69.2491 -17.2556 -68.9332 -16.444 -68.3488C-15.6323 -67.7644 -15.0459 -66.9437 -14.7747 -66.013H293.563L362.16 -120.598H538.576L579.061 -88.4022H723.142L795.775 -146.222H923.069L923.419 -145.942L997.612 -86.9504H1098.41L1196.27 -164.842H1197.19C1197.51 -165.861 1198.21 -166.736 1199.16 -167.307C1200.11 -167.878 1201.24 -168.108 1202.35 -167.953C1203.46 -167.799 1204.48 -167.27 1205.21 -166.465C1205.95 -165.66 1206.35 -164.632 1206.35 -163.568C1206.35 -162.504 1205.95 -161.476 1205.21 -160.671C1204.48 -159.865 1203.46 -159.337 1202.35 -159.183C1201.24 -159.028 1200.11 -159.258 1199.16 -159.829C1198.21 -160.4 1197.51 -161.275 1197.19 -162.294L1099.43 -84.4542H996.563L922.047 -143.802H796.555L723.922 -85.957H578.039L537.688 -118.178H363.075L294.585 -63.6441H-14.7747C-15.0459 -62.7134 -15.6323 -61.8928 -16.444 -61.3083Z" fill="url(#paint0_linear_1068_3030)"/>
<path d="M1202.09 -148.031L1104.22 -70.1395H991.83L917.287 -129.462H801.614L728.981 -71.6168H573.225L532.874 -103.838H367.972L299.375 -49.2275H232.123C231.823 -50.2624 231.137 -51.1592 230.192 -51.7515C229.247 -52.3438 228.107 -52.5914 226.984 -52.4483C225.861 -52.3052 224.831 -51.7811 224.085 -50.9733C223.339 -50.1656 222.928 -49.1289 222.928 -48.0559C222.928 -46.9828 223.339 -45.9462 224.085 -45.1384C224.831 -44.3307 225.861 -43.8066 226.984 -43.6635C228.107 -43.5204 229.247 -43.7679 230.192 -44.3602C231.137 -44.9525 231.823 -45.8493 232.123 -46.8842H300.289L368.887 -101.495H531.825L572.176 -69.2735H729.681L802.313 -127.093H916.507L991.023 -67.7707H1105.24L1203.11 -145.687H1295.46C1295.76 -144.652 1296.44 -143.756 1297.39 -143.163C1298.33 -142.571 1299.47 -142.323 1300.6 -142.467C1301.72 -142.61 1302.75 -143.134 1303.5 -143.942C1304.24 -144.749 1304.65 -145.786 1304.65 -146.859C1304.65 -147.932 1304.24 -148.969 1303.5 -149.776C1302.75 -150.584 1301.72 -151.108 1300.6 -151.251C1299.47 -151.395 1298.33 -151.147 1297.39 -150.555C1296.44 -149.962 1295.76 -149.066 1295.46 -148.031H1202.09Z" fill="url(#paint1_linear_1068_3030)"/>
<path d="M-16.4371 -27.7729C-17.2492 -27.1835 -18.2438 -26.864 -19.267 -26.8637C-19.8804 -26.8637 -20.4878 -26.9786 -21.0542 -27.2016C-21.6206 -27.4246 -22.1348 -27.7515 -22.5673 -28.1634C-22.9998 -28.5753 -23.342 -29.0641 -23.5743 -29.6016C-23.8066 -30.1392 -23.9244 -30.7149 -23.9208 -31.2957C-23.9244 -31.8766 -23.8066 -32.4523 -23.5743 -32.9899C-23.342 -33.5275 -22.9998 -34.0162 -22.5673 -34.4281C-22.1348 -34.84 -21.6206 -35.1669 -21.0542 -35.3899C-20.4878 -35.6129 -19.8804 -35.7278 -19.267 -35.7278C-18.2449 -35.7233 -17.2525 -35.4021 -16.4413 -34.8134C-15.6301 -34.2247 -15.0447 -33.4008 -14.7745 -32.4675H311.022L379.619 -87.0779H521.252L561.603 -54.8567H740.574L813.207 -112.702H905.745L980.153 -53.3539H1115.84L1213.63 -131.092H1238.97C1239.27 -132.125 1239.96 -133.019 1240.9 -133.609C1241.85 -134.199 1242.99 -134.444 1244.11 -134.299C1245.23 -134.155 1246.26 -133.63 1247 -132.823C1247.75 -132.015 1248.16 -130.98 1248.16 -129.908C1248.16 -128.836 1247.75 -127.8 1247 -126.993C1246.26 -126.185 1245.23 -125.661 1244.11 -125.516C1242.99 -125.372 1241.85 -125.617 1240.9 -126.207C1239.96 -126.796 1239.27 -127.69 1238.97 -128.723H1214.54L1116.68 -50.8322H979.158L904.643 -110.155H814.04L782.002 -84.6836H904.427L949.944 -48.4379C950.868 -49.0462 951.994 -49.3167 953.113 -49.1992C954.232 -49.0816 955.268 -48.584 956.029 -47.7986C956.79 -47.0132 957.224 -45.9932 957.252 -44.9276C957.28 -43.862 956.898 -42.823 956.179 -42.0032C955.459 -41.1834 954.45 -40.6383 953.339 -40.4689C952.228 -40.2996 951.089 -40.5174 950.134 -41.0821C949.179 -41.6468 948.473 -42.52 948.146 -43.54C947.819 -44.56 947.894 -45.6576 948.356 -46.6295L903.513 -82.2893H779.204L741.543 -52.335H656.482L618.982 -22.4827H572.767C572.506 -21.5493 571.927 -20.7236 571.119 -20.134C570.312 -19.5444 569.321 -19.2239 568.301 -19.2224C567.06 -19.2224 565.869 -19.6893 564.991 -20.5205C564.114 -21.3516 563.621 -22.4789 563.621 -23.6544C563.621 -24.8298 564.114 -25.9571 564.991 -26.7883C565.869 -27.6194 567.06 -28.0864 568.301 -28.0864C569.321 -28.0848 570.312 -27.7643 571.119 -27.1747C571.927 -26.5851 572.506 -25.7595 572.767 -24.8261H617.96L652.609 -52.4114H560.581L520.229 -84.6071H380.506L342.684 -54.5001H440.657L472.642 -29.0288C473.467 -29.6119 474.474 -29.9163 475.503 -29.8932C476.532 -29.8701 477.523 -29.5209 478.318 -28.9014C478.981 -28.3734 479.474 -27.6807 479.744 -26.9013C480.013 -26.1219 480.048 -25.2868 479.843 -24.4899C479.639 -23.693 479.204 -22.9659 478.587 -22.3904C477.969 -21.815 477.195 -21.4141 476.35 -21.2327C475.506 -21.0513 474.624 -21.0968 473.805 -21.3639C472.987 -21.631 472.263 -22.1091 471.715 -22.7446C471.168 -23.38 470.818 -24.1476 470.706 -24.9608C470.594 -25.774 470.724 -26.6006 471.082 -27.3477L439.796 -52.2586H339.725L311.909 -30.1241H-14.7745C-15.0407 -29.1886 -15.625 -28.3623 -16.4371 -27.7729Z" fill="url(#paint2_linear_1068_3030)"/>
<path d="M-19.267 126.346C-18.2438 126.345 -17.2492 126.026 -16.4371 125.437C-15.625 124.847 -15.0407 124.021 -14.7745 123.085H386.371L454.968 177.696H573.332L613.683 145.475H815.924L888.233 203.04L888.583 203.32H957.718L1032.18 144.176H1191.14L1281.66 216.208C1281.18 217.182 1281.09 218.287 1281.41 219.317C1281.73 220.348 1282.43 221.234 1283.39 221.811C1284.35 222.387 1285.49 222.616 1286.61 222.454C1287.73 222.292 1288.75 221.75 1289.48 220.929C1290.21 220.108 1290.61 219.064 1290.58 217.991C1290.56 216.917 1290.13 215.887 1289.37 215.093C1288.61 214.298 1287.57 213.792 1286.44 213.67C1285.31 213.547 1284.18 213.815 1283.25 214.425L1192.11 141.628H1031.32L956.857 201.002H930.494L1041.25 112.846H1122.49C1122.75 113.779 1123.33 114.605 1124.13 115.195C1124.94 115.784 1125.93 116.105 1126.95 116.106C1128.19 116.106 1129.38 115.639 1130.26 114.808C1131.14 113.977 1131.63 112.85 1131.63 111.674C1131.63 110.499 1131.14 109.371 1130.26 108.54C1129.38 107.709 1128.19 107.242 1126.95 107.242C1125.93 107.244 1124.94 107.564 1124.13 108.154C1123.33 108.743 1122.75 109.569 1122.49 110.503H1040.25L926.54 201.002H889.605L816.973 143.182H747.031L770.219 124.716H876.397L909.7 151.231C909.208 152.212 909.108 153.329 909.42 154.375C909.732 155.42 910.435 156.323 911.397 156.915C912.359 157.506 913.516 157.747 914.651 157.592C915.787 157.438 916.824 156.898 917.571 156.073C918.318 155.248 918.723 154.194 918.711 153.108C918.698 152.022 918.27 150.977 917.505 150.167C916.741 149.357 915.691 148.838 914.552 148.706C913.414 148.573 912.263 148.837 911.314 149.448L877.231 122.372H769.224L743.076 143.182H612.768L572.417 175.403H478.721L551.192 117.711H668.453L683.141 106.02C684.074 106.606 685.199 106.856 686.31 106.724C687.421 106.592 688.446 106.088 689.197 105.302C689.949 104.516 690.379 103.501 690.408 102.441C690.437 101.381 690.063 100.346 689.355 99.5244C688.552 98.6326 687.409 98.0764 686.176 97.9763C684.942 97.8761 683.717 98.2402 682.764 98.9895C681.986 99.614 681.446 100.463 681.227 101.407C681.009 102.35 681.123 103.335 681.554 104.211L667.565 115.368H550.278L474.955 175.403H455.936L387.339 120.793H160.969L178.4 106.911H404.556L455.049 147.105H465.002C465.263 148.038 465.842 148.864 466.65 149.453C467.457 150.043 468.448 150.364 469.468 150.365C470.342 150.374 471.202 150.15 471.949 149.72C472.696 149.289 473.301 148.669 473.695 147.93C474.089 147.191 474.256 146.362 474.178 145.537C474.1 144.712 473.779 143.925 473.253 143.264C472.726 142.603 472.014 142.095 471.198 141.797C470.382 141.5 469.494 141.425 468.635 141.581C467.776 141.737 466.98 142.117 466.338 142.679C465.696 143.242 465.233 143.963 465.002 144.761H455.963L405.39 104.568H177.486L157.122 120.793H-14.7745C-15.0407 119.858 -15.625 119.031 -16.4371 118.442C-17.2492 117.852 -18.2438 117.533 -19.267 117.533C-19.8804 117.533 -20.4878 117.647 -21.0542 117.87C-21.6206 118.094 -22.1348 118.42 -22.5673 118.832C-22.9998 119.244 -23.342 119.733 -23.5743 120.271C-23.8066 120.808 -23.9244 121.384 -23.9208 121.965C-23.9137 123.129 -23.4203 124.243 -22.5483 125.064C-21.6763 125.885 -20.4966 126.346 -19.267 126.346Z" fill="url(#paint3_linear_1068_3030)"/>
<path d="M1186.29 158.465L1284.16 236.356H1320.53C1320.83 235.329 1321.51 234.438 1322.45 233.851C1323.39 233.263 1324.52 233.018 1325.64 233.161C1326.76 233.304 1327.78 233.826 1328.52 234.629C1329.26 235.432 1329.67 236.462 1329.67 237.528C1329.67 238.594 1329.26 239.624 1328.52 240.427C1327.78 241.23 1326.76 241.752 1325.64 241.895C1324.52 242.038 1323.39 241.793 1322.45 241.205C1321.51 240.618 1320.83 239.728 1320.53 238.7H1283.38L1185.51 160.809H1037.86L963.341 220.131H882.638L810.006 162.311H619.386L579.035 194.507H449.131L380.534 139.897H250.818C250.518 140.932 249.832 141.828 248.887 142.421C247.942 143.013 246.803 143.261 245.68 143.117C244.556 142.974 243.526 142.45 242.78 141.642C242.034 140.835 241.623 139.798 241.623 138.725C241.623 137.652 242.034 136.615 242.78 135.808C243.526 135 244.556 134.476 245.68 134.333C246.803 134.189 247.942 134.437 248.887 135.029C249.832 135.622 250.518 136.518 250.818 137.553H381.449L450.046 192.164H578.228L618.579 159.943H811.028L883.66 217.788H962.614L1037.16 158.465H1186.29Z" fill="url(#paint4_linear_1068_3030)"/>
<path d="M1361.25 250.789C1362.06 250.205 1363.04 249.887 1364.06 249.882C1364.92 249.88 1365.77 250.107 1366.51 250.537C1367.25 250.967 1367.85 251.584 1368.23 252.318C1368.62 253.052 1368.78 253.874 1368.7 254.691C1368.63 255.508 1368.31 256.288 1367.79 256.943C1367.26 257.598 1366.56 258.102 1365.75 258.398C1364.94 258.694 1364.06 258.771 1363.21 258.62C1362.36 258.468 1361.57 258.095 1360.93 257.541C1360.29 256.987 1359.83 256.276 1359.59 255.486H1271.6L1173.73 177.569H1049.69L975.151 236.892H871.126L870.776 236.637L798.332 179.072H631.009L590.658 211.268H437.511L368.914 156.683H-14.8536C-15.1248 157.614 -15.7112 158.434 -16.5229 159.019C-17.3345 159.603 -18.3264 159.919 -19.3461 159.918C-19.9595 159.918 -20.5669 159.803 -21.1333 159.58C-21.6997 159.357 -22.2139 159.03 -22.6464 158.618C-23.0789 158.206 -23.4211 157.717 -23.6534 157.18C-23.8857 156.642 -24.0035 156.066 -23.9999 155.486C-23.9999 154.317 -23.5096 153.196 -22.6368 152.37C-21.7641 151.543 -20.5804 151.079 -19.3461 151.079C-18.3264 151.078 -17.3345 151.394 -16.5229 151.978C-15.7112 152.563 -15.1248 153.383 -14.8536 154.314H369.828L370.178 154.594L438.426 208.924H589.877L630.229 176.729H799.408L799.758 176.983L872.04 234.548H974.264L1048.78 175.226H1174.76L1272.51 253.117H1359.59C1359.86 252.19 1360.44 251.373 1361.25 250.789Z" fill="url(#paint5_linear_1068_3030)"/>
<path d="M-19.267 29.7592C-18.2473 29.7605 -17.2554 29.4446 -16.4438 28.8602C-15.6321 28.2757 -15.0457 27.4551 -14.7745 26.5243H84.6241L119.192 54.0333H480.47L491.526 62.8464C491.169 63.5935 491.039 64.4201 491.151 65.2333C491.263 66.0465 491.612 66.8141 492.16 67.4495C492.707 68.085 493.431 68.5631 494.25 68.8302C495.069 69.0973 495.95 69.1428 496.795 68.9614C497.64 68.78 498.414 68.379 499.031 67.8036C499.648 67.2282 500.084 66.5011 500.288 65.7042C500.493 64.9073 500.458 64.0722 500.189 63.2928C499.919 62.5134 499.425 61.8207 498.763 61.2926C497.988 60.6667 497.015 60.3021 495.997 60.256C494.98 60.2099 493.975 60.4849 493.14 61.0379L481.385 51.69H120.241L88.4978 26.5243H433.232L458.976 6.01994H565.181L594.987 29.7592H720.614L761.961 -3.1497H782.002L850.464 51.3334H967.833C968.093 52.2668 968.673 53.0925 969.48 53.6821C970.288 54.2717 971.278 54.5921 972.298 54.5937C973.173 54.6023 974.032 54.3787 974.779 53.9484C975.527 53.518 976.131 52.8981 976.526 52.1588C976.92 51.4195 977.087 50.5905 977.009 49.7657C976.931 48.941 976.61 48.1535 976.083 47.4924C975.556 46.8314 974.845 46.3234 974.028 46.0259C973.212 45.7283 972.324 45.6533 971.466 45.8092C970.607 45.9651 969.811 46.3457 969.169 46.9079C968.527 47.4701 968.064 48.1914 967.833 48.99H851.352L785.848 -3.1497H882.288L923.392 29.5554H1154.42L1194.36 -2.23273C1195.29 -1.64264 1196.42 -1.3913 1197.53 -1.52518C1198.64 -1.65904 1199.66 -2.16911 1200.4 -2.96092C1201.14 -3.75275 1201.56 -4.77267 1201.57 -5.83192C1201.58 -6.89117 1201.18 -7.91797 1200.46 -8.72224C1199.73 -9.5265 1198.72 -10.0538 1197.61 -10.2064C1196.5 -10.3591 1195.37 -10.1268 1194.43 -9.55249C1193.49 -8.97823 1192.81 -8.10091 1192.5 -7.08295C1192.19 -6.06499 1192.28 -4.97533 1192.75 -4.01572L1153.5 27.1357H952.365L984.323 1.66437H1087.35L1153.23 -50.6282H1218.98L1226.89 -56.9196C1227.82 -56.3007 1228.96 -56.0238 1230.09 -56.1404C1231.23 -56.2569 1232.28 -56.7588 1233.05 -57.5531C1233.82 -58.3473 1234.26 -59.3799 1234.29 -60.459C1234.32 -61.5381 1233.94 -62.5904 1233.21 -63.4206C1232.48 -64.2509 1231.46 -64.8025 1230.33 -64.9732C1229.21 -65.1439 1228.05 -64.922 1227.09 -64.3487C1226.12 -63.7754 1225.41 -62.8897 1225.08 -61.856C1224.75 -60.8223 1224.83 -59.7108 1225.3 -58.7281L1218.06 -52.997H1152.18L1086.44 -0.653519H983.408L948.437 27.1357H924.226L901.199 8.82179L931.812 -15.5542H1028.84C1029.15 -14.5213 1029.83 -13.6272 1030.78 -13.0375C1031.72 -12.4478 1032.86 -12.2026 1033.99 -12.3471C1035.11 -12.4917 1036.14 -13.0162 1036.88 -13.8237C1037.62 -14.6311 1038.04 -15.6667 1038.04 -16.7386C1038.04 -17.8105 1037.62 -18.8461 1036.88 -19.6536C1036.14 -20.461 1035.11 -20.9856 1033.99 -21.1302C1032.86 -21.2747 1031.72 -21.0294 1030.78 -20.4397C1029.83 -19.8501 1029.15 -18.956 1028.84 -17.923H930.925L899.262 7.26805L883.122 -5.46759H761.073L719.699 27.4668H649.757L719.323 -27.9333H832.521L859.422 -49.3291C860.356 -48.7103 861.496 -48.4334 862.629 -48.5499C863.763 -48.6664 864.813 -49.1684 865.585 -49.9626C866.357 -50.7569 866.798 -51.7894 866.827 -52.8685C866.856 -53.9476 866.47 -55 865.742 -55.8302C865.013 -56.6604 863.991 -57.2121 862.865 -57.3827C861.74 -57.5534 860.587 -57.3315 859.621 -56.7582C858.655 -56.1849 857.942 -55.2992 857.613 -54.2655C857.285 -53.2318 857.364 -52.1204 857.835 -51.1376L831.634 -30.2766H718.381L645.749 27.4668H595.902L566.068 3.72754H458.089L432.318 24.1046H148.137L178.4 0.00871277H330.794C331.089 1.04166 331.771 1.93767 332.712 2.52954C333.654 3.1214 334.79 3.3687 335.91 3.22523C337.03 3.08177 338.057 2.55739 338.798 1.74992C339.54 0.942459 339.945 -0.0929108 339.94 -1.16293C339.94 -2.33838 339.447 -3.46567 338.569 -4.29683C337.691 -5.12799 336.501 -5.59496 335.259 -5.59496C334.24 -5.5934 333.249 -5.2729 332.441 -4.68332C331.634 -4.09372 331.055 -3.26805 330.794 -2.33464H177.459L144.29 24.181H-14.7745C-15.0407 23.2455 -15.625 22.4192 -16.4371 21.8298C-17.2492 21.2404 -18.2438 20.9209 -19.267 20.9207C-19.8804 20.9206 -20.4878 21.0355 -21.0542 21.2585C-21.6206 21.4816 -22.1348 21.8084 -22.5673 22.2203C-22.9998 22.6322 -23.342 23.121 -23.5743 23.6585C-23.8066 24.1961 -23.9244 24.7719 -23.9208 25.3527C-23.9244 25.9323 -23.8064 26.5068 -23.5738 27.043C-23.3412 27.5791 -22.9986 28.0662 -22.5657 28.4761C-22.1328 28.8859 -21.6184 29.2104 -21.0521 29.4307C-20.4859 29.6509 -19.8791 29.7626 -19.267 29.7592Z" fill="url(#paint6_linear_1068_3030)"/>
<path d="M-16.444 76.746C-17.2556 77.3305 -18.2475 77.6463 -19.2672 77.6451C-19.8909 77.6489 -20.5089 77.5332 -21.0842 77.3051C-21.6595 77.0769 -22.1802 76.741 -22.6149 76.3175C-23.0496 75.894 -23.3894 75.3917 -23.6139 74.8407C-23.8383 74.2897 -23.9428 73.7014 -23.921 73.1112C-23.9246 72.5304 -23.8068 71.9546 -23.5745 71.4171C-23.3422 70.8795 -23 70.3907 -22.5675 69.9788C-22.135 69.5669 -21.6207 69.2401 -21.0543 69.017C-20.488 68.794 -19.8806 68.6792 -19.2672 68.6792C-18.244 68.6794 -17.2494 68.999 -16.4373 69.5883C-15.6252 70.1777 -15.0409 71.004 -14.7747 71.9395H433.232L458.976 92.4439H565.181L594.987 68.6792H720.614L761.96 101.614H840.753L773.178 47.7927L661.001 47.6399C660.699 48.6728 660.011 49.5669 659.066 50.1566C658.12 50.7463 656.981 50.9915 655.86 50.847C654.738 50.7024 653.71 50.1779 652.965 49.3704C652.22 48.563 651.81 47.5274 651.81 46.4554C651.81 45.3835 652.22 44.348 652.965 43.5405C653.71 42.7331 654.738 42.2085 655.86 42.0639C656.981 41.9194 658.12 42.1647 659.066 42.7543C660.011 43.344 660.699 44.2381 661.001 45.271L773.985 45.4494L774.308 45.7296L844.519 101.614H882.395L923.392 68.9594H1154.42L1154.77 69.2395L1201.01 106.046H1232.19C1232.49 105.013 1233.18 104.118 1234.12 103.529C1235.07 102.939 1236.21 102.694 1237.33 102.838C1238.45 102.983 1239.48 103.508 1240.22 104.315C1240.97 105.122 1241.38 106.158 1241.38 107.23C1241.38 108.302 1240.97 109.337 1240.22 110.145C1239.48 110.952 1238.45 111.477 1237.33 111.621C1236.21 111.766 1235.07 111.521 1234.12 110.931C1233.18 110.341 1232.49 109.447 1232.19 108.414H1200.04L1199.69 108.134L1153.42 71.3027H924.226L883.202 103.957H760.992L719.618 71.048H595.875L566.041 94.7872H458.061L432.29 74.4102H-14.7747C-15.0458 75.3409 -15.6323 76.1616 -16.444 76.746Z" fill="url(#paint7_linear_1068_3030)"/>
</g>
<defs>
<linearGradient id="paint0_linear_1068_3030" x1="606.635" y1="-72.6356" x2="610.735" y2="281.141" gradientUnits="userSpaceOnUse">
<stop offset="0.189338" stop-color="#003678"/>
<stop offset="1" stop-color="#00273E"/>
</linearGradient>
<linearGradient id="paint1_linear_1068_3030" x1="606.635" y1="-72.6356" x2="610.735" y2="281.141" gradientUnits="userSpaceOnUse">
<stop offset="0.189338" stop-color="#003678"/>
<stop offset="1" stop-color="#00273E"/>
</linearGradient>
<linearGradient id="paint2_linear_1068_3030" x1="606.635" y1="-72.6356" x2="610.735" y2="281.141" gradientUnits="userSpaceOnUse">
<stop offset="0.189338" stop-color="#003678"/>
<stop offset="1" stop-color="#00273E"/>
</linearGradient>
<linearGradient id="paint3_linear_1068_3030" x1="606.635" y1="-72.6356" x2="610.735" y2="281.141" gradientUnits="userSpaceOnUse">
<stop offset="0.189338" stop-color="#003678"/>
<stop offset="1" stop-color="#00273E"/>
</linearGradient>
<linearGradient id="paint4_linear_1068_3030" x1="606.635" y1="-72.6356" x2="610.735" y2="281.141" gradientUnits="userSpaceOnUse">
<stop offset="0.189338" stop-color="#003678"/>
<stop offset="1" stop-color="#00273E"/>
</linearGradient>
<linearGradient id="paint5_linear_1068_3030" x1="606.635" y1="-72.6356" x2="610.735" y2="281.141" gradientUnits="userSpaceOnUse">
<stop offset="0.189338" stop-color="#003678"/>
<stop offset="1" stop-color="#00273E"/>
</linearGradient>
<linearGradient id="paint6_linear_1068_3030" x1="606.635" y1="-72.6356" x2="610.735" y2="281.141" gradientUnits="userSpaceOnUse">
<stop offset="0.189338" stop-color="#003678"/>
<stop offset="1" stop-color="#00273E"/>
</linearGradient>
<linearGradient id="paint7_linear_1068_3030" x1="606.635" y1="-72.6356" x2="610.735" y2="281.141" gradientUnits="userSpaceOnUse">
<stop offset="0.189338" stop-color="#003678"/>
<stop offset="1" stop-color="#00273E"/>
</linearGradient>
</defs>
</svg>
