<svg width="1326" height="223" viewBox="0 0 1326 223" fill="none" xmlns="http://www.w3.org/2000/svg">
<mask id="mask0_1067_3011" style="mask-type:alpha" maskUnits="userSpaceOnUse" x="0" y="0" width="1326" height="223">
<rect width="1326" height="223" fill="#D9D9D9"/>
</mask>
<g mask="url(#mask0_1067_3011)">
<path d="M-0.936457 -116.536C0.154143 -116.535 1.21503 -116.891 2.08312 -117.551C2.95122 -118.211 3.57847 -119.137 3.86846 -120.188H334.746L407.999 -181.754H594.757L637.915 -145.378H793.945L871.63 -210.682H1005.85L1085.55 -143.682H1195.57L1300.13 -231.559C1300.48 -230.408 1301.22 -229.42 1302.24 -228.775C1303.25 -228.131 1304.46 -227.872 1305.65 -228.046C1306.84 -228.22 1307.93 -228.817 1308.71 -229.725C1309.5 -230.634 1309.93 -231.795 1309.93 -232.997C1309.93 -234.198 1309.5 -235.359 1308.71 -236.268C1307.93 -237.176 1306.84 -237.773 1305.65 -237.947C1304.46 -238.121 1303.25 -237.862 1302.24 -237.218C1301.22 -236.573 1300.48 -235.585 1300.13 -234.434H1299.15L1194.48 -146.5H1086.67L1007.32 -213.098L1006.94 -213.414H870.795L793.111 -148.139H639.009L595.707 -184.486H407.021L333.652 -122.862H3.86846C3.57847 -123.913 2.95122 -124.84 2.08312 -125.499C1.21503 -126.159 0.154143 -126.516 -0.936457 -126.514C-1.6049 -126.515 -2.26658 -126.381 -2.88202 -126.12C-3.49745 -125.859 -4.05404 -125.477 -4.51858 -124.997C-4.98312 -124.517 -5.34608 -123.948 -5.58583 -123.324C-5.82557 -122.7 -5.93718 -122.035 -5.914 -121.367C-5.88384 -120.07 -5.34522 -118.838 -4.41419 -117.934C-3.48316 -117.03 -2.23422 -116.528 -0.936457 -116.536Z" fill="url(#paint0_linear_1067_3011)"/>
<path d="M1200.69 -127.521L1305.37 -215.456H1405.23C1405.55 -216.624 1406.29 -217.637 1407.3 -218.305C1408.31 -218.974 1409.53 -219.254 1410.73 -219.092C1411.93 -218.93 1413.03 -218.339 1413.83 -217.427C1414.63 -216.515 1415.07 -215.345 1415.07 -214.133C1415.07 -212.922 1414.63 -211.752 1413.83 -210.84C1413.03 -209.928 1411.93 -209.336 1410.73 -209.174C1409.53 -209.013 1408.31 -209.292 1407.3 -209.961C1406.29 -210.63 1405.55 -211.642 1405.23 -212.81H1306.46L1201.79 -124.847H1079.62L999.923 -191.819H877.787L800.102 -126.544H631.643L588.485 -162.919H414.214L340.845 -101.267H267.937C267.617 -100.099 266.883 -99.0867 265.872 -98.418C264.862 -97.7493 263.642 -97.4698 262.441 -97.6314C261.24 -97.793 260.138 -98.3846 259.34 -99.2966C258.542 -100.208 258.103 -101.379 258.103 -102.59C258.103 -103.802 258.542 -104.972 259.34 -105.884C260.138 -106.796 261.24 -107.387 262.441 -107.549C263.642 -107.711 264.862 -107.431 265.872 -106.762C266.883 -106.094 267.617 -105.081 267.937 -103.913H339.867L413.235 -165.565H589.607L632.765 -129.189H799.354L877.039 -194.493H1000.76L1080.48 -127.521H1200.69Z" fill="url(#paint1_linear_1067_3011)"/>
<path d="M-0.936438 -78.6649C0.157924 -78.6652 1.22169 -79.0259 2.09026 -79.6913C2.95884 -80.3566 3.58382 -81.2895 3.86848 -82.3456H353.275L383.025 -107.334H490.056L523.518 -79.2113C523.136 -78.3679 522.997 -77.4346 523.117 -76.5166C523.236 -75.5985 523.61 -74.732 524.196 -74.0146C524.781 -73.2972 525.556 -72.7574 526.431 -72.4559C527.307 -72.1543 528.25 -72.103 529.153 -72.3078C530.057 -72.5125 530.885 -72.9652 531.545 -73.6148C532.205 -74.2644 532.671 -75.0853 532.889 -75.9849C533.108 -76.8846 533.071 -77.8274 532.783 -78.7073C532.495 -79.5872 531.967 -80.3692 531.258 -80.9654C530.408 -81.6647 529.348 -82.059 528.247 -82.085C527.147 -82.1111 526.069 -81.7675 525.187 -81.1091L490.977 -109.865H386.19L426.643 -143.854H576.084L619.242 -107.507H717.671L680.613 -76.3645H632.276C631.997 -77.4183 631.378 -78.3504 630.514 -79.016C629.65 -79.6816 628.591 -80.0434 627.5 -80.0452C626.172 -80.0452 624.899 -79.518 623.96 -78.5797C623.021 -77.6414 622.494 -76.3687 622.494 -75.0417C622.494 -73.7147 623.021 -72.4421 623.96 -71.5037C624.899 -70.5654 626.172 -70.0382 627.5 -70.0382C628.591 -70.04 629.65 -70.4018 630.514 -71.0674C631.378 -71.733 631.997 -72.6651 632.276 -73.7189H681.706L721.814 -107.421H812.791L853.072 -141.237H986.027L1033.99 -100.979C1033.49 -99.8821 1033.42 -98.643 1033.76 -97.4915C1034.11 -96.3399 1034.87 -95.3541 1035.89 -94.7166C1036.91 -94.0791 1038.13 -93.8332 1039.32 -94.0244C1040.51 -94.2156 1041.59 -94.831 1042.36 -95.7565C1043.13 -96.682 1043.53 -97.8549 1043.5 -99.0579C1043.47 -100.261 1043.01 -101.412 1042.2 -102.299C1041.38 -103.186 1040.27 -103.748 1039.08 -103.88C1037.88 -104.013 1036.68 -103.708 1035.69 -103.021L987.005 -143.94H856.064L890.331 -172.696H987.235L1066.93 -105.724H1214.02L1318.69 -193.659H1344.81C1345.14 -192.493 1345.87 -191.483 1346.88 -190.817C1347.89 -190.152 1349.11 -189.875 1350.31 -190.038C1351.51 -190.201 1352.61 -190.793 1353.41 -191.705C1354.2 -192.617 1354.64 -193.786 1354.64 -194.996C1354.64 -196.206 1354.2 -197.375 1353.41 -198.287C1352.61 -199.198 1351.51 -199.79 1350.31 -199.954C1349.11 -200.117 1347.89 -199.84 1346.88 -199.174C1345.87 -198.508 1345.14 -197.499 1344.81 -196.333H1317.71L1213.12 -108.571H1068L988.415 -175.571H889.44L811.755 -110.267H620.336L577.178 -146.643H425.694L352.325 -84.9912H3.86848C3.5795 -86.0448 2.95338 -86.975 2.08576 -87.6396C1.21815 -88.3042 0.156705 -88.6668 -0.936438 -88.6719C-1.59253 -88.6719 -2.24214 -88.5423 -2.84793 -88.2905C-3.45372 -88.0387 -4.00372 -87.6697 -4.46631 -87.2047C-4.92889 -86.7397 -5.29493 -86.1879 -5.54338 -85.581C-5.79182 -84.9741 -5.91777 -84.3241 -5.91398 -83.6684C-5.91777 -83.0127 -5.79182 -82.3627 -5.54338 -81.7558C-5.29493 -81.1489 -4.92889 -80.5971 -4.46631 -80.1321C-4.00372 -79.6671 -3.45372 -79.2981 -2.84793 -79.0463C-2.24214 -78.7945 -1.59253 -78.6649 -0.936438 -78.6649Z" fill="url(#paint2_linear_1067_3011)"/>
<path d="M2.08314 38.3042C1.21505 38.964 0.154164 39.3206 -0.936435 39.3192C-1.60352 39.3234 -2.26458 39.1929 -2.8799 38.9353C-3.49521 38.6778 -4.05208 38.2985 -4.51702 37.8204C-4.98196 37.3423 -5.34539 36.7752 -5.58545 36.1532C-5.82552 35.5311 -5.93726 34.867 -5.91398 34.2007C-5.91777 33.545 -5.79182 32.895 -5.54337 32.2881C-5.29493 31.6812 -4.92889 31.1294 -4.4663 30.6644C-4.00372 30.1994 -3.45371 29.8304 -2.84793 29.5786C-2.24214 29.3268 -1.59252 29.1971 -0.936435 29.1971C0.157927 29.1974 1.22169 29.5582 2.09027 30.2235C2.95884 30.8889 3.58382 31.8218 3.86848 32.8779H483.036L510.571 56.0262H624.162L656.042 29.1971H790.406L834.629 66.3782H918.902L846.627 5.61755L726.648 5.44502C726.324 6.61115 725.589 7.62053 724.578 8.28624C723.567 8.95193 722.348 9.22882 721.149 9.06563C719.949 8.90245 718.849 8.31024 718.052 7.39868C717.256 6.48712 716.817 5.31798 716.817 4.10786C716.817 2.89774 717.256 1.72864 718.052 0.817078C718.849 -0.0944824 719.949 -0.686722 721.149 -0.849915C722.348 -1.01311 723.567 -0.736176 724.578 -0.0704803C725.589 0.59523 726.324 1.60461 726.648 2.77074L847.49 2.97205L847.835 3.28836L922.93 66.3782H963.441L1007.29 29.5135H1254.38L1254.76 29.8298L1304.22 71.3817H1337.56C1337.89 70.2155 1338.62 69.2061 1339.63 68.5404C1340.64 67.8748 1341.86 67.5978 1343.06 67.761C1344.26 67.9242 1345.36 68.5164 1346.16 69.428C1346.95 70.3396 1347.39 71.5087 1347.39 72.7188C1347.39 73.9289 1346.95 75.0981 1346.16 76.0096C1345.36 76.9212 1344.26 77.5134 1343.06 77.6765C1341.86 77.8398 1340.64 77.5629 1339.63 76.8972C1338.62 76.2314 1337.89 75.2221 1337.56 74.0559H1303.18L1302.81 73.7396L1253.32 32.159H1008.18L964.304 69.0237H833.593L789.342 31.8714H656.991L625.083 58.6717H509.593L482.029 35.6672H3.86848C3.5785 36.7179 2.95124 37.6444 2.08314 38.3042Z" fill="url(#paint3_linear_1067_3011)"/>
<path d="M1475.6 234.788C1476.46 234.129 1477.52 233.769 1478.6 233.765C1479.53 233.762 1480.44 234.018 1481.23 234.504C1482.02 234.99 1482.65 235.686 1483.07 236.515C1483.48 237.343 1483.66 238.271 1483.57 239.193C1483.49 240.116 1483.15 240.996 1482.59 241.736C1482.03 242.475 1481.28 243.044 1480.41 243.378C1479.55 243.713 1478.61 243.8 1477.7 243.629C1476.79 243.458 1475.94 243.036 1475.26 242.411C1474.57 241.786 1474.08 240.982 1473.83 240.091H1379.71L1275.04 152.127H1142.37L1062.65 219.099H951.386L951.012 218.812L873.529 153.824H694.568L651.41 190.171H487.611L414.243 128.548H3.78253C3.49255 129.599 2.8653 130.525 1.9972 131.185C1.12911 131.845 0.068224 132.201 -1.02238 132.2C-1.67846 132.2 -2.32808 132.07 -2.93387 131.818C-3.53965 131.567 -4.08966 131.198 -4.55224 130.733C-5.01483 130.268 -5.38087 129.716 -5.62931 129.109C-5.87776 128.502 -6.00371 127.852 -5.99992 127.196C-5.99992 125.877 -5.47551 124.612 -4.54204 123.679C-3.60857 122.746 -2.3425 122.222 -1.02238 122.222C0.068224 122.22 1.12911 122.577 1.9972 123.236C2.8653 123.896 3.49255 124.823 3.78253 125.874H415.221L415.595 126.19L488.589 187.526H650.575L693.733 151.178H874.68L875.054 151.466L952.364 216.454H1061.7L1141.4 149.482H1276.13L1380.69 237.417H1473.83C1474.11 236.371 1474.74 235.448 1475.6 234.788Z" fill="url(#paint4_linear_1067_3011)"/>
<path d="M1393.15 218.495L1288.48 130.561H1128.97L1049.24 197.532H964.793L887.108 132.228H681.274L638.116 168.604H501.018L427.65 106.952H287.933C287.613 105.784 286.879 104.771 285.868 104.103C284.858 103.434 283.638 103.155 282.437 103.316C281.236 103.478 280.134 104.069 279.336 104.981C278.538 105.893 278.099 107.064 278.099 108.275C278.099 109.486 278.538 110.657 279.336 111.569C280.134 112.481 281.236 113.072 282.437 113.234C283.638 113.395 284.858 113.116 285.868 112.447C286.879 111.779 287.613 110.766 287.933 109.598H426.671L500.04 171.25H638.979L682.137 134.903H886.015L963.699 200.178H1050.02L1129.71 133.206H1287.64L1392.31 221.141H1432.05C1432.37 222.301 1433.1 223.306 1434.1 223.969C1435.11 224.633 1436.32 224.909 1437.51 224.748C1438.71 224.586 1439.8 223.998 1440.6 223.091C1441.39 222.185 1441.82 221.022 1441.82 219.818C1441.82 218.614 1441.39 217.451 1440.6 216.545C1439.8 215.638 1438.71 215.05 1437.51 214.888C1436.32 214.727 1435.11 215.003 1434.1 215.667C1433.1 216.33 1432.37 217.335 1432.05 218.495H1393.15Z" fill="url(#paint5_linear_1067_3011)"/>
<path d="M2.09027 93.2735C1.22169 93.9389 0.157924 94.2996 -0.936438 94.2999C-2.25159 94.2999 -3.51331 93.7798 -4.44596 92.8531C-5.37861 91.9263 -5.90638 90.6683 -5.91398 89.3539C-5.91777 88.6982 -5.79182 88.0482 -5.54338 87.4414C-5.29493 86.8345 -4.92889 86.2827 -4.46631 85.8177C-4.00372 85.3527 -3.45372 84.9837 -2.84793 84.7319C-2.24214 84.4801 -1.59253 84.3504 -0.936438 84.3505C0.157924 84.3507 1.22169 84.7115 2.09027 85.3768C2.95884 86.0422 3.58382 86.9751 3.86848 88.0312H187.721L209.501 69.7138H453.257L507.348 115.09H517.016C517.263 114.189 517.758 113.374 518.445 112.74C519.132 112.105 519.983 111.675 520.901 111.499C521.82 111.323 522.77 111.408 523.643 111.744C524.516 112.08 525.277 112.653 525.84 113.4C526.404 114.146 526.747 115.035 526.83 115.966C526.914 116.897 526.735 117.833 526.313 118.668C525.892 119.502 525.245 120.202 524.446 120.688C523.647 121.174 522.727 121.426 521.792 121.416C520.701 121.415 519.642 121.053 518.778 120.387C517.914 119.722 517.295 118.789 517.016 117.736H506.37L452.365 72.3594H210.48L191.835 88.0312H433.951L507.32 149.683H527.661L608.223 81.9062H733.668L748.63 69.3113C748.169 68.3227 748.047 67.2103 748.281 66.1452C748.514 65.0801 749.092 64.1213 749.925 63.4164C750.943 62.5704 752.254 62.1594 753.573 62.2724C754.893 62.3855 756.114 63.0134 756.974 64.0202C757.731 64.9478 758.13 66.1159 758.099 67.3127C758.068 68.5094 757.609 69.6553 756.805 70.5425C756.001 71.4297 754.905 71.9994 753.716 72.1481C752.528 72.2968 751.325 72.0146 750.327 71.3529L734.618 84.5518H609.201L531.689 149.683H631.902L675.06 113.307H814.431L842.397 89.8141H957.917L994.371 120.381C995.386 119.692 996.616 119.394 997.834 119.543C999.052 119.692 1000.17 120.278 1000.99 121.193C1001.81 122.107 1002.27 123.287 1002.28 124.513C1002.29 125.74 1001.86 126.929 1001.06 127.86C1000.26 128.791 999.155 129.401 997.94 129.576C996.725 129.751 995.489 129.479 994.459 128.81C993.43 128.142 992.679 127.123 992.345 125.943C992.011 124.763 992.118 123.502 992.644 122.394L957.025 92.4596H843.462L818.661 113.307H893.468L971.152 178.583H1010.66L1132.27 76.4139H1220.23C1220.51 75.3601 1221.13 74.428 1221.99 73.7624C1222.86 73.0968 1223.92 72.735 1225.01 72.7332C1226.33 72.7332 1227.61 73.2603 1228.55 74.1987C1229.49 75.137 1230.01 76.4097 1230.01 77.7367C1230.01 79.0637 1229.49 80.3363 1228.55 81.2747C1227.61 82.213 1226.33 82.7401 1225.01 82.7401C1223.92 82.7384 1222.86 82.3766 1221.99 81.711C1221.13 81.0454 1220.51 80.1132 1220.23 79.0594H1133.34L1014.89 178.583H1043.08L1122.72 111.553H1294.69L1392.17 193.737C1393.17 193.048 1394.38 192.745 1395.59 192.884C1396.79 193.022 1397.91 193.593 1398.72 194.49C1399.54 195.387 1400 196.55 1400.02 197.762C1400.04 198.973 1399.63 200.152 1398.84 201.079C1398.06 202.006 1396.97 202.617 1395.77 202.8C1394.57 202.983 1393.35 202.725 1392.33 202.074C1391.3 201.423 1390.55 200.423 1390.21 199.26C1389.87 198.097 1389.96 196.849 1390.47 195.75L1293.66 114.429H1123.64L1044 181.199H970.058L969.684 180.883L892.345 115.895H676.038L632.88 152.271H506.284L432.915 90.6192H3.86848C3.58382 91.6753 2.95884 92.6082 2.09027 93.2735Z" fill="url(#paint6_linear_1067_3011)"/>
<path d="M2.08314 -15.7566C1.21505 -15.0968 0.154161 -14.7402 -0.936438 -14.7417C-1.59117 -14.7379 -2.24014 -14.8639 -2.84577 -15.1126C-3.45139 -15.3612 -4.00163 -15.7275 -4.4646 -16.1902C-4.92757 -16.653 -5.29407 -17.2029 -5.54286 -17.8082C-5.79165 -18.4134 -5.9178 -19.062 -5.91398 -19.7164C-5.91777 -20.3721 -5.79182 -21.0221 -5.54338 -21.629C-5.29493 -22.2358 -4.92889 -22.7877 -4.46631 -23.2527C-4.00372 -23.7177 -3.45372 -24.0867 -2.84793 -24.3384C-2.24214 -24.5902 -1.59253 -24.7199 -0.936438 -24.7199C0.157924 -24.7196 1.22169 -24.3589 2.09026 -23.6935C2.95884 -23.0281 3.58382 -22.0952 3.86848 -21.0392H173.997L209.473 -50.9738H373.473C373.752 -52.0275 374.371 -52.9597 375.235 -53.6253C376.098 -54.2909 377.158 -54.6527 378.249 -54.6545C379.576 -54.6545 380.85 -54.1273 381.789 -53.189C382.728 -52.2506 383.255 -50.978 383.255 -49.651C383.261 -48.443 382.827 -47.2741 382.034 -46.3625C381.241 -45.451 380.143 -44.8589 378.945 -44.697C377.747 -44.535 376.531 -44.8142 375.524 -45.4824C374.517 -46.1506 373.788 -47.1621 373.473 -48.3282H210.48L178.111 -21.1254H482.058L509.621 -44.1299H625.112L657.02 -17.3297H710.334L788.018 -82.5187H909.148L937.172 -106.07C936.668 -107.179 936.583 -108.434 936.935 -109.601C937.286 -110.768 938.049 -111.768 939.082 -112.415C940.115 -113.062 941.348 -113.313 942.552 -113.12C943.756 -112.927 944.849 -112.304 945.629 -111.367C946.408 -110.43 946.82 -109.242 946.79 -108.024C946.759 -106.805 946.287 -105.64 945.461 -104.743C944.635 -103.846 943.512 -103.28 942.3 -103.148C941.087 -103.017 939.869 -103.329 938.87 -104.028L910.098 -79.8732H789.025L714.621 -17.3297H789.428L833.679 -54.5107H964.218L981.481 -40.1329L1015.35 -68.5722H1120.08C1120.4 -69.7383 1121.13 -70.7477 1122.15 -71.4134C1123.16 -72.0791 1124.37 -72.356 1125.57 -72.1928C1126.77 -72.0296 1127.87 -71.4374 1128.67 -70.5258C1129.47 -69.6143 1129.91 -68.4452 1129.91 -67.2351C1129.91 -66.0249 1129.47 -64.8558 1128.67 -63.9442C1127.87 -63.0327 1126.77 -62.4405 1125.57 -62.2773C1124.37 -62.1141 1123.16 -62.391 1122.15 -63.0567C1121.13 -63.7224 1120.4 -64.7318 1120.08 -65.8979H1016.29L983.552 -38.3788L1008.18 -17.7035H1034.08L1071.48 -49.0759H1181.68L1251.99 -108.169H1322.46L1330.2 -114.639C1329.69 -115.748 1329.61 -117.003 1329.96 -118.17C1330.31 -119.337 1331.07 -120.337 1332.11 -120.984C1333.14 -121.631 1334.37 -121.882 1335.58 -121.689C1336.78 -121.496 1337.87 -120.874 1338.65 -119.936C1339.43 -118.999 1339.84 -117.811 1339.81 -116.593C1339.78 -115.375 1339.31 -114.209 1338.49 -113.312C1337.66 -112.416 1336.54 -111.849 1335.32 -111.717C1334.11 -111.586 1332.89 -111.898 1331.89 -112.597L1323.43 -105.494H1253.12L1182.65 -46.4591H1072.46L1038.28 -17.7035H1253.4L1295.38 -52.8716C1294.88 -53.9549 1294.78 -55.1851 1295.11 -56.3343C1295.44 -57.4836 1296.18 -58.474 1297.18 -59.1223C1298.19 -59.7706 1299.39 -60.0329 1300.58 -59.8605C1301.76 -59.6882 1302.84 -59.093 1303.62 -58.185C1304.4 -57.277 1304.82 -56.1178 1304.81 -54.922C1304.8 -53.7262 1304.36 -52.5747 1303.56 -51.6808C1302.77 -50.7869 1301.68 -50.2111 1300.49 -50.0599C1299.3 -49.9088 1298.1 -50.1925 1297.11 -50.8587L1254.38 -14.9717H1007.29L963.326 -51.8939H860.178L930.238 6.96883H1054.82C1055.07 6.06725 1055.56 5.25296 1056.25 4.61826C1056.94 3.98357 1057.79 3.55385 1058.71 3.37784C1059.62 3.20184 1060.57 3.28659 1061.45 3.62247C1062.32 3.95833 1063.08 4.53189 1063.64 5.27814C1064.21 6.02438 1064.55 6.91347 1064.63 7.84459C1064.72 8.7757 1064.54 9.71162 1064.12 10.5462C1063.7 11.3808 1063.05 12.0807 1062.25 12.5665C1061.45 13.0524 1060.53 13.3048 1059.6 13.2951C1058.51 13.2933 1057.45 12.9315 1056.58 12.2659C1055.72 11.6003 1055.1 10.6681 1054.82 9.61433H929.288L856.064 -51.8939H834.629L790.406 -14.7417H656.042L624.162 -41.5419H510.571L483.036 -18.3936H114.324L148.275 10.0169H534.538L547.111 20.5702C548.004 19.9459 549.079 19.6355 550.167 19.6875C551.255 19.7395 552.295 20.1512 553.124 20.8578C553.833 21.454 554.361 22.236 554.65 23.1159C554.938 23.9958 554.975 24.9385 554.756 25.8382C554.537 26.7379 554.072 27.5587 553.412 28.2083C552.752 28.8579 551.923 29.3106 551.02 29.5154C550.117 29.7201 549.174 29.6688 548.298 29.3673C547.422 29.0657 546.648 28.5259 546.062 27.8085C545.477 27.0912 545.103 26.2247 544.983 25.3066C544.864 24.3885 545.003 23.4553 545.385 22.6119L533.56 12.6624H147.153L110.181 -18.3936H3.86848C3.57849 -17.3429 2.95123 -16.4164 2.08314 -15.7566Z" fill="url(#paint7_linear_1067_3011)"/>
</g>
<defs>
<linearGradient id="paint0_linear_1067_3011" x1="670.5" y1="2.99999" x2="672.497" y2="218.5" gradientUnits="userSpaceOnUse">
<stop stop-color="#143EA5"/>
<stop offset="1" stop-color="#142341"/>
</linearGradient>
<linearGradient id="paint1_linear_1067_3011" x1="670.5" y1="2.99999" x2="672.497" y2="218.5" gradientUnits="userSpaceOnUse">
<stop stop-color="#143EA5"/>
<stop offset="1" stop-color="#142341"/>
</linearGradient>
<linearGradient id="paint2_linear_1067_3011" x1="670.5" y1="2.99999" x2="672.497" y2="218.5" gradientUnits="userSpaceOnUse">
<stop stop-color="#143EA5"/>
<stop offset="1" stop-color="#142341"/>
</linearGradient>
<linearGradient id="paint3_linear_1067_3011" x1="670.5" y1="2.99999" x2="672.497" y2="218.5" gradientUnits="userSpaceOnUse">
<stop stop-color="#143EA5"/>
<stop offset="1" stop-color="#142341"/>
</linearGradient>
<linearGradient id="paint4_linear_1067_3011" x1="670.5" y1="2.99999" x2="672.497" y2="218.5" gradientUnits="userSpaceOnUse">
<stop stop-color="#143EA5"/>
<stop offset="1" stop-color="#142341"/>
</linearGradient>
<linearGradient id="paint5_linear_1067_3011" x1="670.5" y1="2.99999" x2="672.497" y2="218.5" gradientUnits="userSpaceOnUse">
<stop stop-color="#143EA5"/>
<stop offset="1" stop-color="#142341"/>
</linearGradient>
<linearGradient id="paint6_linear_1067_3011" x1="670.5" y1="2.99999" x2="672.497" y2="218.5" gradientUnits="userSpaceOnUse">
<stop stop-color="#143EA5"/>
<stop offset="1" stop-color="#142341"/>
</linearGradient>
<linearGradient id="paint7_linear_1067_3011" x1="670.5" y1="2.99999" x2="672.497" y2="218.5" gradientUnits="userSpaceOnUse">
<stop stop-color="#143EA5"/>
<stop offset="1" stop-color="#142341"/>
</linearGradient>
</defs>
</svg>
