<svg width="541" height="491" viewBox="0 0 541 491" fill="none" xmlns="http://www.w3.org/2000/svg">
<path d="M536.856 395.966H4V396.234H536.856V395.966Z" fill="#ECECEC"/>
<path d="M483.467 413.119H448.168V413.387H483.467V413.119Z" fill="#ECECEC"/>
<path d="M434.746 413.119H359.289V413.387H434.746V413.119Z" fill="#ECECEC"/>
<path d="M317.677 403.22H297.227V403.488H317.677V403.22Z" fill="#ECECEC"/>
<path d="M96.4467 405.016H59.9062V405.284H96.4467V405.016Z" fill="#ECECEC"/>
<path d="M172.38 405.016H105.938V405.284H172.38V405.016Z" fill="#ECECEC"/>
<path d="M243.944 409.51H204.715V409.778H243.944V409.51Z" fill="#ECECEC"/>
<path d="M256.591 348.436H50.7939C49.1826 348.432 47.6387 347.789 46.5002 346.649C45.3616 345.508 44.7211 343.964 44.7188 342.352V53.0841C44.7187 51.4721 45.3585 49.9259 46.4976 48.7852C47.6367 47.6444 49.1819 47.0024 50.7939 47H256.591C258.203 47.0024 259.748 47.6444 260.887 48.7852C262.026 49.9259 262.666 51.4721 262.666 53.0841V342.352C262.664 343.964 262.023 345.508 260.885 346.649C259.746 347.789 258.202 348.432 256.591 348.436ZM50.7939 47.268C49.2521 47.2704 47.7742 47.8839 46.6839 48.9741C45.5937 50.0643 44.9802 51.5423 44.9778 53.0841V342.352C44.9802 343.894 45.5937 345.372 46.6839 346.462C47.7742 347.553 49.2521 348.166 50.7939 348.168H256.591C258.133 348.166 259.611 347.553 260.701 346.462C261.791 345.372 262.405 343.894 262.407 342.352V53.0841C262.405 51.5423 261.791 50.0643 260.701 48.9741C259.611 47.8839 258.133 47.2704 256.591 47.268H50.7939Z" fill="#ECECEC"/>
<path d="M487.103 348.436H281.315C279.702 348.434 278.156 347.792 277.015 346.652C275.875 345.511 275.233 343.965 275.23 342.352V53.0841C275.23 51.4705 275.871 49.923 277.012 48.782C278.153 47.641 279.701 47 281.315 47H487.103C488.715 47.0024 490.262 47.6441 491.402 48.7846C492.543 49.9251 493.184 51.4712 493.187 53.0841V342.352C493.184 343.965 492.543 345.511 491.402 346.652C490.262 347.792 488.715 348.434 487.103 348.436ZM281.315 47.268C279.773 47.2704 278.295 47.8839 277.205 48.9741C276.114 50.0643 275.501 51.5423 275.499 53.0841V342.352C275.501 343.894 276.114 345.372 277.205 346.462C278.295 347.553 279.773 348.166 281.315 348.168H487.103C488.644 348.166 490.122 347.553 491.213 346.462C492.303 345.372 492.916 343.894 492.919 342.352V53.0841C492.916 51.5423 492.303 50.0643 491.213 48.9741C490.122 47.8839 488.644 47.2704 487.103 47.268H281.315Z" fill="#ECECEC"/>
<path d="M173.175 84.2194H70.1289V368.44H173.175V84.2194Z" fill="#F5F5F5"/>
<path d="M173.177 368.44H174.223L174.223 84.2195H173.177L173.177 368.44Z" fill="#ECECEC"/>
<path d="M163.233 95.0565H80.0742V357.594H163.233V95.0565Z" fill="white"/>
<path d="M217.339 252.457L460.418 252.457V71.8457L217.339 71.8457L217.339 252.457Z" fill="#E7E7E7"/>
<path d="M213.577 252.457L456.656 252.457V71.8457L213.577 71.8457L213.577 252.457Z" fill="#F5F5F5"/>
<path d="M449.902 244.863V79.4308L220.323 79.4308V244.863H449.902Z" fill="white"/>
<path d="M223.172 244.863V79.4308H220.331V244.863H223.172Z" fill="#E7E7E7"/>
<path d="M216.372 209.529L453.867 209.529V199.344L216.372 199.344V209.529Z" fill="#F5F5F5"/>
<g opacity="0.4">
<path d="M228.991 63.8676H206.039V121.912H228.991V63.8676Z" fill="#E7E7E7"/>
<path d="M228.994 117.249H240.367V63.8675H228.994V117.249Z" fill="#F5F5F5"/>
<path d="M263.319 63.8676H240.367V121.912H263.319V63.8676Z" fill="#E7E7E7"/>
<path d="M263.326 117.249H274.699V63.8675H263.326V117.249Z" fill="#F5F5F5"/>
<path d="M297.651 63.8676H274.699V121.912H297.651V63.8676Z" fill="#E7E7E7"/>
<path d="M297.65 117.249H309.023V63.8675H297.65V117.249Z" fill="#F5F5F5"/>
<path d="M331.975 63.8676H309.023V121.912H331.975V63.8676Z" fill="#E7E7E7"/>
<path d="M331.975 117.249H343.348V63.8675H331.975V117.249Z" fill="#F5F5F5"/>
<path d="M366.299 63.8676H343.348V121.912H366.299V63.8676Z" fill="#E7E7E7"/>
<path d="M366.299 117.249H377.672V63.8675H366.299V117.249Z" fill="#F5F5F5"/>
<path d="M400.624 63.8676H377.672V121.912H400.624V63.8676Z" fill="#E7E7E7"/>
<path d="M400.623 117.249H411.996V63.8675H400.623V117.249Z" fill="#F5F5F5"/>
<path d="M434.948 63.8676H411.996V121.912H434.948V63.8676Z" fill="#E7E7E7"/>
<path d="M434.959 117.249H446.332V63.8675H434.959V117.249Z" fill="#F5F5F5"/>
<path d="M469.284 63.8676H446.332V121.912H469.284V63.8676Z" fill="#E7E7E7"/>
</g>
<path d="M221.106 395.966H249.543V290.034H221.106V395.966Z" fill="#E7E7E7"/>
<path d="M225.844 395.966H221.109V386.433H230.803L225.844 395.966Z" fill="#F0F0F0"/>
<path d="M425.761 395.966H454.207V290.034H425.761V395.966Z" fill="#E7E7E7"/>
<path d="M221.097 392.303H429.887V290.034H221.097V392.303Z" fill="#F0F0F0"/>
<path d="M224.769 322.617H426.215V294.573H224.769V322.617Z" fill="#E7E7E7"/>
<path d="M275.727 303.284H375.262C379.881 303.284 384.295 299.826 387.466 293.715H263.523C266.659 299.835 271.126 303.284 275.727 303.284Z" fill="#F0F0F0"/>
<path d="M425.163 395.966H429.889V386.433H420.195L425.163 395.966Z" fill="#F0F0F0"/>
<path d="M224.769 355.191H426.215V327.146H224.769V355.191Z" fill="#E7E7E7"/>
<path d="M275.727 335.866H375.262C379.881 335.866 384.295 332.4 387.466 326.298H263.523C266.659 332.4 271.126 335.866 275.727 335.866Z" fill="#F0F0F0"/>
<path d="M224.769 387.764H426.215V359.72H224.769V387.764Z" fill="#E7E7E7"/>
<path d="M275.727 368.44H375.262C379.881 368.44 384.295 364.982 387.466 358.871H263.523C266.659 364.982 271.126 368.44 275.727 368.44Z" fill="#F0F0F0"/>
<path d="M270.433 444.103C384.55 444.103 477.06 438.699 477.06 432.033C477.06 425.367 384.55 419.963 270.433 419.963C156.315 419.963 63.8047 425.367 63.8047 432.033C63.8047 438.699 156.315 444.103 270.433 444.103Z" fill="#F5F5F5"/>
<path d="M398.188 425.949H397.045C396.815 425.927 396.6 425.826 396.437 425.663C396.274 425.5 396.173 425.285 396.151 425.055L389.129 376.222H394.489L399.135 424.734C399.156 424.876 399.148 425.022 399.112 425.161C399.075 425.3 399.011 425.431 398.922 425.544C398.834 425.658 398.723 425.752 398.597 425.822C398.47 425.891 398.331 425.935 398.188 425.949Z" fill="#FFCC00"/>
<path opacity="0.3" d="M398.188 425.949H397.045C396.815 425.927 396.6 425.826 396.437 425.663C396.274 425.5 396.173 425.285 396.151 425.055L389.129 376.222H394.489L399.135 424.734C399.156 424.876 399.148 425.022 399.112 425.161C399.075 425.3 399.011 425.431 398.922 425.544C398.834 425.658 398.723 425.752 398.597 425.822C398.47 425.891 398.331 425.935 398.188 425.949Z" fill="black"/>
<path d="M412.807 425.949H411.672C411.443 425.925 411.229 425.824 411.067 425.661C410.904 425.498 410.802 425.284 410.779 425.055L403.766 376.222H409.126L413.772 424.734C413.794 424.878 413.787 425.025 413.75 425.166C413.713 425.307 413.647 425.439 413.556 425.553C413.465 425.667 413.352 425.761 413.223 425.829C413.094 425.898 412.952 425.938 412.807 425.949Z" fill="#FFCC00"/>
<path opacity="0.3" d="M412.807 425.949H411.672C411.443 425.925 411.229 425.824 411.067 425.661C410.904 425.498 410.802 425.284 410.779 425.055L403.766 376.222H409.126L413.772 424.734C413.794 424.878 413.787 425.025 413.75 425.166C413.713 425.307 413.647 425.439 413.556 425.553C413.465 425.667 413.352 425.761 413.223 425.829C413.094 425.898 412.952 425.938 412.807 425.949Z" fill="black"/>
<path d="M331.348 425.949H332.491C332.721 425.927 332.936 425.826 333.099 425.663C333.262 425.5 333.363 425.285 333.385 425.055L340.398 376.222H335.038L330.392 424.734C330.369 424.877 330.376 425.024 330.413 425.164C330.45 425.304 330.515 425.436 330.605 425.55C330.694 425.664 330.807 425.758 330.935 425.827C331.062 425.895 331.203 425.937 331.348 425.949Z" fill="#FFCC00"/>
<path opacity="0.3" d="M331.348 425.949H332.491C332.721 425.927 332.936 425.826 333.099 425.663C333.262 425.5 333.363 425.285 333.385 425.055L340.398 376.222H335.038L330.392 424.734C330.369 424.877 330.376 425.024 330.413 425.164C330.45 425.304 330.515 425.436 330.605 425.55C330.694 425.664 330.807 425.758 330.935 425.827C331.062 425.895 331.203 425.937 331.348 425.949Z" fill="black"/>
<path d="M316.693 425.949H317.837C318.066 425.927 318.281 425.826 318.444 425.663C318.607 425.5 318.708 425.285 318.73 425.055L325.753 376.222H320.392L315.8 424.698C315.773 424.839 315.775 424.984 315.806 425.125C315.837 425.265 315.896 425.397 315.979 425.514C316.063 425.631 316.169 425.73 316.292 425.805C316.415 425.879 316.551 425.928 316.693 425.949Z" fill="#FFCC00"/>
<path opacity="0.3" d="M316.693 425.949H317.837C318.066 425.927 318.281 425.826 318.444 425.663C318.607 425.5 318.708 425.285 318.73 425.055L325.753 376.222H320.392L315.8 424.698C315.773 424.839 315.775 424.984 315.806 425.125C315.837 425.265 315.896 425.397 315.979 425.514C316.063 425.631 316.169 425.73 316.292 425.805C316.415 425.879 316.551 425.928 316.693 425.949Z" fill="black"/>
<path d="M297.78 318.293H333.669C340.039 296.172 362.955 278.724 386.38 278.724H397.994C422.563 278.724 438.412 297.843 433.4 321.42C432.459 325.756 430.923 329.941 428.835 333.856L423.179 368.163C422.447 372.63 418.909 376.204 415.282 376.204H307.331C303.704 376.204 300.184 372.63 299.433 368.163L292.572 326.307C291.803 321.875 294.144 318.293 297.78 318.293Z" fill="#FFCC00"/>
<path opacity="0.5" d="M297.78 318.293H333.669C340.039 296.172 362.955 278.724 386.38 278.724H397.994C422.563 278.724 438.412 297.843 433.4 321.42C432.459 325.756 430.923 329.941 428.835 333.856L423.179 368.163C422.447 372.63 418.909 376.204 415.282 376.204H307.331C303.704 376.204 300.184 372.63 299.433 368.163L292.572 326.307C291.803 321.875 294.144 318.293 297.78 318.293Z" fill="white"/>
<path d="M288.795 413.298L297.729 417.372C297.88 417.437 297.999 417.558 298.063 417.71C298.126 417.862 298.128 418.032 298.068 418.185L295.254 425.431C295.084 425.801 294.776 426.091 294.395 426.236C294.014 426.382 293.591 426.371 293.217 426.208C290.153 424.734 288.75 423.867 284.846 422.08C280.713 420.035 276.72 417.719 272.892 415.147C269.988 413.066 272.115 410.144 273.562 410.779C280.057 413.646 284.194 413.906 287.231 413.173C287.752 413.039 288.302 413.083 288.795 413.298Z" fill="#232323"/>
<path d="M351.823 304.347C351.823 304.347 294.994 305.052 294.118 327.45C292.849 359.693 288.105 413.119 288.105 413.119L297.692 417.39C297.692 417.39 314.479 363.741 315.078 338.591C331.025 334.615 372.166 338.591 377 325.521C379.356 318.723 379.971 311.443 378.787 304.347H351.823Z" fill="#FFCC00"/>
<path opacity="0.2" d="M351.823 304.347C351.823 304.347 294.994 305.052 294.118 327.45C292.849 359.693 288.105 413.119 288.105 413.119L297.692 417.39C297.692 417.39 314.479 363.741 315.078 338.591C331.025 334.615 372.166 338.591 377 325.521C379.356 318.723 379.971 311.443 378.787 304.347H351.823Z" fill="black"/>
<path d="M363.918 245.408C363.427 247.472 362.926 249.339 362.354 251.269C361.783 253.199 361.211 255.093 360.568 256.996C359.317 260.793 357.941 264.563 356.36 268.298C354.782 272.114 352.952 275.821 350.883 279.394C349.797 281.274 348.604 283.091 347.309 284.835C345.861 286.76 344.197 288.513 342.351 290.061L342.199 290.186C342.083 290.284 341.967 290.365 341.851 290.445C340.779 291.153 339.554 291.594 338.277 291.732C337.47 291.828 336.654 291.828 335.847 291.732C334.734 291.588 333.64 291.321 332.586 290.937C330.942 290.339 329.346 289.613 327.815 288.766C325.08 287.25 322.437 285.573 319.9 283.745C317.425 281.958 315.04 280.117 312.752 278.197C310.465 276.276 308.196 274.328 305.998 272.211C305.435 271.661 305.09 270.926 305.026 270.142C304.963 269.357 305.185 268.576 305.652 267.943C306.119 267.309 306.799 266.866 307.567 266.695C308.335 266.524 309.139 266.636 309.831 267.011H309.885C312.404 268.405 314.941 269.879 317.479 271.255C320.016 272.631 322.544 274.042 325.073 275.338C327.601 276.633 330.138 277.875 332.559 278.911C333.659 279.38 334.794 279.76 335.954 280.046C336.295 280.138 336.646 280.186 337 280.189C337.071 280.189 337 280.144 336.767 280.189C336.224 280.251 335.705 280.447 335.257 280.761L334.748 281.145C335.794 280.118 336.72 278.976 337.509 277.741C338.402 276.392 339.296 274.918 340.082 273.372C341.698 270.145 343.136 266.831 344.388 263.446C345.701 260.007 346.934 256.496 348.069 252.94C349.203 249.384 350.276 245.721 351.24 242.273V242.139C351.705 240.499 352.793 239.106 354.271 238.258C355.75 237.41 357.501 237.174 359.151 237.602C360.801 238.029 362.218 239.085 363.099 240.544C363.98 242.004 364.255 243.749 363.864 245.408H363.918Z" fill="#232323"/>
<path d="M340.886 417.935H351.535C351.715 417.93 351.889 417.995 352.021 418.117C352.153 418.239 352.232 418.408 352.241 418.587L352.759 427.021C352.762 427.465 352.588 427.892 352.277 428.208C351.965 428.524 351.541 428.705 351.097 428.709C347.381 428.647 345.612 428.432 340.922 428.432C338.036 428.432 332.22 428.727 328.235 428.727C324.251 428.727 324.367 424.787 326.055 424.43C333.622 422.831 336.562 420.624 339.242 418.524C339.709 418.15 340.287 417.942 340.886 417.935Z" fill="#232323"/>
<path d="M367.144 304.347C367.144 304.347 315.594 308.698 316.863 331.086C318.248 355.593 340.887 417.935 340.887 417.935H351.304C351.304 417.935 342.37 360.846 339.243 335.884C353.779 335.884 387.487 338.627 392.311 325.521C394.671 318.724 395.285 311.443 394.098 304.347H367.144Z" fill="#FFCC00"/>
<path d="M310.582 268.083C309.778 266.77 308.805 265.569 307.687 264.51C305.579 266.484 304.391 272.247 304.391 272.247L307.303 272.506C307.303 272.506 310.644 271.442 310.582 268.083Z" fill="#FFCC00"/>
<path d="M299.891 262.901L296.576 261.463C296.146 261.277 295.662 261.253 295.215 261.396C294.768 261.538 294.388 261.839 294.146 262.24L292.574 264.84C292.352 265.204 292.258 265.631 292.305 266.055C292.352 266.478 292.537 266.874 292.833 267.181L297.38 271.925L304.974 271.621C305.402 271.604 305.818 271.473 306.179 271.242C306.54 271.011 306.833 270.689 307.029 270.308L307.922 268.592C308.196 268.075 308.27 267.475 308.13 266.907C307.99 266.338 307.646 265.841 307.163 265.51C304.688 263.884 299.891 262.901 299.891 262.901Z" fill="white"/>
<path d="M351.342 243.211C349.823 252.779 347.858 273.515 351.878 304.749L394.128 304.347C393.877 282.708 397.272 262.356 400.578 242.541C400.71 241.761 400.684 240.962 400.501 240.193C400.318 239.423 399.983 238.698 399.514 238.06C399.046 237.423 398.454 236.886 397.775 236.482C397.095 236.077 396.341 235.813 395.557 235.706C385.408 234.241 369.023 234.294 359.079 235.706C357.156 235.965 355.367 236.833 353.975 238.184C352.582 239.535 351.659 241.297 351.342 243.211Z" fill="#232323"/>
<path d="M400.958 239.843C402.2 242.916 403.201 245.873 404.219 248.92C405.238 251.966 406.122 255.022 406.962 258.131C407.802 261.24 408.543 264.384 409.124 267.619C409.778 270.915 410.21 274.252 410.419 277.607C410.482 278.5 410.5 279.394 410.509 280.287V281.654C410.497 283.054 410.131 284.428 409.446 285.648C408.986 286.443 408.38 287.143 407.659 287.711C407.332 287.984 406.979 288.223 406.604 288.426C406.277 288.606 405.937 288.761 405.586 288.891C404.584 289.268 403.52 289.453 402.45 289.436C401.188 289.411 399.935 289.216 398.725 288.855C396.936 288.317 395.196 287.626 393.525 286.791C391.979 286.032 390.523 285.228 389.112 284.406C383.604 281.107 378.375 277.363 373.477 273.211C372.877 272.701 372.483 271.991 372.367 271.212C372.252 270.433 372.423 269.639 372.848 268.977C373.274 268.314 373.925 267.829 374.682 267.61C375.438 267.392 376.248 267.455 376.961 267.788H377.042C382.554 270.415 388.147 273.149 393.614 275.364C394.972 275.927 396.295 276.454 397.653 276.892C398.837 277.325 400.057 277.657 401.298 277.884C401.591 277.955 401.897 277.955 402.191 277.884C402.146 277.884 401.923 277.821 401.298 278.027C401.13 278.092 400.966 278.167 400.806 278.25C400.605 278.363 400.411 278.489 400.226 278.625C399.818 278.961 399.471 279.362 399.198 279.814C398.875 280.34 398.688 280.939 398.653 281.556L398.591 280.591C398.528 279.939 398.474 279.278 398.376 278.599C397.484 272.848 396.155 267.173 394.401 261.624C392.685 255.906 390.729 250.063 388.727 244.515V244.461C388.148 242.854 388.222 241.082 388.935 239.529C389.648 237.976 390.942 236.764 392.539 236.155C394.136 235.546 395.909 235.589 397.475 236.273C399.041 236.958 400.276 238.23 400.913 239.816L400.958 239.843Z" fill="#232323"/>
<path d="M384.064 214.273L378.953 218.535L371.994 224.315C372.202 225.243 372.351 226.183 372.441 227.129C372.771 230.488 372.038 233.58 367.973 235.17C367.198 235.426 366.491 235.857 365.908 236.428C365.324 237 364.878 237.697 364.605 238.467C364.051 240.253 364.704 242.237 370.314 242.237C378.551 242.237 382.822 238.574 384.466 236.769C384.676 236.522 384.798 236.212 384.811 235.888C384.823 235.564 384.727 235.245 384.537 234.982C381.25 230.283 382.742 220.053 384.064 214.273Z" fill="white"/>
<path d="M370.082 240.379C370.44 240.791 370.687 241.29 370.796 241.826C371.22 241.254 371.744 240.764 372.342 240.379C373.052 240.712 373.683 241.192 374.193 241.789C374.703 242.385 375.08 243.083 375.299 243.836C373.727 243.738 370.832 242.192 370.832 242.192C369.919 242.691 368.912 242.995 367.875 243.086C367.964 241.263 370.082 240.379 370.082 240.379Z" fill="#FFCC00"/>
<path d="M372.344 240.379C373.83 242.172 374.805 244.332 375.167 246.632C375.167 246.632 388.809 243.229 388.166 234.33C386.968 233.764 385.696 233.373 384.387 233.169C384.387 233.169 381.448 238.458 372.344 240.379Z" fill="#FFCC00"/>
<path d="M370.083 240.379C368.584 242.185 367.553 244.333 367.081 246.632C367.081 246.632 360.085 240.271 366.902 234.411C368.063 234.033 369.261 233.779 370.476 233.651C370.476 233.651 365.982 237.296 370.083 240.379Z" fill="#FFCC00"/>
<path opacity="0.2" d="M371.992 224.297C372.2 225.222 372.349 226.159 372.439 227.103C375.03 226.584 378.496 223.824 378.863 221.17C378.992 220.283 379.022 219.384 378.952 218.49L371.992 224.297Z" fill="black"/>
<path d="M364.528 195.914C358.113 200.47 361.705 211.102 367.208 207.063C372.711 203.025 369.763 192.206 364.528 195.914Z" fill="#232323"/>
<path d="M386.177 205.419C384.39 213.594 383.782 218.454 378.949 222.18C377.394 223.41 375.533 224.191 373.566 224.439C371.599 224.686 369.602 224.391 367.791 223.585C365.979 222.779 364.423 221.492 363.291 219.865C362.159 218.238 361.493 216.332 361.367 214.354C360.732 206.751 363.743 194.699 372.338 192.349C374.186 191.799 376.146 191.745 378.022 192.192C379.898 192.639 381.623 193.571 383.025 194.895C384.427 196.219 385.456 197.888 386.009 199.735C386.562 201.583 386.62 203.543 386.177 205.419Z" fill="white"/>
<path d="M382.396 199.371C377.866 198.111 366.181 201.086 362.035 196.691C357.568 191.947 364.081 189.642 365.993 191.33C363.572 188.561 364.474 185.595 367.905 185.854C370.398 186.05 371.202 188.82 371.202 188.82C371.202 188.82 370.782 183.978 375.079 184.353C378.983 184.657 378.992 189.919 378.992 189.919C378.992 189.919 388.319 187.283 391.42 196.173C397.28 196.039 397.155 208.377 385.362 212.772C380.573 210.306 380.35 201.882 382.396 199.371Z" fill="#232323"/>
<path d="M390.17 197.852C389.879 197.844 389.602 197.729 389.39 197.53C389.178 197.331 389.047 197.062 389.021 196.772C388.994 196.483 389.075 196.194 389.247 195.96C389.419 195.726 389.671 195.563 389.955 195.503C390.275 195.287 390.516 194.973 390.643 194.609C390.814 194.266 390.914 193.892 390.935 193.51C390.957 193.127 390.9 192.744 390.768 192.385C390.697 192.242 390.655 192.086 390.645 191.927C390.636 191.767 390.658 191.608 390.712 191.457C390.765 191.307 390.848 191.168 390.956 191.051C391.064 190.933 391.194 190.839 391.34 190.772C391.485 190.706 391.642 190.67 391.802 190.666C391.961 190.662 392.12 190.691 392.269 190.749C392.417 190.808 392.552 190.896 392.666 191.008C392.78 191.12 392.869 191.254 392.93 191.402C393.219 192.12 393.345 192.892 393.3 193.664C393.255 194.437 393.041 195.189 392.671 195.869C392.461 196.346 392.146 196.769 391.75 197.108C391.355 197.446 390.888 197.692 390.384 197.825L390.17 197.852Z" fill="#232323"/>
<path d="M387.505 212.996C386.406 214.438 384.817 215.429 383.038 215.783C380.724 216.185 380.028 214.059 381.046 211.995C381.939 210.137 384.271 207.689 386.406 208.216C388.542 208.743 388.881 211.2 387.505 212.996Z" fill="white"/>
<path d="M372.184 206.17C372.076 206.84 371.639 207.34 371.201 207.287C370.763 207.233 370.486 206.652 370.593 205.982C370.701 205.312 371.129 204.812 371.576 204.866C372.023 204.919 372.282 205.5 372.184 206.17Z" fill="#232323"/>
<path d="M364.571 205.268C364.473 205.938 364.035 206.438 363.588 206.384C363.141 206.331 362.873 205.75 362.981 205.08C363.088 204.41 363.526 203.91 363.963 203.954C364.401 203.999 364.678 204.597 364.571 205.268Z" fill="#232323"/>
<path d="M366.891 205.536C366.048 207.263 364.979 208.87 363.711 210.315C364.649 211.316 366.391 210.968 366.391 210.968L366.891 205.536Z" fill="#FF847F"/>
<path d="M369.54 214.416C370.326 214.428 371.106 214.279 371.832 213.98C372.559 213.68 373.217 213.236 373.766 212.674C373.785 212.655 373.799 212.632 373.809 212.607C373.819 212.582 373.823 212.556 373.822 212.529C373.821 212.502 373.815 212.476 373.803 212.452C373.792 212.428 373.775 212.406 373.755 212.389C373.735 212.371 373.712 212.357 373.686 212.349C373.661 212.341 373.634 212.338 373.608 212.34C373.581 212.343 373.555 212.351 373.532 212.364C373.508 212.376 373.488 212.394 373.471 212.415C372.863 213.014 372.125 213.465 371.315 213.735C370.505 214.004 369.644 214.085 368.799 213.969C368.746 213.966 368.694 213.983 368.653 214.016C368.611 214.049 368.584 214.096 368.575 214.148C368.57 214.201 368.586 214.254 368.619 214.296C368.653 214.338 368.701 214.365 368.754 214.371C369.022 214.398 369.29 214.416 369.54 214.416Z" fill="#232323"/>
<path d="M375.237 202.31C375.305 202.294 375.366 202.26 375.416 202.212C375.49 202.137 375.531 202.036 375.531 201.931C375.531 201.825 375.49 201.724 375.416 201.649C375.006 201.175 374.487 200.807 373.903 200.578C373.32 200.349 372.689 200.266 372.066 200.336C371.972 200.365 371.892 200.426 371.841 200.509C371.79 200.593 371.771 200.692 371.787 200.788C371.803 200.884 371.854 200.972 371.93 201.033C372.006 201.095 372.102 201.126 372.2 201.122C372.69 201.074 373.184 201.146 373.64 201.331C374.096 201.516 374.5 201.809 374.818 202.185C374.869 202.243 374.936 202.285 375.01 202.307C375.084 202.329 375.163 202.33 375.237 202.31Z" fill="#232323"/>
<path d="M361.854 201.873C361.917 201.891 361.983 201.893 362.047 201.879C362.111 201.865 362.171 201.835 362.22 201.792C362.603 201.455 363.059 201.211 363.551 201.077C364.044 200.944 364.561 200.926 365.061 201.024C365.163 201.051 365.272 201.038 365.364 200.986C365.456 200.934 365.524 200.848 365.553 200.747C365.58 200.645 365.567 200.536 365.515 200.444C365.463 200.353 365.377 200.285 365.276 200.255C364.652 200.116 364.004 200.124 363.383 200.279C362.763 200.434 362.187 200.732 361.702 201.149C361.662 201.182 361.629 201.222 361.605 201.268C361.58 201.313 361.565 201.363 361.56 201.415C361.555 201.466 361.561 201.518 361.576 201.568C361.591 201.617 361.616 201.663 361.649 201.703C361.7 201.778 361.771 201.836 361.854 201.873Z" fill="#232323"/>
<path d="M375.733 262.312L371.07 259.408C370.737 259.202 370.367 259.063 369.981 259.001C369.594 258.938 369.199 258.953 368.818 259.045C368.438 259.136 368.079 259.302 367.763 259.533C367.447 259.764 367.18 260.056 366.978 260.391L366.433 261.284C366.108 261.819 365.962 262.443 366.015 263.066C366.068 263.689 366.317 264.279 366.728 264.751L369.953 268.45C369.953 268.45 372.749 274.98 376.001 273.256L378.476 268.968L375.733 262.312Z" fill="white"/>
<path d="M380.538 270.612C379.911 269.067 379.092 267.609 378.099 266.27C375.758 268.271 373.855 274.668 373.855 274.668L376.723 275.293C377.756 274.986 378.672 274.376 379.353 273.541C380.033 272.706 380.446 271.685 380.538 270.612Z" fill="#FFCC00"/>
<path d="M416.258 318.293H360.929C357.302 318.293 354.952 321.866 355.685 326.334L362.591 368.19C363.314 372.657 366.852 376.23 370.479 376.23H409.405L416.258 318.293Z" fill="#FFCC00"/>
<path opacity="0.5" d="M416.258 318.293H360.929C357.302 318.293 354.952 321.866 355.685 326.334L362.591 368.19C363.314 372.657 366.852 376.23 370.479 376.23H409.405L416.258 318.293Z" fill="white"/>
<path d="M160.966 429.54H162.565C162.839 429.529 163.097 429.413 163.288 429.217C163.479 429.021 163.588 428.76 163.593 428.486L172.393 296.458H165.781L159.93 428.352C159.917 428.499 159.935 428.646 159.981 428.786C160.026 428.925 160.1 429.054 160.197 429.165C160.293 429.276 160.411 429.366 160.543 429.431C160.675 429.495 160.819 429.532 160.966 429.54Z" fill="#FFCC00"/>
<path opacity="0.3" d="M160.966 429.54H162.565C162.839 429.529 163.097 429.413 163.288 429.217C163.479 429.021 163.588 428.76 163.593 428.486L172.393 296.458H165.781L159.93 428.352C159.917 428.499 159.935 428.646 159.981 428.786C160.026 428.925 160.1 429.054 160.197 429.165C160.293 429.276 160.411 429.366 160.543 429.431C160.675 429.495 160.819 429.532 160.966 429.54Z" fill="white"/>
<path d="M142.846 429.54H144.436C144.711 429.531 144.972 429.417 145.165 429.22C145.358 429.024 145.468 428.761 145.472 428.486L154.263 296.458H147.661L141.809 428.352C141.796 428.499 141.812 428.647 141.858 428.787C141.903 428.927 141.976 429.057 142.073 429.168C142.17 429.279 142.288 429.369 142.421 429.433C142.554 429.497 142.698 429.534 142.846 429.54Z" fill="#FFCC00"/>
<path opacity="0.3" d="M142.846 429.54H144.436C144.711 429.531 144.972 429.417 145.165 429.22C145.358 429.024 145.468 428.761 145.472 428.486L154.263 296.458H147.661L141.809 428.352C141.796 428.499 141.812 428.647 141.858 428.787C141.903 428.927 141.976 429.057 142.073 429.168C142.17 429.279 142.288 429.369 142.421 429.433C142.554 429.497 142.698 429.534 142.846 429.54Z" fill="white"/>
<path d="M366.267 429.54H364.667C364.393 429.529 364.133 429.414 363.941 429.218C363.748 429.022 363.638 428.76 363.631 428.486L354.84 296.458H361.442L367.303 428.352C367.315 428.499 367.298 428.646 367.252 428.786C367.206 428.925 367.133 429.054 367.036 429.165C366.939 429.276 366.821 429.366 366.689 429.431C366.557 429.495 366.413 429.532 366.267 429.54Z" fill="#FFCC00"/>
<path opacity="0.3" d="M366.267 429.54H364.667C364.393 429.529 364.133 429.414 363.941 429.218C363.748 429.022 363.638 428.76 363.631 428.486L354.84 296.458H361.442L367.303 428.352C367.315 428.499 367.298 428.646 367.252 428.786C367.206 428.925 367.133 429.054 367.036 429.165C366.939 429.276 366.821 429.366 366.689 429.431C366.557 429.495 366.413 429.532 366.267 429.54Z" fill="white"/>
<path d="M384.385 429.54H382.804C382.53 429.529 382.27 429.414 382.078 429.218C381.885 429.022 381.774 428.76 381.768 428.486L372.977 296.458H379.579L385.44 428.352C385.452 428.5 385.434 428.649 385.387 428.79C385.34 428.93 385.265 429.06 385.166 429.171C385.068 429.282 384.948 429.372 384.814 429.436C384.679 429.499 384.534 429.535 384.385 429.54Z" fill="#FFCC00"/>
<path opacity="0.3" d="M384.385 429.54H382.804C382.53 429.529 382.27 429.414 382.078 429.218C381.885 429.022 381.774 428.76 381.768 428.486L372.977 296.458H379.579L385.44 428.352C385.452 428.5 385.434 428.649 385.387 428.79C385.34 428.93 385.265 429.06 385.166 429.171C385.068 429.282 384.948 429.372 384.814 429.436C384.679 429.499 384.534 429.535 384.385 429.54Z" fill="white"/>
<path d="M392.011 293.742H134.852V296.458H392.011V293.742Z" fill="#FFCC00"/>
<path d="M130.561 251.689L128.14 269.557C127.372 275.507 126.568 281.475 125.996 287.336C125.915 288.069 125.862 288.792 125.799 289.516L125.71 290.597C125.73 290.422 125.73 290.245 125.71 290.07C125.689 289.896 125.647 289.725 125.585 289.561C125.546 289.43 125.492 289.304 125.424 289.186C125.384 289.101 125.336 289.02 125.281 288.944C125.094 288.703 125.067 288.739 125.12 288.792C125.236 288.901 125.359 289.002 125.487 289.096C125.935 289.406 126.407 289.681 126.898 289.918C129.432 291.078 132.048 292.048 134.724 292.822C140.308 294.519 146.178 295.984 151.976 297.414L151.324 302.506C145.125 302.313 138.947 301.674 132.839 300.594C129.59 300.042 126.399 299.19 123.307 298.048C122.4 297.7 121.52 297.288 120.671 296.815C120.15 296.52 119.654 296.182 119.188 295.806C118.531 295.301 117.956 294.698 117.482 294.019C117.147 293.513 116.877 292.966 116.678 292.393C116.57 292.045 116.487 291.689 116.427 291.33C116.378 290.966 116.357 290.598 116.365 290.231V289.052C116.365 288.256 116.365 287.461 116.436 286.693C116.687 280.439 117.24 274.391 117.911 268.315C118.581 262.24 119.331 256.219 120.287 250.17L130.561 251.689Z" fill="white"/>
<path d="M165.36 302.792L161.447 306.366C161.004 306.776 160.447 307.043 159.849 307.132C159.252 307.221 158.641 307.129 158.097 306.866L153.782 304.785C153.782 304.785 147.376 304.516 146.465 300.603L148.118 297.566L158.043 296.467C159.062 296.349 160.09 296.576 160.965 297.11L165.048 299.612C165.312 299.773 165.536 299.994 165.7 300.256C165.865 300.519 165.966 300.816 165.997 301.124C166.027 301.432 165.985 301.744 165.875 302.033C165.765 302.322 165.588 302.582 165.36 302.792Z" fill="white"/>
<path d="M141.96 214.961C142.969 221.09 143.827 232.293 139.449 236.233C139.449 236.233 150.17 241.835 157.166 251.618C164.67 245.668 158.39 236.796 158.39 236.796C151.635 235.009 151.966 229.935 153.288 225.235L141.96 214.961Z" fill="white"/>
<path d="M161.984 240.575C161.984 240.575 161.421 235.375 158.589 232.811C156.203 230.649 143.696 231.847 139.756 232.284C139.392 232.328 139.046 232.462 138.748 232.674C138.45 232.887 138.209 233.17 138.049 233.499L135.199 239.467L161.984 240.575Z" fill="#FFCC00"/>
<path opacity="0.8" d="M161.984 240.575C161.984 240.575 161.421 235.375 158.589 232.811C156.203 230.649 143.696 231.847 139.756 232.284C139.392 232.328 139.046 232.462 138.748 232.674C138.45 232.887 138.209 233.17 138.049 233.499L135.199 239.467L161.984 240.575Z" fill="white"/>
<path d="M127.337 237.841C119.618 240.352 117.965 250.697 118.653 258.747L134.234 268.324C134.234 268.324 138.013 256.567 137.987 250.286C137.951 243.604 132.581 236.135 127.337 237.841Z" fill="#FFCC00"/>
<path d="M130.352 265.984C129.969 265.981 129.601 265.831 129.325 265.564C129.263 265.494 129.206 265.419 129.155 265.34C129.095 265.261 129.047 265.174 129.012 265.081C128.98 264.997 128.953 264.91 128.932 264.822C128.924 264.73 128.924 264.637 128.932 264.545C128.934 264.16 129.088 263.791 129.361 263.518C129.637 263.255 130.003 263.109 130.384 263.109C130.765 263.109 131.131 263.255 131.407 263.518C131.679 263.791 131.833 264.16 131.835 264.545C131.848 264.637 131.848 264.73 131.835 264.822C131.818 264.911 131.791 264.998 131.755 265.081C131.723 265.174 131.678 265.261 131.621 265.34L131.442 265.564C131.3 265.706 131.13 265.817 130.942 265.889C130.754 265.962 130.553 265.994 130.352 265.984Z" fill="white"/>
<path d="M127.354 264.992C127.094 264.885 126.872 264.704 126.713 264.473C126.555 264.241 126.467 263.968 126.46 263.688C126.25 263.877 125.99 264.001 125.71 264.044C125.431 264.087 125.145 264.047 124.888 263.929C124.634 263.807 124.421 263.615 124.272 263.376C124.123 263.137 124.046 262.861 124.048 262.58C123.831 262.759 123.564 262.868 123.284 262.894C123.003 262.919 122.722 262.86 122.476 262.723C122.227 262.592 122.022 262.391 121.887 262.145C121.752 261.898 121.693 261.618 121.716 261.338C121.489 261.5 121.22 261.593 120.942 261.607C120.663 261.622 120.386 261.556 120.144 261.418C119.818 261.218 119.584 260.898 119.492 260.527C119.4 260.156 119.458 259.764 119.653 259.435C119.853 259.107 120.174 258.871 120.547 258.779C120.921 258.687 121.315 258.746 121.645 258.944C121.874 259.085 122.06 259.286 122.183 259.525C122.306 259.765 122.361 260.033 122.342 260.302C122.558 260.144 122.815 260.051 123.082 260.033C123.35 260.016 123.616 260.075 123.852 260.203C124.086 260.33 124.282 260.519 124.417 260.749C124.553 260.978 124.623 261.241 124.62 261.508C124.83 261.344 125.081 261.241 125.346 261.21C125.61 261.178 125.878 261.22 126.121 261.329C126.364 261.441 126.572 261.618 126.721 261.84C126.871 262.062 126.957 262.321 126.97 262.589C127.17 262.412 127.415 262.294 127.678 262.247C127.941 262.2 128.212 262.225 128.462 262.321C128.816 262.464 129.1 262.741 129.251 263.093C129.401 263.444 129.407 263.841 129.266 264.197C129.157 264.463 128.971 264.69 128.732 264.849C128.493 265.008 128.213 265.092 127.925 265.09C127.731 265.091 127.537 265.058 127.354 264.992Z" fill="white"/>
<path d="M118.66 260.194C118.565 260.208 118.469 260.208 118.374 260.194C118.281 260.182 118.191 260.155 118.106 260.114C118.015 260.08 117.928 260.035 117.847 259.98C117.772 259.928 117.704 259.868 117.642 259.801C117.568 259.74 117.505 259.668 117.454 259.587C117.4 259.507 117.365 259.417 117.32 259.337C117.275 259.256 117.257 259.158 117.231 259.069C117.204 258.979 117.231 258.872 117.231 258.783C117.226 258.691 117.226 258.598 117.231 258.506C117.255 258.412 117.285 258.319 117.32 258.229C117.352 258.139 117.397 258.055 117.454 257.979C117.511 257.9 117.573 257.825 117.642 257.755L117.847 257.577C117.928 257.524 118.015 257.482 118.106 257.452C118.192 257.411 118.282 257.381 118.374 257.362C118.606 257.319 118.845 257.332 119.07 257.4C119.296 257.469 119.501 257.591 119.67 257.755C119.738 257.825 119.801 257.9 119.857 257.979C119.907 258.059 119.952 258.143 119.991 258.229C120.027 258.318 120.054 258.411 120.072 258.506C120.081 258.598 120.081 258.691 120.072 258.783C120.08 258.878 120.08 258.974 120.072 259.069C120.053 259.16 120.026 259.25 119.991 259.337C119.947 259.417 119.911 259.507 119.857 259.587C119.807 259.668 119.743 259.74 119.67 259.801C119.398 260.06 119.035 260.201 118.66 260.194Z" fill="white"/>
<path d="M176.428 252.877C175.775 261.74 173.801 276.669 168.941 301.792L127.201 300.55C128.3 285.156 126.647 273.676 122.877 246.722C122.714 245.556 122.789 244.37 123.095 243.234C123.402 242.098 123.934 241.036 124.66 240.11C125.387 239.184 126.292 238.415 127.323 237.847C128.353 237.279 129.488 236.925 130.658 236.805C133.338 236.528 136.385 236.296 139.449 236.242C145.768 235.974 152.098 236.162 158.39 236.805C160.418 237.055 162.517 237.368 164.518 237.698C168.041 238.284 171.216 240.167 173.42 242.976C175.624 245.785 176.697 249.317 176.428 252.877Z" fill="#FFCC00"/>
<path d="M163.536 203.686C163.634 204.508 164.152 205.125 164.688 205.062C165.224 205 165.582 204.276 165.483 203.454C165.385 202.632 164.867 202.016 164.331 202.078C163.795 202.141 163.438 202.864 163.536 203.686Z" fill="#232323"/>
<path d="M164.098 202.15L166.01 201.345C166.01 201.345 165.179 203.007 164.098 202.15Z" fill="#232323"/>
<path d="M163.824 204.964C164.784 206.753 165.987 208.4 167.398 209.86C166.433 211.003 164.53 210.753 164.53 210.753L163.824 204.964Z" fill="#740606"/>
<path d="M163.634 196.468C163.678 196.397 163.702 196.314 163.702 196.231C163.702 196.147 163.678 196.065 163.634 195.994C163.608 195.936 163.57 195.883 163.524 195.839C163.477 195.796 163.422 195.762 163.362 195.741C163.302 195.719 163.238 195.71 163.174 195.713C163.11 195.717 163.048 195.733 162.991 195.762C162.285 196.075 161.665 196.554 161.183 197.157C160.701 197.76 160.371 198.471 160.221 199.228C160.202 199.296 160.198 199.366 160.209 199.435C160.22 199.505 160.245 199.571 160.284 199.629C160.322 199.688 160.373 199.737 160.432 199.775C160.491 199.812 160.558 199.836 160.627 199.846C160.696 199.856 160.767 199.85 160.834 199.831C160.901 199.811 160.963 199.777 161.016 199.731C161.069 199.685 161.112 199.628 161.141 199.565C161.17 199.501 161.185 199.432 161.186 199.362C161.319 198.771 161.589 198.221 161.976 197.755C162.363 197.289 162.854 196.921 163.41 196.682C163.509 196.641 163.589 196.564 163.634 196.468Z" fill="#232323"/>
<path d="M135.151 203.499C136.937 213.532 137.545 217.793 143.272 222.394C151.884 229.274 163.82 224.833 165.008 214.452C166.089 205.116 162.909 190.276 152.501 187.444C150.219 186.813 147.813 186.775 145.513 187.335C143.212 187.894 141.092 189.031 139.354 190.639C137.617 192.247 136.318 194.273 135.583 196.523C134.847 198.774 134.698 201.175 135.151 203.499Z" fill="white"/>
<path d="M157.246 206.304C158.935 211.816 162.964 225.146 154.066 228.112C147.097 230.435 125.298 232.293 122.796 219.517C120.197 206.304 131.981 196.905 131.981 196.905C131.981 196.905 122.645 189.249 128.622 180.913C136.332 170.192 154.781 176.25 160.257 183.835C165.573 191.223 157.246 206.304 157.246 206.304Z" fill="#232323"/>
<path d="M140.368 229.944C136.385 229.932 132.441 229.153 128.754 227.647C123.795 225.512 120.909 222.224 120.391 218.115C118.604 204.186 131.604 196.53 131.738 196.458L132.256 197.352C132.131 197.423 119.748 204.749 121.419 217.99C122.008 222.689 125.948 225.316 129.156 226.7C135.49 229.425 143.665 229.381 145.648 227.951L146.256 228.791C145.157 229.541 143.021 229.944 140.368 229.944Z" fill="#232323"/>
<path d="M127.96 194.904C127.844 196.691 126.361 199.139 132.543 200.059C138.726 200.979 147.302 200.89 149.062 199.407C150.823 197.924 152.556 194.368 148.875 194.681C145.194 194.993 128.184 191.857 127.96 194.904Z" fill="#FFCC00"/>
<path d="M153.879 207.876C154.884 209.737 156.582 211.127 158.605 211.745C161.285 212.531 162.679 210.137 161.955 207.573C161.312 205.276 159.132 202.087 156.416 202.427C153.7 202.766 152.664 205.58 153.879 207.876Z" fill="white"/>
<path d="M218.894 418.516L228.784 418.328L223.996 393.643L214.105 393.831L218.894 418.516Z" fill="white"/>
<path d="M226.307 407.768C228.925 417.595 238.538 428.048 238.538 428.048L224.815 424.564L218.82 416.041L219.866 413.789L226.307 407.768Z" fill="white"/>
<path d="M216.561 412.342C216.532 413.495 216.601 414.649 216.767 415.791C217.339 419.874 219.143 430.675 219.143 430.675H220.037C219.613 427.373 219.362 424.051 219.286 420.722C219.411 418.042 221.136 422.786 223.226 425.466C225.317 428.146 229.078 430.586 235.162 430.782C242.309 430.996 245.124 430.702 242.845 428.924C240.567 427.146 235.698 425.984 235.698 425.984C231.771 424.311 228.427 421.513 226.085 417.944C223.78 414.733 220.75 412.113 217.24 410.296C216.713 410.394 216.633 411.511 216.561 412.342Z" fill="#232323"/>
<path d="M253.922 384.977L266.546 385.37L252.421 364.375L243.684 371.853L253.922 384.977Z" fill="white"/>
<path d="M256.914 376.07C266.089 380.34 280.777 379.5 280.777 379.5L268.832 389.078L258.62 388.283L257.539 386.004L256.914 376.07Z" fill="white"/>
<path d="M254.978 386.951C255.804 387.765 256.701 388.503 257.658 389.158C261.008 391.49 270.05 397.467 270.05 397.467L270.63 396.734C267.931 394.788 265.336 392.701 262.858 390.48C260.964 388.551 265.538 390.427 268.772 390.623C272.006 390.82 276.143 389.524 280.038 384.87C284.603 379.42 286.14 376.981 283.424 377.562C280.708 378.142 276.857 381.135 276.857 381.135C273.233 383.069 269.085 383.792 265.02 383.199C261.244 382.811 257.431 383.401 253.95 384.914C253.638 385.495 254.361 386.335 254.978 386.951Z" fill="#232323"/>
<path d="M154.368 301.068C154.368 301.068 221.901 291.08 228.887 308.385C241.055 338.502 258.227 373.014 258.227 373.014L249.936 379.876C249.936 379.876 220.453 352.618 210.018 322.358C197.51 326.405 157.7 339.431 143.129 339.431C127.556 339.431 121.195 326.155 126.815 304.114C127.069 303.162 127.631 302.321 128.413 301.722C129.195 301.122 130.154 300.798 131.139 300.8C140.94 300.845 154.368 301.068 154.368 301.068Z" fill="#232323"/>
<path d="M160.847 309.859C160.847 309.859 216.238 308.188 216.738 327.825C217.507 360.301 226.655 406.83 226.655 406.83L216.551 407.768C216.551 407.768 200.023 370.754 195.645 339.038C175.91 340.315 157.702 339.431 143.13 339.431C126.79 339.431 125.441 321.491 141.344 300.55C151.064 300.55 160.847 309.859 160.847 309.859Z" fill="#232323"/>
<path d="M126.655 298.048L125.502 301.792C125.35 302.069 125.681 302.381 126.163 302.39L169.047 303.668C169.422 303.668 169.744 303.507 169.771 303.266L170.262 299.549C170.262 299.29 169.976 299.058 169.565 299.049L127.325 297.789C127.2 297.774 127.074 297.79 126.957 297.836C126.841 297.881 126.737 297.954 126.655 298.048Z" fill="white"/>
<path d="M132.187 302.98H131.053C130.829 302.98 130.66 302.855 130.686 302.712L131.356 297.878C131.356 297.735 131.58 297.619 131.803 297.628H132.938C133.161 297.628 133.331 297.753 133.304 297.896L132.634 302.73C132.652 302.873 132.411 302.98 132.187 302.98Z" fill="#232323"/>
<path d="M165.878 303.98H164.744C164.52 303.98 164.351 303.855 164.368 303.712L165.047 298.879C165.047 298.736 165.271 298.629 165.494 298.629H166.629C166.852 298.629 167.022 298.754 166.995 298.897L166.325 303.73C166.307 303.873 166.102 303.989 165.878 303.98Z" fill="#232323"/>
<path d="M149.026 303.48H147.9C147.677 303.48 147.507 303.355 147.525 303.212L148.204 298.379C148.204 298.236 148.418 298.12 148.641 298.129H149.776C149.999 298.129 150.169 298.254 150.151 298.397L149.472 303.23C149.455 303.409 149.258 303.489 149.026 303.48Z" fill="#232323"/>
<path d="M200.443 256.576H227.397C227.598 256.577 227.795 256.624 227.974 256.713C228.153 256.803 228.309 256.933 228.43 257.093C228.55 257.254 228.632 257.439 228.668 257.636C228.704 257.834 228.694 258.036 228.639 258.229L218.57 292.813C218.485 293.074 218.319 293.302 218.095 293.462C217.872 293.623 217.604 293.708 217.329 293.706H190.365C190.164 293.708 189.966 293.662 189.786 293.573C189.606 293.483 189.449 293.353 189.328 293.192C189.208 293.032 189.126 292.845 189.091 292.647C189.055 292.449 189.066 292.246 189.124 292.053L199.201 257.478C199.285 257.215 199.451 256.986 199.674 256.823C199.897 256.661 200.167 256.574 200.443 256.576Z" fill="#FFCC00"/>
<path d="M200.936 257.854L227.139 258.47L216.794 291.088L190.59 290.463L200.936 257.854Z" fill="#E1E1E1"/>
<path d="M200.114 257.532L226.326 257.639L216.615 290.445L190.402 290.338L200.114 257.532Z" fill="white"/>
<path d="M176.485 258.211C176.539 259.247 176.637 260.543 176.726 261.722C176.816 262.901 176.968 264.134 177.128 265.296C177.423 267.699 177.825 270.084 178.317 272.443C178.8 274.725 179.436 276.973 180.22 279.17C180.613 280.234 181.051 281.261 181.524 282.235C181.756 282.726 182.015 283.191 182.275 283.646L182.659 284.299C182.659 284.254 182.578 284.254 182.614 284.299C183.106 284.744 183.684 285.085 184.312 285.299C185.312 285.675 186.339 285.974 187.385 286.193C189.743 286.706 192.13 287.076 194.532 287.3C199.455 287.774 204.592 288.015 209.631 288.122L210.14 293.224C204.904 294.263 199.591 294.861 194.255 295.011C191.481 295.104 188.704 294.991 185.946 294.671C184.436 294.492 182.942 294.193 181.479 293.778C179.608 293.283 177.867 292.387 176.378 291.151C175.881 290.718 175.431 290.233 175.038 289.704L174.35 288.748C173.921 288.113 173.501 287.47 173.126 286.827C172.355 285.551 171.669 284.226 171.071 282.86C169.937 280.259 169.017 277.57 168.319 274.82C167.628 272.141 167.1 269.423 166.738 266.681C166.559 265.323 166.408 264 166.291 262.589C166.175 261.177 166.104 259.909 166.086 258.363L176.485 258.211Z" fill="white"/>
<path d="M172.972 242.487C179.682 248.812 178.065 265.278 178.065 265.278L165.208 267.52C165.208 267.52 157.275 255.718 160.062 250.769C162.966 245.614 169.345 239.083 172.972 242.487Z" fill="#FFCC00"/>
<path d="M178.061 266.725C177.678 266.723 177.312 266.568 177.042 266.296C176.968 266.233 176.905 266.157 176.855 266.073C176.806 265.997 176.764 265.916 176.73 265.832C176.695 265.741 176.665 265.649 176.64 265.555C176.636 265.463 176.636 265.37 176.64 265.278C176.64 264.894 176.791 264.525 177.06 264.25C177.129 264.184 177.204 264.124 177.284 264.072C177.356 264.016 177.438 263.974 177.525 263.947C177.614 263.909 177.707 263.879 177.802 263.857C178.012 263.815 178.228 263.82 178.436 263.871C178.644 263.923 178.837 264.021 179.002 264.157C179.167 264.293 179.3 264.464 179.391 264.658C179.481 264.852 179.528 265.064 179.526 265.278C179.535 265.37 179.535 265.463 179.526 265.555C179.506 265.65 179.476 265.743 179.437 265.832C179.409 265.919 179.367 266.001 179.312 266.073C179.262 266.155 179.202 266.23 179.133 266.296C178.993 266.437 178.825 266.547 178.641 266.621C178.457 266.695 178.259 266.73 178.061 266.725Z" fill="white"/>
<path d="M166.385 267.494C166.368 267.304 166.388 267.113 166.446 266.931C166.503 266.749 166.596 266.581 166.719 266.435C166.842 266.29 166.993 266.17 167.162 266.084C167.332 265.997 167.517 265.945 167.707 265.93C167.973 265.905 168.241 265.955 168.479 266.075C168.718 266.196 168.918 266.381 169.056 266.609C169.142 266.355 169.296 266.129 169.5 265.956C169.705 265.783 169.953 265.669 170.217 265.626C170.483 265.59 170.754 265.628 170.999 265.735C171.245 265.842 171.457 266.015 171.611 266.234C171.682 265.978 171.822 265.746 172.016 265.565C172.21 265.384 172.45 265.26 172.71 265.206C172.973 265.151 173.246 265.17 173.499 265.261C173.752 265.353 173.973 265.513 174.14 265.725C174.195 265.462 174.323 265.22 174.507 265.024C174.691 264.829 174.926 264.688 175.185 264.617C175.37 264.564 175.563 264.549 175.754 264.573C175.944 264.596 176.128 264.658 176.295 264.753C176.462 264.849 176.607 264.977 176.723 265.13C176.84 265.283 176.924 265.458 176.972 265.644C177.023 265.83 177.036 266.023 177.012 266.214C176.987 266.405 176.925 266.589 176.828 266.755C176.732 266.921 176.603 267.067 176.45 267.183C176.297 267.299 176.122 267.383 175.935 267.431C175.663 267.499 175.378 267.488 175.112 267.399C174.846 267.311 174.611 267.148 174.434 266.931C174.373 267.205 174.234 267.456 174.034 267.653C173.835 267.851 173.583 267.988 173.309 268.047C173.031 268.098 172.746 268.069 172.485 267.963C172.223 267.857 171.998 267.678 171.835 267.449C171.762 267.721 171.612 267.965 171.403 268.153C171.193 268.34 170.933 268.462 170.655 268.503C170.376 268.545 170.091 268.504 169.835 268.384C169.58 268.265 169.364 268.074 169.217 267.833C169.124 268.099 168.957 268.333 168.735 268.508C168.514 268.682 168.247 268.789 167.966 268.816H167.85C167.484 268.822 167.129 268.689 166.857 268.443C166.585 268.198 166.416 267.858 166.385 267.494Z" fill="white"/>
<path d="M165.207 268.977C165.112 268.989 165.016 268.989 164.921 268.977C164.831 268.977 164.742 268.923 164.653 268.896C164.567 268.857 164.483 268.812 164.403 268.762C164.325 268.71 164.254 268.65 164.188 268.584C164.117 268.519 164.057 268.444 164.009 268.36C163.957 268.283 163.909 268.202 163.866 268.119C163.835 268.029 163.811 267.936 163.795 267.842C163.782 267.75 163.782 267.657 163.795 267.565C163.782 267.467 163.782 267.368 163.795 267.27C163.81 267.182 163.834 267.095 163.866 267.011L164.009 266.752C164.061 266.675 164.121 266.603 164.188 266.538C164.254 266.471 164.325 266.411 164.403 266.359C164.479 266.304 164.563 266.262 164.653 266.234C164.738 266.192 164.828 266.162 164.921 266.144C165.154 266.096 165.395 266.107 165.623 266.176C165.851 266.244 166.058 266.369 166.225 266.538C166.292 266.603 166.352 266.675 166.404 266.752L166.547 267.011C166.547 267.092 166.609 267.19 166.627 267.27C166.645 267.351 166.627 267.467 166.627 267.565C166.627 267.663 166.627 267.753 166.627 267.842C166.627 267.931 166.574 268.021 166.547 268.119C166.504 268.202 166.457 268.283 166.404 268.36C166.354 268.442 166.294 268.517 166.225 268.584C165.949 268.841 165.584 268.982 165.207 268.977Z" fill="white"/>
<path d="M221.617 282.807L217.15 282.503C216.04 282.43 214.937 282.728 214.015 283.352L205.84 288.837L205.777 292.304C208.395 295.35 214.202 292.625 214.202 292.625L219.563 292.447C219.992 292.432 220.408 292.29 220.756 292.039C221.105 291.788 221.37 291.438 221.519 291.035L223.467 285.674C223.576 285.364 223.612 285.032 223.573 284.706C223.534 284.379 223.422 284.065 223.243 283.789C223.065 283.512 222.826 283.28 222.544 283.11C222.262 282.939 221.945 282.836 221.617 282.807Z" fill="white"/>
<path d="M129.321 434.338H130.527C130.777 434.317 131.011 434.207 131.186 434.028C131.362 433.85 131.467 433.614 131.483 433.364L138.899 381.734H133.27L128.356 433.016C128.327 433.166 128.329 433.322 128.363 433.472C128.396 433.622 128.46 433.763 128.551 433.887C128.641 434.011 128.756 434.115 128.889 434.193C129.022 434.27 129.169 434.32 129.321 434.338Z" fill="#FFCC00"/>
<path opacity="0.3" d="M129.321 434.338H130.527C130.777 434.317 131.011 434.207 131.186 434.028C131.362 433.85 131.467 433.614 131.483 433.364L138.899 381.734H133.27L128.356 433.016C128.327 433.166 128.329 433.322 128.363 433.472C128.396 433.622 128.46 433.763 128.551 433.887C128.641 434.011 128.756 434.115 128.889 434.193C129.022 434.27 129.169 434.32 129.321 434.338Z" fill="black"/>
<path d="M113.89 434.338H115.096C115.346 434.317 115.58 434.207 115.755 434.028C115.93 433.85 116.036 433.614 116.052 433.364L123.467 381.734H117.839L112.925 433.016C112.897 433.166 112.9 433.321 112.934 433.471C112.968 433.62 113.032 433.761 113.123 433.885C113.213 434.008 113.328 434.113 113.46 434.19C113.592 434.268 113.738 434.319 113.89 434.338Z" fill="#FFCC00"/>
<path opacity="0.3" d="M113.89 434.338H115.096C115.346 434.317 115.58 434.207 115.755 434.028C115.93 433.85 116.036 433.614 116.052 433.364L123.467 381.734H117.839L112.925 433.016C112.897 433.166 112.9 433.321 112.934 433.471C112.968 433.62 113.032 433.761 113.123 433.885C113.213 434.008 113.328 434.113 113.46 434.19C113.592 434.268 113.738 434.319 113.89 434.338Z" fill="black"/>
<path d="M199.968 434.338H198.762C198.512 434.317 198.279 434.207 198.103 434.028C197.928 433.85 197.822 433.614 197.806 433.364L190.391 381.734H196.019L200.933 433.016C200.961 433.166 200.958 433.321 200.924 433.471C200.89 433.62 200.826 433.761 200.735 433.885C200.645 434.008 200.53 434.113 200.398 434.19C200.266 434.268 200.12 434.319 199.968 434.338Z" fill="#FFCC00"/>
<path opacity="0.3" d="M199.968 434.338H198.762C198.512 434.317 198.279 434.207 198.103 434.028C197.928 433.85 197.822 433.614 197.806 433.364L190.391 381.734H196.019L200.933 433.016C200.961 433.166 200.958 433.321 200.924 433.471C200.89 433.62 200.826 433.761 200.735 433.885C200.645 434.008 200.53 434.113 200.398 434.19C200.266 434.268 200.12 434.319 199.968 434.338Z" fill="black"/>
<path d="M215.426 434.338H214.22C213.97 434.317 213.737 434.207 213.561 434.028C213.386 433.85 213.28 433.614 213.264 433.364L205.84 381.734H211.477L216.391 433.016C216.419 433.166 216.416 433.321 216.382 433.471C216.348 433.62 216.284 433.761 216.194 433.885C216.103 434.008 215.989 434.113 215.857 434.19C215.725 434.268 215.578 434.319 215.426 434.338Z" fill="#FFCC00"/>
<path opacity="0.3" d="M215.426 434.338H214.22C213.97 434.317 213.737 434.207 213.561 434.028C213.386 433.85 213.28 433.614 213.264 433.364L205.84 381.734H211.477L216.391 433.016C216.419 433.166 216.416 433.321 216.382 433.471C216.348 433.62 216.284 433.761 216.194 433.885C216.103 434.008 215.989 434.113 215.857 434.19C215.725 434.268 215.578 434.319 215.426 434.338Z" fill="black"/>
<path d="M235.447 320.544H197.513C190.786 297.155 166.601 278.724 141.756 278.724H129.435C103.473 278.724 86.7215 298.924 92.0105 323.85C93.0051 328.435 94.6286 332.86 96.8349 337.001L102.821 373.264C103.598 377.946 107.288 381.734 111.165 381.734H225.352C229.194 381.734 232.928 377.946 233.696 373.264L240.995 329.014C241.773 324.341 239.289 320.544 235.447 320.544Z" fill="#FFCC00"/>
<path opacity="0.5" d="M235.447 320.544H197.513C190.786 297.155 166.601 278.724 141.756 278.724H129.435C103.473 278.724 86.7215 298.924 92.0105 323.85C93.0051 328.435 94.6286 332.86 96.8349 337.001L102.821 373.264C103.598 377.946 107.288 381.734 111.165 381.734H225.352C229.194 381.734 232.928 377.946 233.696 373.264L240.995 329.014C241.773 324.341 239.289 320.544 235.447 320.544Z" fill="white"/>
<path d="M387.319 150.787H376.535V152.11H387.319V150.787Z" fill="#FFCC00"/>
<path d="M336.885 166.342H335.562V159.847C335.565 157.445 336.52 155.142 338.218 153.443C339.917 151.745 342.22 150.79 344.622 150.787H368.69V152.11H344.622C342.57 152.112 340.604 152.928 339.153 154.378C337.703 155.829 336.887 157.795 336.885 159.847V166.342Z" fill="#FFCC00"/>
<path d="M343.183 155.406H466.402C467.198 155.406 467.961 155.723 468.524 156.286C469.087 156.849 469.404 157.612 469.404 158.408V208.439C469.404 209.238 469.086 210.003 468.522 210.568C467.957 211.133 467.191 211.45 466.393 211.45H343.183C342.384 211.45 341.618 211.133 341.054 210.568C340.489 210.003 340.172 209.238 340.172 208.439V158.408C340.172 158.013 340.25 157.622 340.401 157.257C340.553 156.893 340.775 156.561 341.054 156.282C341.334 156.004 341.666 155.783 342.031 155.632C342.396 155.482 342.788 155.405 343.183 155.406Z" fill="#FFCC00"/>
<path d="M459.273 186.434H350.277C349.486 186.432 348.729 186.117 348.17 185.558C347.61 184.999 347.295 184.241 347.293 183.45C347.293 182.659 347.607 181.9 348.167 181.341C348.727 180.781 349.486 180.467 350.277 180.467H459.273C459.665 180.465 460.054 180.542 460.416 180.691C460.779 180.841 461.108 181.061 461.386 181.338C461.663 181.615 461.883 181.945 462.032 182.307C462.182 182.67 462.258 183.058 462.257 183.45C462.257 184.242 461.943 185.001 461.383 185.56C460.823 186.12 460.064 186.434 459.273 186.434Z" fill="white"/>
<path d="M435.954 198.826H350.312C349.521 198.824 348.764 198.509 348.205 197.949C347.646 197.39 347.33 196.633 347.328 195.842C347.328 195.051 347.642 194.292 348.202 193.732C348.762 193.172 349.521 192.858 350.312 192.858H435.954C436.347 192.857 436.735 192.933 437.098 193.083C437.46 193.232 437.79 193.452 438.067 193.729C438.344 194.007 438.564 194.336 438.714 194.699C438.863 195.061 438.94 195.45 438.938 195.842C438.938 196.634 438.624 197.392 438.064 197.952C437.505 198.512 436.746 198.826 435.954 198.826Z" fill="white"/>
<path d="M387.058 174.034H350.312C349.521 174.034 348.762 173.72 348.202 173.16C347.642 172.6 347.328 171.841 347.328 171.05C347.33 170.259 347.646 169.502 348.205 168.943C348.764 168.383 349.521 168.068 350.312 168.066H387.058C387.849 168.066 388.608 168.38 389.168 168.94C389.728 169.5 390.042 170.259 390.042 171.05C390.043 171.442 389.967 171.831 389.817 172.193C389.668 172.556 389.448 172.885 389.171 173.163C388.893 173.44 388.564 173.66 388.201 173.809C387.839 173.959 387.45 174.035 387.058 174.034Z" fill="white"/>
<path d="M435.765 174.034H399.019C398.228 174.034 397.469 173.72 396.909 173.16C396.35 172.6 396.035 171.841 396.035 171.05C396.038 170.259 396.353 169.502 396.912 168.943C397.471 168.383 398.228 168.068 399.019 168.066H435.765C436.556 168.066 437.315 168.38 437.875 168.94C438.435 169.5 438.749 170.259 438.749 171.05C438.75 171.442 438.674 171.831 438.524 172.193C438.375 172.556 438.155 172.885 437.878 173.163C437.6 173.44 437.271 173.66 436.908 173.809C436.546 173.959 436.157 174.035 435.765 174.034Z" fill="white"/>
<path d="M347.328 207.903V222.198C347.326 222.82 347.5 223.431 347.829 223.959C348.158 224.488 348.629 224.913 349.188 225.186C349.748 225.459 350.373 225.569 350.992 225.504C351.611 225.438 352.199 225.2 352.689 224.815L374.595 207.841L347.328 207.903Z" fill="#FFCC00"/>
<path d="M532.901 84.6036H412.541C411.357 84.6036 410.22 85.0743 409.383 85.912C408.545 86.7497 408.074 87.886 408.074 89.0707V136.243C408.074 137.427 408.545 138.564 409.383 139.401C410.22 140.239 411.357 140.71 412.541 140.71H507.609L524.861 154.013C525.35 154.401 525.938 154.642 526.558 154.71C527.179 154.777 527.806 154.668 528.366 154.394C528.927 154.12 529.399 153.693 529.727 153.162C530.055 152.632 530.227 152.019 530.221 151.395V140.674H532.901C534.086 140.674 535.222 140.203 536.06 139.366C536.898 138.528 537.368 137.392 537.368 136.207V89.0439C537.361 87.8638 536.888 86.7345 536.051 85.9025C535.214 85.0706 534.082 84.6036 532.901 84.6036Z" fill="white"/>
<path d="M526.86 155.371C525.98 155.371 525.125 155.079 524.43 154.54L507.383 141.344H412.539C411.187 141.342 409.89 140.804 408.934 139.847C407.978 138.891 407.44 137.595 407.438 136.243V89.0439C407.438 87.6909 407.975 86.3934 408.932 85.4367C409.888 84.48 411.186 83.9425 412.539 83.9425H532.899C534.252 83.9425 535.55 84.48 536.506 85.4367C537.463 86.3934 538 87.6909 538 89.0439V136.243C537.998 137.595 537.46 138.891 536.504 139.847C535.547 140.804 534.251 141.342 532.899 141.344H530.853V151.395C530.851 152.449 530.431 153.458 529.686 154.204C528.941 154.949 527.931 155.368 526.877 155.371H526.86ZM412.503 85.2648C411.501 85.2648 410.54 85.6629 409.831 86.3716C409.122 87.0804 408.724 88.0416 408.724 89.0439V136.243C408.724 137.245 409.122 138.206 409.831 138.915C410.54 139.624 411.501 140.022 412.503 140.022H507.83L525.243 153.494C525.638 153.786 526.105 153.963 526.594 154.007C527.084 154.051 527.575 153.959 528.016 153.743C528.457 153.526 528.829 153.193 529.093 152.778C529.357 152.364 529.503 151.886 529.513 151.395V140.022H532.899C533.901 140.019 534.86 139.621 535.569 138.912C536.277 138.204 536.676 137.244 536.678 136.243V89.0439C536.676 88.0423 536.277 87.0824 535.569 86.3742C534.86 85.666 533.901 85.2671 532.899 85.2648H412.503Z" fill="#FFCC00"/>
<path d="M470.136 115.623H527.189C527.585 115.629 527.978 115.556 528.345 115.409C528.712 115.261 529.047 115.042 529.328 114.765C529.61 114.487 529.834 114.156 529.987 113.791C530.14 113.426 530.218 113.034 530.218 112.639C530.216 111.848 529.901 111.091 529.342 110.531C528.782 109.972 528.025 109.657 527.234 109.655H470.136C469.346 109.657 468.588 109.972 468.029 110.531C467.47 111.091 467.155 111.848 467.152 112.639C467.152 113.43 467.467 114.189 468.026 114.749C468.586 115.308 469.345 115.623 470.136 115.623Z" fill="#FFCC00"/>
<path d="M430.308 115.623H458.549C458.941 115.624 459.33 115.548 459.692 115.398C460.055 115.249 460.384 115.029 460.662 114.751C460.939 114.474 461.159 114.145 461.308 113.782C461.458 113.42 461.534 113.031 461.533 112.639C461.533 111.847 461.219 111.088 460.659 110.529C460.099 109.969 459.34 109.655 458.549 109.655H430.308C429.517 109.655 428.758 109.969 428.198 110.529C427.639 111.088 427.324 111.847 427.324 112.639C427.323 113.031 427.399 113.42 427.549 113.782C427.699 114.145 427.918 114.474 428.196 114.751C428.473 115.029 428.802 115.249 429.165 115.398C429.527 115.548 429.916 115.624 430.308 115.623Z" fill="#FFCC00"/>
<path d="M440.581 128.014H528.153C529.268 128.014 530.172 127.11 530.172 125.995V124.066C530.172 122.95 529.268 122.046 528.153 122.046L440.581 122.046C439.466 122.046 438.562 122.95 438.562 124.066V125.995C438.562 127.11 439.466 128.014 440.581 128.014Z" fill="#FFCC00"/>
<path d="M418.229 103.231H527.225C527.618 103.232 528.007 103.156 528.37 103.007C528.733 102.857 529.063 102.638 529.341 102.36C529.619 102.083 529.839 101.754 529.99 101.391C530.14 101.029 530.218 100.64 530.218 100.247C530.216 99.4566 529.9 98.6989 529.341 98.1398C528.782 97.5807 528.025 97.2656 527.234 97.2632H418.238C417.846 97.2632 417.458 97.3404 417.096 97.4904C416.734 97.6403 416.405 97.8601 416.128 98.1372C415.851 98.4143 415.631 98.7433 415.481 99.1053C415.331 99.4673 415.254 99.8554 415.254 100.247C415.253 100.639 415.329 101.027 415.478 101.388C415.627 101.75 415.846 102.079 416.122 102.357C416.398 102.634 416.727 102.854 417.088 103.004C417.45 103.154 417.838 103.231 418.229 103.231Z" fill="#FFCC00"/>
</svg>
