<svg width="195" height="50" viewBox="0 0 195 50" fill="none" xmlns="http://www.w3.org/2000/svg">
<path d="M137.343 26.3326V29.5335H129.1V34.6039H135.416V37.7482H129.1V46.1045H125.134V26.3326H137.343Z" fill="black"/>
<path d="M152.278 42.3371H144.404L143.101 46.1045H138.937L146.047 26.3043H150.664L157.774 46.1045H153.581L152.278 42.3371ZM151.202 39.1645L148.341 30.8932L145.48 39.1645H151.202Z" fill="black"/>
<path d="M175.161 49.5887L172.159 45.9912C171.328 46.199 170.478 46.3028 169.609 46.3028C167.759 46.3028 166.059 45.8685 164.51 44.9998C162.962 44.1311 161.734 42.932 160.828 41.4023C159.921 39.8538 159.468 38.107 159.468 36.1619C159.468 34.2357 159.921 32.5078 160.828 30.9781C161.734 29.4296 162.962 28.221 164.51 27.3523C166.059 26.4837 167.759 26.0493 169.609 26.0493C171.479 26.0493 173.178 26.4837 174.708 27.3523C176.257 28.221 177.475 29.4296 178.362 30.9781C179.269 32.5078 179.722 34.2357 179.722 36.1619C179.722 37.9182 179.344 39.5233 178.589 40.9774C177.852 42.4126 176.842 43.5835 175.558 44.4899L180.09 49.5887H175.161ZM163.547 36.1619C163.547 37.4838 163.802 38.6452 164.312 39.6461C164.822 40.647 165.53 41.4212 166.437 41.9689C167.362 42.4976 168.419 42.762 169.609 42.762C170.799 42.762 171.847 42.4976 172.753 41.9689C173.66 41.4212 174.368 40.647 174.878 39.6461C175.388 38.6452 175.643 37.4838 175.643 36.1619C175.643 34.84 175.388 33.6881 174.878 32.7061C174.368 31.7052 173.66 30.9404 172.753 30.4116C171.847 29.8828 170.799 29.6185 169.609 29.6185C168.419 29.6185 167.362 29.8828 166.437 30.4116C165.53 30.9404 164.822 31.7052 164.312 32.7061C163.802 33.6881 163.547 34.84 163.547 36.1619Z" fill="black"/>
<path d="M188.733 46.3595C187.449 46.3595 186.297 46.1329 185.277 45.6796C184.257 45.2075 183.445 44.5749 182.841 43.7818C182.255 42.9886 181.934 42.1105 181.878 41.1474H185.872C185.947 41.7517 186.24 42.2521 186.75 42.6487C187.279 43.0453 187.93 43.2436 188.704 43.2436C189.46 43.2436 190.045 43.0925 190.461 42.7903C190.895 42.4882 191.112 42.1011 191.112 41.6289C191.112 41.1191 190.848 40.7414 190.319 40.4959C189.809 40.2315 188.988 39.9482 187.855 39.6461C186.684 39.3628 185.721 39.0701 184.965 38.768C184.229 38.4658 183.587 38.0031 183.039 37.38C182.51 36.7568 182.246 35.9164 182.246 34.8589C182.246 33.9902 182.491 33.1971 182.982 32.4795C183.492 31.7618 184.21 31.1953 185.135 30.7799C186.079 30.3644 187.184 30.1567 188.449 30.1567C190.319 30.1567 191.811 30.6288 192.925 31.573C194.039 32.4983 194.653 33.7541 194.766 35.3404H190.971C190.914 34.7173 190.65 34.2263 190.177 33.8675C189.724 33.4898 189.11 33.3009 188.336 33.3009C187.619 33.3009 187.061 33.4331 186.665 33.6975C186.287 33.9619 186.098 34.3301 186.098 34.8022C186.098 35.331 186.363 35.737 186.892 36.0203C187.42 36.2847 188.242 36.5585 189.356 36.8417C190.489 37.125 191.424 37.4177 192.16 37.7199C192.897 38.022 193.529 38.4941 194.058 39.1362C194.606 39.7594 194.889 40.5903 194.908 41.6289C194.908 42.5354 194.653 43.3474 194.143 44.065C193.652 44.7826 192.935 45.3492 191.99 45.7646C191.065 46.1612 189.979 46.3595 188.733 46.3595Z" fill="black"/>
<path fill-rule="evenodd" clip-rule="evenodd" d="M8.47955 4.99838C12.4638 2.30551 17.4971 1.21908 22.3367 1.29885C22.4557 1.3007 22.5748 1.30318 22.6938 1.30625C23.4 0.38123 24.4747 -0.185595 25.8156 0.0555917C26.2894 0.139493 26.4672 0.658272 26.3491 1.06358C34.3103 0.287549 42.3875 0.71729 50.2264 2.30843C53.1236 2.55562 56.0097 2.94717 58.873 3.48096C59.3956 3.57538 59.5699 4.22055 59.3481 4.63495C59.3344 4.66032 59.3205 4.68545 59.3062 4.71033C62.3471 5.70977 65.3254 6.89345 68.2165 8.25637C69.5415 7.21183 70.8667 6.16729 72.192 5.12276C72.5774 4.81851 73.1687 4.79231 73.4379 5.28015C74.404 7.02524 74.2386 8.87855 73.6481 10.6491L73.6913 10.6621C74.8509 11.0151 75.9367 11.6653 76.8339 12.5125C77.0333 12.5645 77.1868 12.6719 77.2928 12.807L77.3866 12.8286C79.6513 13.3531 81.7788 14.3339 83.2938 16.1332C83.4348 16.3007 83.5706 16.4715 83.7019 16.6451C84.4676 15.7778 85.2211 14.8988 85.9737 14.0208L85.9745 14.0199L85.9752 14.0191C86.6168 13.2706 87.2577 12.523 87.9049 11.784L88.9436 10.5959L88.8685 10.4786C88.4462 9.82288 89.2909 8.97832 89.9508 9.40321L89.9738 9.418L91.7352 7.40468L91.7456 7.29974C91.7882 6.88402 92.1376 6.5966 92.4969 6.53397C93.3366 5.57414 94.1763 4.61411 95.0159 3.65342C95.4382 3.17083 96.1561 3.48552 96.3408 3.99959C97.3914 6.94234 98.3153 9.9271 99.1072 12.9485C101.879 23.5078 103.051 34.4815 102.586 45.3817C102.56 45.9378 102.1 46.2264 101.583 46.1424C100.135 45.911 98.6852 45.6905 97.2343 45.4819C96.9567 45.888 96.3617 46.0036 95.9953 45.6291C95.8765 45.5072 95.7597 45.3836 95.6451 45.2583C94.3036 45.0737 92.9607 44.8996 91.6161 44.7365C90.1755 44.5624 88.7336 44.4005 87.2903 44.2508C84.6077 44.4519 81.8943 44.2219 79.2782 43.5468C74.7797 43.2224 70.2729 43.0162 65.7634 42.9276C65.4873 43.1781 65.1355 43.1815 64.8662 43.0328C64.5719 43.5313 64.2862 44.0349 64.0095 44.5432C63.5871 45.3143 62.2304 44.7687 62.563 43.9346C62.5879 43.8723 62.6129 43.8101 62.6381 43.7478L62.6211 43.7406L62.6981 43.5999C62.7951 43.3619 62.8938 43.1246 62.9942 42.888C60.7187 42.8676 58.4428 42.877 56.1673 42.9164C55.2171 42.9321 55.1642 41.6627 55.9561 41.3689L58.7068 40.3448C60.2272 37.8473 61.8843 35.438 63.6749 33.1236C65.3874 30.9125 67.2063 28.7894 69.1397 26.7705C67.1012 25.6803 65.0253 24.6601 62.9272 23.6849C61.3469 23.3654 59.7422 23.1439 58.1392 22.9739C57.854 23.0085 57.5568 23.0164 57.2471 22.9944C56.8709 22.9683 56.5152 22.8976 56.1814 22.7885C55.9283 22.767 55.6755 22.7463 55.423 22.7262C50.8883 22.3643 46.3378 22.06 41.7925 21.9446C37.2453 21.8314 32.6256 21.9551 28.114 22.6326C27.9028 22.7801 27.6687 22.907 27.4099 23.0102C26.7035 23.2905 25.9616 23.3015 25.2385 23.1459C23.4242 23.5239 21.6342 24.0048 19.8807 24.6102C20.7235 25.8612 21.5229 27.1415 22.2766 28.4485C22.5247 28.8839 22.2976 29.4713 21.8014 29.6025C20.8617 29.8543 19.9274 29.6024 19.2464 28.9153C18.6765 28.3364 19.278 27.5092 19.9063 27.5713C19.4047 26.7606 18.8851 25.9617 18.348 25.1752C17.4733 25.5189 16.6089 25.8959 15.7562 26.309C14.8429 26.7548 14.0405 25.3962 14.9643 24.9608C15.7763 24.567 16.5992 24.2036 17.4317 23.8687C15.3308 20.9517 12.9852 18.2151 10.4233 15.6882C9.51116 14.8914 8.62492 14.0651 7.76648 13.2112C7.00592 12.5411 6.22899 11.8883 5.43634 11.2535C5.1533 11.0282 5.1132 10.7433 5.21465 10.4977C4.99849 10.2519 4.78451 10.0042 4.57274 9.75462C4.36686 9.50808 4.22961 9.09365 4.45133 8.7999C4.66326 8.51912 4.88275 8.24718 5.10939 7.9839C3.78886 8.53996 2.48487 9.13709 1.19983 9.77553C0.291834 10.2319 -0.510586 8.87325 0.402689 8.41689C3.02282 7.11514 5.72137 5.9743 8.47955 4.99838ZM68.289 33.4189C69.2568 32.061 70.2917 30.7517 71.3884 29.4956L69.6755 30.8505C69.0641 31.8509 68.4132 32.8269 67.7245 33.7756C67.9101 33.6534 68.0987 33.535 68.289 33.4189ZM65.2455 36.8853C64.7821 37.4156 64.3057 37.935 63.8168 38.4428L64.8764 38.0485C65.0151 37.9511 65.1536 37.8533 65.2918 37.7552C65.2642 37.6335 65.2451 37.508 65.2353 37.379C65.2227 37.2112 65.2267 37.0464 65.2455 36.8853ZM71.2744 41.2848C70.9553 41.3535 70.6355 41.4195 70.3151 41.4828C71.0812 41.5116 71.8471 41.5438 72.6127 41.5794C72.1651 41.4889 71.7188 41.3907 71.2744 41.2848ZM83.8206 42.3455C84.4154 42.3991 85.01 42.4548 85.6045 42.5125C85.574 42.4094 85.544 42.3062 85.5146 42.2028C84.951 42.2615 84.3862 42.3091 83.8206 42.3455ZM89.0427 41.6868C88.8281 41.9846 88.606 42.2775 88.3764 42.5652C89.9615 42.3678 91.527 42.0071 93.0422 41.4821C92.9318 41.2633 92.8261 41.0423 92.7253 40.8192C91.512 41.1631 90.2828 41.4524 89.0427 41.6868ZM96.5054 32.6418C96.8373 33.5857 97.1793 34.526 97.5315 35.4625C97.6647 35.2582 97.8105 35.0599 97.9685 34.8686C97.4818 32.6421 97.2618 30.3595 97.3139 28.071C97.2157 28.1022 97.1106 28.1129 97.006 28.1049C96.8879 28.822 96.7358 29.5342 96.5507 30.2399C96.4928 30.4608 96.38 30.6113 96.2407 30.7014C96.2737 31.1135 96.308 31.5254 96.3437 31.9372C96.4085 32.1686 96.4627 32.4034 96.5054 32.6418ZM98.41 24.2078C98.7385 24.2327 99.0506 24.4204 99.1047 24.7675C99.3797 26.5495 99.6005 28.3378 99.7661 30.1302C100.176 31.4507 100.554 32.7812 100.898 34.1204C100.545 28.3443 99.7217 22.603 98.447 16.9608C98.4636 17.5751 98.4665 18.1899 98.4555 18.8049C98.6325 20.6086 98.6191 22.4161 98.41 24.2078ZM90.8906 27.104C90.8653 27.2782 90.8349 27.452 90.799 27.6254C90.9201 27.701 91.0354 27.7821 91.1447 27.868C91.0692 27.6136 90.9871 27.3611 90.8984 27.1109C90.8958 27.1086 90.8932 27.1063 90.8906 27.104ZM94.6805 35.808L94.5017 35.3948C94.5103 35.6442 94.5178 35.8937 94.5244 36.1432C94.5812 36.0355 94.6334 35.9237 94.6805 35.808ZM90.347 35.9197C90.3511 35.9087 90.3552 35.8976 90.3594 35.8866C90.2634 35.2941 90.1599 34.7027 90.049 34.1127C90.0362 34.1151 90.0234 34.1175 90.0106 34.1198C89.9995 34.1217 89.9883 34.1236 89.9772 34.1255C89.7485 34.1624 89.5257 34.1535 89.3107 34.1087C89.0622 34.2676 88.8102 34.421 88.555 34.5689L88.5928 34.6375C88.8809 34.9983 89.1726 35.3564 89.4681 35.7115C89.761 35.7809 90.0539 35.8503 90.347 35.9197ZM86.1676 37.705C86.2495 38.2804 86.3478 38.8539 86.4623 39.4248C86.6995 39.3273 86.9367 39.229 87.1739 39.1307L87.1753 39.1301C87.437 39.0217 87.6989 38.9131 87.961 38.8055C87.4265 38.5459 86.9112 38.237 86.4274 37.8945C86.336 37.8576 86.253 37.7996 86.1852 37.7182C86.1793 37.7138 86.1734 37.7094 86.1676 37.705ZM82.3492 40.8401C83.0255 40.6877 83.6899 40.4891 84.3318 40.2575C84.5465 40.18 84.7608 40.1002 84.9748 40.0184C84.7462 38.9299 84.5743 37.8306 84.4593 36.7257C84.4353 36.7451 84.4103 36.7624 84.3846 36.7772C84.2199 37.3733 84.0393 37.9654 83.8429 38.5527C83.5663 39.377 82.4709 39.2355 82.3035 38.4633L81.5703 39.6333C81.3143 40.0419 81.0583 40.4504 80.8019 40.8594C81.3179 40.8626 81.8338 40.8561 82.3492 40.8401ZM77.2743 40.688L77.5521 40.4343C77.5227 40.3627 77.5021 40.2859 77.4922 40.2051C77.4681 40.0041 77.4495 39.803 77.4364 39.6018C76.7579 39.8277 76.0753 40.0411 75.3891 40.2419C75.6245 40.3617 75.8636 40.4687 76.1056 40.5636C76.4944 40.6109 76.884 40.6524 77.2743 40.688ZM70.4702 39.4607C70.9273 39.3536 71.3837 39.2433 71.8392 39.1297C71.5289 38.6067 71.2994 38.0251 71.1726 37.3838L69.6753 37.941C69.3795 38.2818 69.0876 38.6261 68.7996 38.9736C69.1247 39.0859 69.4569 39.1786 69.7788 39.2685C69.8468 39.2875 69.9143 39.3064 69.9812 39.3253C70.1439 39.3714 70.3069 39.4165 70.4702 39.4607ZM76.6922 20.0792C76.7048 20.0653 76.7173 20.0513 76.7297 20.0373L76.6034 20.0036C76.633 20.0288 76.6626 20.054 76.6922 20.0792ZM73.605 17.4525C73.5838 17.3671 73.5605 17.282 73.535 17.1975L72.8414 16.8034C73.096 17.0198 73.3505 17.2361 73.605 17.4525ZM72.3197 16.5071L71.6159 16.1072L71.5935 16.1267C71.7345 16.2539 71.8751 16.3816 72.0153 16.5098C72.1135 16.4902 72.2166 16.4882 72.3197 16.5071ZM61.9806 16.2863C62.0554 16.0187 62.122 15.758 62.1817 15.5096C62.0223 15.4851 61.8631 15.4589 61.7042 15.4309C61.3354 15.7216 60.9667 16.0123 60.5981 16.303C61.0591 16.2862 61.52 16.2807 61.9806 16.2863ZM70.6385 24.4047C70.3382 24.1788 70.0375 23.9535 69.7365 23.7286C69.9457 23.7433 70.1551 23.7483 70.3634 23.743C70.402 23.7775 70.4413 23.8112 70.4816 23.8442C70.6017 23.9429 70.7233 24.0314 70.8462 24.1103C70.7762 24.2079 70.7069 24.3061 70.6385 24.4047ZM73.855 24.539C73.8165 24.8821 73.7825 25.2256 73.753 25.5694L73.1406 26.054C72.9201 25.9074 72.6969 25.7648 72.4713 25.6264C72.8321 25.279 73.1964 24.9351 73.564 24.5946C73.6609 24.5785 73.758 24.5599 73.855 24.539ZM65.5292 18.1387C66.3985 18.262 67.2617 18.4256 68.1154 18.6284L68.15 18.7485C67.8501 18.6717 67.5497 18.5973 67.2488 18.5252C66.6769 18.3881 66.1036 18.2593 65.5292 18.1387ZM70.4077 19.2745C71.0009 19.4685 71.5877 19.6818 72.1671 19.914C72.1772 19.9223 72.1873 19.9307 72.1974 19.9391C71.6139 19.7442 71.0273 19.5588 70.438 19.3826C70.4272 19.3471 70.4171 19.3111 70.4077 19.2745ZM62.0669 20.1107C62.0191 20.1869 61.9702 20.2625 61.9204 20.3371C62.3411 20.6679 62.8146 20.9433 63.3496 21.148C63.4618 21.1909 63.5763 21.2306 63.6926 21.2668C63.1519 20.8797 62.6101 20.4943 62.0669 20.1107ZM59.7187 20.5348C59.5393 20.4562 59.3598 20.3778 59.1803 20.2996C58.3941 19.9569 57.6059 19.6177 56.8163 19.2809C57.1196 19.0618 57.4158 18.8328 57.7054 18.6029C58.0396 18.6347 58.3736 18.6687 58.7073 18.7051C59.0302 19.322 59.4016 19.9043 59.8321 20.4316C59.7948 20.4667 59.757 20.5011 59.7187 20.5348ZM55.274 20.3126C56.0997 20.6627 56.9247 21.0151 57.7483 21.3711C57.3437 21.3291 56.9387 21.2886 56.5334 21.2498C56.0392 21.0613 55.6157 20.7303 55.274 20.3126ZM55.0325 18.5248C55.0144 18.5172 54.9963 18.5095 54.9783 18.5019C55.0078 18.4678 55.037 18.4334 55.0659 18.3988L55.223 18.4083C55.1603 18.4477 55.0967 18.4866 55.0325 18.5248ZM57.6279 10.9143L57.6912 10.9147C57.7506 11.0439 57.8128 11.1707 57.8776 11.2952C57.8021 11.1637 57.7186 11.0366 57.6279 10.9143ZM44.2409 7.67199C44.5206 7.69319 44.8001 7.71564 45.0796 7.73935C44.7391 7.44572 44.3808 7.17114 44.0087 6.91765C44.0714 7.13439 44.1304 7.35223 44.1857 7.57113C44.2044 7.60451 44.2228 7.63813 44.2409 7.67199ZM33.3118 6.40802C32.9678 6.62791 32.6502 6.88394 32.3899 7.18099C32.3379 7.14607 32.2857 7.11144 32.2332 7.07711C32.8651 6.5308 33.5565 6.08961 34.288 5.75383L34.2434 5.87142C33.9249 6.03924 33.6127 6.21623 33.3118 6.40802ZM30.6136 3.83616C30.4148 3.95519 30.2186 4.07921 30.0248 4.20781L29.9893 4.12616L29.9797 4.13173L29.9681 4.11041C29.4772 3.19769 28.205 4.00026 28.601 4.9025C28.6399 4.99126 28.6777 5.08038 28.7141 5.16984C28.6686 5.20638 28.6233 5.24313 28.578 5.28011C27.2641 4.82602 25.8868 4.53886 24.4785 4.44278C24.7668 3.97902 25.0415 3.50769 25.3057 3.03591C27.0865 3.20887 28.856 3.49418 30.6136 3.83616ZM21.8409 5.07883C21.6256 5.04382 21.4093 5.01153 21.1925 4.98398C21.1185 4.90703 21.0435 4.8309 20.9675 4.75561C20.5776 4.36823 20.036 4.50695 19.757 4.89267C18.9958 4.90412 18.2444 5.02998 17.5275 5.35891C17.3932 5.42036 17.2684 5.48772 17.1527 5.56042C16.576 5.56077 15.9996 5.59885 15.428 5.67464C14.9292 5.46503 14.4166 5.28784 13.8945 5.1448C13.9057 5.07566 13.9173 5.00656 13.9293 4.9375C16.5346 4.22297 19.1801 3.65258 21.8497 3.22463C21.7282 3.83856 21.7205 4.47716 21.8409 5.07883ZM6.1573 9.15643C6.44729 8.80123 6.75255 8.46303 7.07166 8.14136C7.17072 8.62708 7.36693 9.11109 7.61556 9.57573C7.49705 9.85544 7.39295 10.1419 7.30185 10.4309C6.91392 10.0123 6.53235 9.58744 6.1573 9.15643ZM8.6508 11.3493C8.6653 11.2928 8.68029 11.2363 8.69581 11.1798C8.75336 11.2522 8.8108 11.3231 8.86785 11.3925C8.79543 11.3787 8.72307 11.3643 8.6508 11.3493ZM10.0617 13.1551C10.2222 13.1697 10.3827 13.1817 10.5433 13.1912C11.5443 14.1364 12.6478 14.9748 13.825 15.6906C14.0112 16.0943 14.2124 16.4918 14.4284 16.882C13.3412 16.0589 12.2851 15.1957 11.2625 14.2942C10.8672 13.9095 10.4669 13.5298 10.0617 13.1551ZM18.6087 15.3196C18.3342 14.8706 18.0791 14.4101 17.8437 13.9398L17.8457 13.93C18.1231 14.218 18.4226 14.4849 18.7396 14.7274C18.8434 14.8067 18.9492 14.8833 19.0568 14.957C18.909 15.08 18.7597 15.2009 18.6087 15.3196ZM21.2576 15.9654C21.0369 15.9091 20.819 15.841 20.6048 15.7618C20.2506 16.0742 19.8885 16.3768 19.5169 16.6667C19.7171 16.9367 19.9251 17.2014 20.1406 17.4603C20.7767 18.225 21.4759 18.9642 22.2336 19.6282C23.0353 19.4899 23.8372 19.3531 24.6396 19.2186C24.1456 18.8225 23.6808 18.3769 23.2285 17.9433C23.1402 17.8587 23.0523 17.7745 22.9649 17.6912C22.3759 17.1357 21.8081 16.5591 21.2576 15.9654ZM18.7416 18.1895C19.2323 18.8127 19.761 19.4035 20.3238 19.9604L19.9032 20.0342C19.4391 19.7434 19.0252 19.3823 18.6995 18.9711C18.4041 18.5984 18.1609 18.1902 17.9675 17.7583C18.0681 17.6951 18.168 17.6309 18.2671 17.5656C18.4213 17.7763 18.5795 17.9843 18.7416 18.1895ZM16.9519 20.6012C17.2091 20.7667 17.4677 20.9302 17.7276 21.0915C17.7673 21.5396 18.1493 21.9894 18.7186 21.8877L18.974 21.8427C19.1844 21.9657 19.3955 22.0873 19.6075 22.2076C19.7235 22.2736 19.8434 22.3496 19.9665 22.4276C20.1493 22.5435 20.3391 22.6638 20.5338 22.7626C20.0079 22.9274 19.4851 23.1022 18.9656 23.2873C18.3176 22.3749 17.6461 21.4792 16.9519 20.6012ZM26.2438 20.6637C26.3245 20.6269 26.4052 20.5903 26.486 20.5538C26.9475 20.4782 27.4091 20.4035 27.871 20.3299C27.749 20.6323 27.5837 20.9074 27.3623 21.1375C27.3496 21.1508 27.3368 21.1638 27.3238 21.1766C26.6515 21.2856 25.9818 21.407 25.3154 21.5415L25.3061 21.5388C25.6472 21.3011 25.9628 21.0106 26.2438 20.6637ZM29.4311 20.8753C29.532 20.6119 29.612 20.335 29.6737 20.0485C29.9109 20.0123 30.148 19.9764 30.3852 19.9409C30.3368 20.2201 30.29 20.4997 30.2448 20.7796C30.0907 20.7967 29.9367 20.8144 29.7827 20.8326C29.6654 20.8465 29.5482 20.8607 29.4311 20.8753ZM35.8843 19.9094C36.2941 19.6376 36.694 19.3507 37.0859 19.0515C37.8914 18.9603 38.6975 18.8754 39.5042 18.7976C38.4741 19.5348 37.257 19.9711 35.8843 19.9094ZM47.6656 18.95C48.0002 18.7551 48.2932 18.5252 48.5478 18.2671C49.1705 18.2569 49.7935 18.2526 50.4169 18.2547C50.3928 18.5969 50.3724 18.9388 50.3579 19.2805C50.3571 19.301 50.3566 19.3211 50.3564 19.341C49.4168 19.4803 48.465 19.3571 47.6656 18.95ZM52.1249 16.6597C52.3491 16.6648 52.5732 16.6708 52.7973 16.6776C52.8224 16.4815 52.8574 16.2874 52.9025 16.0965C52.9441 15.9192 52.9937 15.7466 53.0508 15.5788C52.7725 15.5082 52.4969 15.4281 52.2265 15.342L52.1249 16.6597ZM56.0267 16.8388C56.1801 16.8496 56.3334 16.8607 56.4868 16.8724C56.3581 16.8003 56.2301 16.7271 56.1031 16.6525C56.0786 16.715 56.0532 16.7771 56.0267 16.8388ZM62.2204 37.7675C63.8506 35.3742 65.614 33.0717 67.5054 30.874C67.487 31.0049 67.5025 31.1225 67.5434 31.2247C65.9918 33.5718 64.2068 35.7651 62.2204 37.7675ZM88.6795 31.763C88.7539 31.6795 88.8268 31.5947 88.8982 31.5086L88.9939 31.6C88.8938 31.6606 88.7933 31.7206 88.6926 31.7801L88.6795 31.763ZM79.8345 35.2954L79.8157 35.3407C79.7493 35.3563 79.6829 35.3716 79.6163 35.3867C79.6476 35.3005 79.68 35.2146 79.7136 35.1292L79.7632 35.1548C79.7854 35.2025 79.8092 35.2494 79.8345 35.2954ZM77.1494 35.7962L77.1317 35.8492L77.0587 35.8598L77.1494 35.7962ZM74.1644 37.6678C73.836 37.8504 73.5044 38.0274 73.1696 38.1988C73.2666 38.3744 73.3751 38.5421 73.4943 38.7021C74.834 38.3437 76.1661 37.9573 77.4897 37.5433C77.4977 37.4744 77.5064 37.4057 77.5156 37.337C76.406 37.5036 75.2873 37.6143 74.1644 37.6678ZM94.5512 39.5788C94.5549 39.2316 94.5567 38.8846 94.5565 38.5375C94.979 38.4939 95.4053 38.4724 95.8358 38.477L96.6499 40.3573C96.8651 40.8562 97.3443 40.854 97.6946 40.6116C97.3963 41.6986 96.9679 42.7522 96.4125 43.7525C96.0155 43.285 95.6487 42.7944 95.3131 42.2845C95.5794 42.1697 95.8437 42.0501 96.1061 41.9257C96.6762 41.6581 96.5654 40.8608 96.1061 40.567C95.5898 40.2344 95.0715 39.905 94.5512 39.5788ZM95.6676 14.9479C95.6603 15.0627 95.6527 15.1774 95.6448 15.2921C95.6451 15.1728 95.6455 15.0534 95.646 14.9341L95.6676 14.9479ZM95.7546 13.1261L95.6635 13.0677C95.6681 12.751 95.6734 12.4344 95.6796 12.1178C95.7126 12.1418 95.7452 12.1664 95.7774 12.1915C95.7723 12.5032 95.7647 12.8147 95.7546 13.1261ZM95.7794 10.3701C95.7604 10.361 95.7414 10.352 95.7224 10.3431C95.7323 10.0005 95.7431 9.65797 95.7549 9.31543C95.7662 9.66704 95.7743 10.0186 95.7794 10.3701ZM95.9735 7.86627C95.8914 7.93303 95.824 8.01708 95.7793 8.11752C95.6786 7.61456 95.0601 7.38325 94.5996 7.61441C94.2219 7.80897 93.8658 8.02543 93.5295 8.26124C93.5031 8.11961 93.4764 7.97804 93.4493 7.83653C94.0577 7.14114 94.666 6.44567 95.2743 5.74993C95.5146 6.45308 95.7477 7.15857 95.9735 7.86627ZM94.1451 9.90467C94.079 9.89797 94.0129 9.89265 93.9468 9.88867C94.0138 9.83335 94.0818 9.77899 94.1507 9.7256L94.1451 9.90467ZM91.3778 10.3186L91.4232 10.2614L91.4395 10.1339L91.3138 10.2776L91.3778 10.3186ZM89.0699 14.4321C89.1477 14.2433 89.2277 14.0553 89.31 13.8685C89.2585 13.9293 89.2082 13.9901 89.1589 14.0507C88.9037 14.3643 88.6584 14.6928 88.4259 15.0337C88.6201 14.8216 88.8335 14.6204 89.0699 14.4321ZM54.3484 10.8968C54.3659 10.939 54.3831 10.9813 54.3999 11.0239C54.3064 10.9809 54.2127 10.9381 54.1189 10.8956L54.3484 10.8968ZM50.3575 11.1195C50.0171 11.0265 49.6735 10.9494 49.3269 10.8929C49.3583 10.9722 49.3889 11.0526 49.4184 11.1342C49.7398 11.1422 50.0611 11.1518 50.3824 11.1629L50.3575 11.1195ZM47.5492 10.8241L47.5292 10.8263C47.4421 10.9163 47.3573 11.0085 47.2749 11.1029C47.4122 11.1035 47.5496 11.1044 47.6869 11.1055L47.6708 11.0713C47.6316 10.9883 47.5911 10.9059 47.5492 10.8241ZM40.9612 12.8078C41.3387 12.7251 41.6763 12.5691 41.9902 12.3699C42.1984 12.1665 42.4071 11.964 42.6168 11.7629C42.4939 11.7007 42.3835 11.5952 42.3001 11.4384L41.4512 9.84793C40.8372 9.8263 40.2231 9.80627 39.609 9.78782C39.5984 10.1597 39.5879 10.5316 39.5776 10.9035L39.5867 10.9716H39.5755C39.5599 11.3251 39.3825 11.5484 39.1515 11.6497C39.2002 11.6865 39.2492 11.7227 39.2983 11.7585C39.8205 12.1381 40.3778 12.4916 40.9612 12.8078ZM15.0826 14.6042C14.9961 14.4034 14.9135 14.201 14.8348 13.9972C15.0224 14.0052 15.2137 14.004 15.4086 13.9931C15.5913 13.983 15.7738 13.9647 15.9552 13.9385C15.9215 14.2451 15.9029 14.5539 15.8997 14.863C15.8783 14.9131 15.8562 14.9628 15.8335 15.0122C15.5799 14.8816 15.3295 14.7456 15.0826 14.6042ZM23.4592 14.5071C23.0923 14.5816 22.7217 14.5984 22.3551 14.5666C22.3647 14.47 22.3557 14.3641 22.3241 14.2501C22.3148 14.2167 22.3054 14.1834 22.2959 14.1501C22.8595 13.5766 23.4064 12.988 23.9431 12.3984C24.043 12.4883 24.1411 12.5809 24.2372 12.6764C24.5534 12.9906 24.8301 13.3493 25.0625 13.7384C24.6107 14.1141 24.0706 14.3821 23.4592 14.5071ZM22.6227 11.4213C22.3062 11.7721 21.9898 12.118 21.6723 12.4559C21.4124 11.8819 21.1102 11.3287 20.7699 10.8C20.7468 10.6987 20.7254 10.5971 20.7058 10.4951C21.3745 10.7502 22.0189 11.0534 22.6227 11.4213ZM25.736 18.0921C25.9766 17.1747 25.9503 16.1867 25.7023 15.2581C25.1622 15.6277 24.5518 15.8964 23.8972 16.0336C23.784 16.0575 23.6706 16.0779 23.5573 16.0946C24.1039 16.6298 24.6641 17.1483 25.2349 17.6492C25.2838 17.6925 25.334 17.7378 25.3855 17.7842C25.4966 17.8845 25.6137 17.9902 25.736 18.0921ZM30.4322 16.7772C30.5338 16.3322 30.5862 15.8771 30.5911 15.421C30.817 15.4815 31.0442 15.5375 31.2725 15.589C31.1619 16.06 31.0559 16.5322 30.9543 17.0055C30.8626 17.04 30.771 17.0747 30.6794 17.1095C30.5937 17.0009 30.5112 16.8901 30.4322 16.7772ZM30.387 13.7077C30.8031 13.8396 31.2246 13.9542 31.6504 14.051C31.8509 13.27 32.0638 12.4923 32.2889 11.718C31.9141 11.0233 31.5395 10.3286 31.1651 9.63389L31.135 9.6337C31.1317 9.84823 31.1229 10.0634 31.1085 10.2792C31.061 10.9821 30.2902 11.2864 29.757 10.8353L29.6767 10.7674C29.5883 11.017 29.5128 11.2705 29.4513 11.5269C29.7577 12.0293 30.0128 12.5608 30.2078 13.1117C30.2767 13.3077 30.3364 13.5066 30.387 13.7077ZM32.6912 16.3728C32.7298 16.203 32.7691 16.0333 32.8089 15.8637C33.1574 15.9101 33.5076 15.9459 33.8587 15.9709C33.4685 16.1021 33.0794 16.2361 32.6912 16.3728ZM33.1883 14.3201C33.7361 14.3876 34.288 14.4255 34.8414 14.4325C34.4149 13.9815 34.0137 13.5067 33.6409 13.0118C33.6043 13.0225 33.5672 13.0308 33.53 13.0365C33.4123 13.4634 33.2984 13.8913 33.1883 14.3201ZM37.3305 9.72664L37.7274 9.73625C37.8083 10.0011 37.8751 10.2706 37.9268 10.5446C37.6921 10.2871 37.4758 10.0142 37.2846 9.72632L37.3305 9.72664ZM37.9594 5.76751L38.1464 5.96051L38.1205 6.85926C38.0439 6.74079 37.9642 6.62358 37.8814 6.50767C37.7254 6.28999 37.4619 6.13503 37.1966 6.11794C37.4488 5.99818 37.7031 5.88109 37.9594 5.76751ZM21.3431 9.0594C21.4918 9.02211 21.6436 8.99195 21.7983 8.96932C21.7648 9.04513 21.7442 9.12785 21.7355 9.21314C21.6056 9.16021 21.4748 9.10899 21.3431 9.0594ZM28.204 9.92386C28.2487 9.82826 28.2959 9.73397 28.3455 9.64104L28.431 9.7134C28.3872 9.818 28.3452 9.92326 28.3052 10.0291C28.2717 9.99376 28.238 9.95868 28.204 9.92386ZM25.3764 10.7971C25.5642 11.0114 25.7441 11.2332 25.9157 11.462C25.6866 11.2969 25.462 11.1255 25.2422 10.9481L25.3764 10.7971ZM36.0516 13.4532C35.5138 12.8935 35.0194 12.2925 34.5782 11.6573L34.7094 11.3372C35.187 11.9132 35.6198 12.5256 36.0006 13.1697C36.0209 13.2637 36.038 13.3583 36.0516 13.4532ZM39.2333 14.3551C38.966 14.4262 38.6991 14.4986 38.4326 14.5722C38.3601 14.3918 38.2843 14.213 38.2053 14.0359C38.5237 14.1762 38.8668 14.2844 39.2333 14.3551ZM46.175 12.8042C46.2699 12.595 46.3759 12.3902 46.4922 12.1909C46.5316 12.2849 46.5967 12.372 46.6923 12.4457C46.7867 12.519 46.8817 12.5912 46.9772 12.6625C46.7096 12.7085 46.4422 12.7558 46.175 12.8042ZM54.6122 15.8517L54.5993 15.8506C54.5494 15.9703 54.5048 16.0934 54.4659 16.22C54.5191 16.0991 54.5678 15.9763 54.6122 15.8517ZM57.3841 15.1913C57.291 15.2682 57.1923 15.3392 57.0884 15.4039C57.2278 15.483 57.3681 15.5603 57.509 15.6361C57.4659 15.4879 57.4243 15.3395 57.3841 15.1913ZM59.0738 15.4906C58.9962 15.2283 58.9241 14.9656 58.8566 14.7046C59.1405 14.8025 59.4269 14.8936 59.7162 14.9763C59.5022 15.1478 59.2881 15.3193 59.0738 15.4906ZM78.4123 20.5186L78.4311 20.4901L79.0274 20.6485L78.8817 20.7146C78.7312 20.6367 78.5745 20.5709 78.4123 20.5186ZM79.0597 28.3696C78.9418 28.4893 78.821 28.6067 78.698 28.7219C78.7466 28.7946 78.7824 28.8728 78.8017 28.9534C78.8836 28.757 78.9696 28.5624 79.0597 28.3696ZM88.0324 28.5805C88.2304 28.7462 88.427 28.9138 88.622 29.0833C88.6714 28.9843 88.7183 28.8845 88.7627 28.7841L88.67 28.5125C88.4641 28.4809 88.2577 28.4653 88.0569 28.4655C88.0482 28.5037 88.0401 28.542 88.0324 28.5805ZM88.9355 23.7214C88.8811 23.5615 88.8261 23.4018 88.7705 23.2423L89.1142 23.3342C89.1209 23.3644 89.1275 23.3946 89.134 23.4247C89.0686 23.5241 89.0024 23.623 88.9355 23.7214ZM94.0782 11.57C94.0848 11.6156 94.0914 11.6612 94.098 11.7068L94.1038 11.4419C94.0886 11.4394 94.0735 11.4369 94.0583 11.4346C94.065 11.4797 94.0716 11.5249 94.0782 11.57ZM80.984 21.5283C80.9808 21.5556 80.9761 21.5835 80.9698 21.6119C81.1911 21.5437 81.4115 21.473 81.631 21.3997L81.7305 21.3664L81.4846 21.3011L80.984 21.5283ZM81.8659 18.6652C81.6293 18.9165 81.3908 19.1659 81.1502 19.413C81.1265 19.3944 81.1014 19.3765 81.0746 19.3593L81.0613 19.3507L81.0746 19.3278L80.7316 19.1384L80.5937 19.0496C80.4932 18.6489 80.3614 18.2544 80.1958 17.8685C80.2237 17.8177 80.2472 17.7644 80.2657 17.7097C80.8244 17.9855 81.3603 18.3021 81.8659 18.6652ZM88.6203 21.6199L88.2912 21.5318C88.3107 21.4786 88.33 21.4254 88.3492 21.3721C88.3946 21.3293 88.4398 21.2861 88.4846 21.2426C88.5312 21.3681 88.5764 21.4938 88.6203 21.6199ZM92.6546 17.0276C92.5618 17.0342 92.4701 17.0565 92.3842 17.0945L92.1847 16.8238C92.0873 16.505 91.985 16.1873 91.8776 15.8709C91.8663 15.8375 91.8537 15.8057 91.8398 15.7754C91.8594 15.718 91.8787 15.6604 91.8977 15.6027C92.1547 16.0752 92.407 16.5503 92.6546 17.0276ZM84.4541 25.5207C84.3916 25.6029 84.3283 25.6844 84.264 25.7652C83.9443 25.5521 83.6219 25.3431 83.2968 25.1382L83.3009 25.1302C83.6831 25.2672 84.0674 25.3975 84.4541 25.5207ZM60.8973 41.2078L60.786 41.3035C61.4406 41.3037 62.0953 41.3062 62.7501 41.3113C62.7813 41.2189 62.8293 41.1341 62.895 41.0636C62.6457 41.0323 62.4394 40.8803 62.3187 40.6787L60.8973 41.2078ZM49.5689 16.6378C49.8959 16.6361 50.2228 16.636 50.5498 16.6377L50.5589 16.5345C50.5992 16.079 50.6396 15.6228 50.6747 15.1681L50.6932 14.927C50.4379 15.079 50.1714 15.2116 49.8965 15.3263C49.8327 15.7796 49.7255 16.2209 49.5689 16.6378ZM48.1708 15.8108C48.076 16.1153 47.9472 16.4026 47.7793 16.6637C47.1354 16.6789 46.4916 16.7003 45.8479 16.7274C45.7658 16.4525 45.708 16.1759 45.6728 15.8993C46.3177 15.9525 46.9619 15.9506 47.597 15.8867C47.7887 15.8673 47.9803 15.8421 48.1708 15.8108ZM44.2553 16.726C44.2609 16.7526 44.2666 16.779 44.2725 16.8053C43.9409 16.8241 43.6093 16.8443 43.2779 16.8659C43.51 16.4618 43.7194 16.0447 43.9058 15.6201C43.9753 15.6362 44.0448 15.6518 44.1144 15.6667C44.1346 16.0178 44.181 16.3715 44.2553 16.726ZM42.3352 15.2185C42.0466 15.8454 41.694 16.4535 41.2822 17.0127L41.2754 17.0133C40.869 16.8455 40.4693 16.6594 40.0781 16.4565C40.3995 16.1508 40.7185 15.8414 41.0363 15.5302C41.4685 15.423 41.9015 15.3191 42.3352 15.2185ZM37.457 16.6795C37.1309 16.9585 36.8004 17.2304 36.4643 17.4935L36.1624 17.5291C36.442 17.2693 36.6876 16.9801 36.8958 16.6665C37.0229 16.6282 37.1501 16.5902 37.2773 16.5525C37.337 16.5952 37.3969 16.6376 37.457 16.6795ZM40.0777 20.3497C41.2731 20.3628 42.4681 20.3945 43.6613 20.4392C44.9765 20.4897 46.2936 20.5469 47.6112 20.6138C46.9516 20.3679 46.3451 20.0034 45.8294 19.5297C44.4876 19.6679 43.0638 19.3127 41.8085 18.8858C41.291 19.447 40.7133 19.9437 40.0777 20.3497ZM68.6206 21.8753C68.8196 21.9358 69.0208 21.9856 69.2226 22.0243C69.1519 21.8385 69.0909 21.6481 69.0387 21.4547C68.9235 21.5877 68.7992 21.7148 68.6656 21.8352C68.6507 21.8487 68.6356 21.8621 68.6206 21.8753ZM93.8259 42.8695C93.4083 43.0183 92.9871 43.1558 92.5628 43.2819C93.1217 43.3513 93.6805 43.4224 94.2389 43.4954C94.0965 43.2897 93.9588 43.081 93.8259 42.8695ZM98.0819 44.0261C99.0659 44.1693 100.049 44.3181 101.032 44.4724C101.049 43.9565 101.063 43.4405 101.074 42.9244C100.72 42.3078 100.39 41.68 100.085 41.0422C100.076 41.3017 100.066 41.5613 100.055 41.8208C100.028 42.4198 99.2149 42.8474 98.7694 42.4834C98.5683 43.0089 98.3389 43.524 98.0819 44.0261ZM85.6928 16.7621C85.3354 17.1741 84.9763 17.5845 84.6143 17.9921L84.6721 18.0865L85.2889 17.8063C85.4082 17.4545 85.5436 17.1056 85.6928 16.7621ZM69.5275 10.639C69.2256 10.4855 68.9226 10.3341 68.6187 10.1847L68.4635 10.1088L67.4359 10.9187C67.7477 10.948 68.057 10.9894 68.3629 11.044C68.7414 10.8815 69.131 10.7458 69.5275 10.639ZM65.0339 10.7659L66.8411 9.34073C64.0007 8.03748 61.0785 6.91129 58.098 5.9644C58.034 6.00508 57.9688 6.0439 57.9024 6.08087C58.1376 6.21825 58.372 6.35679 58.6058 6.4965C59.3608 6.5655 60.1025 6.69529 60.8052 6.91682C62.4373 7.43106 63.6062 8.53446 64.082 10.0759C64.4011 10.3037 64.7183 10.5337 65.0339 10.7659ZM51.9393 4.28102C51.9518 4.37462 51.9816 4.47077 52.0313 4.56682C52.5753 5.62953 53.5831 6.28216 54.697 6.52504C54.2378 6.5586 53.7791 6.60502 53.3231 6.66743C52.4542 5.83228 51.4587 5.11428 50.395 4.52256C50.0819 4.2692 49.7518 4.03671 49.4085 3.8278C49.6474 3.8461 49.8861 3.8654 50.1248 3.88571C50.7312 4.01039 51.3361 4.14216 51.9393 4.28102ZM34.8571 2.25801C33.567 2.24561 32.2765 2.26498 30.9872 2.31629C31.6505 2.44613 32.3118 2.58381 32.9711 2.72653L32.998 2.7173C33.1227 2.60129 33.2944 2.51855 33.5125 2.49472C33.6361 2.4813 33.7597 2.46815 33.8833 2.45527C34.2013 2.3755 34.5258 2.30939 34.8571 2.25801ZM27.32 18.4677C27.5262 18.3793 27.7327 18.2917 27.9396 18.2049C28.025 18.1207 28.1044 18.0288 28.1781 17.9316C28.1724 17.7781 28.164 17.6281 28.1541 17.4833C27.9271 17.2768 27.7152 17.0503 27.5214 16.8045C27.521 17.3679 27.4556 17.9282 27.32 18.4677ZM46.5325 14.3536C46.8738 14.3557 47.215 14.3392 47.5547 14.3025C47.8377 14.2719 48.115 14.2203 48.3838 14.149C48.3831 14.1128 48.3821 14.0766 48.3808 14.0403C47.7636 14.1381 47.1475 14.2425 46.5325 14.3536ZM54.1694 13.3218C54.2271 13.3742 54.2853 13.426 54.3439 13.4775C54.4051 13.4137 54.4677 13.3512 54.5316 13.29C54.4109 13.3003 54.2901 13.311 54.1694 13.3218ZM92.9069 35.8888C92.8965 35.5335 92.8842 35.1783 92.8697 34.8232C92.8379 34.7884 92.8101 34.7498 92.7872 34.7074C92.812 35.1027 92.8519 35.4968 92.9069 35.8888ZM92.7595 34.0081C92.777 33.865 92.7941 33.7219 92.8108 33.5788C92.8037 33.4482 92.7963 33.3177 92.7887 33.1872C92.7806 33.2261 92.7724 33.2649 92.7641 33.3037C92.7571 33.5385 92.7556 33.7734 92.7595 34.0081ZM92.7902 13.9079C92.7553 13.6157 92.7188 13.3238 92.6807 13.032L92.5808 12.9679C92.5529 13.1072 92.524 13.2461 92.494 13.3848C92.5934 13.5588 92.6921 13.7331 92.7902 13.9079ZM59.7294 9.08063C59.1809 8.72884 58.6279 8.3835 58.0704 8.04471C57.3022 7.9911 56.5215 7.98614 55.7464 8.0177C57.0837 8.33343 58.42 8.66789 59.7294 9.08063ZM89.9717 20.0853C89.9105 20.1414 89.8482 20.1964 89.7849 20.2501C89.8328 20.3715 89.8797 20.4931 89.9256 20.6151L89.9717 20.0853ZM90.848 29.9649C90.8231 29.9015 90.7948 29.8401 90.7633 29.7809L90.8232 29.9564L90.848 29.9649ZM81.9398 34.2716L81.9181 34.3318L81.9551 34.3426L81.9496 34.2766L81.9398 34.2716ZM86.2756 30.6661L86.2738 30.5509L86.2122 30.5442L86.2183 30.5733L86.2756 30.6661ZM83.4915 31.4024C83.601 31.3835 83.713 31.3852 83.8186 31.4109L83.8294 31.3199L83.7327 31.2311C83.6526 31.2886 83.5722 31.3457 83.4915 31.4024ZM47.2537 7.63859C47.3135 7.70421 47.3724 7.77042 47.4306 7.83721C47.4918 7.7987 47.5531 7.76054 47.6147 7.72273L47.2537 7.63859ZM49.2233 5.68393C48.6605 5.39288 48.078 5.1379 47.4861 4.91823C46.6463 4.60395 45.7868 4.34704 44.9162 4.1316C44.5193 4.11993 44.1226 4.13043 43.7266 4.16062C44.9313 4.44344 46.1286 4.75713 47.3172 5.10188C47.9552 5.28706 48.5906 5.48113 49.2233 5.68393ZM13.6828 8.10422C13.892 8.28878 14.0452 8.53481 14.1109 8.85139C13.9742 8.82213 13.839 8.78809 13.7059 8.74915C13.6941 8.53443 13.6864 8.3194 13.6828 8.10422ZM67.5537 20.6693C67.4958 20.7225 67.4353 20.7737 67.3723 20.8228C67.2449 20.9219 67.1118 21.009 66.9741 21.085C66.6509 20.8618 66.3536 20.6061 66.094 20.3213C66.58 20.4393 67.0668 20.5545 67.5537 20.6693ZM69.8233 9.03683C70.6141 9.43239 71.3979 9.84161 72.1741 10.2644C72.5532 9.17594 72.7354 8.05004 72.4389 6.97539C71.5667 7.66254 70.695 8.34968 69.8233 9.03683ZM53.8511 21.0149C53.7996 20.9418 53.7499 20.8674 53.7019 20.7917C53.3985 20.8519 53.0881 20.885 52.7705 20.8857C52.3734 20.8857 51.9763 20.8229 51.6024 20.6932C51.4506 20.7409 51.2981 20.7827 51.1451 20.8186C52.0477 20.8779 52.9498 20.943 53.8511 21.0149Z" fill="black"/>
</svg>
