<svg width="72" height="68" viewBox="0 0 72 68" fill="none" xmlns="http://www.w3.org/2000/svg">
<g filter="url(#filter0_d_1086_4845)">
<path d="M45.0814 23.6565C44.6929 20.5526 45.1381 17.4013 46.3714 14.5265C46.5514 14.1665 46.8914 13.7465 46.5514 13.3565C46.2114 12.9665 45.7414 13.2365 45.3414 13.3565C44.3101 13.6565 43.3522 14.1668 42.5278 14.8552C41.7034 15.5436 41.0305 16.3953 40.5514 17.3565C40.2814 17.8265 40.0914 18.2965 39.3614 18.1965C36.8976 17.875 34.4056 17.8281 31.9314 18.0565C30.0759 18.1683 28.2641 18.6656 26.6114 19.5165C24.0631 20.9192 22.0646 23.1433 20.9414 25.8265C20.8869 25.6945 20.8467 25.5571 20.8214 25.4165C20.5414 24.1165 19.8214 23.4165 18.6914 23.5865H18.6714C18.4136 23.619 18.165 23.7037 17.9411 23.8356C17.7171 23.9674 17.5224 24.1436 17.3689 24.3532C17.2154 24.5629 17.1063 24.8018 17.0482 25.0551C16.9902 25.3084 16.9845 25.5709 17.0314 25.8265C16.9711 26.9331 17.1797 28.0378 17.6394 29.0461C18.0992 30.0545 18.7964 30.9364 19.6714 31.6165C19.99 31.8347 20.2177 32.1619 20.3114 32.5365C20.8992 35.0109 22.2579 37.2345 24.1914 38.8865C24.5409 39.1726 24.8149 39.5402 24.9893 39.9569C25.1636 40.3736 25.233 40.8267 25.1914 41.2765C24.9214 43.9965 26.0014 45.3765 28.9614 45.7765C29.1888 45.8302 29.4192 45.8703 29.6514 45.8965C31.6514 46.3065 31.4314 46.2965 31.8014 44.4765C32.0514 43.2565 32.5414 42.8965 33.8014 43.0865C34.8217 43.2264 35.8523 43.2766 36.8814 43.2365C39.3514 43.2365 39.3614 43.2365 40.0314 45.5465C40.1514 45.9665 40.2414 46.4265 40.8314 46.3165C42.2004 46.187 43.5457 45.8742 44.8314 45.3865C45.3194 45.2213 45.7458 44.9122 46.0546 44.4998C46.3635 44.0875 46.5401 43.5912 46.5614 43.0765C46.3514 40.9465 47.0414 40.0765 48.3214 38.4865C48.5014 38.2765 48.8814 37.9065 49.0914 37.6065C49.4696 37.0057 49.9869 36.5048 50.5996 36.1462C51.2123 35.7877 51.9024 35.582 52.6114 35.5465C53.8214 35.4865 54.3614 35.1165 54.3614 33.7265V29.5265C54.4064 29.0921 54.2784 28.6574 54.0051 28.3167C53.7318 27.9761 53.3353 27.7568 52.9014 27.7065C52.2171 27.5701 51.5771 27.2669 51.0381 26.8238C50.499 26.3807 50.0777 25.8115 49.8114 25.1665C48.7486 23.0828 47.1105 21.3475 45.0914 20.1665M46.7214 31.0265C46.2482 30.9982 45.8055 30.7833 45.4906 30.4289C45.1756 30.0746 45.0141 29.6098 45.0414 29.1365C45.0672 28.6713 45.2765 28.2353 45.6233 27.9241C45.9701 27.6129 46.4261 27.452 46.8914 27.4765C47.1339 27.4781 47.3736 27.5289 47.5959 27.6259C47.8182 27.7229 48.0185 27.8641 48.1846 28.0408C48.3506 28.2176 48.4791 28.4262 48.562 28.6541C48.645 28.8821 48.6808 29.1244 48.6672 29.3666C48.6536 29.6088 48.591 29.8456 48.4831 30.0629C48.3752 30.2801 48.2243 30.4731 48.0395 30.6302C47.8547 30.7873 47.6399 30.9052 47.4082 30.9768C47.1765 31.0483 46.9326 31.0721 46.6914 31.0465L46.7214 31.0265Z" stroke="#FFCC00" stroke-width="1.65" stroke-linecap="round" stroke-linejoin="round" shape-rendering="crispEdges"/>
</g>
<path d="M28.6115 18.6472C27.8049 18.1258 27.1774 17.3699 26.8134 16.4811C26.4495 15.5922 26.3665 14.6132 26.5758 13.6759C26.7851 12.7385 27.2765 11.8878 27.984 11.2381C28.6914 10.5885 29.5809 10.1712 30.5327 10.0425C31.4844 9.91366 32.4528 10.0796 33.3075 10.5178C34.1621 10.956 34.862 11.6456 35.3128 12.4936C35.7637 13.3417 35.9439 14.3075 35.8293 15.2611C35.7146 16.2147 35.3106 17.1102 34.6715 17.8272" stroke="#FFCC00" stroke-width="1.65" stroke-linecap="round" stroke-linejoin="round"/>
<defs>
<filter id="filter0_d_1086_4845" x="0.174805" y="0.328369" width="71.0205" height="66.8296" filterUnits="userSpaceOnUse" color-interpolation-filters="sRGB">
<feFlood flood-opacity="0" result="BackgroundImageFix"/>
<feColorMatrix in="SourceAlpha" type="matrix" values="0 0 0 0 0 0 0 0 0 0 0 0 0 0 0 0 0 0 127 0" result="hardAlpha"/>
<feOffset dy="4"/>
<feGaussianBlur stdDeviation="8"/>
<feComposite in2="hardAlpha" operator="out"/>
<feColorMatrix type="matrix" values="0 0 0 0 0.988235 0 0 0 0 0.65098 0 0 0 0 0 0 0 0 1 0"/>
<feBlend mode="normal" in2="BackgroundImageFix" result="effect1_dropShadow_1086_4845"/>
<feBlend mode="normal" in="SourceGraphic" in2="effect1_dropShadow_1086_4845" result="shape"/>
</filter>
</defs>
</svg>
