<svg width="541" height="491" viewBox="0 0 541 491" fill="none" xmlns="http://www.w3.org/2000/svg">
<path d="M528.767 153.146C528.767 153.146 522.468 149.296 515.497 164.284C508.527 179.272 506.003 187.847 506.003 187.847C506.003 187.847 504.126 190.997 501.941 189.06C499.756 187.123 496.666 181.525 493.079 182.67C489.387 183.876 488.309 188.08 489.244 194.177C490.178 200.273 491.723 213.701 491.866 214.914C492.009 216.127 491.376 217.928 489.673 216.813C487.97 215.698 478.024 205.427 473.412 210.438C468.8 215.449 474.165 232.005 474.753 233.798C475.341 235.591 474.972 236.413 474.113 236.903C473.254 237.392 470.239 233.61 467.293 230.791C464.347 227.973 460.428 225.23 458.017 228.35C455.606 231.47 455.244 244.069 467.911 264.015L474.391 272.877L485.371 271.875C508.73 268.28 517.969 259.735 518.722 255.869C519.476 252.004 514.834 250.866 510.78 250.497C506.726 250.127 501.888 250.346 501.692 249.381C501.496 248.417 501.873 247.641 503.614 246.857C505.355 246.073 521.352 239.239 522.098 232.472C522.844 225.705 508.535 224.997 506.598 224.424C504.661 223.851 505.596 222.208 506.598 221.53C507.6 220.852 518.738 213.158 523.93 209.85C529.121 206.542 531.593 202.955 530.063 199.384C528.556 195.94 522.324 197.296 519.423 196.927C516.522 196.558 517.668 193.069 517.668 193.069C517.668 193.069 522.468 185.533 529.159 170.402C535.851 155.271 528.624 153.071 528.624 153.071" fill="#F5F5F5"/>
<path d="M522.506 166.552C522.506 166.552 522.468 166.665 522.377 166.876C522.287 167.087 522.151 167.411 521.986 167.81L520.433 171.397C519.077 174.509 517.088 178.993 514.608 184.531C509.65 195.608 502.672 210.845 494.911 227.657C487.149 244.468 480.134 259.69 475.115 270.737C472.613 276.245 470.594 280.714 469.185 283.818C468.491 285.325 467.949 286.546 467.572 287.375C467.384 287.774 467.241 288.076 467.143 288.302C467.045 288.528 466.984 288.611 466.984 288.611C467.018 288.5 467.058 288.392 467.105 288.287C467.203 288.061 467.331 287.744 467.497 287.345C467.858 286.516 468.386 285.31 469.049 283.765C470.405 280.653 472.395 276.162 474.874 270.624C479.832 259.554 486.81 244.31 494.572 227.498C502.333 210.687 509.356 195.443 514.367 184.426L520.298 171.329C520.998 169.822 521.541 168.601 521.918 167.772L522.347 166.853C522.395 166.75 522.448 166.649 522.506 166.552Z" fill="#E1E1E1"/>
<path d="M497.109 190.695C497.243 190.933 497.347 191.186 497.418 191.449C497.599 191.931 497.833 192.632 498.119 193.498C498.677 195.232 499.393 197.65 500.131 200.333C500.87 203.016 501.495 205.359 501.992 207.205L502.565 209.285C502.657 209.527 502.715 209.781 502.738 210.039C502.603 209.802 502.499 209.549 502.429 209.285C502.249 208.81 502.015 208.11 501.736 207.243C501.194 205.495 500.508 203.076 499.769 200.393C499.031 197.711 498.375 195.375 497.863 193.536C497.637 192.715 497.441 192.029 497.283 191.456C497.195 191.21 497.137 190.955 497.109 190.695Z" fill="#E1E1E1"/>
<path d="M503.758 210.189C503.758 210.091 508.641 208.404 514.737 206.422C520.833 204.44 525.807 202.895 525.837 202.993C525.867 203.091 520.954 204.779 514.858 206.761C508.761 208.743 503.788 210.287 503.758 210.189Z" fill="#E1E1E1"/>
<path d="M490.668 235.471C490.935 235.41 491.208 235.385 491.482 235.396L493.682 235.32C495.536 235.252 498.105 235.154 500.931 234.943C503.757 234.732 506.312 234.461 508.165 234.25L510.351 234.001C510.619 233.956 510.892 233.941 511.164 233.956C510.92 234.045 510.668 234.108 510.411 234.145C509.898 234.243 509.152 234.371 508.233 234.514C506.394 234.793 503.832 235.102 500.999 235.313C498.166 235.524 495.589 235.584 493.72 235.584C492.793 235.584 492.039 235.584 491.519 235.539C491.234 235.547 490.949 235.524 490.668 235.471Z" fill="#E1E1E1"/>
<path d="M480.781 219.157C480.956 219.336 481.108 219.536 481.233 219.752C481.505 220.144 481.896 220.724 482.364 221.447C483.306 222.887 484.579 224.891 485.966 227.114C487.352 229.337 488.595 231.372 489.477 232.849C489.922 233.602 490.231 234.182 490.502 234.604C490.644 234.812 490.759 235.037 490.841 235.275C490.66 235.1 490.505 234.899 490.381 234.68C490.11 234.288 489.726 233.708 489.251 232.984C488.317 231.545 487.043 229.54 485.649 227.318C484.255 225.095 483.019 223.06 482.138 221.583C481.701 220.829 481.384 220.249 481.113 219.827C480.974 219.619 480.863 219.393 480.781 219.157Z" fill="#E1E1E1"/>
<path d="M466.406 240C466.624 240.231 466.818 240.484 466.986 240.753L468.433 242.923C469.646 244.762 471.304 247.316 473.113 250.157C474.921 252.998 476.541 255.568 477.694 257.444L479.051 259.705C479.229 259.973 479.381 260.258 479.503 260.556C479.286 260.324 479.091 260.072 478.923 259.803L477.476 257.632C476.263 255.794 474.605 253.239 472.796 250.398C470.988 247.558 469.368 244.988 468.215 243.112L466.858 240.851C466.679 240.583 466.527 240.298 466.406 240Z" fill="#E1E1E1"/>
<path d="M479.312 259.961C479.646 259.885 479.987 259.845 480.33 259.84L483.118 259.645C485.469 259.479 488.724 259.238 492.304 258.891C495.883 258.544 499.086 258.137 501.459 257.806L504.225 257.444C504.563 257.384 504.906 257.351 505.249 257.346C504.925 257.463 504.589 257.544 504.247 257.587C503.599 257.708 502.657 257.881 501.497 258.07C499.161 258.446 495.928 258.898 492.341 259.26C488.754 259.622 485.492 259.825 483.133 259.923C481.95 259.969 481 259.999 480.337 260.006C479.995 260.019 479.652 260.004 479.312 259.961Z" fill="#E1E1E1"/>
<path d="M80.0387 227.363C97.6188 215.63 101.891 193.453 101.537 173.416C101.469 170.071 101.899 166.559 100.332 163.62C98.7642 160.682 95.0568 158.609 91.9899 159.966C89.4655 161.096 88.3201 163.967 86.8808 166.333C84.9417 169.496 82.1497 172.048 78.8255 173.695C76.6552 174.765 73.9802 175.406 71.8702 174.215C68.9766 172.58 68.6903 168.594 68.7656 165.271L69.1725 146.703C69.2404 143.38 69.3082 139.989 68.306 136.824C67.3038 133.659 65.0431 130.69 61.8556 129.756C58.6681 128.822 54.6819 130.585 53.951 133.825C53.6495 135.174 53.9057 136.583 53.7927 137.962C53.6797 139.341 53.0392 140.856 51.6677 141.218C50.2963 141.579 48.9926 140.63 47.998 139.643C44.5769 136.237 42.2861 131.881 40.1536 127.586C38.021 123.291 35.9412 118.777 32.8517 115.07C29.7622 111.362 25.4368 108.401 20.6217 108.031C15.8065 107.662 10.6297 110.578 9.33359 115.228C8.03749 119.877 10.7352 124.685 13.6891 128.52C18.0787 134.214 23.2692 139.242 29.0991 143.448C30.154 144.202 31.2843 145.03 31.6762 146.266C32.3694 148.489 30.2068 150.659 27.9838 151.353C25.4594 152.106 22.709 151.842 20.1168 152.106C17.5246 152.37 14.6235 153.47 13.5911 155.874C12.1669 159.272 14.9852 162.905 17.7808 165.301C23.3924 170.056 29.7768 173.815 36.6571 176.416C39.1438 177.357 41.7134 178.171 43.6651 179.912C45.6168 181.653 46.7998 184.667 45.5565 186.988C44.3131 189.309 41.201 190.002 38.6163 189.497C36.0317 188.992 33.7334 187.56 31.2768 186.603C26.6726 184.81 20.7272 185.036 17.713 188.939C15.7236 191.502 15.4976 195.111 16.432 198.216C17.3664 201.32 19.3256 204.018 21.4054 206.505C28.6846 215.2 38.0738 222.246 48.744 226.097C59.4142 229.947 69.3383 231.07 80.0613 227.378" fill="#ECECEC"/>
<path d="M78.6602 227.755C75.8344 217.612 68.1106 193.762 63.4763 182.542L60.0326 174.253C58.8947 171.533 57.7719 168.835 56.4984 166.265C54.0526 161.334 51.3357 156.541 48.3602 151.91C45.5419 147.464 42.7086 143.35 40.0712 139.522C37.4338 135.694 34.7738 132.145 32.2871 129.063C28.3874 124.133 24.104 119.52 19.4768 115.265C17.8416 113.758 16.538 112.628 15.6413 111.874L14.6315 111.046C14.3979 110.835 14.2773 110.744 14.2773 110.744C14.2773 110.744 14.3828 110.857 14.6014 111.061L15.581 111.95C16.4551 112.703 17.7436 113.879 19.3487 115.409C23.9099 119.712 28.1416 124.352 32.0082 129.289C34.4723 132.401 37.0193 135.913 39.6944 139.756C42.3695 143.599 45.1727 147.713 47.9834 152.159C50.9377 156.78 53.6369 161.56 56.0689 166.476C57.3273 169.038 58.4501 171.751 59.588 174.441C60.7258 177.131 61.8486 179.935 63.0317 182.73C67.6207 193.935 75.3672 217.77 78.2156 227.845" fill="#E1E1E1"/>
<path d="M56.3711 166.213C56.527 165.752 56.6381 165.278 56.7027 164.796C56.8835 163.884 57.1096 162.535 57.3658 160.9C57.8857 157.592 58.4509 153.01 59.0612 147.962C59.6716 142.913 60.3121 138.339 60.8999 135.061C61.1862 133.418 61.4349 132.092 61.6534 131.173C61.7713 130.703 61.8494 130.224 61.887 129.741C61.7035 130.192 61.5623 130.658 61.4651 131.135C61.2164 132.032 60.915 133.35 60.5834 134.993C59.8977 138.264 59.2044 142.838 58.594 147.901C57.9837 152.965 57.4562 157.441 57.087 160.847C56.8835 162.43 56.7102 163.748 56.5746 164.766C56.4651 165.241 56.397 165.725 56.3711 166.213Z" fill="#E1E1E1"/>
<path d="M13.2227 157.584C13.3667 157.631 13.5161 157.659 13.6672 157.667L14.9483 157.795C16.0635 157.901 17.6686 158.052 19.6429 158.3C23.599 158.775 29.0471 159.619 35.0152 160.825C40.9832 162.03 46.3183 163.364 50.1614 164.442C52.0829 164.969 53.6277 165.436 54.6827 165.76L55.9185 166.122C56.0589 166.174 56.2062 166.204 56.3555 166.213C56.2301 166.13 56.0929 166.066 55.9486 166.024L54.743 165.572C53.6955 165.195 52.1583 164.675 50.2217 164.065C46.4012 162.897 41.051 161.51 35.0754 160.297C29.0998 159.084 23.6216 158.3 19.6429 157.916C17.661 157.713 16.0409 157.615 14.9257 157.569H13.6371C13.4988 157.559 13.3598 157.564 13.2227 157.584Z" fill="#E1E1E1"/>
<path d="M74.4844 213.95C74.5993 213.786 74.6978 213.612 74.7783 213.43L75.5318 211.923C76.1798 210.581 77.0389 208.63 78.1541 206.196C80.3017 201.328 83.0748 194.516 86.0362 186.965C88.9976 179.415 91.7029 172.588 93.7751 167.689L96.2467 161.902L96.9174 160.327C97.0028 160.146 97.0709 159.957 97.1208 159.762C96.9991 159.921 96.9001 160.096 96.827 160.282L96.0734 161.789C95.4254 163.131 94.5287 165.09 93.4586 167.524C91.3035 172.384 88.5304 179.196 85.5765 186.754C82.6227 194.312 79.8948 201.124 77.8226 205.992L75.351 211.779L74.6878 213.354C74.5958 213.544 74.5275 213.744 74.4844 213.95Z" fill="#E1E1E1"/>
<path d="M17.293 194.802C17.4718 194.901 17.6615 194.98 17.8581 195.036L19.5235 195.601L25.6573 197.643C30.8342 199.376 37.9552 201.855 45.8146 204.613C53.6741 207.371 60.8252 209.805 66.0322 211.448C68.6319 212.277 70.7494 212.917 72.2113 213.339L73.9068 213.821C74.103 213.884 74.305 213.927 74.5096 213.95C74.3253 213.858 74.1337 213.783 73.9369 213.723L72.2716 213.158L66.1377 211.109C60.9609 209.383 53.8399 206.896 45.9804 204.138C38.1209 201.38 30.9773 198.954 25.7703 197.304C23.1631 196.482 21.0532 195.797 19.5837 195.412L17.8958 194.938C17.7002 194.871 17.4981 194.826 17.293 194.802Z" fill="#E1E1E1"/>
<path d="M369.376 111.272H464.376L445.793 124.489V135.513C445.752 140.964 443.547 146.175 439.663 150C435.78 153.825 430.537 155.952 425.086 155.912H365.473C360.022 155.952 354.779 153.825 350.896 150C347.012 146.175 344.807 140.964 344.766 135.513C344.789 132.305 345.445 129.134 346.694 126.179C347.944 123.224 349.764 120.545 352.049 118.294C354.335 116.043 357.041 114.264 360.014 113.059C362.987 111.854 366.169 111.247 369.376 111.272Z" fill="#F5F5F5"/>
<path d="M429.767 126.019C429.767 126.124 413.942 126.214 394.35 126.214C374.758 126.214 358.934 126.124 358.934 126.019C358.934 125.913 374.758 125.823 394.35 125.823C413.942 125.823 429.767 125.913 429.767 126.019Z" fill="#E1E1E1"/>
<path d="M429.767 133.358C429.767 133.471 413.942 133.554 394.35 133.554C374.758 133.554 358.934 133.471 358.934 133.358C358.934 133.245 374.758 133.162 394.35 133.162C413.942 133.162 429.767 133.253 429.767 133.358Z" fill="#E1E1E1"/>
<path d="M225.268 337.373H112.832L131.143 350.59V376.587C131.143 378.028 131.716 379.41 132.734 380.429C133.753 381.448 135.135 382.02 136.576 382.02H225.268C226.709 382.02 228.091 381.448 229.11 380.429C230.129 379.41 230.701 378.028 230.701 376.587V342.806C230.701 341.365 230.129 339.983 229.11 338.964C228.091 337.945 226.709 337.373 225.268 337.373Z" fill="#F5F5F5"/>
<path d="M220.559 355.752C220.559 355.857 203.605 355.947 182.694 355.947C161.783 355.947 144.828 355.857 144.828 355.752C144.828 355.646 161.775 355.556 182.694 355.556C203.612 355.556 220.559 355.639 220.559 355.752Z" fill="#E1E1E1"/>
<path d="M220.559 365.744C220.559 365.857 203.605 365.94 182.694 365.94C161.783 365.94 144.828 365.857 144.828 365.744C144.828 365.631 161.775 365.548 182.694 365.548C203.612 365.548 220.559 365.623 220.559 365.744Z" fill="#E1E1E1"/>
<path d="M454.768 209.255H323.207C307.063 209.255 293.977 222.342 293.977 238.485V345.564C293.977 361.707 307.063 374.794 323.207 374.794H454.768C470.911 374.794 483.998 361.707 483.998 345.564V238.485C483.998 222.342 470.911 209.255 454.768 209.255Z" fill="#494949"/>
<path d="M454.772 209.255H323.21C307.067 209.255 293.98 222.342 293.98 238.485V345.564C293.98 361.707 307.067 374.794 323.21 374.794H454.772C470.915 374.794 484.002 361.707 484.002 345.564V238.485C484.002 222.342 470.915 209.255 454.772 209.255Z" fill="black"/>
<path d="M483.945 266.969H512.407L483.305 296.071L483.945 266.969Z" fill="#494949"/>
<path d="M483.949 266.969H512.41L483.309 296.071L483.949 266.969Z" fill="black"/>
<path d="M289.427 284.858L277.499 271.294C274.274 268.069 273.166 266.517 273.814 265.952C274.673 265.198 274.304 265.447 281.003 270.473C281.003 270.473 271.508 263.216 274.801 263.171C275.381 263.171 276.994 264.106 278.719 265.236C276.368 263.239 275.705 261.898 276.165 261.25C276.919 260.142 282.736 264.166 285.411 266.11C283.226 264.475 279.059 261.317 278.328 260.323C277.318 258.974 279.36 259.079 281.018 259.645C282.879 260.285 293.165 265.53 296.209 266.886C296.453 267.032 296.726 267.123 297.009 267.153C297.291 267.183 297.577 267.152 297.846 267.061C298.116 266.97 298.362 266.821 298.569 266.626C298.775 266.431 298.937 266.193 299.043 265.929C300.165 261.219 303.564 258.145 304.86 257.746C306.156 257.346 307.158 259.012 306.231 260.21C305.361 261.603 304.687 263.109 304.227 264.686C303.803 265.927 303.597 267.232 303.617 268.544C303.617 270.051 303.722 271.355 303.82 272.447L314.724 287.405L296.488 297.955L289.427 284.858Z" fill="white"/>
<path d="M285.138 272.583C285.017 272.756 282.877 271.294 280.406 269.328C277.934 267.361 276.005 265.635 276.148 265.469C276.291 265.304 278.409 266.773 280.88 268.732C283.352 270.691 285.266 272.41 285.138 272.583Z" fill="#AA6550"/>
<path d="M287.466 270.202C287.346 270.375 285.002 268.951 282.191 267.014C279.381 265.078 277.263 263.382 277.384 263.246C277.504 263.111 279.848 264.497 282.659 266.426C285.469 268.355 287.587 270.043 287.466 270.202Z" fill="#AA6550"/>
<path d="M289.156 267.67C289.035 267.843 286.79 266.532 284.145 264.738C281.5 262.945 279.45 261.355 279.563 261.182C279.676 261.008 281.922 262.32 284.574 264.113C287.227 265.906 289.269 267.496 289.156 267.67Z" fill="#AA6550"/>
<path d="M304.836 274.565L348.3 329.686L338.346 352.858C338.346 352.858 326.425 350.221 322.808 345.194C319.191 340.168 289.426 284.911 289.426 284.911L304.836 274.565Z" fill="white"/>
<path d="M415.16 197.409C418.288 200.122 418.28 204.899 417.918 209.021C417.557 213.143 417.278 217.845 420.134 220.837C422.492 223.308 426.765 224.394 427.308 227.754C427.441 228.547 427.324 229.362 426.974 230.085C426.623 230.809 426.056 231.405 425.351 231.792C424.647 232.179 423.839 232.336 423.04 232.244C422.242 232.151 421.492 231.812 420.895 231.273C421.814 233.933 421.181 237.257 418.875 238.869C416.57 240.482 412.704 239.487 411.988 236.767C412.105 237.221 412.128 237.694 412.054 238.158C411.98 238.621 411.811 239.064 411.558 239.459C411.306 239.854 410.974 240.193 410.585 240.454C410.195 240.715 409.756 240.894 409.295 240.978C408.833 241.062 408.359 241.05 407.903 240.943C407.446 240.836 407.017 240.635 406.641 240.355C406.265 240.074 405.951 239.719 405.718 239.312C405.486 238.905 405.34 238.454 405.289 237.988" fill="#141414"/>
<path d="M370.386 225.23C370.198 225.756 369.904 226.237 369.523 226.645C369.143 227.054 368.683 227.38 368.172 227.605C367.661 227.83 367.11 227.949 366.552 227.954C365.994 227.959 365.44 227.851 364.925 227.636C364.41 227.42 363.945 227.102 363.557 226.701C363.168 226.3 362.866 225.824 362.668 225.302C362.469 224.78 362.379 224.223 362.403 223.666C362.427 223.108 362.564 222.561 362.805 222.058C363.559 220.49 365.217 219.36 365.383 217.649C365.579 215.57 363.461 214.085 361.577 213.181C359.693 212.277 357.501 211.101 357.297 209.021C357.094 206.942 358.895 205.457 360.394 204.116C361.894 202.774 363.408 200.702 362.451 198.909C361.977 197.997 360.989 197.47 360.349 196.648C358.94 194.855 359.678 191.999 361.479 190.62C363.28 189.241 365.767 189.015 368.012 189.422C370.258 189.829 372.368 190.755 374.553 191.404C378.182 192.462 381.991 192.754 385.739 192.261C389.487 191.768 393.091 190.501 396.323 188.54" fill="#141414"/>
<path d="M383.732 273.811C387.625 274.599 391.672 273.823 394.998 271.652C398.324 269.48 400.663 266.088 401.508 262.206L412.201 213.181C412.868 210.35 412.961 207.414 412.474 204.547C411.987 201.679 410.93 198.938 409.366 196.486C407.801 194.035 405.761 191.921 403.365 190.272C400.97 188.622 398.268 187.469 395.419 186.882L394.304 186.716C388.857 185.919 383.309 187.201 378.765 190.308C374.22 193.415 371.011 198.118 369.776 203.483C367.395 213.836 364.901 225.298 364.147 230.927C362.587 242.577 373.943 246.088 373.943 246.088L371.901 255.884C371.493 257.839 371.476 259.855 371.851 261.816C372.225 263.777 372.984 265.644 374.084 267.311C375.184 268.977 376.602 270.41 378.258 271.525C379.914 272.641 381.774 273.418 383.732 273.811Z" fill="white"/>
<path d="M371.871 211.184C371.805 211.616 371.91 212.056 372.163 212.412C372.416 212.768 372.798 213.011 373.227 213.091C373.436 213.138 373.652 213.143 373.862 213.106C374.073 213.069 374.274 212.991 374.453 212.875C374.633 212.759 374.788 212.608 374.909 212.432C375.029 212.255 375.113 212.057 375.156 211.847C375.227 211.415 375.125 210.973 374.873 210.615C374.62 210.257 374.238 210.012 373.807 209.933C373.598 209.886 373.381 209.881 373.17 209.918C372.958 209.955 372.756 210.035 372.576 210.151C372.396 210.268 372.24 210.419 372.119 210.597C371.998 210.774 371.914 210.974 371.871 211.184Z" fill="#141414"/>
<path d="M371.459 209.556C371.632 209.805 373.026 209.059 374.819 209.323C376.613 209.587 377.781 210.679 378.007 210.483C378.12 210.4 377.962 209.978 377.457 209.481C376.761 208.818 375.876 208.388 374.925 208.253C373.995 208.11 373.044 208.272 372.212 208.712C371.602 209.082 371.361 209.443 371.459 209.556Z" fill="#141414"/>
<path d="M389.345 214.085C389.277 214.517 389.38 214.959 389.634 215.315C389.888 215.671 390.271 215.914 390.701 215.992C390.909 216.039 391.125 216.045 391.336 216.007C391.546 215.97 391.747 215.892 391.927 215.776C392.107 215.66 392.261 215.509 392.382 215.333C392.503 215.157 392.587 214.958 392.63 214.748C392.698 214.315 392.594 213.873 392.341 213.515C392.088 213.158 391.705 212.914 391.274 212.834C391.065 212.787 390.848 212.782 390.637 212.819C390.426 212.857 390.225 212.936 390.045 213.053C389.865 213.169 389.711 213.321 389.591 213.498C389.47 213.675 389.387 213.875 389.345 214.085Z" fill="#141414"/>
<path d="M388.972 212.465C389.145 212.714 390.539 211.968 392.325 212.231C394.111 212.495 395.294 213.58 395.52 213.392C395.625 213.309 395.475 212.887 394.962 212.39C394.267 211.74 393.388 211.322 392.445 211.192C391.516 211.051 390.566 211.21 389.733 211.644C389.122 212.02 388.881 212.352 388.972 212.465Z" fill="#141414"/>
<path d="M380.534 224.77C379.634 224.341 378.685 224.022 377.709 223.821C377.256 223.708 376.842 223.557 376.812 223.233C376.841 222.756 377.015 222.299 377.309 221.922C377.907 220.882 378.527 219.789 379.17 218.644C381.77 213.972 383.692 210.099 383.533 209.993C383.375 209.888 381.084 213.595 378.485 218.282L376.676 221.59C376.31 222.099 376.134 222.721 376.179 223.346C376.225 223.513 376.308 223.667 376.421 223.797C376.535 223.927 376.676 224.031 376.834 224.1C377.076 224.203 377.329 224.277 377.588 224.318C378.547 224.591 379.537 224.743 380.534 224.77Z" fill="#141414"/>
<path d="M389.539 205.389C389.645 205.902 391.468 205.932 393.526 206.497C395.583 207.062 397.195 207.876 397.542 207.477C397.693 207.288 397.467 206.791 396.856 206.218C396.028 205.507 395.049 204.994 393.992 204.718C392.936 204.443 391.83 204.412 390.76 204.628C389.931 204.824 389.487 205.148 389.539 205.389Z" fill="#141414"/>
<path d="M372.857 204.485C373.113 204.937 374.402 204.696 375.871 204.899C377.341 205.103 378.569 205.57 378.885 205.186C379.044 204.997 378.885 204.56 378.418 204.101C377.758 203.517 376.929 203.158 376.052 203.076C375.181 202.961 374.295 203.122 373.52 203.536C372.962 203.867 372.744 204.259 372.857 204.485Z" fill="#141414"/>
<path d="M401.441 198.592L401.494 198.653C403.135 200.383 404.043 202.681 404.026 205.065V205.306C404.026 208.69 403.416 212.051 403.423 215.434C403.431 218.818 404.079 222.359 406.196 225.004C407.063 226.089 408.751 226.993 409.738 226.014C410.084 225.599 410.306 225.095 410.378 224.56C412.172 216.64 415.397 209.85 416.61 201.471C416.778 200.349 416.677 199.204 416.314 198.129C415.951 197.054 415.337 196.082 414.523 195.292C412.956 193.785 411.004 192.165 408.917 192.798C406.829 193.431 403.777 196.716 402.037 198.072" fill="#141414"/>
<path d="M407.508 217.883C407.719 217.83 415.85 216.692 414.425 224.605C413.001 232.517 405.383 229.465 405.383 229.231C405.383 228.998 407.508 217.883 407.508 217.883Z" fill="white"/>
<path d="M408.337 226.669C408.337 226.669 408.457 226.79 408.668 226.941C408.973 227.139 409.343 227.212 409.701 227.144C410.59 226.986 411.532 225.788 411.826 224.364C411.977 223.691 411.977 222.994 411.826 222.321C411.792 222.056 411.695 221.802 411.541 221.583C411.387 221.364 411.183 221.185 410.944 221.063C410.792 221 410.623 220.989 410.464 221.031C410.305 221.074 410.164 221.167 410.062 221.297C409.919 221.5 409.942 221.666 409.897 221.673C409.851 221.681 409.753 221.508 409.897 221.191C409.977 221.005 410.118 220.851 410.296 220.754C410.543 220.628 410.83 220.604 411.095 220.686C411.41 220.812 411.688 221.016 411.902 221.28C412.116 221.544 412.258 221.859 412.316 222.193C412.524 222.929 412.553 223.705 412.398 224.454C412.059 226.044 410.974 227.393 409.776 227.513C409.552 227.537 409.325 227.51 409.112 227.435C408.9 227.359 408.707 227.237 408.548 227.076C408.314 226.865 408.307 226.677 408.337 226.669Z" fill="#AA6550"/>
<path d="M409.008 194.071C411.434 191.177 406.747 185.782 402.979 184.011C399.212 182.24 393.779 183.356 389.687 184.079C387.102 184.531 384.48 185.315 381.903 184.833C380.193 184.407 378.557 183.726 377.05 182.813C375.538 181.901 373.856 181.306 372.107 181.065C370.351 180.929 368.429 181.585 367.533 183.099C366.636 184.614 367.261 186.965 368.949 187.455C368.441 187.069 367.846 186.812 367.216 186.706C366.586 186.6 365.94 186.649 365.333 186.848C364.726 187.046 364.176 187.389 363.731 187.847C363.286 188.305 362.958 188.864 362.776 189.476C362.595 190.089 362.564 190.736 362.688 191.363C362.811 191.989 363.085 192.577 363.485 193.074C363.885 193.572 364.4 193.965 364.986 194.22C365.571 194.475 366.21 194.584 366.847 194.538C365.845 193.521 363.901 194.681 363.833 196.113C363.765 197.545 364.895 198.758 366.093 199.519C369.19 201.463 373.124 201.561 376.726 200.913C380.328 200.265 383.779 198.924 387.366 198.185C390.953 197.447 396.974 196.053 400.214 197.756C402.595 199.007 403.906 202.277 405.421 201.833C406.137 201.569 406.782 201.142 407.305 200.586C407.828 200.03 408.215 199.361 408.435 198.63C408.841 197.159 409.012 195.633 408.94 194.109" fill="#141414"/>
<path d="M424.505 230.859C424.653 230.825 424.793 230.764 424.919 230.678C425.293 230.441 425.592 230.101 425.778 229.699C426.071 229.06 426.16 228.347 426.034 227.657C425.841 226.742 425.341 225.92 424.618 225.328C423.759 224.626 422.795 224.064 421.762 223.663C420.598 223.238 419.48 222.698 418.424 222.05C417.317 221.273 416.473 220.177 416.005 218.908C415.49 217.542 415.252 216.087 415.304 214.628C415.379 211.614 416.216 208.788 416.419 206.128C416.623 203.468 416.284 200.974 415.153 199.248C414.301 197.862 412.954 196.852 411.385 196.422C410.965 196.316 410.53 196.273 410.097 196.294C409.946 196.296 409.797 196.319 409.652 196.362C410.224 196.358 410.794 196.429 411.348 196.573C412.841 197.045 414.107 198.051 414.905 199.399C415.952 201.071 416.314 203.498 416.05 206.098C415.786 208.697 414.98 211.523 414.889 214.62C414.842 216.135 415.098 217.644 415.643 219.059C416.149 220.396 417.051 221.547 418.228 222.359C419.308 223.012 420.451 223.552 421.641 223.972C422.649 224.345 423.592 224.874 424.437 225.539C425.125 226.084 425.613 226.842 425.823 227.694C425.958 228.343 425.895 229.018 425.643 229.631C425.41 230.155 425.009 230.587 424.505 230.859Z" fill="#282828"/>
<path d="M368.708 187.282C368.601 187.207 368.484 187.146 368.362 187.101C368.222 187.028 368.076 186.97 367.925 186.927C367.718 186.85 367.503 186.794 367.284 186.762C366.569 186.649 365.839 186.7 365.147 186.912C364.455 187.123 363.82 187.489 363.29 187.982C362.755 188.636 362.354 189.39 362.111 190.199C361.867 191.009 361.787 191.859 361.874 192.7C361.974 193.744 362.283 194.758 362.783 195.681C363.283 196.604 363.963 197.417 364.782 198.072C366.665 199.592 368.958 200.515 371.368 200.725C373.985 200.943 376.62 200.781 379.19 200.243C383.265 199.447 387.168 197.939 390.719 195.789C392.24 194.847 393.829 194.021 395.474 193.317C396.913 192.739 398.445 192.425 399.996 192.391C402.253 192.341 404.486 192.86 406.491 193.898C407.214 194.303 407.916 194.746 408.593 195.224C407.986 194.648 407.305 194.156 406.566 193.762C404.557 192.639 402.29 192.057 399.988 192.074C398.398 192.089 396.825 192.396 395.346 192.978C393.68 193.671 392.07 194.492 390.531 195.435C387.006 197.546 383.14 199.027 379.107 199.813C376.575 200.349 373.978 200.514 371.399 200.303C369.062 200.113 366.835 199.231 365.001 197.771C364.211 197.149 363.553 196.375 363.066 195.495C362.58 194.615 362.274 193.647 362.168 192.647C362.076 191.845 362.143 191.033 362.366 190.257C362.588 189.481 362.961 188.757 363.464 188.126C363.967 187.647 364.57 187.285 365.229 187.066C365.888 186.848 366.587 186.777 367.277 186.86C367.765 186.961 368.244 187.102 368.708 187.282Z" fill="#282828"/>
<path d="M373.114 180.688C373.087 181.296 373.182 181.903 373.392 182.474C373.984 184.042 375.082 185.368 376.512 186.242C377.477 186.863 378.547 187.305 379.67 187.545C380.958 187.808 382.279 187.879 383.588 187.756C386.353 187.545 389.247 186.596 392.284 185.812C395.321 185.029 398.357 184.614 400.98 185.315C403.305 185.937 405.373 187.28 406.888 189.15C407.926 190.396 408.696 191.843 409.148 193.4C409.45 194.508 409.487 195.156 409.54 195.149C409.55 194.993 409.55 194.837 409.54 194.681C409.498 194.237 409.425 193.797 409.321 193.363C408.919 191.756 408.171 190.257 407.129 188.97C405.603 187.02 403.489 185.614 401.1 184.961C398.388 184.207 395.268 184.629 392.216 185.42C389.164 186.212 386.293 187.161 383.588 187.387C382.313 187.517 381.026 187.461 379.767 187.221C378.678 187 377.637 186.586 376.693 186.001C375.293 185.181 374.198 183.927 373.573 182.429C373.372 181.862 373.218 181.28 373.114 180.688Z" fill="#282828"/>
<path d="M376.964 230.701C377.063 231.479 377.268 232.24 377.575 232.962C377.735 233.318 377.969 233.637 378.261 233.897C378.553 234.157 378.897 234.352 379.27 234.469C379.674 234.552 380.093 234.533 380.488 234.413C380.883 234.294 381.241 234.077 381.531 233.783C382.11 233.175 382.482 232.4 382.593 231.568C382.714 230.814 382.593 229.872 381.84 229.631C381.536 229.552 381.217 229.552 380.913 229.631L376.738 230.384" fill="#AA6550"/>
<path d="M377.696 233.873C378.358 234.137 379.064 234.27 379.776 234.265C380.512 234.222 381.206 233.905 381.72 233.376C382.023 233.054 382.255 232.671 382.399 232.252C382.543 231.834 382.597 231.39 382.557 230.95C382.534 230.721 382.483 230.495 382.406 230.279C382.308 230.075 382.338 230.098 382.165 230.068C381.991 230.038 381.72 230.068 381.494 230.113L380.793 230.166C379.889 230.234 379.075 230.279 378.39 230.317C377.641 230.438 376.878 230.438 376.129 230.317C376.831 230.05 377.571 229.895 378.322 229.857C379 229.766 379.829 229.661 380.71 229.555L381.404 229.48C381.654 229.446 381.905 229.426 382.157 229.42C382.357 229.419 382.551 229.485 382.707 229.608C382.845 229.735 382.951 229.893 383.016 230.068C383.254 230.719 383.297 231.426 383.14 232.101C382.984 232.777 382.634 233.393 382.135 233.873C381.492 234.485 380.633 234.818 379.746 234.8C379.168 234.801 378.6 234.645 378.103 234.348C377.809 234.077 377.674 233.873 377.696 233.873Z" fill="#141414"/>
<path d="M373.96 246.103C373.96 246.103 381.556 248.989 388.948 246.895C388.948 246.895 383.372 251.567 373.199 249.773L373.96 246.103Z" fill="#AA6550"/>
<path d="M385.549 354.139C385.182 353.904 384.834 353.639 384.509 353.348C384.185 353.076 383.756 352.752 383.296 352.413C382.836 352.074 382.279 351.66 381.638 351.238C380.998 350.816 380.335 350.371 379.558 349.942C378.782 349.512 377.961 349.06 377.079 348.608C373.213 346.706 369.057 345.463 364.781 344.931C363.794 344.825 362.86 344.712 361.978 344.682C361.097 344.652 360.275 344.622 359.529 344.629C358.783 344.637 358.097 344.674 357.502 344.697C356.907 344.72 356.394 344.765 355.995 344.818C355.563 344.879 355.128 344.909 354.691 344.908C355.113 344.789 355.544 344.706 355.98 344.659C356.479 344.574 356.982 344.513 357.487 344.479C358.082 344.433 358.761 344.35 359.522 344.35C360.283 344.35 361.104 344.305 361.993 344.35C362.882 344.396 363.832 344.471 364.827 344.561C369.152 345.061 373.356 346.318 377.245 348.276C378.127 348.744 378.978 349.173 379.724 349.655C380.47 350.138 381.178 350.567 381.796 351.004C382.414 351.441 382.957 351.863 383.432 352.233C383.906 352.602 384.298 352.933 384.607 353.22C384.944 353.502 385.259 353.809 385.549 354.139Z" fill="#FAFAFA"/>
<path d="M341.262 315.437L347.441 288.664C349.807 278.596 352.61 268.921 357.32 267.775V270.887L355.301 347.387C355.301 347.387 342.709 361.705 326.666 353.755C321.647 351.268 312.492 333.748 312.492 333.748C312.492 333.748 291.219 295.732 292.101 294.006C292.983 292.281 306.004 275.507 307.33 274.67L341.262 315.437Z" fill="#FFCC00"/>
<path d="M404.846 260.247C417.129 262.606 430.956 269.772 437.316 288.128C439.645 294.827 456.554 344.268 456.554 344.268L427.716 343.665L423.021 333.477L425.282 350.01L427.234 373.595L354.441 374.786L354.954 339.249L355.655 268.574C355.655 268.574 356.468 267.496 369.03 260.571C376.829 256.276 404.846 260.247 404.846 260.247Z" fill="#FFCC00"/>
<path d="M412.147 307.472C413.345 322.4 414.717 327.004 415.915 341.924C415.944 343.339 416.199 344.741 416.669 346.076C416.918 346.74 417.321 347.334 417.845 347.811C418.369 348.288 418.999 348.634 419.683 348.819C421.808 349.249 424.566 350.786 425.161 348.706L423.149 334.336C422.717 332.245 422.049 330.21 421.16 328.27C416.691 318.346 415.041 317.765 412.117 307.472" fill="black"/>
<path d="M369.031 268.227L369.272 266.675L371.601 251.785C371.666 251.352 371.895 250.96 372.239 250.69C372.584 250.42 373.018 250.291 373.455 250.331L402.127 252.712C402.993 252.783 403.796 253.194 404.36 253.854C404.925 254.515 405.206 255.372 405.141 256.238L404.501 264.889L395.571 276.577L382.678 278.589" fill="#FFCC00"/>
<path d="M354.63 296.222C354.743 296.222 354.825 307.886 354.825 322.272C354.825 336.657 354.743 348.322 354.63 348.322C354.516 348.322 354.434 336.664 354.434 322.272C354.434 307.879 354.524 296.222 354.63 296.222Z" fill="#141414"/>
<path d="M428.327 346.023C428.29 345.969 428.259 345.911 428.236 345.85C428.168 345.714 428.093 345.549 427.995 345.338L427.121 343.356L423.979 336.039L413.738 311.843L408.139 298.505C407.271 296.581 406.648 294.556 406.285 292.476C405.967 290.66 405.801 288.82 405.788 286.976C405.691 284.298 406.079 281.625 406.933 279.086L407.167 278.461C407.265 278.28 407.348 278.099 407.431 277.933C407.558 277.654 407.709 277.387 407.883 277.134L408.199 276.667L408.32 276.516C407.823 277.349 407.406 278.227 407.077 279.139C406.288 281.667 405.946 284.314 406.067 286.96C406.076 290.891 406.894 294.777 408.471 298.377L414.1 311.707L424.205 335.933C425.471 339.023 426.503 341.532 427.219 343.295L428.025 345.307L428.229 345.835C428.27 345.893 428.303 345.956 428.327 346.023Z" fill="#141414"/>
<path d="M413.783 262.824C413.522 263.095 413.243 263.347 412.947 263.578C412.101 264.227 411.177 264.766 410.196 265.183C408.645 265.83 407.02 266.286 405.359 266.539C403.163 266.884 400.949 267.103 398.728 267.195C396.256 267.308 393.558 267.255 390.665 267.316C387.591 267.308 384.529 267.68 381.547 268.423C378.247 269.2 375.256 270.952 372.964 273.449C371.827 274.818 371.013 276.425 370.583 278.152C370.123 279.925 370.154 281.79 370.673 283.547C370.963 284.41 371.388 285.221 371.931 285.951C372.481 286.661 373.174 287.246 373.966 287.669C374.733 288.093 375.61 288.277 376.483 288.196C377.336 288.109 378.126 287.706 378.698 287.066C379.21 286.395 379.574 285.622 379.766 284.8C379.959 283.978 379.975 283.125 379.814 282.296C379.687 281.478 379.433 280.684 379.06 279.945C378.69 279.225 378.243 278.548 377.726 277.925C375.713 275.602 373 273.995 369.995 273.344C367.392 272.73 364.678 272.761 362.09 273.434C359.96 273.984 357.927 274.859 356.062 276.027C354.64 276.898 353.299 277.894 352.053 279.003C351.021 279.915 350.29 280.691 349.792 281.211L349.235 281.814L349.031 282.01C349.919 280.887 350.903 279.843 351.97 278.89C353.204 277.752 354.541 276.73 355.964 275.838C357.848 274.637 359.907 273.734 362.068 273.163C364.699 272.462 367.462 272.415 370.115 273.027C373.197 273.678 375.983 275.315 378.05 277.692C378.583 278.338 379.048 279.037 379.437 279.779C379.816 280.556 380.07 281.387 380.19 282.243C380.322 283.119 380.307 284.01 380.145 284.881C379.984 285.782 379.586 286.625 378.992 287.322C378.358 288.034 377.483 288.485 376.536 288.588C375.585 288.672 374.631 288.473 373.793 288.015C372.95 287.568 372.213 286.947 371.63 286.192C371.055 285.425 370.607 284.57 370.304 283.66C369.762 281.837 369.731 279.901 370.213 278.061C370.653 276.274 371.496 274.612 372.677 273.201C375.014 270.636 378.072 268.839 381.449 268.047C384.461 267.301 387.554 266.937 390.657 266.961C393.558 266.916 396.256 266.961 398.712 266.886C400.924 266.807 403.13 266.611 405.321 266.298C406.974 266.062 408.593 265.63 410.144 265.01C411.119 264.617 412.045 264.111 412.902 263.503C413.203 263.299 413.407 263.111 413.557 263.005C413.627 262.938 413.703 262.878 413.783 262.824Z" fill="#FAFAFA"/>
<path d="M438.702 294.157C438.597 294.191 438.488 294.209 438.378 294.21C438.167 294.21 437.858 294.27 437.451 294.277C436.313 294.315 435.173 294.287 434.038 294.195C432.598 294.089 430.895 293.871 429.011 293.614C427.128 293.358 425.063 293.064 422.878 292.951C420.834 292.84 418.785 292.995 416.781 293.411C415.149 293.756 413.584 294.364 412.147 295.212C410.839 296.015 409.678 297.034 408.711 298.226C408.752 298.125 408.808 298.031 408.877 297.947C409.038 297.682 409.219 297.43 409.419 297.194C410.149 296.302 411.023 295.538 412.004 294.933C413.461 294.047 415.055 293.41 416.721 293.049C418.757 292.609 420.843 292.441 422.923 292.552C425.131 292.672 427.203 292.974 429.087 293.245C430.971 293.516 432.659 293.773 434.083 293.908C435.507 294.044 436.675 294.112 437.474 294.119C437.884 294.105 438.294 294.118 438.702 294.157Z" fill="#FAFAFA"/>
<path d="M420.596 327.968C419.178 327.648 417.722 327.524 416.27 327.599C414.568 327.718 412.883 328.019 411.244 328.496C409.323 329.016 407.175 329.785 404.764 330.523C402.146 331.413 399.405 331.891 396.641 331.94C393.458 331.932 390.31 331.278 387.387 330.018C384.141 328.643 381.254 326.542 378.947 323.877C377.699 322.485 376.682 320.903 375.933 319.19C375.136 317.417 374.837 315.461 375.067 313.531C375.334 311.587 376.281 309.8 377.742 308.489C378.471 307.858 379.342 307.413 380.281 307.193C381.209 306.993 382.172 307.024 383.084 307.284C383.987 307.518 384.817 307.971 385.503 308.602C386.186 309.229 386.659 310.049 386.86 310.953C387.054 311.836 386.983 312.756 386.656 313.598C386.339 314.406 385.859 315.139 385.247 315.754C384.077 316.922 382.665 317.82 381.11 318.383C380.379 318.665 379.622 318.874 378.849 319.009C378.473 319.077 378.096 319.16 377.727 319.22L376.604 319.348C373.85 319.625 371.07 319.428 368.383 318.768C366.166 318.24 364.03 317.419 362.03 316.326C360.517 315.512 359.099 314.531 357.803 313.402L357.049 312.747L356.432 312.121C356.1 311.806 355.788 311.472 355.497 311.119C355.271 310.84 355.09 310.629 354.955 310.471C354.819 310.313 354.781 310.245 354.781 310.238L354.992 310.441C355.128 310.599 355.316 310.803 355.557 311.066C355.857 311.409 356.176 311.734 356.514 312.039L357.14 312.649L357.893 313.289C359.194 314.39 360.612 315.345 362.121 316.138C364.111 317.197 366.232 317.993 368.428 318.504C371.09 319.131 373.838 319.307 376.559 319.024L377.659 318.888C378.028 318.828 378.412 318.745 378.767 318.677C379.524 318.546 380.266 318.339 380.982 318.059C382.488 317.514 383.855 316.642 384.983 315.505C385.558 314.923 386.009 314.231 386.31 313.47C386.607 312.692 386.67 311.843 386.49 311.029C386.268 310.2 385.824 309.447 385.205 308.852C384.586 308.257 383.816 307.842 382.979 307.653C382.127 307.411 381.229 307.382 380.364 307.57C379.487 307.776 378.674 308.195 377.998 308.791C376.603 310.034 375.701 311.738 375.459 313.591C375.242 315.448 375.528 317.33 376.287 319.039C377.017 320.712 378.003 322.26 379.211 323.628C381.479 326.243 384.314 328.305 387.5 329.656C390.373 330.914 393.474 331.571 396.611 331.586C399.347 331.554 402.061 331.099 404.658 330.237C407.062 329.483 409.18 328.73 411.161 328.262C412.816 327.797 414.517 327.517 416.233 327.426C416.858 327.391 417.484 327.391 418.109 327.426C418.644 327.509 419.104 327.547 419.466 327.629L420.287 327.833C420.396 327.864 420.5 327.909 420.596 327.968Z" fill="#FAFAFA"/>
<path d="M354.382 319.936C354.314 319.936 353.968 319.137 353.237 317.909C351.324 314.696 348.535 312.095 345.197 310.411C343.916 309.763 343.072 309.476 343.094 309.416C343.117 309.356 343.32 309.416 343.712 309.552C344.258 309.717 344.792 309.921 345.31 310.162C348.792 311.736 351.662 314.41 353.478 317.773C353.765 318.275 354.017 318.796 354.232 319.333C354.31 319.526 354.361 319.729 354.382 319.936Z" fill="#FAFAFA"/>
<path d="M325.134 352.18C325.092 352.12 325.054 352.057 325.021 351.991L324.734 351.426C324.463 350.929 324.071 350.183 323.589 349.218C322.189 346.498 321.034 343.659 320.138 340.733C319.54 338.699 319.178 336.603 319.06 334.486C319 333.302 319.048 332.114 319.203 330.937C319.391 329.695 319.688 328.472 320.093 327.283C320.974 324.712 322.496 322.409 324.516 320.591C325.595 319.601 326.864 318.84 328.246 318.356C329.629 317.871 331.095 317.673 332.556 317.773C334.075 317.88 335.495 318.568 336.52 319.694C337.007 320.252 337.361 320.912 337.555 321.626C337.75 322.34 337.78 323.089 337.643 323.816C337.482 324.53 337.109 325.179 336.573 325.678C336.052 326.158 335.42 326.503 334.734 326.68C333.407 327.025 332 326.855 330.793 326.205C329.674 325.601 328.695 324.766 327.922 323.756C327.182 322.822 326.572 321.793 326.106 320.697C325.283 318.72 324.939 316.577 325.104 314.442C325.256 312.686 325.769 310.98 326.611 309.431C327.235 308.262 328.032 307.195 328.977 306.266C329.565 305.677 330.214 305.151 330.914 304.699C331.093 304.576 331.279 304.463 331.471 304.36C331.533 304.321 331.599 304.288 331.667 304.262C331.667 304.262 331.426 304.435 330.959 304.759C330.286 305.239 329.658 305.779 329.082 306.372C328.178 307.31 327.416 308.377 326.822 309.537C326.019 311.065 325.539 312.743 325.413 314.465C325.268 316.552 325.619 318.643 326.437 320.569C326.895 321.633 327.493 322.632 328.216 323.537C328.965 324.505 329.91 325.303 330.989 325.881C332.115 326.487 333.429 326.643 334.666 326.318C335.299 326.169 335.879 325.849 336.342 325.393C336.806 324.937 337.136 324.363 337.296 323.733C337.416 323.068 337.384 322.383 337.204 321.731C337.024 321.079 336.7 320.476 336.256 319.966C335.294 318.917 333.968 318.275 332.549 318.172C331.131 318.068 329.706 318.254 328.363 318.719C327.019 319.184 325.784 319.919 324.734 320.877C322.76 322.65 321.268 324.895 320.402 327.403C319.994 328.569 319.694 329.77 319.505 330.99C319.348 332.143 319.295 333.309 319.347 334.471C319.453 336.566 319.797 338.641 320.371 340.658C321.239 343.576 322.348 346.416 323.687 349.15C324.147 350.107 324.508 350.853 324.765 351.411L325.043 351.991C325.084 352.049 325.114 352.112 325.134 352.18Z" fill="#FAFAFA"/>
<path d="M315.837 285.657C315.878 285.757 315.901 285.865 315.905 285.973C315.959 286.275 315.996 286.579 316.018 286.885C316.117 288.011 316.117 289.143 316.018 290.269C315.713 294.017 314.432 297.619 312.3 300.717C310.169 303.815 307.262 306.3 303.871 307.924C302.854 308.418 301.798 308.827 300.713 309.145C300.337 309.258 300.028 309.318 299.824 309.363C299.721 309.393 299.615 309.411 299.508 309.416C299.886 309.252 300.273 309.112 300.668 308.994C304.72 307.652 308.298 305.168 310.972 301.84C313.645 298.513 315.301 294.484 315.739 290.238C315.858 289.127 315.901 288.01 315.867 286.893C315.831 286.482 315.821 286.069 315.837 285.657Z" fill="#FAFAFA"/>
<path d="M445.302 318.331C444.18 319.034 443.194 319.936 442.393 320.991C441.64 321.955 440.886 323.214 440.034 324.608C439.099 326.127 438.018 327.553 436.809 328.865C434.605 331.245 431.991 333.21 429.093 334.667C428.22 335.11 427.319 335.495 426.395 335.82C426.059 335.952 425.711 336.053 425.355 336.122C425.669 335.948 425.997 335.802 426.335 335.685C426.968 335.398 427.887 335.014 428.965 334.419C431.78 332.905 434.327 330.937 436.5 328.594C437.694 327.301 438.766 325.901 439.703 324.412C440.452 323.169 441.27 321.969 442.152 320.817C442.763 320.04 443.493 319.363 444.315 318.813C444.539 318.668 444.773 318.54 445.015 318.429C445.204 318.353 445.302 318.315 445.302 318.331Z" fill="#FAFAFA"/>
<path d="M404.613 261.106C404.5 261.144 404.384 261.172 404.266 261.189L403.264 261.37C402.39 261.513 401.124 261.709 399.564 261.92C396.429 262.342 392.089 262.832 387.274 263.186C385.019 263.392 382.755 263.473 380.492 263.427C378.626 263.38 376.776 263.066 374.999 262.493C373.803 262.098 372.672 261.527 371.645 260.797C371.367 260.596 371.101 260.38 370.847 260.149C370.756 260.075 370.675 259.989 370.605 259.893C370.605 259.893 370.997 260.187 371.728 260.647C372.77 261.316 373.898 261.841 375.082 262.207C376.842 262.736 378.669 263.017 380.507 263.043C382.771 263.067 385.034 262.977 387.289 262.772C392.089 262.418 396.429 261.973 399.564 261.619L403.279 261.197C403.721 261.133 404.167 261.102 404.613 261.106Z" fill="#141414"/>
<path d="M456.186 349.565C456.745 352.477 456.659 355.476 455.932 358.351C455.205 361.226 453.855 363.906 451.978 366.201C450.101 368.497 447.743 370.353 445.071 371.637C442.398 372.921 439.476 373.603 436.511 373.633L379.43 373L380.937 354.516L429.872 347.221" fill="white"/>
<path d="M384.461 355.36C384.197 355.45 380.904 353.966 377.95 352.602C374.812 351.158 371.37 350.496 367.921 350.673L354.319 351.366C354.319 351.366 355.155 353.627 356.58 354.38C358.004 355.134 366.481 355.345 366.481 355.345L366.044 355.797C364.258 357.633 361.823 358.696 359.262 358.758H357.959C356.994 358.681 356.041 358.496 355.118 358.208L351.765 356.852C350.747 356.392 349.677 356.467 349.233 357.485C348.788 358.502 349.127 359.685 351.9 361.079C353.407 361.833 359.187 363.845 359.187 363.845C359.226 364.662 359.34 365.474 359.526 366.271C359.775 367.108 362.028 367.944 362.028 367.944C362.615 369.186 363.284 370.387 364.032 371.538C364.296 371.84 366.338 372.473 368.516 373.083C372.026 374.069 375.744 374.041 379.239 373L384.423 371.455V355.631" fill="white"/>
<path d="M365.849 365.676C364.649 365.704 363.452 365.533 362.307 365.171C361.138 364.919 360.016 364.482 358.984 363.875C359.022 363.777 360.491 364.35 362.398 364.847C364.304 365.344 365.857 365.578 365.849 365.676Z" fill="#AA6550"/>
<path d="M365.366 368.863C364.073 369.024 362.768 368.67 361.734 367.876C362.348 368.008 362.953 368.181 363.543 368.396C364.162 368.505 364.771 368.661 365.366 368.863Z" fill="#AA6550"/>
<path d="M367.853 354.139C367.553 354.556 367.201 354.934 366.805 355.262C365.903 356.123 364.907 356.882 363.836 357.522C362.758 358.152 361.585 358.605 360.363 358.864C359.872 359 359.363 359.056 358.855 359.03C360.541 358.647 362.168 358.041 363.693 357.229C364.74 356.597 365.735 355.884 366.67 355.096C367.033 354.741 367.429 354.42 367.853 354.139Z" fill="#AA6550"/>
<path d="M385.847 352.865L384.461 373.769H438.226C441.876 373.774 445.458 372.784 448.588 370.905C452.127 368.776 454.925 365.609 456.602 361.834C458.279 358.059 458.754 353.86 457.962 349.806C457.188 345.839 456.027 341.957 454.495 338.217L427.458 342.662L428.325 346.031L385.847 352.865Z" fill="#FFCC00"/>
<path d="M440.785 344.275C440.608 344.331 440.427 344.372 440.242 344.396L438.668 344.682L432.888 345.647L413.778 348.661L394.645 351.585L388.843 352.428L387.261 352.639C387.077 352.675 386.89 352.69 386.703 352.685C386.883 352.627 387.067 352.584 387.253 352.557L388.821 352.278L394.6 351.313L413.718 348.299L432.843 345.398L438.645 344.554L440.227 344.343C440.41 344.3 440.597 344.277 440.785 344.275Z" fill="#141414"/>
<path d="M413.272 373.806C413.174 373.806 413.596 372.299 413.649 369.835C413.66 369.166 413.633 368.497 413.566 367.831C413.501 367.071 413.39 366.316 413.234 365.57C412.86 363.851 412.272 362.186 411.486 360.612C410.679 359.046 409.693 357.579 408.547 356.241C408.281 355.94 408.017 355.646 407.756 355.36C407.5 355.073 407.221 354.825 407.002 354.606C406.497 354.086 405.962 353.672 405.495 353.272C403.574 351.728 402.21 351.012 402.255 350.936C402.588 351.07 402.909 351.234 403.212 351.426C403.587 351.622 403.949 351.841 404.297 352.082C404.696 352.368 405.194 352.647 405.669 353.054C406.208 353.465 406.726 353.902 407.221 354.365C407.485 354.621 407.778 354.87 408.042 355.119L408.864 356.008C410.046 357.356 411.058 358.844 411.878 360.439C412.678 362.044 413.265 363.746 413.626 365.502C413.781 366.268 413.882 367.044 413.927 367.823C413.976 368.503 413.976 369.186 413.927 369.865C413.913 370.426 413.863 370.985 413.777 371.538C413.735 371.958 413.662 372.373 413.558 372.782C413.489 373.13 413.393 373.473 413.272 373.806Z" fill="#FAFAFA"/>
<path d="M445.998 372.232C445.158 372.226 444.321 372.125 443.504 371.93C442.539 371.712 441.603 371.381 440.716 370.943C439.536 370.36 438.472 369.569 437.574 368.607C436.48 367.432 435.686 366.01 435.26 364.463C435.022 363.603 434.888 362.717 434.861 361.825C434.806 360.882 434.882 359.936 435.087 359.014C435.29 358.034 435.665 357.098 436.195 356.249C436.757 355.353 437.534 354.612 438.455 354.094C439.412 353.54 440.509 353.279 441.613 353.34C442.18 353.381 442.733 353.535 443.239 353.794C443.745 354.053 444.194 354.411 444.559 354.847C444.936 355.279 445.219 355.785 445.391 356.333C445.562 356.88 445.617 357.457 445.554 358.027C445.46 358.578 445.245 359.101 444.925 359.558C444.604 360.016 444.186 360.396 443.7 360.672C441.876 361.627 439.776 361.915 437.762 361.486C434.902 361.043 432.288 359.613 430.373 357.444C428.459 355.274 427.364 352.503 427.28 349.61C427.232 348.77 427.303 347.928 427.491 347.108C427.422 347.938 427.402 348.771 427.431 349.603C427.569 351.871 428.31 354.062 429.579 355.947C430.518 357.343 431.733 358.531 433.15 359.438C434.567 360.346 436.154 360.953 437.815 361.222C439.743 361.628 441.752 361.348 443.496 360.431C443.934 360.184 444.311 359.843 444.6 359.432C444.889 359.022 445.084 358.552 445.169 358.057C445.223 357.542 445.17 357.021 445.013 356.527C444.856 356.033 444.599 355.576 444.258 355.186C443.927 354.786 443.52 354.456 443.058 354.218C442.597 353.98 442.093 353.837 441.575 353.8C440.553 353.73 439.534 353.964 438.644 354.471C437.806 354.971 437.087 355.646 436.534 356.449C435.981 357.253 435.609 358.167 435.441 359.127C435.237 360.022 435.159 360.94 435.207 361.855C435.228 362.718 435.352 363.576 435.577 364.41C435.972 365.917 436.727 367.305 437.777 368.456C438.639 369.404 439.659 370.195 440.791 370.792C441.658 371.232 442.57 371.576 443.512 371.817C445.102 372.156 446.006 372.179 445.998 372.232Z" fill="#FAFAFA"/>
<path d="M232.722 144.503H98.0714C90.2012 144.503 82.6533 147.629 77.0883 153.194C71.5232 158.759 68.3968 166.307 68.3968 174.178V222.163H39.3477L68.3968 251.205V283.833C68.3968 291.703 71.5232 299.251 77.0883 304.816C82.6533 310.381 90.2012 313.508 98.0714 313.508H232.722C236.619 313.508 240.478 312.74 244.078 311.249C247.678 309.758 250.95 307.572 253.705 304.816C256.461 302.061 258.647 298.79 260.138 295.189C261.629 291.589 262.397 287.73 262.397 283.833V174.178C262.397 170.281 261.629 166.422 260.138 162.822C258.647 159.221 256.461 155.95 253.705 153.194C250.95 150.439 247.678 148.253 244.078 146.762C240.478 145.27 236.619 144.503 232.722 144.503Z" fill="#2D2D2D"/>
<path d="M177.713 149.582C176.862 151.782 178.324 154.186 179.974 155.889C181.624 157.592 183.598 159.205 184.118 161.51C184.548 163.447 183.832 165.459 184.005 167.433C184.179 169.408 185.271 171.269 185.889 173.198C187.012 176.694 186.56 180.515 185.558 184.049C184.835 186.986 183.454 189.72 181.519 192.044C180.544 193.195 179.336 194.126 177.975 194.776C176.613 195.425 175.129 195.778 173.621 195.812C173.195 195.839 172.768 195.777 172.366 195.632C171.964 195.487 171.596 195.261 171.285 194.968C170.863 194.358 170.629 193.637 170.615 192.896C168.889 177.725 168.889 162.408 170.615 147.238" fill="#141414"/>
<path d="M176.123 198.457C182.678 198.17 188.737 204.44 188.217 210.981C194.856 212.601 199.52 219.903 198.247 226.609C197.817 228.825 196.83 230.935 196.694 233.188C196.544 235.637 197.448 238.025 197.893 240.437C198.746 244.832 198.29 249.38 196.581 253.518C195.549 256.013 193.62 258.59 190.922 258.665C190.008 258.626 189.118 258.364 188.329 257.9C187.541 257.436 186.879 256.785 186.401 256.005C185.461 254.426 184.841 252.677 184.577 250.858C183.409 244.973 183.07 238.922 181.443 233.135C179.815 227.348 176.688 221.658 171.458 218.72C168.572 217.092 165.106 216.323 162.808 213.927C161.651 212.623 160.881 211.024 160.581 209.307C160.282 207.591 160.466 205.824 161.112 204.206C161.788 202.602 162.796 201.158 164.068 199.97C165.341 198.782 166.85 197.876 168.497 197.311" fill="#141414"/>
<path d="M130.744 154.977C130.668 152.174 133.253 150.011 135.86 148.987C138.467 147.962 141.369 147.57 143.689 145.972C145.754 144.586 147.133 142.423 148.874 140.698C151.023 138.518 153.714 136.949 156.67 136.153C159.626 135.357 162.741 135.362 165.694 136.168C168.647 136.973 171.333 138.55 173.476 140.737C175.618 142.923 177.14 145.641 177.885 148.61C178.887 152.596 178.202 157.313 175.059 159.966C171.412 163.04 166.017 162.362 161.322 161.405C156.628 160.448 151.353 159.499 147.45 162.287C145.099 163.944 143.742 166.635 142.303 169.129C140.864 171.623 139.063 174.132 136.35 175.097C133.637 176.061 129.93 174.419 129.824 171.54" fill="#141414"/>
<path d="M141.793 155.55C140.625 155.678 139.548 156.239 138.774 157.122C138 158.005 137.585 159.146 137.611 160.32L140.406 223.618C140.527 231.093 151.453 235.29 159.456 235.109C167.541 234.921 167.797 230.957 167.903 223.844C168.069 211.96 168.054 207.499 168.061 207.567C168.069 207.635 178.272 205.849 180.359 192.496C181.391 185.865 181.037 174.999 180.457 166.122C179.937 158.127 174.617 148.331 166.652 149.19L141.793 155.55Z" fill="white"/>
<path d="M178.156 174.509C178.162 174.954 177.994 175.384 177.687 175.707C177.38 176.03 176.959 176.219 176.513 176.235C176.298 176.253 176.082 176.229 175.876 176.163C175.671 176.097 175.48 175.991 175.316 175.85C175.152 175.71 175.018 175.539 174.92 175.346C174.823 175.153 174.765 174.943 174.75 174.728C174.744 174.282 174.912 173.852 175.22 173.53C175.527 173.207 175.948 173.018 176.393 173.002C176.608 172.983 176.825 173.008 177.03 173.074C177.236 173.14 177.426 173.246 177.59 173.386C177.754 173.527 177.889 173.698 177.986 173.891C178.083 174.084 178.141 174.294 178.156 174.509Z" fill="#141414"/>
<path d="M178.111 171.796C177.9 172.022 176.604 171.043 174.765 171.043C172.926 171.043 171.578 171.977 171.374 171.751C171.276 171.653 171.495 171.254 172.082 170.824C172.876 170.281 173.819 169.997 174.78 170.01C175.737 170.005 176.671 170.303 177.448 170.862C178.02 171.329 178.216 171.698 178.111 171.796Z" fill="#141414"/>
<path d="M160.465 174.509C160.469 174.954 160.3 175.383 159.993 175.705C159.686 176.027 159.266 176.217 158.822 176.235C158.607 176.253 158.39 176.229 158.185 176.163C157.979 176.097 157.789 175.991 157.625 175.85C157.461 175.71 157.326 175.539 157.229 175.346C157.132 175.153 157.074 174.943 157.059 174.728C157.054 174.283 157.224 173.854 157.53 173.532C157.837 173.21 158.257 173.02 158.701 173.002C158.916 172.984 159.132 173.01 159.338 173.076C159.543 173.142 159.733 173.249 159.897 173.389C160.06 173.529 160.195 173.7 160.292 173.892C160.39 174.084 160.449 174.294 160.465 174.509Z" fill="#141414"/>
<path d="M160.033 172.181C159.822 172.407 158.526 171.427 156.688 171.427C154.849 171.427 153.5 172.361 153.304 172.135C153.206 172.037 153.417 171.63 154.005 171.201C154.798 170.664 155.737 170.382 156.695 170.395C157.652 170.389 158.586 170.687 159.363 171.246C159.943 171.683 160.139 172.083 160.033 172.181Z" fill="#141414"/>
<path d="M166.74 185.805C166.74 185.699 167.87 185.503 169.754 185.262C170.221 185.209 170.666 185.119 170.749 184.795C170.784 184.312 170.674 183.829 170.432 183.408L169.031 179.829C167.094 174.743 165.685 170.561 165.896 170.485C166.107 170.41 167.84 174.471 169.777 179.528L171.118 183.122C171.41 183.688 171.497 184.337 171.367 184.961C171.301 185.125 171.199 185.273 171.068 185.393C170.938 185.512 170.782 185.602 170.613 185.654C170.355 185.723 170.089 185.761 169.822 185.767C167.9 185.903 166.747 185.91 166.74 185.805Z" fill="#141414"/>
<path d="M168.062 207.567C161.787 207.675 155.604 206.04 150.203 202.842C150.203 202.842 154.551 211.99 167.889 210.717L168.062 207.567Z" fill="#E5E5E5"/>
<path d="M165.973 190.243C165.623 189.802 165.165 189.458 164.644 189.243C164.124 189.028 163.557 188.95 162.997 189.015C162.591 189.051 162.197 189.169 161.838 189.362C161.48 189.555 161.164 189.819 160.91 190.138C160.665 190.445 160.52 190.82 160.496 191.213C160.472 191.605 160.569 191.995 160.774 192.33C161.072 192.657 161.46 192.889 161.888 192.997C162.317 193.106 162.768 193.086 163.185 192.941C164.05 192.627 164.846 192.148 165.529 191.532C165.738 191.383 165.917 191.197 166.056 190.982C166.124 190.882 166.161 190.763 166.161 190.642C166.161 190.522 166.124 190.403 166.056 190.303" fill="#E5E5E5"/>
<path d="M161.331 187.093C161.632 187.093 161.64 189.068 163.35 190.484C165.061 191.901 167.186 191.667 167.201 191.946C167.201 192.074 166.726 192.338 165.829 192.368C164.659 192.386 163.52 191.991 162.612 191.253C161.744 190.543 161.185 189.525 161.052 188.412C160.969 187.575 161.218 187.078 161.331 187.093Z" fill="#141414"/>
<path d="M160.854 168.963C160.673 169.46 158.835 169.227 156.679 169.49C154.524 169.754 152.776 170.35 152.49 169.905C152.362 169.686 152.663 169.219 153.364 168.729C154.299 168.128 155.36 167.748 156.464 167.617C157.569 167.486 158.689 167.609 159.739 167.976C160.53 168.315 160.929 168.722 160.854 168.963Z" fill="#141414"/>
<path d="M177.429 166.476C177.105 166.898 175.839 166.476 174.309 166.476C172.779 166.476 171.498 166.763 171.205 166.333C171.069 166.115 171.272 165.7 171.838 165.301C172.594 164.828 173.473 164.589 174.365 164.614C175.256 164.64 176.121 164.928 176.849 165.444C177.391 165.843 177.564 166.273 177.429 166.476Z" fill="#141414"/>
<path d="M132.486 199.399C134.328 199.77 136.231 199.698 138.039 199.188C139.847 198.678 141.507 197.745 142.883 196.466C144.258 195.186 145.309 193.598 145.949 191.832C146.589 190.066 146.799 188.173 146.562 186.31C146.148 183.039 144.385 179.709 145.523 176.611C147.03 172.512 152.764 171.254 154.286 167.17C155.168 164.788 154.377 162.015 155.379 159.687C156.321 157.494 158.627 156.236 160.872 155.422C163.118 154.608 165.514 154.058 167.398 152.588C169.282 151.119 170.45 148.369 169.237 146.319C159.284 147.513 149.51 149.888 140.12 153.395C137.942 154.201 135.659 155.181 134.37 157.11C133.014 159.159 133.082 161.804 133.195 164.253C133.752 176.22 131.929 187.432 132.486 199.399Z" fill="#141414"/>
<path d="M129.314 195.638C129.239 195.627 129.165 195.604 129.096 195.571C128.882 195.496 128.677 195.397 128.486 195.277C127.754 194.796 127.178 194.112 126.828 193.31C126.257 192.041 126.104 190.625 126.391 189.263C126.846 187.496 127.67 185.844 128.81 184.418C129.978 182.791 131.462 181.148 132.472 179.038C133.004 177.971 133.299 176.801 133.338 175.609C133.296 174.34 133.041 173.087 132.585 171.902C132.09 170.615 131.835 169.249 131.831 167.87C131.904 166.395 132.337 164.961 133.093 163.692C133.848 162.423 134.902 161.358 136.164 160.591C137.517 159.853 139.018 159.425 140.557 159.34C142.047 159.267 143.522 159.014 144.95 158.587C146.293 158.081 147.396 157.088 148.04 155.806C148.656 154.546 149.145 153.229 149.502 151.873C149.883 150.572 150.388 149.31 151.009 148.105C152.12 145.81 153.824 143.854 155.945 142.438C157.833 141.254 160.041 140.683 162.267 140.803C164.111 140.893 165.868 141.611 167.248 142.838C168.289 143.759 169.069 144.939 169.508 146.259C169.786 147.082 169.891 147.955 169.817 148.821C169.803 149.122 169.752 149.421 169.667 149.71C169.667 149.71 169.719 149.401 169.742 148.821C169.779 147.968 169.651 147.116 169.365 146.311C168.913 145.031 168.134 143.89 167.105 143.003C165.755 141.829 164.047 141.149 162.259 141.074C160.097 140.972 157.956 141.538 156.126 142.694C154.047 144.063 152.372 145.962 151.273 148.195C150.664 149.401 150.174 150.663 149.811 151.963C149.443 153.344 148.938 154.684 148.304 155.964C147.961 156.632 147.513 157.24 146.978 157.765C146.413 158.283 145.753 158.685 145.033 158.948C143.562 159.382 142.044 159.635 140.512 159.702C139.029 159.779 137.581 160.189 136.277 160.9C135.07 161.632 134.061 162.649 133.337 163.862C132.613 165.074 132.197 166.445 132.125 167.855C132.139 169.191 132.394 170.514 132.879 171.759C133.345 172.98 133.6 174.272 133.632 175.579C133.581 176.823 133.263 178.041 132.698 179.151C131.643 181.306 130.143 182.919 128.93 184.554C127.797 185.94 126.97 187.55 126.504 189.279C126.204 190.597 126.328 191.976 126.858 193.22C127.185 194.007 127.728 194.687 128.425 195.179C129.013 195.533 129.322 195.608 129.314 195.638Z" fill="#282828"/>
<path d="M168.035 137.533C168.218 137.546 168.396 137.6 168.555 137.691C169.006 137.886 169.429 138.139 169.814 138.444C171.125 139.464 171.993 140.95 172.239 142.592C172.484 144.235 172.088 145.91 171.132 147.268C170.852 147.674 170.523 148.043 170.153 148.369C170.021 148.496 169.868 148.598 169.7 148.67C169.648 148.61 170.266 148.142 170.899 147.118C171.747 145.795 172.088 144.209 171.856 142.654C171.625 141.099 170.837 139.681 169.64 138.663C169.126 138.258 168.59 137.881 168.035 137.533Z" fill="#282828"/>
<path d="M197.561 228.99C197.721 228.53 197.85 228.059 197.946 227.581C198.123 226.266 197.895 224.927 197.29 223.746C196.363 222.006 194.884 220.625 193.085 219.82C192.035 219.322 190.937 218.933 189.807 218.659C188.632 218.35 187.389 218.101 186.145 217.702C184.896 217.356 183.744 216.727 182.777 215.863C181.915 214.996 181.357 213.872 181.187 212.661C180.983 211.538 180.916 210.476 180.667 209.526C180.442 208.648 180.028 207.83 179.454 207.13C178.611 206.105 177.492 205.344 176.229 204.937C175.757 204.809 175.279 204.706 174.797 204.628C174.924 204.606 175.054 204.606 175.181 204.628C175.55 204.646 175.916 204.702 176.274 204.794C177.595 205.158 178.777 205.912 179.665 206.957C180.284 207.68 180.734 208.532 180.983 209.451C181.255 210.438 181.338 211.516 181.541 212.601C181.7 213.743 182.23 214.802 183.048 215.615C183.97 216.438 185.072 217.034 186.266 217.355C187.479 217.747 188.722 218.004 189.905 218.312C191.057 218.602 192.175 219.008 193.244 219.526C195.101 220.377 196.615 221.833 197.539 223.655C198.143 224.888 198.338 226.282 198.096 227.634C198.023 227.997 197.91 228.351 197.757 228.689C197.704 228.796 197.638 228.898 197.561 228.99Z" fill="#282828"/>
<path d="M139.599 205.389C132.817 203.588 127.015 196.972 124.648 190.394C122.282 183.815 122.282 176.642 122.893 169.679C123.33 164.63 124.211 159.295 127.565 155.497C132.613 149.77 138.114 146.854 145.71 147.088" fill="#141414"/>
<path d="M179.012 220.083L172.719 218.508C173.405 218.035 173.904 217.337 174.132 216.536C174.361 215.735 174.303 214.879 173.97 214.115C173.572 213.138 172.913 212.289 172.065 211.66C171.218 211.032 170.214 210.648 169.163 210.551L140.46 207.311C139.96 207.251 139.453 207.357 139.019 207.613C138.584 207.869 138.246 208.26 138.056 208.727C136.785 211.963 136.743 214.625 137.928 216.715H137.793L132.262 217.815L122.91 300.509L184.309 297.638L179.012 220.083Z" fill="#F5F5F5"/>
<path d="M169.979 218.802C169.602 218.913 169.216 218.988 168.826 219.029C168.072 219.149 166.995 219.285 165.653 219.413C158.634 220.07 151.558 219.722 144.637 218.38C143.311 218.124 142.248 217.876 141.517 217.687C141.134 217.609 140.758 217.495 140.395 217.348C140.783 217.382 141.168 217.444 141.547 217.537C142.301 217.687 143.364 217.883 144.69 218.109C151.603 219.299 158.634 219.648 165.631 219.149C166.972 219.059 168.057 218.968 168.811 218.893C169.197 218.83 169.588 218.8 169.979 218.802Z" fill="#141414"/>
<path d="M142.227 231.959C142.831 230.705 143.55 229.509 144.374 228.387C145.094 227.195 145.924 226.072 146.853 225.034C146.248 226.29 145.527 227.485 144.698 228.606C143.982 229.799 143.155 230.922 142.227 231.959Z" fill="#E1E1E1"/>
<path d="M162.018 233.361C161.015 232.423 160.102 231.394 159.29 230.286C158.382 229.254 157.572 228.139 156.871 226.956C157.875 227.895 158.788 228.927 159.599 230.038C160.509 231.066 161.319 232.179 162.018 233.361Z" fill="#E1E1E1"/>
<path d="M152.821 243.873C152.388 242.532 152.078 241.155 151.894 239.758C151.581 238.385 151.402 236.984 151.359 235.576C151.794 236.916 152.104 238.294 152.286 239.691C152.591 241.066 152.77 242.465 152.821 243.873Z" fill="#E1E1E1"/>
<path d="M167.933 244.521C166.87 245.847 165.706 247.089 164.451 248.236C163.282 249.471 162.023 250.617 160.684 251.664C161.744 250.336 162.908 249.093 164.165 247.949C165.334 246.715 166.593 245.569 167.933 244.521Z" fill="#E1E1E1"/>
<path d="M147.653 258.612C146.227 257.842 144.951 256.821 143.886 255.598C142.732 254.467 141.788 253.14 141.098 251.679C141.203 251.619 142.356 253.428 144.172 255.334C145.988 257.241 147.744 258.514 147.653 258.612Z" fill="#E1E1E1"/>
<path d="M154.18 269.493C154.217 269.606 152.462 270.164 150.472 271.219C148.483 272.274 147.028 273.397 146.953 273.306C147.897 272.286 149.031 271.459 150.291 270.872C151.487 270.168 152.807 269.7 154.18 269.493Z" fill="#E1E1E1"/>
<path d="M164.768 270.202C164.323 269.816 163.922 269.384 163.57 268.913C162.876 268.077 161.949 266.894 160.985 265.545C160.02 264.196 159.207 262.938 158.641 262.011C158.303 261.529 158.025 261.008 157.812 260.458C158.216 260.886 158.572 261.356 158.875 261.86L161.309 265.319L163.788 268.74C164.168 269.189 164.497 269.679 164.768 270.202Z" fill="#E1E1E1"/>
<path d="M165.831 279.478C164.367 279.991 162.851 280.345 161.31 280.533C159.786 280.851 158.233 281.005 156.676 280.992C158.182 280.618 159.709 280.337 161.25 280.148C162.762 279.834 164.292 279.61 165.831 279.478Z" fill="#E1E1E1"/>
<path d="M148.687 217.65C148.635 217.612 148.996 217.197 149.305 216.399C149.689 215.354 149.803 214.229 149.637 213.128C149.449 212.019 149.122 210.938 148.665 209.911C148.445 209.492 148.273 209.049 148.152 208.592C148.471 208.948 148.725 209.356 148.906 209.798C149.455 210.821 149.829 211.929 150.014 213.076C150.195 214.241 150.036 215.435 149.554 216.512C149.162 217.295 148.717 217.687 148.687 217.65Z" fill="#E1E1E1"/>
<path d="M160.155 211.463C160.75 212.165 161.141 213.018 161.285 213.927C161.557 214.81 161.585 215.75 161.368 216.647C161.255 216.647 161.24 215.442 160.901 214.017C160.562 212.593 160.049 211.516 160.155 211.463Z" fill="#E1E1E1"/>
<path d="M211.884 270.375L240.444 220.212L243.888 211.516C243.888 211.516 252.794 192.368 253.412 190.416C254.128 188.156 255.387 187.967 256.2 188.291C257.466 188.789 257.873 190.673 257.316 192.624C257.12 193.295 253.661 203.814 253.661 203.814C254.594 203.016 255.581 202.283 256.615 201.622C258.808 200.115 262.824 200.19 266.547 201.516C270.269 202.842 271.188 203.543 270.744 205.013C270.643 205.286 270.484 205.533 270.277 205.738C270.07 205.942 269.82 206.098 269.546 206.196C268.667 206.55 267.689 206.572 266.795 206.256C260.812 204.214 258.16 206.911 258.16 206.911L257.715 208.049C257.715 208.049 262.236 206.61 264.768 208.645C265.148 208.944 265.466 209.315 265.703 209.737C266.519 210.005 267.251 210.481 267.828 211.118C268.404 211.755 268.804 212.532 268.989 213.371C269.174 214.21 269.137 215.082 268.882 215.903C268.627 216.723 268.162 217.463 267.534 218.049C266.916 218.622 266.027 219.036 265.273 218.629C264.911 218.376 264.618 218.037 264.422 217.642C264.301 217.439 264.162 217.247 264.007 217.069L262.304 220.083C262.304 220.083 258.107 226.647 256.6 229.706L236.925 282.1C236.278 283.825 235.294 285.404 234.031 286.744C232.767 288.084 231.249 289.159 229.566 289.907C227.882 290.654 226.066 291.058 224.225 291.095C222.383 291.133 220.552 290.803 218.84 290.125C216.994 289.395 215.327 288.276 213.951 286.846C212.575 285.416 211.521 283.707 210.862 281.835C210.203 279.963 209.953 277.971 210.129 275.994C210.306 274.017 210.904 272.101 211.884 270.375Z" fill="white"/>
<path d="M242.414 220.046C243.424 220.701 244.818 220.257 245.722 219.466C246.626 218.674 247.229 217.612 248.103 216.76C250.643 214.213 254.885 213.98 257.319 211.312C257.658 210.943 257.96 210.378 257.666 209.971C257.372 209.564 256.829 209.647 256.377 209.737L244.69 212.021" fill="white"/>
<path d="M244.689 212.021C245.081 211.837 245.497 211.708 245.924 211.636C246.731 211.44 247.906 211.169 249.353 210.883L254.447 209.798L255.954 209.496C256.534 209.28 257.174 209.299 257.74 209.549C257.901 209.668 258.023 209.833 258.091 210.023C258.158 210.212 258.167 210.417 258.117 210.611C258.039 210.931 257.884 211.226 257.665 211.47C257.269 211.907 256.827 212.298 256.346 212.638C254.402 213.98 252.269 214.537 250.566 215.427C249.755 215.813 249.008 216.321 248.351 216.934C247.748 217.514 247.273 218.177 246.776 218.742C246.418 219.241 245.955 219.655 245.42 219.956C244.885 220.256 244.291 220.436 243.679 220.483C242.782 220.483 242.413 220.046 242.443 220.038C242.837 220.168 243.25 220.229 243.664 220.219C244.22 220.127 244.75 219.921 245.222 219.613C245.694 219.306 246.098 218.904 246.407 218.433C246.889 217.775 247.405 217.141 247.952 216.534C248.635 215.857 249.42 215.293 250.28 214.861C252.036 213.912 254.161 213.354 255.954 212.073C256.388 211.769 256.787 211.417 257.145 211.026C257.476 210.657 257.589 210.212 257.356 210.084C257.122 209.956 256.602 210.016 256.082 210.122L254.575 210.4L249.451 211.342C247.989 211.599 246.806 211.802 245.985 211.923C245.559 212.013 245.123 212.046 244.689 212.021Z" fill="#E5E5E5"/>
<path d="M257.559 208.064C257.861 207.366 258.32 206.747 258.9 206.256C259.552 205.767 260.346 205.502 261.161 205.502C262.186 205.507 263.204 205.678 264.175 206.007C265.17 206.339 266.194 206.571 267.235 206.7C268.109 206.795 268.992 206.657 269.797 206.301C270.072 206.175 270.315 205.986 270.505 205.749C270.695 205.512 270.826 205.234 270.889 204.937C270.946 204.725 270.946 204.501 270.889 204.289C270.844 204.289 270.844 204.523 270.731 204.892C270.649 205.147 270.511 205.381 270.327 205.577C270.143 205.772 269.918 205.924 269.668 206.022C268.904 206.308 268.081 206.401 267.272 206.293C266.263 206.146 265.27 205.909 264.303 205.585C263.298 205.248 262.244 205.082 261.184 205.095C260.294 205.116 259.437 205.434 258.75 206C258.295 206.381 257.945 206.871 257.732 207.424C257.544 207.831 257.529 208.064 257.559 208.064Z" fill="#E5E5E5"/>
<path d="M257.521 191.878C257.224 192.552 256.987 193.25 256.813 193.965L255.253 199.022C254.642 200.913 254.085 202.624 253.618 204.063C253.347 204.746 253.138 205.453 252.992 206.173C253.371 205.54 253.679 204.868 253.912 204.168C254.409 202.903 255.042 201.154 255.675 199.157C256.308 197.161 256.798 195.39 257.114 194.041C257.325 193.336 257.462 192.611 257.521 191.878Z" fill="#E5E5E5"/>
<path d="M259.18 211.207C259.412 211.217 259.644 211.202 259.873 211.161C260.163 211.112 260.46 211.126 260.743 211.203C261.027 211.28 261.29 211.417 261.516 211.606C261.647 211.743 261.74 211.911 261.786 212.095C261.832 212.278 261.83 212.471 261.779 212.653C261.656 213.118 261.477 213.566 261.244 213.987C260.942 214.508 260.842 215.123 260.966 215.713C261.067 216.027 261.242 216.313 261.475 216.548C261.708 216.782 261.993 216.958 262.307 217.062C262.616 217.16 262.942 217.194 263.265 217.161C263.587 217.129 263.9 217.031 264.183 216.873C264.712 216.606 265.147 216.183 265.427 215.66C265.837 214.803 266.114 213.888 266.248 212.947C266.357 212.317 266.357 211.672 266.248 211.041C266.222 210.805 266.131 210.58 265.984 210.393C265.947 210.393 266.044 210.634 266.082 211.071C266.114 211.683 266.061 212.297 265.924 212.895C265.744 213.788 265.45 214.654 265.05 215.472C264.804 215.93 264.414 216.294 263.939 216.507C263.465 216.719 262.933 216.769 262.427 216.647C262.179 216.568 261.952 216.431 261.766 216.248C261.58 216.065 261.44 215.84 261.357 215.592C261.26 215.1 261.343 214.589 261.591 214.153C261.826 213.698 262.001 213.214 262.111 212.714C262.165 212.475 262.155 212.227 262.084 211.993C262.013 211.759 261.882 211.548 261.704 211.38C261.442 211.173 261.135 211.031 260.808 210.964C260.481 210.898 260.142 210.908 259.82 210.996C259.595 211.023 259.377 211.094 259.18 211.207Z" fill="#E5E5E5"/>
<path d="M264.098 216.542C264.098 216.542 263.955 216.738 263.97 217.152C263.985 217.455 264.073 217.749 264.225 218.011C264.377 218.273 264.589 218.496 264.844 218.659C265.231 218.879 265.669 218.995 266.114 218.995C266.559 218.995 266.996 218.879 267.383 218.659C268.315 218.125 269.001 217.249 269.297 216.218C269.626 215.209 269.626 214.122 269.297 213.113C269.03 212.298 268.549 211.569 267.903 211.003C267.478 210.623 266.985 210.326 266.449 210.129C266.072 209.993 265.846 209.971 265.839 210.001C266.513 210.318 267.138 210.732 267.692 211.229C268.325 211.846 268.771 212.628 268.982 213.485C269.192 214.343 269.158 215.243 268.883 216.082C268.613 217.008 268.009 217.8 267.188 218.305C266.859 218.5 266.486 218.609 266.104 218.621C265.721 218.633 265.342 218.547 265.002 218.373C264.781 218.239 264.589 218.061 264.44 217.85C264.291 217.638 264.187 217.398 264.136 217.145C264.075 216.73 264.136 216.542 264.098 216.542Z" fill="#E5E5E5"/>
<path d="M254.589 221.221C254.291 221.02 253.939 220.912 253.579 220.912C252.66 220.823 251.737 221.043 250.957 221.538L251.281 221.756C251.382 221.259 251.453 220.755 251.492 220.249C251.756 217.333 250.829 215.095 250.738 215.148C251.028 216.819 251.137 218.517 251.062 220.211C251.026 220.692 250.963 221.17 250.874 221.643L250.783 222.133L251.198 221.862C251.902 221.396 252.727 221.147 253.572 221.146C253.909 221.191 254.249 221.217 254.589 221.221Z" fill="#E5E5E5"/>
<path d="M260.535 203.347C260.415 203.347 260.581 204.251 261.379 204.945C262.178 205.638 263.075 205.698 263.075 205.57C263.075 205.442 262.359 205.231 261.673 204.613C260.987 203.995 260.686 203.302 260.535 203.347Z" fill="#E5E5E5"/>
<path d="M171.352 312.001L201.23 312.295L196.203 290.615L197.884 294.707C199.427 298.492 202.062 301.731 205.453 304.013C208.845 306.294 212.839 307.514 216.926 307.517C226.375 307.517 232.909 300.487 236.902 291.926C246.246 271.912 255.251 239.683 255.251 239.683L237.038 223.678C223.851 248.62 211.463 270.277 211.463 270.277C211.463 270.277 207.883 259.403 205.118 249.705C202.352 240.007 202.375 234.898 198.133 230.06C191.599 222.623 182.308 220.769 173.657 218.546L173.333 258.74L171.352 311.971" fill="#FFCC00"/>
<path d="M137.187 282.01L191.593 292.605L194.238 313.508H110.821C108.537 313.535 106.273 313.086 104.172 312.189C102.072 311.292 100.181 309.967 98.6213 308.299C97.0615 306.63 95.8665 304.655 95.1126 302.499C94.3587 300.343 94.0624 298.054 94.2427 295.777C95.4408 280.548 96.7445 261.777 97.7391 253.842C98.4927 247.663 100.972 241.266 103.896 235.757C108.108 227.83 122.146 217.672 134.452 217.145L136.78 268.966" fill="#FFCC00"/>
<path d="M126.827 280.495C126.808 280.33 126.808 280.163 126.827 279.998C126.827 279.629 126.827 279.161 126.827 278.574C126.827 277.285 126.827 275.507 126.827 273.299C126.827 268.875 126.744 262.749 126.405 256.02C126.232 252.652 126.013 249.442 125.78 246.525C125.669 243.943 125.303 241.379 124.687 238.869C124.256 237.194 123.435 235.645 122.291 234.348C121.838 233.899 121.357 233.479 120.852 233.09C121.429 233.382 121.952 233.772 122.396 234.243C123.619 235.528 124.497 237.101 124.951 238.817C125.613 241.336 126.012 243.916 126.141 246.518C126.398 249.434 126.624 252.644 126.797 256.02C127.144 262.802 127.181 268.898 127.106 273.351C127.061 275.559 127 277.353 126.948 278.589L126.865 280.013C126.874 280.175 126.861 280.337 126.827 280.495Z" fill="#141414"/>
<path d="M190.54 294.082C189.964 293.45 189.296 292.909 188.558 292.477C187.679 291.997 186.746 291.626 185.778 291.369C184.655 291.045 183.336 290.796 181.882 290.502C176.065 289.319 168.039 287.669 159.148 285.981C150.256 284.293 142.163 282.967 136.308 282.04L129.368 280.925L127.484 280.608C127.262 280.581 127.043 280.536 126.828 280.473C127.05 280.474 127.272 280.494 127.491 280.533L129.39 280.774C131.033 280.992 133.414 281.324 136.345 281.761C142.216 282.635 150.316 283.931 159.215 285.597C168.115 287.262 176.14 288.95 181.935 290.208C183.389 290.525 184.708 290.789 185.838 291.135C186.817 291.412 187.756 291.812 188.634 292.326C189.196 292.647 189.704 293.054 190.141 293.531C190.255 293.652 190.361 293.781 190.457 293.916C190.493 293.967 190.52 294.023 190.54 294.082Z" fill="#141414"/>
<path d="M126.994 280.495C126.994 280.563 125.992 280.804 124.44 281.429C123.533 281.807 122.652 282.242 121.802 282.733C120.774 283.346 119.794 284.036 118.871 284.798C117.958 285.572 117.109 286.419 116.331 287.33C115.698 288.079 115.119 288.872 114.598 289.703C113.709 291.12 113.302 292.085 113.234 292.054C113.282 291.812 113.361 291.576 113.468 291.354C113.725 290.737 114.022 290.138 114.357 289.56C114.857 288.698 115.424 287.876 116.053 287.104C116.828 286.161 117.686 285.288 118.615 284.496C119.558 283.718 120.566 283.022 121.629 282.417C122.495 281.928 123.399 281.512 124.334 281.173C124.963 280.939 125.607 280.75 126.263 280.608C126.501 280.539 126.747 280.501 126.994 280.495Z" fill="#141414"/>
<path d="M197.244 293.516C197.191 293.349 197.153 293.178 197.131 293.004C197.07 292.62 196.988 292.122 196.89 291.497C196.679 290.193 196.4 288.309 196.083 285.973C195.45 281.309 194.682 274.843 194.034 267.685C193.386 260.526 193.001 254.031 192.79 249.321C192.685 246.97 192.625 245.063 192.594 243.752C192.594 243.119 192.594 242.622 192.594 242.245C192.578 242.07 192.578 241.893 192.594 241.718C192.635 241.891 192.655 242.068 192.655 242.245L192.753 243.752C192.836 245.109 192.941 247 193.077 249.313C193.355 254.015 193.793 260.504 194.433 267.662C195.074 274.821 195.804 281.279 196.37 285.951C196.648 288.211 196.882 290.133 197.048 291.482C197.116 292.107 197.176 292.604 197.221 292.989C197.25 293.163 197.258 293.34 197.244 293.516Z" fill="#141414"/>
<path d="M215.288 285.416C215.288 285.416 215.114 285.25 214.851 284.918C214.487 284.437 214.152 283.933 213.848 283.411C211.827 279.957 210.895 275.973 211.173 271.98C211.211 271.38 211.292 270.783 211.414 270.194C211.441 269.974 211.497 269.759 211.58 269.554C211.648 269.554 211.505 270.496 211.452 271.995C211.326 275.929 212.236 279.827 214.089 283.298C214.798 284.61 215.348 285.378 215.288 285.416Z" fill="#141414"/>
<path d="M126.607 252.501C126.516 252.531 126.423 252.551 126.328 252.561C126.139 252.561 125.861 252.629 125.506 252.637C124.496 252.678 123.484 252.6 122.492 252.403C121.021 252.101 119.584 251.649 118.205 251.054C116.645 250.414 114.987 249.547 113.254 248.718C111.634 247.896 109.957 247.194 108.235 246.616C106.837 246.145 105.383 245.861 103.91 245.772C102.546 245.732 101.184 245.885 99.8633 246.224C99.9452 246.172 100.034 246.131 100.127 246.103C100.372 246 100.624 245.912 100.881 245.84C101.863 245.576 102.878 245.46 103.895 245.493C105.399 245.54 106.89 245.794 108.326 246.247C110.07 246.812 111.769 247.512 113.404 248.341C115.145 249.208 116.788 250.044 118.325 250.7C119.676 251.302 121.082 251.774 122.522 252.109C123.867 252.379 125.235 252.51 126.607 252.501Z" fill="#FAFAFA"/>
<path d="M135.921 250.662C134.474 251.107 132.992 251.425 131.49 251.612C130.002 251.931 128.489 252.123 126.969 252.184C128.415 251.739 129.898 251.419 131.4 251.227C132.887 250.908 134.4 250.719 135.921 250.662Z" fill="#FAFAFA"/>
<path d="M126.268 266.841C125.917 267.028 125.552 267.184 125.175 267.308C124.459 267.587 123.412 267.964 122.108 268.386C118.7 269.483 115.22 270.344 111.694 270.963C109.629 271.324 107.648 271.588 105.839 271.769C104.235 271.976 102.614 272.019 101.001 271.897C99.9063 271.814 98.8398 271.509 97.8665 271C97.5997 270.865 97.3473 270.704 97.113 270.518C96.9547 270.39 96.8718 270.322 96.8794 270.307C96.8869 270.292 97.2411 270.541 97.9268 270.865C98.9046 271.303 99.9542 271.558 101.024 271.618C102.617 271.698 104.214 271.625 105.794 271.4C107.595 271.204 109.562 270.933 111.619 270.571C115.128 269.947 118.6 269.126 122.018 268.114C123.329 267.73 124.384 267.361 125.115 267.157C125.488 267.016 125.874 266.91 126.268 266.841Z" fill="#FAFAFA"/>
<path d="M135.71 270.797C134.352 271.017 132.977 271.105 131.603 271.061C130.233 271.151 128.858 271.109 127.496 270.933C128.854 270.717 130.229 270.629 131.603 270.669C132.973 270.583 134.348 270.625 135.71 270.797Z" fill="#FAFAFA"/>
<path d="M96.9336 305.136C96.9416 305 96.9695 304.865 97.0165 304.737C97.0918 304.435 97.1973 304.058 97.3179 303.606C97.3857 303.35 97.4611 303.079 97.544 302.785C97.6269 302.491 97.77 302.182 97.8906 301.843C98.1629 301.074 98.4748 300.319 98.825 299.582L99.4354 298.294C99.6539 297.849 99.9327 297.412 100.189 296.945C100.755 295.953 101.374 294.992 102.043 294.066C105.127 289.816 109.139 286.324 113.775 283.856C114.86 283.328 115.87 282.793 116.88 282.424C117.385 282.228 117.852 282.01 118.327 281.859L119.691 281.429C120.472 281.181 121.267 280.977 122.072 280.819C122.426 280.744 122.75 280.661 123.051 280.608L123.895 280.495L125.056 280.352C125.191 280.332 125.328 280.332 125.463 280.352C125.334 280.402 125.2 280.437 125.063 280.457L123.918 280.668L123.089 280.819C122.788 280.879 122.464 280.97 122.117 281.06C121.325 281.236 120.542 281.455 119.774 281.716L118.432 282.168C117.965 282.326 117.498 282.545 117.008 282.748C115.963 283.178 114.942 283.664 113.949 284.203C111.683 285.453 109.549 286.93 107.581 288.611C105.639 290.328 103.872 292.234 102.306 294.3C101.628 295.287 100.958 296.199 100.445 297.133C100.181 297.593 99.9026 298.023 99.6916 298.46L99.0586 299.726C98.6291 300.524 98.3653 301.3 98.079 301.986C97.9509 302.318 97.8152 302.627 97.7097 302.913L97.446 303.719L97.0768 304.82C97.0407 304.93 96.9927 305.036 96.9336 305.136Z" fill="#FAFAFA"/>
<path d="M134.72 281.987C133.46 283.082 132.413 284.4 131.631 285.875C130.809 287.488 130.225 289.212 129.898 290.992C129.521 293.183 129.282 295.395 129.182 297.616C129.088 299.856 128.836 302.087 128.428 304.292C128.059 306.095 127.422 307.833 126.537 309.446C125.93 310.532 125.154 311.513 124.239 312.355C124.002 312.578 123.75 312.785 123.485 312.973C123.394 313.05 123.292 313.113 123.184 313.161C124.465 312.086 125.534 310.78 126.333 309.311C127.168 307.707 127.767 305.991 128.112 304.217C128.513 302.029 128.765 299.816 128.865 297.593C128.963 295.355 129.215 293.127 129.619 290.924C129.969 289.116 130.588 287.371 131.458 285.747C132.05 284.654 132.813 283.662 133.718 282.809C133.957 282.584 134.209 282.372 134.472 282.176C134.547 282.103 134.63 282.04 134.72 281.987Z" fill="#FAFAFA"/>
<path d="M147.587 313.636C147.482 313.636 147.587 307.133 147.866 299.13C148.145 291.128 148.431 284.64 148.537 284.64C148.642 284.64 148.537 291.135 148.258 299.145C147.979 307.155 147.693 313.636 147.587 313.636Z" fill="#FAFAFA"/>
<path d="M168.036 312.513C167.895 312.214 167.784 311.901 167.705 311.579C167.607 311.27 167.494 310.893 167.396 310.449C167.298 310.004 167.162 309.499 167.079 308.941C166.844 307.612 166.711 306.267 166.68 304.918C166.653 303.264 166.759 301.611 166.996 299.974C167.257 298.34 167.651 296.73 168.172 295.159C168.608 293.883 169.14 292.641 169.762 291.444C170.01 290.924 170.289 290.48 170.515 290.088C170.709 289.748 170.92 289.418 171.148 289.101C171.319 288.815 171.518 288.547 171.744 288.302C171.811 288.347 170.99 289.515 170.003 291.565C169.419 292.766 168.915 294.004 168.496 295.272C167.465 298.38 166.956 301.636 166.989 304.91C167.005 306.244 167.108 307.576 167.298 308.896C167.69 311.134 168.112 312.498 168.036 312.513Z" fill="#FAFAFA"/>
<path d="M133.338 229.231C133.338 229.292 132.147 228.772 130.188 228.139C125.085 226.489 119.676 226.012 114.363 226.745C112.329 227.024 111.085 227.333 111.07 227.265C111.34 227.134 111.627 227.041 111.922 226.986C112.71 226.768 113.51 226.594 114.318 226.466C119.659 225.572 125.14 226.046 130.248 227.845C131.017 228.118 131.771 228.43 132.509 228.779C132.802 228.896 133.08 229.048 133.338 229.231Z" fill="#FAFAFA"/>
<path d="M192.865 260.91C191.935 260.972 191.001 260.972 190.07 260.91C188.344 260.843 185.963 260.752 183.333 260.684C180.703 260.617 178.322 260.594 176.596 260.571C175.664 260.601 174.73 260.57 173.801 260.481C174.046 260.412 174.3 260.379 174.554 260.383C175.037 260.383 175.737 260.323 176.604 260.293C178.33 260.24 180.711 260.225 183.348 260.293C185.986 260.36 188.367 260.496 190.13 260.632C190.989 260.699 191.682 260.767 192.165 260.82C192.401 260.825 192.636 260.856 192.865 260.91Z" fill="#FAFAFA"/>
<path d="M207.71 258.1C207.71 258.16 206.768 258.492 205.298 259.215C201.454 261.106 198.198 264.008 195.879 267.609C194.99 268.981 194.56 269.87 194.5 269.87C194.544 269.633 194.625 269.404 194.741 269.192C195.005 268.593 195.307 268.012 195.645 267.451C196.753 265.59 198.141 263.91 199.76 262.47C201.376 261.029 203.203 259.842 205.178 258.951C205.773 258.683 206.385 258.452 207.009 258.258C207.232 258.167 207.469 258.114 207.71 258.1Z" fill="#FAFAFA"/>
<path d="M200.4 233.941C199.103 233.897 197.808 234.078 196.572 234.476C195.24 234.945 193.947 235.519 192.706 236.194C191.177 237.042 189.579 237.761 187.929 238.342C184.88 239.321 181.637 239.533 178.487 238.96C177.542 238.781 176.612 238.529 175.706 238.206C175.369 238.096 175.043 237.952 174.734 237.777C175.974 238.141 177.232 238.443 178.502 238.681C181.608 239.17 184.784 238.925 187.778 237.965C189.41 237.391 190.995 236.691 192.518 235.87C193.781 235.204 195.1 234.649 196.459 234.212C197.384 233.917 198.352 233.779 199.323 233.805C199.575 233.807 199.827 233.83 200.076 233.873C200.28 233.873 200.4 233.926 200.4 233.941Z" fill="#FAFAFA"/>
<path d="M196.631 284.451C196.355 284.616 196.062 284.752 195.757 284.858C195.471 284.979 195.117 285.122 194.695 285.257C194.273 285.393 193.798 285.574 193.263 285.71C192.002 286.065 190.718 286.332 189.42 286.508C186.238 286.936 183.008 286.839 179.858 286.222C178.579 285.97 177.32 285.627 176.09 285.197C175.555 285.024 175.095 284.82 174.688 284.655C174.334 284.52 173.986 284.367 173.648 284.195C173.352 284.067 173.067 283.913 172.797 283.735C172.797 283.667 174.07 284.263 176.18 284.933C177.417 285.319 178.675 285.631 179.948 285.868C183.066 286.437 186.252 286.531 189.397 286.147C190.682 285.989 191.955 285.752 193.21 285.438C195.313 284.903 196.586 284.361 196.631 284.451Z" fill="#FAFAFA"/>
<path d="M213.965 306.749C213.858 306.681 213.759 306.6 213.671 306.507C213.498 306.334 213.212 306.1 212.918 305.754C212.008 304.781 211.209 303.709 210.537 302.559C208.361 298.706 207.204 294.362 207.176 289.937C207.181 285.546 207.756 281.174 208.886 276.931C209.293 275.296 209.64 273.992 209.919 273.088C210.047 272.673 210.152 272.334 210.235 272.055C210.262 271.931 210.308 271.811 210.371 271.701C210.369 271.829 210.349 271.956 210.311 272.078C210.243 272.357 210.167 272.703 210.069 273.125C209.843 274.097 209.534 275.386 209.158 276.991C208.112 281.225 207.578 285.569 207.568 289.929C207.576 294.297 208.658 298.595 210.717 302.446C211.363 303.597 212.12 304.682 212.978 305.686C213.581 306.349 213.965 306.718 213.965 306.749Z" fill="#FAFAFA"/>
<path d="M241.349 281.158C240.143 280.206 238.799 279.444 237.363 278.898C235.791 278.353 234.179 277.935 232.541 277.647C230.507 277.297 228.494 276.834 226.512 276.26C222.942 275.101 219.682 273.146 216.98 270.541C216.164 269.752 215.408 268.903 214.719 268.001C214.471 267.685 214.305 267.421 214.184 267.248C214.064 267.074 214.011 266.977 214.026 266.969C214.316 267.266 214.588 267.581 214.84 267.911C215.565 268.767 216.343 269.577 217.168 270.337C219.886 272.858 223.117 274.76 226.64 275.914C228.705 276.569 230.747 276.916 232.601 277.315C234.254 277.625 235.878 278.076 237.454 278.664C238.519 279.065 239.52 279.621 240.423 280.314C240.669 280.499 240.901 280.704 241.116 280.925C241.289 281.068 241.365 281.151 241.349 281.158Z" fill="#FAFAFA"/>
<path d="M249.971 256.012C249.678 255.808 249.408 255.573 249.165 255.312C248.916 255.078 248.615 254.792 248.238 254.483C247.861 254.174 247.484 253.789 246.972 253.42C245.859 252.522 244.691 251.694 243.476 250.941C241.98 250.029 240.425 249.221 238.819 248.522C237.206 247.847 235.549 247.28 233.86 246.827C232.474 246.47 231.067 246.196 229.648 246.005C229.045 245.907 228.495 245.877 228.013 245.824C227.531 245.772 227.109 245.742 226.77 245.727C226.413 245.73 226.057 245.697 225.707 245.629C226.059 245.579 226.415 245.561 226.77 245.576C227.189 245.555 227.609 245.555 228.028 245.576C228.51 245.576 229.075 245.621 229.686 245.704C231.121 245.853 232.544 246.105 233.943 246.457C237.39 247.301 240.674 248.706 243.664 250.617C244.886 251.39 246.052 252.248 247.153 253.187C247.628 253.571 248.027 253.94 248.389 254.294C248.75 254.649 249.037 254.927 249.27 255.184C249.528 255.438 249.763 255.716 249.971 256.012Z" fill="#FAFAFA"/>
<path d="M184.034 221.425C183.594 221.724 183.111 221.955 182.603 222.111C181.414 222.577 180.192 222.955 178.948 223.241C177.708 223.531 176.449 223.735 175.18 223.851C174.656 223.93 174.122 223.93 173.598 223.851C173.598 223.738 175.986 223.535 178.872 222.857C181.759 222.178 183.989 221.312 184.034 221.425Z" fill="#FAFAFA"/>
<path d="M210.763 327.561C210.858 327.897 210.869 328.252 210.793 328.593C210.718 328.934 210.558 329.251 210.329 329.515C210.101 329.78 209.809 329.982 209.482 330.106C209.155 330.229 208.803 330.269 208.457 330.221C208.055 330.164 207.679 329.99 207.374 329.723C207.069 329.455 206.848 329.105 206.739 328.714L206.098 326.341H206.196C206.261 326.682 206.244 327.035 206.147 327.369C206.049 327.702 205.873 328.008 205.634 328.261C205.395 328.513 205.099 328.705 204.771 328.821C204.443 328.936 204.092 328.972 203.747 328.925C202.76 328.925 201.908 327.486 201.622 326.725C200.877 326.797 200.126 326.664 199.451 326.34C198.777 326.016 198.203 325.513 197.794 324.886L193.371 317.984L185.18 311.993L190.138 294.292L207.763 305.709C208.457 306.244 208.562 306.462 209.662 307.487L221.041 317.954C219.752 318.707 218.66 318.67 216.866 317.954C215.073 317.238 207.221 311.925 207.221 311.925L210.763 327.494" fill="white"/>
<path d="M195.685 312.995C195.685 312.995 195.888 313.086 196.205 313.304L196.792 313.711C197.072 313.886 197.325 314.099 197.546 314.344C197.807 314.647 198.011 314.994 198.149 315.369C198.284 315.761 198.428 316.175 198.578 316.597L199.543 319.431C200.213 321.45 200.801 323.281 201.208 324.608C201.465 325.315 201.66 326.044 201.788 326.785C201.446 326.113 201.164 325.412 200.944 324.69C200.47 323.387 199.837 321.571 199.166 319.559C198.842 318.557 198.525 317.607 198.232 316.718L197.84 315.475C197.727 315.129 197.556 314.806 197.335 314.518C197.144 314.282 196.927 314.07 196.687 313.885L196.144 313.425C195.82 313.169 195.67 312.995 195.685 312.995Z" fill="#E5E5E5"/>
<path d="M206.288 326.748C206.174 326.508 206.09 326.255 206.039 325.994C205.881 325.436 205.693 324.758 205.474 323.975C204.992 322.272 204.351 319.913 203.53 317.351C202.709 314.789 201.849 312.483 200.817 311.066C200.432 310.5 199.944 310.012 199.378 309.627C198.963 309.371 198.7 309.296 198.707 309.258C198.715 309.22 198.783 309.258 198.911 309.258C199.099 309.306 199.282 309.377 199.453 309.469C200.079 309.815 200.622 310.293 201.043 310.87C202.166 312.302 203.07 314.638 203.899 317.2C204.728 319.762 205.331 322.151 205.738 323.877C205.941 324.743 206.092 325.444 206.19 325.926C206.265 326.193 206.298 326.47 206.288 326.748Z" fill="#E5E5E5"/>
<path d="M210.837 327.818C210.699 327.569 210.595 327.303 210.528 327.026C210.34 326.424 210.106 325.693 209.827 324.826C209.255 322.972 208.493 320.395 207.672 317.539C206.851 314.683 206.165 312.189 205.6 310.23C205.405 309.504 204.983 308.859 204.394 308.391C204.156 308.238 203.903 308.106 203.641 307.999C203.715 307.981 203.792 307.981 203.867 307.999C204.077 308.05 204.278 308.134 204.462 308.248C205.118 308.702 205.604 309.362 205.841 310.124C206.459 311.986 207.19 314.563 208.026 317.419C208.863 320.275 209.571 322.859 210.076 324.736C210.302 325.617 210.498 326.363 210.649 326.996C210.739 327.263 210.802 327.538 210.837 327.818Z" fill="#E5E5E5"/>
<path d="M317.957 164.412C317.957 164.933 318.112 165.443 318.402 165.877C318.691 166.311 319.103 166.649 319.585 166.848C320.067 167.048 320.597 167.1 321.109 166.998C321.621 166.897 322.091 166.645 322.459 166.277C322.828 165.908 323.079 165.438 323.181 164.926C323.283 164.415 323.231 163.884 323.031 163.402C322.831 162.92 322.493 162.508 322.06 162.219C321.626 161.929 321.116 161.774 320.594 161.774C319.895 161.774 319.224 162.052 318.73 162.547C318.235 163.041 317.957 163.712 317.957 164.412Z" fill="#282828"/>
<path d="M309.997 167.049C311.453 167.049 312.634 165.868 312.634 164.412C312.634 162.955 311.453 161.774 309.997 161.774C308.54 161.774 307.359 162.955 307.359 164.412C307.359 165.868 308.54 167.049 309.997 167.049Z" fill="#282828"/>
<path d="M296.854 163.093C296.593 163.545 296.472 164.063 296.506 164.584C296.54 165.105 296.727 165.603 297.045 166.017C297.362 166.431 297.795 166.742 298.289 166.91C298.783 167.078 299.316 167.095 299.82 166.96C300.324 166.825 300.776 166.544 301.12 166.152C301.464 165.759 301.684 165.274 301.752 164.757C301.82 164.24 301.734 163.714 301.503 163.246C301.272 162.778 300.908 162.389 300.456 162.128C300.156 161.954 299.825 161.841 299.482 161.795C299.138 161.75 298.789 161.772 298.454 161.862C298.12 161.951 297.806 162.106 297.531 162.318C297.257 162.529 297.026 162.792 296.854 163.093Z" fill="#282828"/>
<path d="M309.833 133.607C309.658 133.588 309.481 133.588 309.306 133.607H307.738C307.392 133.607 306.985 133.607 306.578 133.659L305.199 133.855L303.586 134.089L301.778 134.533C298.677 135.317 295.727 136.606 293.044 138.346C289.072 140.876 285.73 144.28 283.275 148.299C280.82 152.317 279.316 156.844 278.878 161.533C278.759 162.939 278.731 164.351 278.795 165.76C278.847 166.514 278.832 167.2 278.938 167.923C279.043 168.646 279.156 169.37 279.262 170.093C279.809 173.089 280.8 175.987 282.201 178.691C283.687 181.532 285.578 184.141 287.815 186.438C290.197 188.78 292.927 190.74 295.908 192.247C298.992 193.826 302.332 194.846 305.772 195.262C306.642 195.398 307.521 195.473 308.401 195.488C309.287 195.552 310.175 195.567 311.061 195.533C316.742 195.319 322.255 193.549 326.999 190.416H326.682L337.481 194.749L338.121 195.005L337.94 194.342C336.85 190.379 335.79 186.531 334.76 182.798L334.708 183.084C337.638 179.199 339.612 174.679 340.472 169.89C340.886 167.654 341.027 165.377 340.894 163.108C340.869 162.019 340.765 160.934 340.585 159.86L340.337 158.278C340.246 157.758 340.088 157.26 339.96 156.771C338.151 149.671 333.878 143.446 327.903 139.205C325.698 137.627 323.287 136.359 320.737 135.438L319.117 134.858L317.61 134.473L316.208 134.127C315.756 134.036 315.319 133.991 314.912 133.931C314.098 133.825 313.405 133.682 312.749 133.652H311.175H310.202C310.093 133.635 309.981 133.635 309.871 133.652C309.98 133.676 310.091 133.692 310.202 133.697L311.167 133.772L312.742 133.878C313.367 133.923 314.076 134.081 314.889 134.202C320.735 135.22 326.161 137.908 330.513 141.942C334.864 145.976 337.954 151.184 339.41 156.936C339.523 157.441 339.681 157.931 339.772 158.443C339.862 158.956 339.922 159.476 340.005 159.996C340.177 161.05 340.273 162.115 340.291 163.183C340.41 165.401 340.263 167.624 339.854 169.807C338.993 174.495 337.045 178.916 334.165 182.715L334.067 182.843L334.112 183.001C335.117 186.729 336.167 190.58 337.262 194.553L337.722 194.146L326.924 189.798L326.758 189.731L326.6 189.836C321.966 192.899 316.581 194.632 311.031 194.847C310.165 194.885 309.296 194.87 308.432 194.802C307.571 194.79 306.712 194.717 305.862 194.583C302.498 194.18 299.232 193.182 296.217 191.637C293.3 190.161 290.627 188.248 288.289 185.963C286.097 183.73 284.24 181.192 282.773 178.427C281.397 175.783 280.419 172.949 279.872 170.018C279.759 169.302 279.646 168.586 279.541 167.885C279.435 167.185 279.45 166.461 279.398 165.76C279.327 164.379 279.347 162.995 279.458 161.616C279.866 156.999 281.321 152.536 283.712 148.566C286.102 144.595 289.366 141.221 293.255 138.701C295.894 136.955 298.797 135.647 301.853 134.827L303.632 134.353L305.229 134.089L306.6 133.863C307.015 133.818 307.399 133.81 307.746 133.78L309.306 133.667C309.483 133.658 309.659 133.638 309.833 133.607Z" fill="#282828"/>
</svg>
